<?xml version="1.0" encoding="UTF-8" standalone="no"?>
<!DOCTYPE svg PUBLIC "-//W3C//DTD SVG 1.1//EN"
 "http://www.w3.org/Graphics/SVG/1.1/DTD/svg11.dtd">
<!-- Generated by graphviz version 2.36.0 (20140111.2315)
 -->
<!-- Title: Workflow Pages: 1 -->
<svg width="994pt" height="1284pt"
 viewBox="0.00 0.00 994.00 1284.00" xmlns="http://www.w3.org/2000/svg" xmlns:xlink="http://www.w3.org/1999/xlink">
<g id="graph0" class="graph" transform="scale(1 1) rotate(0) translate(4 1280)">
<title>Workflow</title>
<polygon fill="white" stroke="none" points="-4,4 -4,-1280 990,-1280 990,4 -4,4"/>
<text text-anchor="middle" x="493" y="-1257.6" font-family="Helvetica,sans-Serif" font-size="18.00">BranchingWorkflow</text>
<g id="clust1" class="cluster"><title>cluster_workflow_box_outer</title>
<polygon fill="none" stroke="black" stroke-width="2" points="8,-62 8,-1186 978,-1186 978,-62 8,-62"/>
</g>
<g id="clust2" class="cluster"><title>cluster_workflow_box_inner</title>
<polygon fill="none" stroke="black" stroke-width="0" points="16,-70 16,-1178 970,-1178 970,-70 16,-70"/>
</g>
<g id="clust3" class="cluster"><title>cluster_input_ports_group_outer</title>
<polygon fill="none" stroke="black" stroke-width="0" points="238,-1194 238,-1240 316,-1240 316,-1194 238,-1194"/>
</g>
<g id="clust4" class="cluster"><title>cluster_input_ports_group_inner</title>
<polygon fill="none" stroke="black" stroke-width="0" points="246,-1202 246,-1232 308,-1232 308,-1202 246,-1202"/>
</g>
<g id="clust5" class="cluster"><title>cluster_output_ports_group_outer</title>
<polygon fill="none" stroke="black" stroke-width="0" points="484,-8 484,-54 562,-54 562,-8 484,-8"/>
</g>
<g id="clust6" class="cluster"><title>cluster_output_ports_group_inner</title>
<polygon fill="none" stroke="black" stroke-width="0" points="492,-16 492,-46 554,-46 554,-16 492,-16"/>
</g>
<!-- Setup -->
<g id="node1" class="node"><title>Setup</title>
<polygon fill="#ccffcc" stroke="black" points="197,-1086 143,-1086 143,-1050 197,-1050 197,-1086"/>
<text text-anchor="middle" x="170" y="-1064.3" font-family="Helvetica,sans-Serif" font-size="14.00">Setup</text>
</g>
<!-- OccurrenceFile -->
<g id="node11" class="node"><title>OccurrenceFile</title>
<path fill="#ffffcc" stroke="black" d="M225,-967C225,-967 431,-967 431,-967 437,-967 443,-973 443,-979 443,-979 443,-1001 443,-1001 443,-1007 437,-1013 431,-1013 431,-1013 225,-1013 225,-1013 219,-1013 213,-1007 213,-1001 213,-1001 213,-979 213,-979 213,-973 219,-967 225,-967"/>
<text text-anchor="middle" x="328" y="-997.8" font-family="Helvetica,sans-Serif" font-size="14.00">OccurrenceFile</text>
<polyline fill="none" stroke="black" points="213,-990 443,-990 "/>
<text text-anchor="middle" x="328" y="-974.8" font-family="Helvetica,sans-Serif" font-size="14.00">file:{workspace}/darwinized_file.txt</text>
</g>
<!-- Setup&#45;&gt;OccurrenceFile -->
<g id="edge2" class="edge"><title>Setup&#45;&gt;OccurrenceFile</title>
<path fill="none" stroke="black" d="M197.161,-1053.94C217.907,-1043.96 247.191,-1029.87 272.797,-1017.55"/>
<polygon fill="black" stroke="black" points="274.547,-1020.6 282.041,-1013.11 271.512,-1014.29 274.547,-1020.6"/>
</g>
<!-- Workspace -->
<g id="node18" class="node"><title>Workspace</title>
<path fill="#ffffcc" stroke="black" d="M117.25,-930C117.25,-930 54.75,-930 54.75,-930 48.75,-930 42.75,-924 42.75,-918 42.75,-918 42.75,-906 42.75,-906 42.75,-900 48.75,-894 54.75,-894 54.75,-894 117.25,-894 117.25,-894 123.25,-894 129.25,-900 129.25,-906 129.25,-906 129.25,-918 129.25,-918 129.25,-924 123.25,-930 117.25,-930"/>
<text text-anchor="middle" x="86" y="-908.3" font-family="Helvetica,sans-Serif" font-size="14.00">Workspace</text>
</g>
<!-- Setup&#45;&gt;Workspace -->
<g id="edge1" class="edge"><title>Setup&#45;&gt;Workspace</title>
<path fill="none" stroke="black" d="M160.69,-1049.93C146.057,-1023.1 117.57,-970.878 100.318,-939.249"/>
<polygon fill="black" stroke="black" points="103.213,-937.249 95.3521,-930.146 97.0681,-940.601 103.213,-937.249"/>
</g>
<!-- FileToDataStream -->
<g id="node2" class="node"><title>FileToDataStream</title>
<polygon fill="#ccffcc" stroke="black" points="537,-930 407,-930 407,-894 537,-894 537,-930"/>
<text text-anchor="middle" x="472" y="-908.3" font-family="Helvetica,sans-Serif" font-size="14.00">FileToDataStream</text>
</g>
<!-- DataRecord -->
<g id="node12" class="node"><title>DataRecord</title>
<path fill="#ffffcc" stroke="black" d="M514.25,-858C514.25,-858 447.75,-858 447.75,-858 441.75,-858 435.75,-852 435.75,-846 435.75,-846 435.75,-834 435.75,-834 435.75,-828 441.75,-822 447.75,-822 447.75,-822 514.25,-822 514.25,-822 520.25,-822 526.25,-828 526.25,-834 526.25,-834 526.25,-846 526.25,-846 526.25,-852 520.25,-858 514.25,-858"/>
<text text-anchor="middle" x="481" y="-836.3" font-family="Helvetica,sans-Serif" font-size="14.00">DataRecord</text>
</g>
<!-- FileToDataStream&#45;&gt;DataRecord -->
<g id="edge5" class="edge"><title>FileToDataStream&#45;&gt;DataRecord</title>
<path fill="none" stroke="black" d="M474.225,-893.697C475.217,-885.983 476.408,-876.712 477.514,-868.112"/>
<polygon fill="black" stroke="black" points="480.997,-868.469 478.801,-858.104 474.054,-867.576 480.997,-868.469"/>
</g>
<!-- EnvironmentTagger -->
<g id="node3" class="node"><title>EnvironmentTagger</title>
<polygon fill="#ccffcc" stroke="black" points="672.25,-786 533.75,-786 533.75,-750 672.25,-750 672.25,-786"/>
<text text-anchor="middle" x="603" y="-764.3" font-family="Helvetica,sans-Serif" font-size="14.00">EnvironmentTagger</text>
</g>
<!-- TaggedDataRecord -->
<g id="node13" class="node"><title>TaggedDataRecord</title>
<path fill="#ffffcc" stroke="black" d="M660.25,-714C660.25,-714 545.75,-714 545.75,-714 539.75,-714 533.75,-708 533.75,-702 533.75,-702 533.75,-690 533.75,-690 533.75,-684 539.75,-678 545.75,-678 545.75,-678 660.25,-678 660.25,-678 666.25,-678 672.25,-684 672.25,-690 672.25,-690 672.25,-702 672.25,-702 672.25,-708 666.25,-714 660.25,-714"/>
<text text-anchor="middle" x="603" y="-692.3" font-family="Helvetica,sans-Serif" font-size="14.00">TaggedDataRecord</text>
</g>
<!-- EnvironmentTagger&#45;&gt;TaggedDataRecord -->
<g id="edge8" class="edge"><title>EnvironmentTagger&#45;&gt;TaggedDataRecord</title>
<path fill="none" stroke="black" d="M603,-749.697C603,-741.983 603,-732.712 603,-724.112"/>
<polygon fill="black" stroke="black" points="606.5,-724.104 603,-714.104 599.5,-724.104 606.5,-724.104"/>
</g>
<!-- LogFile -->
<g id="node21" class="node"><title>LogFile</title>
<path fill="#ffffcc" stroke="black" d="M579,-379C579,-379 655,-379 655,-379 661,-379 667,-385 667,-391 667,-391 667,-413 667,-413 667,-419 661,-425 655,-425 655,-425 579,-425 579,-425 573,-425 567,-419 567,-413 567,-413 567,-391 567,-391 567,-385 573,-379 579,-379"/>
<text text-anchor="middle" x="617" y="-409.8" font-family="Helvetica,sans-Serif" font-size="14.00">LogFile</text>
<polyline fill="none" stroke="black" points="567,-402 667,-402 "/>
<text text-anchor="middle" x="617" y="-386.8" font-family="Helvetica,sans-Serif" font-size="14.00">file:runlog.log</text>
</g>
<!-- EnvironmentTagger&#45;&gt;LogFile -->
<g id="edge7" class="edge"><title>EnvironmentTagger&#45;&gt;LogFile</title>
<path fill="none" stroke="black" d="M672.45,-754.132C776.559,-732.833 961,-686.431 961,-625 961,-625 961,-625 961,-551 961,-428.868 775.77,-406.284 677.153,-402.916"/>
<polygon fill="black" stroke="black" points="677.116,-399.413 667.021,-402.626 676.917,-406.41 677.116,-399.413"/>
</g>
<!-- FilterToJustMarine -->
<g id="node4" class="node"><title>FilterToJustMarine</title>
<polygon fill="#ccffcc" stroke="black" points="782,-642 650,-642 650,-606 782,-606 782,-642"/>
<text text-anchor="middle" x="716" y="-620.3" font-family="Helvetica,sans-Serif" font-size="14.00">FilterToJustMarine</text>
</g>
<!-- &lt;MarineDataRecord[scientificName:scientificNameAuthorship]&gt; -->
<g id="node14" class="node"><title>&lt;MarineDataRecord[scientificName:scientificNameAuthorship]&gt;</title>
<path fill="#ffffcc" stroke="black" d="M909.25,-570C909.25,-570 522.75,-570 522.75,-570 516.75,-570 510.75,-564 510.75,-558 510.75,-558 510.75,-546 510.75,-546 510.75,-540 516.75,-534 522.75,-534 522.75,-534 909.25,-534 909.25,-534 915.25,-534 921.25,-540 921.25,-546 921.25,-546 921.25,-558 921.25,-558 921.25,-564 915.25,-570 909.25,-570"/>
<text text-anchor="middle" x="716" y="-548.3" font-family="Helvetica,sans-Serif" font-size="14.00">&lt;MarineDataRecord[scientificName:scientificNameAuthorship]&gt;</text>
</g>
<!-- FilterToJustMarine&#45;&gt;&lt;MarineDataRecord[scientificName:scientificNameAuthorship]&gt; -->
<g id="edge11" class="edge"><title>FilterToJustMarine&#45;&gt;&lt;MarineDataRecord[scientificName:scientificNameAuthorship]&gt;</title>
<path fill="none" stroke="black" d="M716,-605.697C716,-597.983 716,-588.712 716,-580.112"/>
<polygon fill="black" stroke="black" points="719.5,-580.104 716,-570.104 712.5,-580.104 719.5,-580.104"/>
</g>
<!-- FilterToJustMarine&#45;&gt;LogFile -->
<g id="edge10" class="edge"><title>FilterToJustMarine&#45;&gt;LogFile</title>
<path fill="none" stroke="black" d="M782.054,-619.182C858.241,-612.045 968.4,-591.699 930,-534 873.736,-449.459 751.312,-419.374 677.347,-408.74"/>
<polygon fill="black" stroke="black" points="677.624,-405.245 667.243,-407.364 676.68,-412.181 677.624,-405.245"/>
</g>
<!-- FilterExcludingMarine -->
<g id="node5" class="node"><title>FilterExcludingMarine</title>
<polygon fill="#ccffcc" stroke="black" points="566.25,-642 415.75,-642 415.75,-606 566.25,-606 566.25,-642"/>
<text text-anchor="middle" x="491" y="-620.3" font-family="Helvetica,sans-Serif" font-size="14.00">FilterExcludingMarine</text>
</g>
<!-- &lt;noMarineDataRecord[scientificName:scientificNameAuthorship]&gt; -->
<g id="node15" class="node"><title>&lt;noMarineDataRecord[scientificName:scientificNameAuthorship]&gt;</title>
<path fill="#ffffcc" stroke="black" d="M459.25,-570C459.25,-570 56.75,-570 56.75,-570 50.75,-570 44.75,-564 44.75,-558 44.75,-558 44.75,-546 44.75,-546 44.75,-540 50.75,-534 56.75,-534 56.75,-534 459.25,-534 459.25,-534 465.25,-534 471.25,-540 471.25,-546 471.25,-546 471.25,-558 471.25,-558 471.25,-564 465.25,-570 459.25,-570"/>
<text text-anchor="middle" x="258" y="-548.3" font-family="Helvetica,sans-Serif" font-size="14.00">&lt;noMarineDataRecord[scientificName:scientificNameAuthorship]&gt;</text>
</g>
<!-- FilterExcludingMarine&#45;&gt;&lt;noMarineDataRecord[scientificName:scientificNameAuthorship]&gt; -->
<g id="edge14" class="edge"><title>FilterExcludingMarine&#45;&gt;&lt;noMarineDataRecord[scientificName:scientificNameAuthorship]&gt;</title>
<path fill="none" stroke="black" d="M434.3,-605.966C401.32,-596.057 359.568,-583.514 324.974,-573.121"/>
<polygon fill="black" stroke="black" points="325.539,-569.636 314.955,-570.111 323.525,-576.34 325.539,-569.636"/>
</g>
<!-- FilterExcludingMarine&#45;&gt;LogFile -->
<g id="edge13" class="edge"><title>FilterExcludingMarine&#45;&gt;LogFile</title>
<path fill="none" stroke="black" d="M490.758,-605.699C491.041,-587.336 493.054,-557.748 502,-534 517.584,-492.63 552.829,-455.818 580.221,-431.833"/>
<polygon fill="black" stroke="black" points="582.753,-434.273 588.077,-425.113 578.203,-428.954 582.753,-434.273"/>
</g>
<!-- WoRMSLookup -->
<g id="node6" class="node"><title>WoRMSLookup</title>
<polygon fill="#ccffcc" stroke="black" points="674.25,-498 559.75,-498 559.75,-462 674.25,-462 674.25,-498"/>
<text text-anchor="middle" x="617" y="-476.3" font-family="Helvetica,sans-Serif" font-size="14.00">WoRMSLookup</text>
</g>
<!-- WoRMSOutput -->
<g id="node17" class="node"><title>WoRMSOutput</title>
<path fill="#ffffcc" stroke="black" d="M536.25,-420C536.25,-420 449.75,-420 449.75,-420 443.75,-420 437.75,-414 437.75,-408 437.75,-408 437.75,-396 437.75,-396 437.75,-390 443.75,-384 449.75,-384 449.75,-384 536.25,-384 536.25,-384 542.25,-384 548.25,-390 548.25,-396 548.25,-396 548.25,-408 548.25,-408 548.25,-414 542.25,-420 536.25,-420"/>
<text text-anchor="middle" x="493" y="-398.3" font-family="Helvetica,sans-Serif" font-size="14.00">WoRMSOutput</text>
</g>
<!-- WoRMSLookup&#45;&gt;WoRMSOutput -->
<g id="edge16" class="edge"><title>WoRMSLookup&#45;&gt;WoRMSOutput</title>
<path fill="none" stroke="black" d="M589.172,-461.944C571.665,-451.214 548.873,-437.245 529.871,-425.598"/>
<polygon fill="black" stroke="black" points="531.519,-422.503 521.164,-420.262 527.861,-428.472 531.519,-422.503"/>
</g>
<!-- WoRMSLookup&#45;&gt;LogFile -->
<g id="edge17" class="edge"><title>WoRMSLookup&#45;&gt;LogFile</title>
<path fill="none" stroke="black" d="M617,-461.754C617,-453.863 617,-444.249 617,-435.102"/>
<polygon fill="black" stroke="black" points="620.5,-435.091 617,-425.091 613.5,-435.091 620.5,-435.091"/>
</g>
<!-- GBIFLookup -->
<g id="node7" class="node"><title>GBIFLookup</title>
<polygon fill="#ccffcc" stroke="black" points="421.25,-498 326.75,-498 326.75,-462 421.25,-462 421.25,-498"/>
<text text-anchor="middle" x="374" y="-476.3" font-family="Helvetica,sans-Serif" font-size="14.00">GBIFLookup</text>
</g>
<!-- GBIFOutput -->
<g id="node16" class="node"><title>GBIFOutput</title>
<path fill="#ffffcc" stroke="black" d="M407.25,-420C407.25,-420 340.75,-420 340.75,-420 334.75,-420 328.75,-414 328.75,-408 328.75,-408 328.75,-396 328.75,-396 328.75,-390 334.75,-384 340.75,-384 340.75,-384 407.25,-384 407.25,-384 413.25,-384 419.25,-390 419.25,-396 419.25,-396 419.25,-408 419.25,-408 419.25,-414 413.25,-420 407.25,-420"/>
<text text-anchor="middle" x="374" y="-398.3" font-family="Helvetica,sans-Serif" font-size="14.00">GBIFOutput</text>
</g>
<!-- GBIFLookup&#45;&gt;GBIFOutput -->
<g id="edge19" class="edge"><title>GBIFLookup&#45;&gt;GBIFOutput</title>
<path fill="none" stroke="black" d="M374,-461.754C374,-452.523 374,-440.935 374,-430.495"/>
<polygon fill="black" stroke="black" points="377.5,-430.177 374,-420.177 370.5,-430.177 377.5,-430.177"/>
</g>
<!-- GBIFLookup&#45;&gt;LogFile -->
<g id="edge20" class="edge"><title>GBIFLookup&#45;&gt;LogFile</title>
<path fill="none" stroke="black" d="M421.352,-466.464C458.5,-456.347 511.377,-441.321 557,-426 557.099,-425.967 557.198,-425.933 557.298,-425.9"/>
<polygon fill="black" stroke="black" points="558.399,-429.223 566.697,-422.635 556.102,-422.61 558.399,-429.223"/>
</g>
<!-- StreamMerge -->
<g id="node8" class="node"><title>StreamMerge</title>
<polygon fill="#ccffcc" stroke="black" points="469.25,-342 368.75,-342 368.75,-306 469.25,-306 469.25,-342"/>
<text text-anchor="middle" x="419" y="-320.3" font-family="Helvetica,sans-Serif" font-size="14.00">StreamMerge</text>
</g>
<!-- MergedStream -->
<g id="node19" class="node"><title>MergedStream</title>
<path fill="#ffffcc" stroke="black" d="M461.25,-270C461.25,-270 376.75,-270 376.75,-270 370.75,-270 364.75,-264 364.75,-258 364.75,-258 364.75,-246 364.75,-246 364.75,-240 370.75,-234 376.75,-234 376.75,-234 461.25,-234 461.25,-234 467.25,-234 473.25,-240 473.25,-246 473.25,-246 473.25,-258 473.25,-258 473.25,-264 467.25,-270 461.25,-270"/>
<text text-anchor="middle" x="419" y="-248.3" font-family="Helvetica,sans-Serif" font-size="14.00">MergedStream</text>
</g>
<!-- StreamMerge&#45;&gt;MergedStream -->
<g id="edge22" class="edge"><title>StreamMerge&#45;&gt;MergedStream</title>
<path fill="none" stroke="black" d="M419,-305.697C419,-297.983 419,-288.712 419,-280.112"/>
<polygon fill="black" stroke="black" points="422.5,-280.104 419,-270.104 415.5,-280.104 422.5,-280.104"/>
</g>
<!-- CsvFileWriter -->
<g id="node9" class="node"><title>CsvFileWriter</title>
<polygon fill="#ccffcc" stroke="black" points="469,-198 369,-198 369,-162 469,-162 469,-198"/>
<text text-anchor="middle" x="419" y="-176.3" font-family="Helvetica,sans-Serif" font-size="14.00">CsvFileWriter</text>
</g>
<!-- OutputFile -->
<g id="node20" class="node"><title>OutputFile</title>
<path fill="#ffffcc" stroke="black" d="M330,-79C330,-79 554,-79 554,-79 560,-79 566,-85 566,-91 566,-91 566,-113 566,-113 566,-119 560,-125 554,-125 554,-125 330,-125 330,-125 324,-125 318,-119 318,-113 318,-113 318,-91 318,-91 318,-85 324,-79 330,-79"/>
<text text-anchor="middle" x="442" y="-109.8" font-family="Helvetica,sans-Serif" font-size="14.00">OutputFile</text>
<polyline fill="none" stroke="black" points="318,-102 566,-102 "/>
<text text-anchor="middle" x="442" y="-86.8" font-family="Helvetica,sans-Serif" font-size="14.00">file:{workspace}/mergedoutputfile.csv</text>
</g>
<!-- CsvFileWriter&#45;&gt;OutputFile -->
<g id="edge25" class="edge"><title>CsvFileWriter&#45;&gt;OutputFile</title>
<path fill="none" stroke="black" d="M424.219,-161.754C426.633,-153.778 429.579,-144.042 432.374,-134.808"/>
<polygon fill="black" stroke="black" points="435.768,-135.676 435.315,-125.091 429.068,-133.648 435.768,-135.676"/>
</g>
<!-- DarwinCoreFile -->
<g id="node10" class="node"><title>DarwinCoreFile</title>
<path fill="#ffffcc" stroke="black" d="M217.5,-1123C217.5,-1123 616.5,-1123 616.5,-1123 622.5,-1123 628.5,-1129 628.5,-1135 628.5,-1135 628.5,-1157 628.5,-1157 628.5,-1163 622.5,-1169 616.5,-1169 616.5,-1169 217.5,-1169 217.5,-1169 211.5,-1169 205.5,-1163 205.5,-1157 205.5,-1157 205.5,-1135 205.5,-1135 205.5,-1129 211.5,-1123 217.5,-1123"/>
<text text-anchor="middle" x="417" y="-1153.8" font-family="Helvetica,sans-Serif" font-size="14.00">DarwinCoreFile</text>
<polyline fill="none" stroke="black" points="205.5,-1146 628.5,-1146 "/>
<text text-anchor="middle" x="417" y="-1130.8" font-family="Helvetica,sans-Serif" font-size="14.00">file:packages/kurator_branching/data/kurator_sample_data_v2.txt</text>
</g>
<!-- DarwinCoreFile&#45;&gt;Setup -->
<g id="edge4" class="edge"><title>DarwinCoreFile&#45;&gt;Setup</title>
<path fill="none" stroke="black" d="M345.226,-1122.92C299.917,-1108.97 243.273,-1091.55 206.866,-1080.34"/>
<polygon fill="black" stroke="black" points="207.747,-1076.95 197.16,-1077.36 205.689,-1083.64 207.747,-1076.95"/>
</g>
<!-- OccurrenceFile&#45;&gt;FileToDataStream -->
<g id="edge6" class="edge"><title>OccurrenceFile&#45;&gt;FileToDataStream</title>
<path fill="none" stroke="black" d="M370.038,-966.813C389.157,-956.723 411.707,-944.821 430.733,-934.78"/>
<polygon fill="black" stroke="black" points="432.549,-937.779 439.759,-930.016 429.282,-931.588 432.549,-937.779"/>
</g>
<!-- DataRecord&#45;&gt;EnvironmentTagger -->
<g id="edge9" class="edge"><title>DataRecord&#45;&gt;EnvironmentTagger</title>
<path fill="none" stroke="black" d="M510.845,-821.876C526.944,-812.639 547.001,-801.131 564.288,-791.212"/>
<polygon fill="black" stroke="black" points="566.109,-794.202 573.041,-786.19 562.625,-788.131 566.109,-794.202"/>
</g>
<!-- TaggedDataRecord&#45;&gt;FilterToJustMarine -->
<g id="edge12" class="edge"><title>TaggedDataRecord&#45;&gt;FilterToJustMarine</title>
<path fill="none" stroke="black" d="M630.643,-677.876C645.418,-668.724 663.791,-657.342 679.703,-647.485"/>
<polygon fill="black" stroke="black" points="681.593,-650.431 688.251,-642.19 677.907,-644.481 681.593,-650.431"/>
</g>
<!-- TaggedDataRecord&#45;&gt;FilterExcludingMarine -->
<g id="edge15" class="edge"><title>TaggedDataRecord&#45;&gt;FilterExcludingMarine</title>
<path fill="none" stroke="black" d="M575.602,-677.876C561.093,-668.808 543.084,-657.552 527.415,-647.759"/>
<polygon fill="black" stroke="black" points="528.839,-644.522 518.504,-642.19 525.129,-650.458 528.839,-644.522"/>
</g>
<!-- &lt;MarineDataRecord[scientificName:scientificNameAuthorship]&gt;&#45;&gt;WoRMSLookup -->
<g id="edge18" class="edge"><title>&lt;MarineDataRecord[scientificName:scientificNameAuthorship]&gt;&#45;&gt;WoRMSLookup</title>
<path fill="none" stroke="black" d="M691.782,-533.876C679.077,-524.893 663.336,-513.763 649.577,-504.034"/>
<polygon fill="black" stroke="black" points="651.497,-501.105 641.311,-498.19 647.456,-506.821 651.497,-501.105"/>
</g>
<!-- &lt;noMarineDataRecord[scientificName:scientificNameAuthorship]&gt;&#45;&gt;GBIFLookup -->
<g id="edge21" class="edge"><title>&lt;noMarineDataRecord[scientificName:scientificNameAuthorship]&gt;&#45;&gt;GBIFLookup</title>
<path fill="none" stroke="black" d="M286.377,-533.876C301.544,-524.724 320.405,-513.342 336.739,-503.485"/>
<polygon fill="black" stroke="black" points="338.761,-506.353 345.514,-498.19 335.144,-500.36 338.761,-506.353"/>
</g>
<!-- GBIFOutput&#45;&gt;StreamMerge -->
<g id="edge23" class="edge"><title>GBIFOutput&#45;&gt;StreamMerge</title>
<path fill="none" stroke="black" d="M384.211,-383.754C389.965,-374.037 397.265,-361.708 403.69,-350.856"/>
<polygon fill="black" stroke="black" points="406.746,-352.565 408.829,-342.177 400.723,-348.999 406.746,-352.565"/>
</g>
<!-- WoRMSOutput&#45;&gt;StreamMerge -->
<g id="edge24" class="edge"><title>WoRMSOutput&#45;&gt;StreamMerge</title>
<path fill="none" stroke="black" d="M476.208,-383.754C466.368,-373.649 453.778,-360.718 442.915,-349.561"/>
<polygon fill="black" stroke="black" points="445.209,-346.9 435.725,-342.177 440.194,-351.784 445.209,-346.9"/>
</g>
<!-- Workspace&#45;&gt;CsvFileWriter -->
<g id="edge26" class="edge"><title>Workspace&#45;&gt;CsvFileWriter</title>
<path fill="none" stroke="black" d="M73.0635,-893.655C55.1575,-867.878 25,-817.296 25,-769 25,-769 25,-769 25,-323 25,-252.932 248.321,-207.881 358.702,-189.893"/>
<polygon fill="black" stroke="black" points="359.381,-193.329 368.699,-188.288 358.271,-186.418 359.381,-193.329"/>
</g>
<!-- MergedStream&#45;&gt;CsvFileWriter -->
<g id="edge27" class="edge"><title>MergedStream&#45;&gt;CsvFileWriter</title>
<path fill="none" stroke="black" d="M419,-233.697C419,-225.983 419,-216.712 419,-208.112"/>
<polygon fill="black" stroke="black" points="422.5,-208.104 419,-198.104 415.5,-208.104 422.5,-208.104"/>
</g>
<!-- OutputFile_output_port -->
<g id="node25" class="node"><title>OutputFile_output_port</title>
<ellipse fill="#ffffff" stroke="black" cx="507" cy="-31" rx="7" ry="7"/>
</g>
<!-- OutputFile&#45;&gt;OutputFile_output_port -->
<g id="edge30" class="edge"><title>OutputFile&#45;&gt;OutputFile_output_port</title>
<path fill="none" stroke="black" d="M462.924,-78.7882C473.722,-67.3263 486.48,-53.783 495.484,-44.2246"/>
<polygon fill="black" stroke="black" points="498.225,-46.4198 502.534,-36.741 493.129,-41.6199 498.225,-46.4198"/>
</g>
<!-- LogFile_output_port -->
<g id="node26" class="node"><title>LogFile_output_port</title>
<ellipse fill="#ffffff" stroke="black" cx="539" cy="-31" rx="7" ry="7"/>
</g>
<!-- LogFile&#45;&gt;LogFile_output_port -->
<g id="edge31" class="edge"><title>LogFile&#45;&gt;LogFile_output_port</title>
<path fill="none" stroke="black" d="M614.095,-378.98C610.544,-350.108 605,-297.855 605,-253 605,-253 605,-253 605,-179 605,-125.318 603.676,-107.382 575,-62 569.561,-53.3921 560.835,-46.0304 553.337,-40.7539"/>
<polygon fill="black" stroke="black" points="555.131,-37.746 544.835,-35.2485 551.327,-43.6217 555.131,-37.746"/>
</g>
<!-- InputFilePath -->
<g id="node22" class="node"><title>InputFilePath</title>
<path fill="#fcfcfc" stroke="black" d="M175.25,-1164C175.25,-1164 100.75,-1164 100.75,-1164 94.75,-1164 88.75,-1158 88.75,-1152 88.75,-1152 88.75,-1140 88.75,-1140 88.75,-1134 94.75,-1128 100.75,-1128 100.75,-1128 175.25,-1128 175.25,-1128 181.25,-1128 187.25,-1134 187.25,-1140 187.25,-1140 187.25,-1152 187.25,-1152 187.25,-1158 181.25,-1164 175.25,-1164"/>
<text text-anchor="middle" x="138" y="-1142.3" font-family="Helvetica,sans-Serif" font-size="14.00">InputFilePath</text>
</g>
<!-- InputFilePath&#45;&gt;Setup -->
<g id="edge3" class="edge"><title>InputFilePath&#45;&gt;Setup</title>
<path fill="none" stroke="black" d="M145.261,-1127.75C149.271,-1118.23 154.337,-1106.2 158.838,-1095.51"/>
<polygon fill="black" stroke="black" points="162.113,-1096.75 162.767,-1086.18 155.661,-1094.04 162.113,-1096.75"/>
</g>
<!-- InputFilePath_input_port -->
<g id="node23" class="node"><title>InputFilePath_input_port</title>
<ellipse fill="#ffffff" stroke="black" cx="261" cy="-1217" rx="7" ry="7"/>
</g>
<!-- InputFilePath_input_port&#45;&gt;InputFilePath -->
<g id="edge28" class="edge"><title>InputFilePath_input_port&#45;&gt;InputFilePath</title>
<path fill="none" stroke="black" d="M254.744,-1213.51C242.963,-1208.72 216.801,-1197.69 196,-1186 187.286,-1181.1 178.174,-1175.32 169.823,-1169.72"/>
<polygon fill="black" stroke="black" points="171.678,-1166.75 161.444,-1164.01 167.734,-1172.53 171.678,-1166.75"/>
</g>
<!-- DarwinCoreFile_input_port -->
<g id="node24" class="node"><title>DarwinCoreFile_input_port</title>
<ellipse fill="#ffffff" stroke="black" cx="293" cy="-1217" rx="7" ry="7"/>
</g>
<!-- DarwinCoreFile_input_port&#45;&gt;DarwinCoreFile -->
<g id="edge29" class="edge"><title>DarwinCoreFile_input_port&#45;&gt;DarwinCoreFile</title>
<path fill="none" stroke="black" d="M298.65,-1212.86C310.995,-1205.99 341.423,-1189.05 368.334,-1174.08"/>
<polygon fill="black" stroke="black" points="370.258,-1177.02 377.294,-1169.09 366.854,-1170.9 370.258,-1177.02"/>
</g>
</g>
</svg>
