<?xml version="1.0" encoding="UTF-8" standalone="no"?>
<!DOCTYPE svg PUBLIC "-//W3C//DTD SVG 1.1//EN"
 "http://www.w3.org/Graphics/SVG/1.1/DTD/svg11.dtd">
<!-- Generated by graphviz version 2.36.0 (20140111.2315)
 -->
<!-- Title: yw_data_view Pages: 1 -->
<svg width="476pt" height="1236pt"
 viewBox="0.00 0.00 476.00 1236.00" xmlns="http://www.w3.org/2000/svg" xmlns:xlink="http://www.w3.org/1999/xlink">
<g id="graph0" class="graph" transform="scale(1 1) rotate(0) translate(4 1232)">
<title>yw_data_view</title>
<polygon fill="white" stroke="none" points="-4,4 -4,-1232 472,-1232 472,4 -4,4"/>
<text text-anchor="middle" x="234" y="-1209.6" font-family="Courier,monospace" font-size="18.00">BranchingWorkflow</text>
<g id="clust5" class="cluster"><title>cluster_outflows</title>
<polygon fill="none" stroke="white" stroke-width="2" points="247,-8 247,-54 325,-54 325,-8 247,-8"/>
</g>
<g id="clust6" class="cluster"><title>cluster_outflows_inner</title>
<polygon fill="none" stroke="white" stroke-width="2" points="255,-16 255,-46 317,-46 317,-16 255,-16"/>
</g>
<g id="clust1" class="cluster"><title>cluster_workflow</title>
<polygon fill="none" stroke="black" stroke-width="2" points="8,-62 8,-1138 460,-1138 460,-62 8,-62"/>
</g>
<g id="clust2" class="cluster"><title>cluster_workflow_inner</title>
<polygon fill="none" stroke="white" stroke-width="2" points="16,-70 16,-1130 452,-1130 452,-70 16,-70"/>
</g>
<g id="clust3" class="cluster"><title>cluster_inflows</title>
<polygon fill="none" stroke="white" stroke-width="2" points="131,-1146 131,-1192 209,-1192 209,-1146 131,-1146"/>
</g>
<g id="clust4" class="cluster"><title>cluster_inflows_inner</title>
<polygon fill="none" stroke="white" stroke-width="2" points="139,-1154 139,-1184 201,-1184 201,-1154 139,-1154"/>
</g>
<!-- Setup -->
<g id="node1" class="node"><title>Setup</title>
<polygon fill="#ccffcc" stroke="black" points="153.25,-1050 94.75,-1050 94.75,-1014 153.25,-1014 153.25,-1050"/>
<text text-anchor="middle" x="124" y="-1028.3" font-family="Courier,monospace" font-size="14.00">Setup</text>
</g>
<!-- Workspace -->
<g id="node11" class="node"><title>Workspace</title>
<path fill="#ffffcc" stroke="black" d="M119.25,-906C119.25,-906 56.75,-906 56.75,-906 50.75,-906 44.75,-900 44.75,-894 44.75,-894 44.75,-882 44.75,-882 44.75,-876 50.75,-870 56.75,-870 56.75,-870 119.25,-870 119.25,-870 125.25,-870 131.25,-876 131.25,-882 131.25,-882 131.25,-894 131.25,-894 131.25,-900 125.25,-906 119.25,-906"/>
<text text-anchor="middle" x="88" y="-884.3" font-family="Helvetica,sans-Serif" font-size="14.00">Workspace</text>
</g>
<!-- Setup&#45;&gt;Workspace -->
<g id="edge13" class="edge"><title>Setup&#45;&gt;Workspace</title>
<path fill="none" stroke="black" d="M119.658,-1013.87C113.495,-989.564 102.151,-944.819 94.8484,-916.013"/>
<polygon fill="black" stroke="black" points="98.2081,-915.022 92.3578,-906.189 91.4227,-916.743 98.2081,-915.022"/>
</g>
<!-- OccurrenceFile -->
<g id="node12" class="node"><title>OccurrenceFile</title>
<path fill="#ffffcc" stroke="black" d="M252.25,-978C252.25,-978 165.75,-978 165.75,-978 159.75,-978 153.75,-972 153.75,-966 153.75,-966 153.75,-954 153.75,-954 153.75,-948 159.75,-942 165.75,-942 165.75,-942 252.25,-942 252.25,-942 258.25,-942 264.25,-948 264.25,-954 264.25,-954 264.25,-966 264.25,-966 264.25,-972 258.25,-978 252.25,-978"/>
<text text-anchor="middle" x="209" y="-956.3" font-family="Helvetica,sans-Serif" font-size="14.00">OccurrenceFile</text>
</g>
<!-- Setup&#45;&gt;OccurrenceFile -->
<g id="edge14" class="edge"><title>Setup&#45;&gt;OccurrenceFile</title>
<path fill="none" stroke="black" d="M145.011,-1013.7C155.716,-1004.88 168.89,-994.032 180.496,-984.474"/>
<polygon fill="black" stroke="black" points="182.736,-987.163 188.23,-978.104 178.286,-981.76 182.736,-987.163"/>
</g>
<!-- FileToDataStream -->
<g id="node2" class="node"><title>FileToDataStream</title>
<polygon fill="#ccffcc" stroke="black" points="351.25,-906 200.75,-906 200.75,-870 351.25,-870 351.25,-906"/>
<text text-anchor="middle" x="276" y="-884.3" font-family="Courier,monospace" font-size="14.00">FileToDataStream</text>
</g>
<!-- DataRecord -->
<g id="node13" class="node"><title>DataRecord</title>
<path fill="#ffffcc" stroke="black" d="M322.25,-834C322.25,-834 255.75,-834 255.75,-834 249.75,-834 243.75,-828 243.75,-822 243.75,-822 243.75,-810 243.75,-810 243.75,-804 249.75,-798 255.75,-798 255.75,-798 322.25,-798 322.25,-798 328.25,-798 334.25,-804 334.25,-810 334.25,-810 334.25,-822 334.25,-822 334.25,-828 328.25,-834 322.25,-834"/>
<text text-anchor="middle" x="289" y="-812.3" font-family="Helvetica,sans-Serif" font-size="14.00">DataRecord</text>
</g>
<!-- FileToDataStream&#45;&gt;DataRecord -->
<g id="edge15" class="edge"><title>FileToDataStream&#45;&gt;DataRecord</title>
<path fill="none" stroke="black" d="M279.213,-869.697C280.646,-861.983 282.368,-852.712 283.965,-844.112"/>
<polygon fill="black" stroke="black" points="287.439,-844.575 285.823,-834.104 280.556,-843.297 287.439,-844.575"/>
</g>
<!-- EnvironmentTagger -->
<g id="node3" class="node"><title>EnvironmentTagger</title>
<polygon fill="#ccffcc" stroke="black" points="393.25,-762 234.75,-762 234.75,-726 393.25,-726 393.25,-762"/>
<text text-anchor="middle" x="314" y="-740.3" font-family="Courier,monospace" font-size="14.00">EnvironmentTagger</text>
</g>
<!-- LogFile -->
<g id="node14" class="node"><title>LogFile</title>
<path fill="#ffffcc" stroke="black" d="M350,-546C350,-546 312,-546 312,-546 306,-546 300,-540 300,-534 300,-534 300,-522 300,-522 300,-516 306,-510 312,-510 312,-510 350,-510 350,-510 356,-510 362,-516 362,-522 362,-522 362,-534 362,-534 362,-540 356,-546 350,-546"/>
<text text-anchor="middle" x="331" y="-524.3" font-family="Helvetica,sans-Serif" font-size="14.00">LogFile</text>
</g>
<!-- EnvironmentTagger&#45;&gt;LogFile -->
<g id="edge16" class="edge"><title>EnvironmentTagger&#45;&gt;LogFile</title>
<path fill="none" stroke="black" d="M346.198,-725.832C361.375,-716.634 378.966,-704.259 392,-690 416.698,-662.98 422.818,-653.436 432,-618 436.013,-602.512 440.278,-595.692 432,-582 418.94,-560.398 393.843,-547.167 371.934,-539.328"/>
<polygon fill="black" stroke="black" points="372.741,-535.908 362.148,-536.095 370.545,-542.555 372.741,-535.908"/>
</g>
<!-- TaggedDataRecord -->
<g id="node15" class="node"><title>TaggedDataRecord</title>
<path fill="#ffffcc" stroke="black" d="M371.25,-690C371.25,-690 256.75,-690 256.75,-690 250.75,-690 244.75,-684 244.75,-678 244.75,-678 244.75,-666 244.75,-666 244.75,-660 250.75,-654 256.75,-654 256.75,-654 371.25,-654 371.25,-654 377.25,-654 383.25,-660 383.25,-666 383.25,-666 383.25,-678 383.25,-678 383.25,-684 377.25,-690 371.25,-690"/>
<text text-anchor="middle" x="314" y="-668.3" font-family="Helvetica,sans-Serif" font-size="14.00">TaggedDataRecord</text>
</g>
<!-- EnvironmentTagger&#45;&gt;TaggedDataRecord -->
<g id="edge17" class="edge"><title>EnvironmentTagger&#45;&gt;TaggedDataRecord</title>
<path fill="none" stroke="black" d="M314,-725.697C314,-717.983 314,-708.712 314,-700.112"/>
<polygon fill="black" stroke="black" points="317.5,-700.104 314,-690.104 310.5,-700.104 317.5,-700.104"/>
</g>
<!-- FilterToJustMarine -->
<g id="node4" class="node"><title>FilterToJustMarine</title>
<polygon fill="#ccffcc" stroke="black" points="212,-618 44,-618 44,-582 212,-582 212,-618"/>
<text text-anchor="middle" x="128" y="-596.3" font-family="Courier,monospace" font-size="14.00">FilterToJustMarine</text>
</g>
<!-- FilterToJustMarine&#45;&gt;LogFile -->
<g id="edge18" class="edge"><title>FilterToJustMarine&#45;&gt;LogFile</title>
<path fill="none" stroke="black" d="M183.848,-581.895C215.244,-571.988 255.034,-558.947 290,-546 290.099,-545.963 290.199,-545.926 290.298,-545.889"/>
<polygon fill="black" stroke="black" points="291.686,-549.106 299.759,-542.244 289.169,-542.574 291.686,-549.106"/>
</g>
<!-- Marine -->
<g id="node16" class="node"><title>Marine</title>
<path fill="#ffffcc" stroke="black" d="M142.25,-546C142.25,-546 107.75,-546 107.75,-546 101.75,-546 95.75,-540 95.75,-534 95.75,-534 95.75,-522 95.75,-522 95.75,-516 101.75,-510 107.75,-510 107.75,-510 142.25,-510 142.25,-510 148.25,-510 154.25,-516 154.25,-522 154.25,-522 154.25,-534 154.25,-534 154.25,-540 148.25,-546 142.25,-546"/>
<text text-anchor="middle" x="125" y="-524.3" font-family="Helvetica,sans-Serif" font-size="14.00">Marine</text>
</g>
<!-- FilterToJustMarine&#45;&gt;Marine -->
<g id="edge19" class="edge"><title>FilterToJustMarine&#45;&gt;Marine</title>
<path fill="none" stroke="black" d="M127.258,-581.697C126.928,-573.983 126.531,-564.712 126.162,-556.112"/>
<polygon fill="black" stroke="black" points="129.658,-555.945 125.733,-546.104 122.665,-556.245 129.658,-555.945"/>
</g>
<!-- FilterExcludingMarine -->
<g id="node5" class="node"><title>FilterExcludingMarine</title>
<polygon fill="#ccffcc" stroke="black" points="423.25,-618 230.75,-618 230.75,-582 423.25,-582 423.25,-618"/>
<text text-anchor="middle" x="327" y="-596.3" font-family="Courier,monospace" font-size="14.00">FilterExcludingMarine</text>
</g>
<!-- FilterExcludingMarine&#45;&gt;LogFile -->
<g id="edge20" class="edge"><title>FilterExcludingMarine&#45;&gt;LogFile</title>
<path fill="none" stroke="black" d="M327.989,-581.697C328.43,-573.983 328.959,-564.712 329.451,-556.112"/>
<polygon fill="black" stroke="black" points="332.946,-556.288 330.023,-546.104 325.958,-555.888 332.946,-556.288"/>
</g>
<!-- NotMarine -->
<g id="node17" class="node"><title>NotMarine</title>
<path fill="#ffffcc" stroke="black" d="M269.25,-546C269.25,-546 212.75,-546 212.75,-546 206.75,-546 200.75,-540 200.75,-534 200.75,-534 200.75,-522 200.75,-522 200.75,-516 206.75,-510 212.75,-510 212.75,-510 269.25,-510 269.25,-510 275.25,-510 281.25,-516 281.25,-522 281.25,-522 281.25,-534 281.25,-534 281.25,-540 275.25,-546 269.25,-546"/>
<text text-anchor="middle" x="241" y="-524.3" font-family="Helvetica,sans-Serif" font-size="14.00">NotMarine</text>
</g>
<!-- FilterExcludingMarine&#45;&gt;NotMarine -->
<g id="edge21" class="edge"><title>FilterExcludingMarine&#45;&gt;NotMarine</title>
<path fill="none" stroke="black" d="M305.742,-581.697C294.911,-572.881 281.582,-562.032 269.84,-552.474"/>
<polygon fill="black" stroke="black" points="271.979,-549.703 262.014,-546.104 267.56,-555.132 271.979,-549.703"/>
</g>
<!-- WoRMSLookup -->
<g id="node6" class="node"><title>WoRMSLookup</title>
<polygon fill="#ccffcc" stroke="black" points="177.25,-474 68.75,-474 68.75,-438 177.25,-438 177.25,-474"/>
<text text-anchor="middle" x="123" y="-452.3" font-family="Courier,monospace" font-size="14.00">WoRMSLookup</text>
</g>
<!-- WoRMSOutput -->
<g id="node18" class="node"><title>WoRMSOutput</title>
<path fill="#ffffcc" stroke="black" d="M168.25,-402C168.25,-402 81.75,-402 81.75,-402 75.75,-402 69.75,-396 69.75,-390 69.75,-390 69.75,-378 69.75,-378 69.75,-372 75.75,-366 81.75,-366 81.75,-366 168.25,-366 168.25,-366 174.25,-366 180.25,-372 180.25,-378 180.25,-378 180.25,-390 180.25,-390 180.25,-396 174.25,-402 168.25,-402"/>
<text text-anchor="middle" x="125" y="-380.3" font-family="Helvetica,sans-Serif" font-size="14.00">WoRMSOutput</text>
</g>
<!-- WoRMSLookup&#45;&gt;WoRMSOutput -->
<g id="edge22" class="edge"><title>WoRMSLookup&#45;&gt;WoRMSOutput</title>
<path fill="none" stroke="black" d="M123.494,-437.697C123.715,-429.983 123.98,-420.712 124.225,-412.112"/>
<polygon fill="black" stroke="black" points="127.724,-412.2 124.511,-402.104 120.727,-412 127.724,-412.2"/>
</g>
<!-- GBIFLookup -->
<g id="node7" class="node"><title>GBIFLookup</title>
<polygon fill="#ccffcc" stroke="black" points="296.25,-474 195.75,-474 195.75,-438 296.25,-438 296.25,-474"/>
<text text-anchor="middle" x="246" y="-452.3" font-family="Courier,monospace" font-size="14.00">GBIFLookup</text>
</g>
<!-- GBIFOutput -->
<g id="node19" class="node"><title>GBIFOutput</title>
<path fill="#ffffcc" stroke="black" d="M278.25,-402C278.25,-402 211.75,-402 211.75,-402 205.75,-402 199.75,-396 199.75,-390 199.75,-390 199.75,-378 199.75,-378 199.75,-372 205.75,-366 211.75,-366 211.75,-366 278.25,-366 278.25,-366 284.25,-366 290.25,-372 290.25,-378 290.25,-378 290.25,-390 290.25,-390 290.25,-396 284.25,-402 278.25,-402"/>
<text text-anchor="middle" x="245" y="-380.3" font-family="Helvetica,sans-Serif" font-size="14.00">GBIFOutput</text>
</g>
<!-- GBIFLookup&#45;&gt;GBIFOutput -->
<g id="edge23" class="edge"><title>GBIFLookup&#45;&gt;GBIFOutput</title>
<path fill="none" stroke="black" d="M245.753,-437.697C245.643,-429.983 245.51,-420.712 245.387,-412.112"/>
<polygon fill="black" stroke="black" points="248.887,-412.053 245.244,-402.104 241.888,-412.153 248.887,-412.053"/>
</g>
<!-- StreamMerge -->
<g id="node8" class="node"><title>StreamMerge</title>
<polygon fill="#ccffcc" stroke="black" points="205.25,-330 96.75,-330 96.75,-294 205.25,-294 205.25,-330"/>
<text text-anchor="middle" x="151" y="-308.3" font-family="Courier,monospace" font-size="14.00">StreamMerge</text>
</g>
<!-- MergedStream -->
<g id="node20" class="node"><title>MergedStream</title>
<path fill="#ffffcc" stroke="black" d="M193.25,-258C193.25,-258 108.75,-258 108.75,-258 102.75,-258 96.75,-252 96.75,-246 96.75,-246 96.75,-234 96.75,-234 96.75,-228 102.75,-222 108.75,-222 108.75,-222 193.25,-222 193.25,-222 199.25,-222 205.25,-228 205.25,-234 205.25,-234 205.25,-246 205.25,-246 205.25,-252 199.25,-258 193.25,-258"/>
<text text-anchor="middle" x="151" y="-236.3" font-family="Helvetica,sans-Serif" font-size="14.00">MergedStream</text>
</g>
<!-- StreamMerge&#45;&gt;MergedStream -->
<g id="edge24" class="edge"><title>StreamMerge&#45;&gt;MergedStream</title>
<path fill="none" stroke="black" d="M151,-293.697C151,-285.983 151,-276.712 151,-268.112"/>
<polygon fill="black" stroke="black" points="154.5,-268.104 151,-258.104 147.5,-268.104 154.5,-268.104"/>
</g>
<!-- CsvFileWriter -->
<g id="node9" class="node"><title>CsvFileWriter</title>
<polygon fill="#ccffcc" stroke="black" points="214,-186 88,-186 88,-150 214,-150 214,-186"/>
<text text-anchor="middle" x="151" y="-164.3" font-family="Courier,monospace" font-size="14.00">CsvFileWriter</text>
</g>
<!-- OutputFile -->
<g id="node21" class="node"><title>OutputFile</title>
<path fill="#ffffcc" stroke="black" d="M246.25,-114C246.25,-114 189.75,-114 189.75,-114 183.75,-114 177.75,-108 177.75,-102 177.75,-102 177.75,-90 177.75,-90 177.75,-84 183.75,-78 189.75,-78 189.75,-78 246.25,-78 246.25,-78 252.25,-78 258.25,-84 258.25,-90 258.25,-90 258.25,-102 258.25,-102 258.25,-108 252.25,-114 246.25,-114"/>
<text text-anchor="middle" x="218" y="-92.3" font-family="Helvetica,sans-Serif" font-size="14.00">OutputFile</text>
</g>
<!-- CsvFileWriter&#45;&gt;OutputFile -->
<g id="edge25" class="edge"><title>CsvFileWriter&#45;&gt;OutputFile</title>
<path fill="none" stroke="black" d="M167.562,-149.697C175.675,-141.22 185.588,-130.864 194.471,-121.583"/>
<polygon fill="black" stroke="black" points="197.243,-123.749 201.629,-114.104 192.186,-118.908 197.243,-123.749"/>
</g>
<!-- DarwinCoreArchive -->
<g id="node10" class="node"><title>DarwinCoreArchive</title>
<path fill="#ffffcc" stroke="black" d="M292.25,-1122C292.25,-1122 179.75,-1122 179.75,-1122 173.75,-1122 167.75,-1116 167.75,-1110 167.75,-1110 167.75,-1098 167.75,-1098 167.75,-1092 173.75,-1086 179.75,-1086 179.75,-1086 292.25,-1086 292.25,-1086 298.25,-1086 304.25,-1092 304.25,-1098 304.25,-1098 304.25,-1110 304.25,-1110 304.25,-1116 298.25,-1122 292.25,-1122"/>
<text text-anchor="middle" x="236" y="-1100.3" font-family="Helvetica,sans-Serif" font-size="14.00">DarwinCoreArchive</text>
</g>
<!-- DarwinCoreArchive&#45;&gt;Setup -->
<g id="edge2" class="edge"><title>DarwinCoreArchive&#45;&gt;Setup</title>
<path fill="none" stroke="black" d="M208.602,-1085.88C194.093,-1076.81 176.084,-1065.55 160.415,-1055.76"/>
<polygon fill="black" stroke="black" points="161.839,-1052.52 151.504,-1050.19 158.129,-1058.46 161.839,-1052.52"/>
</g>
<!-- Workspace&#45;&gt;CsvFileWriter -->
<g id="edge3" class="edge"><title>Workspace&#45;&gt;CsvFileWriter</title>
<path fill="none" stroke="black" d="M74.6393,-869.721C56.1462,-844.027 25,-793.546 25,-745 25,-745 25,-745 25,-311 25,-258.213 74.3173,-215.896 111.244,-191.61"/>
<polygon fill="black" stroke="black" points="113.303,-194.447 119.854,-186.12 109.54,-188.545 113.303,-194.447"/>
</g>
<!-- OccurrenceFile&#45;&gt;FileToDataStream -->
<g id="edge4" class="edge"><title>OccurrenceFile&#45;&gt;FileToDataStream</title>
<path fill="none" stroke="black" d="M225.562,-941.697C233.675,-933.22 243.588,-922.864 252.471,-913.583"/>
<polygon fill="black" stroke="black" points="255.243,-915.749 259.629,-906.104 250.186,-910.908 255.243,-915.749"/>
</g>
<!-- DataRecord&#45;&gt;EnvironmentTagger -->
<g id="edge5" class="edge"><title>DataRecord&#45;&gt;EnvironmentTagger</title>
<path fill="none" stroke="black" d="M295.18,-797.697C297.995,-789.813 301.391,-780.304 304.519,-771.546"/>
<polygon fill="black" stroke="black" points="307.824,-772.699 307.891,-762.104 301.232,-770.345 307.824,-772.699"/>
</g>
<!-- LogFile_outflow -->
<g id="node25" class="node"><title>LogFile_outflow</title>
<ellipse fill="none" stroke="black" cx="302" cy="-31" rx="7" ry="7"/>
</g>
<!-- LogFile&#45;&gt;LogFile_outflow -->
<g id="edge28" class="edge"><title>LogFile&#45;&gt;LogFile_outflow</title>
<path fill="none" stroke="black" d="M330.407,-509.953C329.533,-483.297 328,-430.125 328,-385 328,-385 328,-385 328,-167 328,-123.111 314.586,-72.6217 307.028,-47.6568"/>
<polygon fill="black" stroke="black" points="310.283,-46.3405 303.954,-37.8439 303.603,-48.4329 310.283,-46.3405"/>
</g>
<!-- TaggedDataRecord&#45;&gt;FilterToJustMarine -->
<g id="edge6" class="edge"><title>TaggedDataRecord&#45;&gt;FilterToJustMarine</title>
<path fill="none" stroke="black" d="M268.499,-653.876C242.62,-644.137 210.033,-631.872 182.759,-621.608"/>
<polygon fill="black" stroke="black" points="183.945,-618.315 173.353,-618.068 181.479,-624.866 183.945,-618.315"/>
</g>
<!-- TaggedDataRecord&#45;&gt;FilterExcludingMarine -->
<g id="edge7" class="edge"><title>TaggedDataRecord&#45;&gt;FilterExcludingMarine</title>
<path fill="none" stroke="black" d="M317.213,-653.697C318.646,-645.983 320.368,-636.712 321.965,-628.112"/>
<polygon fill="black" stroke="black" points="325.439,-628.575 323.823,-618.104 318.556,-627.297 325.439,-628.575"/>
</g>
<!-- Marine&#45;&gt;WoRMSLookup -->
<g id="edge8" class="edge"><title>Marine&#45;&gt;WoRMSLookup</title>
<path fill="none" stroke="black" d="M124.506,-509.697C124.285,-501.983 124.02,-492.712 123.775,-484.112"/>
<polygon fill="black" stroke="black" points="127.273,-484 123.489,-474.104 120.276,-484.2 127.273,-484"/>
</g>
<!-- NotMarine&#45;&gt;GBIFLookup -->
<g id="edge9" class="edge"><title>NotMarine&#45;&gt;GBIFLookup</title>
<path fill="none" stroke="black" d="M242.236,-509.697C242.787,-501.983 243.449,-492.712 244.063,-484.112"/>
<polygon fill="black" stroke="black" points="247.557,-484.328 244.778,-474.104 240.575,-483.83 247.557,-484.328"/>
</g>
<!-- WoRMSOutput&#45;&gt;StreamMerge -->
<g id="edge10" class="edge"><title>WoRMSOutput&#45;&gt;StreamMerge</title>
<path fill="none" stroke="black" d="M131.427,-365.697C134.355,-357.813 137.887,-348.304 141.14,-339.546"/>
<polygon fill="black" stroke="black" points="144.446,-340.697 144.647,-330.104 137.884,-338.26 144.446,-340.697"/>
</g>
<!-- GBIFOutput&#45;&gt;StreamMerge -->
<g id="edge11" class="edge"><title>GBIFOutput&#45;&gt;StreamMerge</title>
<path fill="none" stroke="black" d="M221.764,-365.697C209.812,-356.796 195.077,-345.823 182.153,-336.199"/>
<polygon fill="black" stroke="black" points="184.08,-333.27 173.969,-330.104 179.899,-338.884 184.08,-333.27"/>
</g>
<!-- MergedStream&#45;&gt;CsvFileWriter -->
<g id="edge12" class="edge"><title>MergedStream&#45;&gt;CsvFileWriter</title>
<path fill="none" stroke="black" d="M151,-221.697C151,-213.983 151,-204.712 151,-196.112"/>
<polygon fill="black" stroke="black" points="154.5,-196.104 151,-186.104 147.5,-196.104 154.5,-196.104"/>
</g>
<!-- OutputFile_outflow -->
<g id="node26" class="node"><title>OutputFile_outflow</title>
<ellipse fill="none" stroke="black" cx="270" cy="-31" rx="7" ry="7"/>
</g>
<!-- OutputFile&#45;&gt;OutputFile_outflow -->
<g id="edge29" class="edge"><title>OutputFile&#45;&gt;OutputFile_outflow</title>
<path fill="none" stroke="black" d="M232.209,-77.785C240.869,-67.2937 251.742,-54.1203 259.599,-44.6007"/>
<polygon fill="black" stroke="black" points="262.372,-46.7402 266.038,-36.7999 256.973,-42.2842 262.372,-46.7402"/>
</g>
<!-- DwCA_URI -->
<g id="node22" class="node"><title>DwCA_URI</title>
<path fill="#ffffff" stroke="black" d="M137,-1122C137,-1122 73,-1122 73,-1122 67,-1122 61,-1116 61,-1110 61,-1110 61,-1098 61,-1098 61,-1092 67,-1086 73,-1086 73,-1086 137,-1086 137,-1086 143,-1086 149,-1092 149,-1098 149,-1098 149,-1110 149,-1110 149,-1116 143,-1122 137,-1122"/>
<text text-anchor="middle" x="105" y="-1100.3" font-family="Helvetica,sans-Serif" font-size="14.00">DwCA_URI</text>
</g>
<!-- DwCA_URI&#45;&gt;Setup -->
<g id="edge1" class="edge"><title>DwCA_URI&#45;&gt;Setup</title>
<path fill="none" stroke="black" d="M109.697,-1085.7C111.813,-1077.9 114.362,-1068.51 116.718,-1059.83"/>
<polygon fill="black" stroke="black" points="120.116,-1060.67 119.357,-1050.1 113.36,-1058.84 120.116,-1060.67"/>
</g>
<!-- DarwinCoreArchive_inflow -->
<g id="node23" class="node"><title>DarwinCoreArchive_inflow</title>
<ellipse fill="none" stroke="black" cx="186" cy="-1169" rx="7" ry="7"/>
</g>
<!-- DarwinCoreArchive_inflow&#45;&gt;DarwinCoreArchive -->
<g id="edge26" class="edge"><title>DarwinCoreArchive_inflow&#45;&gt;DarwinCoreArchive</title>
<path fill="none" stroke="black" d="M189.923,-1163.06C195.535,-1155.99 206.247,-1142.49 215.93,-1130.29"/>
<polygon fill="black" stroke="black" points="218.92,-1132.15 222.395,-1122.14 213.437,-1127.8 218.92,-1132.15"/>
</g>
<!-- DwCA_URI_inflow -->
<g id="node24" class="node"><title>DwCA_URI_inflow</title>
<ellipse fill="none" stroke="black" cx="154" cy="-1169" rx="7" ry="7"/>
</g>
<!-- DwCA_URI_inflow&#45;&gt;DwCA_URI -->
<g id="edge27" class="edge"><title>DwCA_URI_inflow&#45;&gt;DwCA_URI</title>
<path fill="none" stroke="black" d="M150.155,-1163.06C144.656,-1155.99 134.158,-1142.49 124.668,-1130.29"/>
<polygon fill="black" stroke="black" points="127.235,-1127.89 118.333,-1122.14 121.71,-1132.18 127.235,-1127.89"/>
</g>
</g>
</svg>
