<?xml version="1.0" encoding="UTF-8" standalone="no"?>
<!DOCTYPE svg PUBLIC "-//W3C//DTD SVG 1.1//EN"
 "http://www.w3.org/Graphics/SVG/1.1/DTD/svg11.dtd">
<!-- Generated by graphviz version 2.36.0 (20140111.2315)
 -->
<!-- Title: yw_data_view Pages: 1 -->
<svg width="456pt" height="894pt"
 viewBox="0.00 0.00 456.00 894.00" xmlns="http://www.w3.org/2000/svg" xmlns:xlink="http://www.w3.org/1999/xlink">
<g id="graph0" class="graph" transform="scale(1 1) rotate(0) translate(4 890)">
<title>yw_data_view</title>
<polygon fill="white" stroke="none" points="-4,4 -4,-890 452,-890 452,4 -4,4"/>
<text text-anchor="middle" x="224" y="-867.6" font-family="Courier,monospace" font-size="18.00">BranchingWorkflow</text>
<g id="clust1" class="cluster"><title>cluster_workflow</title>
<polygon fill="none" stroke="black" stroke-width="2" points="8,-62 8,-850 440,-850 440,-62 8,-62"/>
</g>
<g id="clust2" class="cluster"><title>cluster_workflow_inner</title>
<polygon fill="none" stroke="white" stroke-width="2" points="16,-70 16,-842 432,-842 432,-70 16,-70"/>
</g>
<g id="clust5" class="cluster"><title>cluster_outflows</title>
<polygon fill="none" stroke="white" stroke-width="2" points="242,-8 242,-54 320,-54 320,-8 242,-8"/>
</g>
<g id="clust6" class="cluster"><title>cluster_outflows_inner</title>
<polygon fill="none" stroke="white" stroke-width="2" points="250,-16 250,-46 312,-46 312,-16 250,-16"/>
</g>
<!-- FilterExcludingMarine -->
<g id="node1" class="node"><title>FilterExcludingMarine</title>
<polygon fill="#ccffcc" stroke="black" points="403.25,-618 210.75,-618 210.75,-582 403.25,-582 403.25,-618"/>
<text text-anchor="middle" x="307" y="-596.3" font-family="Courier,monospace" font-size="14.00">FilterExcludingMarine</text>
</g>
<!-- LogFile -->
<g id="node9" class="node"><title>LogFile</title>
<path fill="#ffffcc" stroke="black" d="M340,-546C340,-546 302,-546 302,-546 296,-546 290,-540 290,-534 290,-534 290,-522 290,-522 290,-516 296,-510 302,-510 302,-510 340,-510 340,-510 346,-510 352,-516 352,-522 352,-522 352,-534 352,-534 352,-540 346,-546 340,-546"/>
<text text-anchor="middle" x="321" y="-524.3" font-family="Helvetica,sans-Serif" font-size="14.00">LogFile</text>
</g>
<!-- FilterExcludingMarine&#45;&gt;LogFile -->
<g id="edge8" class="edge"><title>FilterExcludingMarine&#45;&gt;LogFile</title>
<path fill="none" stroke="black" d="M310.461,-581.697C312.003,-573.983 313.858,-564.712 315.578,-556.112"/>
<polygon fill="black" stroke="black" points="319.05,-556.597 317.579,-546.104 312.186,-555.224 319.05,-556.597"/>
</g>
<!-- NotMarine -->
<g id="node12" class="node"><title>NotMarine</title>
<path fill="#ffffcc" stroke="black" d="M259.25,-546C259.25,-546 202.75,-546 202.75,-546 196.75,-546 190.75,-540 190.75,-534 190.75,-534 190.75,-522 190.75,-522 190.75,-516 196.75,-510 202.75,-510 202.75,-510 259.25,-510 259.25,-510 265.25,-510 271.25,-516 271.25,-522 271.25,-522 271.25,-534 271.25,-534 271.25,-540 265.25,-546 259.25,-546"/>
<text text-anchor="middle" x="231" y="-524.3" font-family="Helvetica,sans-Serif" font-size="14.00">NotMarine</text>
</g>
<!-- FilterExcludingMarine&#45;&gt;NotMarine -->
<g id="edge5" class="edge"><title>FilterExcludingMarine&#45;&gt;NotMarine</title>
<path fill="none" stroke="black" d="M288.213,-581.697C278.826,-573.05 267.316,-562.449 257.087,-553.027"/>
<polygon fill="black" stroke="black" points="259.297,-550.305 249.57,-546.104 254.555,-555.454 259.297,-550.305"/>
</g>
<!-- FilterToJustMarine -->
<g id="node2" class="node"><title>FilterToJustMarine</title>
<polygon fill="#ccffcc" stroke="black" points="192,-618 24,-618 24,-582 192,-582 192,-618"/>
<text text-anchor="middle" x="108" y="-596.3" font-family="Courier,monospace" font-size="14.00">FilterToJustMarine</text>
</g>
<!-- FilterToJustMarine&#45;&gt;LogFile -->
<g id="edge9" class="edge"><title>FilterToJustMarine&#45;&gt;LogFile</title>
<path fill="none" stroke="black" d="M168.158,-581.974C201.387,-572.192 243.256,-559.245 280,-546 280.1,-545.964 280.199,-545.928 280.299,-545.892"/>
<polygon fill="black" stroke="black" points="281.668,-549.116 289.779,-542.3 279.188,-542.57 281.668,-549.116"/>
</g>
<!-- Marine -->
<g id="node11" class="node"><title>Marine</title>
<path fill="#ffffcc" stroke="black" d="M125.25,-546C125.25,-546 90.75,-546 90.75,-546 84.75,-546 78.75,-540 78.75,-534 78.75,-534 78.75,-522 78.75,-522 78.75,-516 84.75,-510 90.75,-510 90.75,-510 125.25,-510 125.25,-510 131.25,-510 137.25,-516 137.25,-522 137.25,-522 137.25,-534 137.25,-534 137.25,-540 131.25,-546 125.25,-546"/>
<text text-anchor="middle" x="108" y="-524.3" font-family="Helvetica,sans-Serif" font-size="14.00">Marine</text>
</g>
<!-- FilterToJustMarine&#45;&gt;Marine -->
<g id="edge6" class="edge"><title>FilterToJustMarine&#45;&gt;Marine</title>
<path fill="none" stroke="black" d="M108,-581.697C108,-573.983 108,-564.712 108,-556.112"/>
<polygon fill="black" stroke="black" points="111.5,-556.104 108,-546.104 104.5,-556.104 111.5,-556.104"/>
</g>
<!-- StreamMerge -->
<g id="node3" class="node"><title>StreamMerge</title>
<polygon fill="#ccffcc" stroke="black" points="284.25,-330 175.75,-330 175.75,-294 284.25,-294 284.25,-330"/>
<text text-anchor="middle" x="230" y="-308.3" font-family="Courier,monospace" font-size="14.00">StreamMerge</text>
</g>
<!-- MergedStream -->
<g id="node15" class="node"><title>MergedStream</title>
<path fill="#ffffcc" stroke="black" d="M272.25,-258C272.25,-258 187.75,-258 187.75,-258 181.75,-258 175.75,-252 175.75,-246 175.75,-246 175.75,-234 175.75,-234 175.75,-228 181.75,-222 187.75,-222 187.75,-222 272.25,-222 272.25,-222 278.25,-222 284.25,-228 284.25,-234 284.25,-234 284.25,-246 284.25,-246 284.25,-252 278.25,-258 272.25,-258"/>
<text text-anchor="middle" x="230" y="-236.3" font-family="Helvetica,sans-Serif" font-size="14.00">MergedStream</text>
</g>
<!-- StreamMerge&#45;&gt;MergedStream -->
<g id="edge2" class="edge"><title>StreamMerge&#45;&gt;MergedStream</title>
<path fill="none" stroke="black" d="M230,-293.697C230,-285.983 230,-276.712 230,-268.112"/>
<polygon fill="black" stroke="black" points="233.5,-268.104 230,-258.104 226.5,-268.104 233.5,-268.104"/>
</g>
<!-- CsvFileWriter -->
<g id="node4" class="node"><title>CsvFileWriter</title>
<polygon fill="#ccffcc" stroke="black" points="293,-186 167,-186 167,-150 293,-150 293,-186"/>
<text text-anchor="middle" x="230" y="-164.3" font-family="Courier,monospace" font-size="14.00">CsvFileWriter</text>
</g>
<!-- OutputFile -->
<g id="node16" class="node"><title>OutputFile</title>
<path fill="#ffffcc" stroke="black" d="M269.25,-114C269.25,-114 212.75,-114 212.75,-114 206.75,-114 200.75,-108 200.75,-102 200.75,-102 200.75,-90 200.75,-90 200.75,-84 206.75,-78 212.75,-78 212.75,-78 269.25,-78 269.25,-78 275.25,-78 281.25,-84 281.25,-90 281.25,-90 281.25,-102 281.25,-102 281.25,-108 275.25,-114 269.25,-114"/>
<text text-anchor="middle" x="241" y="-92.3" font-family="Helvetica,sans-Serif" font-size="14.00">OutputFile</text>
</g>
<!-- CsvFileWriter&#45;&gt;OutputFile -->
<g id="edge1" class="edge"><title>CsvFileWriter&#45;&gt;OutputFile</title>
<path fill="none" stroke="black" d="M232.719,-149.697C233.931,-141.983 235.388,-132.712 236.739,-124.112"/>
<polygon fill="black" stroke="black" points="240.217,-124.526 238.312,-114.104 233.302,-123.44 240.217,-124.526"/>
</g>
<!-- GBIFLookup -->
<g id="node5" class="node"><title>GBIFLookup</title>
<polygon fill="#ccffcc" stroke="black" points="281.25,-474 180.75,-474 180.75,-438 281.25,-438 281.25,-474"/>
<text text-anchor="middle" x="231" y="-452.3" font-family="Courier,monospace" font-size="14.00">GBIFLookup</text>
</g>
<!-- GBIFOutput -->
<g id="node14" class="node"><title>GBIFOutput</title>
<path fill="#ffffcc" stroke="black" d="M263.25,-402C263.25,-402 196.75,-402 196.75,-402 190.75,-402 184.75,-396 184.75,-390 184.75,-390 184.75,-378 184.75,-378 184.75,-372 190.75,-366 196.75,-366 196.75,-366 263.25,-366 263.25,-366 269.25,-366 275.25,-372 275.25,-378 275.25,-378 275.25,-390 275.25,-390 275.25,-396 269.25,-402 263.25,-402"/>
<text text-anchor="middle" x="230" y="-380.3" font-family="Helvetica,sans-Serif" font-size="14.00">GBIFOutput</text>
</g>
<!-- GBIFLookup&#45;&gt;GBIFOutput -->
<g id="edge3" class="edge"><title>GBIFLookup&#45;&gt;GBIFOutput</title>
<path fill="none" stroke="black" d="M230.753,-437.697C230.643,-429.983 230.51,-420.712 230.387,-412.112"/>
<polygon fill="black" stroke="black" points="233.887,-412.053 230.244,-402.104 226.888,-412.153 233.887,-412.053"/>
</g>
<!-- WoRMSLookup -->
<g id="node6" class="node"><title>WoRMSLookup</title>
<polygon fill="#ccffcc" stroke="black" points="162.25,-474 53.75,-474 53.75,-438 162.25,-438 162.25,-474"/>
<text text-anchor="middle" x="108" y="-452.3" font-family="Courier,monospace" font-size="14.00">WoRMSLookup</text>
</g>
<!-- WoRMSOutput -->
<g id="node13" class="node"><title>WoRMSOutput</title>
<path fill="#ffffcc" stroke="black" d="M153.25,-402C153.25,-402 66.75,-402 66.75,-402 60.75,-402 54.75,-396 54.75,-390 54.75,-390 54.75,-378 54.75,-378 54.75,-372 60.75,-366 66.75,-366 66.75,-366 153.25,-366 153.25,-366 159.25,-366 165.25,-372 165.25,-378 165.25,-378 165.25,-390 165.25,-390 165.25,-396 159.25,-402 153.25,-402"/>
<text text-anchor="middle" x="110" y="-380.3" font-family="Helvetica,sans-Serif" font-size="14.00">WoRMSOutput</text>
</g>
<!-- WoRMSLookup&#45;&gt;WoRMSOutput -->
<g id="edge4" class="edge"><title>WoRMSLookup&#45;&gt;WoRMSOutput</title>
<path fill="none" stroke="black" d="M108.494,-437.697C108.715,-429.983 108.98,-420.712 109.225,-412.112"/>
<polygon fill="black" stroke="black" points="112.724,-412.2 109.511,-402.104 105.727,-412 112.724,-412.2"/>
</g>
<!-- EnvironmentTagger -->
<g id="node7" class="node"><title>EnvironmentTagger</title>
<polygon fill="#ccffcc" stroke="black" points="404.25,-762 245.75,-762 245.75,-726 404.25,-726 404.25,-762"/>
<text text-anchor="middle" x="325" y="-740.3" font-family="Courier,monospace" font-size="14.00">EnvironmentTagger</text>
</g>
<!-- EnvironmentTagger&#45;&gt;LogFile -->
<g id="edge10" class="edge"><title>EnvironmentTagger&#45;&gt;LogFile</title>
<path fill="none" stroke="black" d="M349.501,-725.884C361.537,-716.449 375.462,-703.851 385,-690 413.06,-649.249 436.657,-624.895 412,-582 401.088,-563.016 380.469,-550.195 361.613,-541.925"/>
<polygon fill="black" stroke="black" points="362.845,-538.647 352.263,-538.115 360.203,-545.13 362.845,-538.647"/>
</g>
<!-- TaggedDataRecord -->
<g id="node10" class="node"><title>TaggedDataRecord</title>
<path fill="#ffffcc" stroke="black" d="M364.25,-690C364.25,-690 249.75,-690 249.75,-690 243.75,-690 237.75,-684 237.75,-678 237.75,-678 237.75,-666 237.75,-666 237.75,-660 243.75,-654 249.75,-654 249.75,-654 364.25,-654 364.25,-654 370.25,-654 376.25,-660 376.25,-666 376.25,-666 376.25,-678 376.25,-678 376.25,-684 370.25,-690 364.25,-690"/>
<text text-anchor="middle" x="307" y="-668.3" font-family="Helvetica,sans-Serif" font-size="14.00">TaggedDataRecord</text>
</g>
<!-- EnvironmentTagger&#45;&gt;TaggedDataRecord -->
<g id="edge7" class="edge"><title>EnvironmentTagger&#45;&gt;TaggedDataRecord</title>
<path fill="none" stroke="black" d="M320.551,-725.697C318.545,-717.898 316.131,-708.509 313.899,-699.829"/>
<polygon fill="black" stroke="black" points="317.278,-698.918 311.398,-690.104 310.499,-700.661 317.278,-698.918"/>
</g>
<!-- DataRecord -->
<g id="node8" class="node"><title>DataRecord</title>
<path fill="#ffffcc" stroke="black" d="M358.25,-834C358.25,-834 291.75,-834 291.75,-834 285.75,-834 279.75,-828 279.75,-822 279.75,-822 279.75,-810 279.75,-810 279.75,-804 285.75,-798 291.75,-798 291.75,-798 358.25,-798 358.25,-798 364.25,-798 370.25,-804 370.25,-810 370.25,-810 370.25,-822 370.25,-822 370.25,-828 364.25,-834 358.25,-834"/>
<text text-anchor="middle" x="325" y="-812.3" font-family="Helvetica,sans-Serif" font-size="14.00">DataRecord</text>
</g>
<!-- DataRecord&#45;&gt;EnvironmentTagger -->
<g id="edge11" class="edge"><title>DataRecord&#45;&gt;EnvironmentTagger</title>
<path fill="none" stroke="black" d="M325,-797.697C325,-789.983 325,-780.712 325,-772.112"/>
<polygon fill="black" stroke="black" points="328.5,-772.104 325,-762.104 321.5,-772.104 328.5,-772.104"/>
</g>
<!-- LogFile_outflow -->
<g id="node17" class="node"><title>LogFile_outflow</title>
<ellipse fill="none" stroke="black" cx="297" cy="-31" rx="7" ry="7"/>
</g>
<!-- LogFile&#45;&gt;LogFile_outflow -->
<g id="edge19" class="edge"><title>LogFile&#45;&gt;LogFile_outflow</title>
<path fill="none" stroke="black" d="M321,-509.951C321,-483.292 321,-430.115 321,-385 321,-385 321,-385 321,-167 321,-123.228 308.618,-72.6872 301.641,-47.6845"/>
<polygon fill="black" stroke="black" points="304.94,-46.4923 298.804,-37.8553 298.215,-48.4337 304.94,-46.4923"/>
</g>
<!-- TaggedDataRecord&#45;&gt;FilterExcludingMarine -->
<g id="edge13" class="edge"><title>TaggedDataRecord&#45;&gt;FilterExcludingMarine</title>
<path fill="none" stroke="black" d="M307,-653.697C307,-645.983 307,-636.712 307,-628.112"/>
<polygon fill="black" stroke="black" points="310.5,-628.104 307,-618.104 303.5,-628.104 310.5,-628.104"/>
</g>
<!-- TaggedDataRecord&#45;&gt;FilterToJustMarine -->
<g id="edge12" class="edge"><title>TaggedDataRecord&#45;&gt;FilterToJustMarine</title>
<path fill="none" stroke="black" d="M258.574,-653.966C230.769,-644.185 195.664,-631.836 166.346,-621.524"/>
<polygon fill="black" stroke="black" points="167.238,-618.127 156.644,-618.111 164.916,-624.731 167.238,-618.127"/>
</g>
<!-- Marine&#45;&gt;WoRMSLookup -->
<g id="edge14" class="edge"><title>Marine&#45;&gt;WoRMSLookup</title>
<path fill="none" stroke="black" d="M108,-509.697C108,-501.983 108,-492.712 108,-484.112"/>
<polygon fill="black" stroke="black" points="111.5,-484.104 108,-474.104 104.5,-484.104 111.5,-484.104"/>
</g>
<!-- NotMarine&#45;&gt;GBIFLookup -->
<g id="edge15" class="edge"><title>NotMarine&#45;&gt;GBIFLookup</title>
<path fill="none" stroke="black" d="M231,-509.697C231,-501.983 231,-492.712 231,-484.112"/>
<polygon fill="black" stroke="black" points="234.5,-484.104 231,-474.104 227.5,-484.104 234.5,-484.104"/>
</g>
<!-- WoRMSOutput&#45;&gt;StreamMerge -->
<g id="edge16" class="edge"><title>WoRMSOutput&#45;&gt;StreamMerge</title>
<path fill="none" stroke="black" d="M139.355,-365.876C155.045,-356.724 174.557,-345.342 191.454,-335.485"/>
<polygon fill="black" stroke="black" points="193.658,-338.252 200.532,-330.19 190.13,-332.205 193.658,-338.252"/>
</g>
<!-- GBIFOutput&#45;&gt;StreamMerge -->
<g id="edge17" class="edge"><title>GBIFOutput&#45;&gt;StreamMerge</title>
<path fill="none" stroke="black" d="M230,-365.697C230,-357.983 230,-348.712 230,-340.112"/>
<polygon fill="black" stroke="black" points="233.5,-340.104 230,-330.104 226.5,-340.104 233.5,-340.104"/>
</g>
<!-- MergedStream&#45;&gt;CsvFileWriter -->
<g id="edge18" class="edge"><title>MergedStream&#45;&gt;CsvFileWriter</title>
<path fill="none" stroke="black" d="M230,-221.697C230,-213.983 230,-204.712 230,-196.112"/>
<polygon fill="black" stroke="black" points="233.5,-196.104 230,-186.104 226.5,-196.104 233.5,-196.104"/>
</g>
<!-- OutputFile_outflow -->
<g id="node18" class="node"><title>OutputFile_outflow</title>
<ellipse fill="none" stroke="black" cx="265" cy="-31" rx="7" ry="7"/>
</g>
<!-- OutputFile&#45;&gt;OutputFile_outflow -->
<g id="edge20" class="edge"><title>OutputFile&#45;&gt;OutputFile_outflow</title>
<path fill="none" stroke="black" d="M247.558,-77.785C251.189,-68.2535 255.664,-56.5081 259.171,-47.3002"/>
<polygon fill="black" stroke="black" points="262.447,-48.532 262.737,-37.9411 255.906,-46.0399 262.447,-48.532"/>
</g>
</g>
</svg>
