<?xml version="1.0" encoding="UTF-8" standalone="no"?>
<!DOCTYPE svg PUBLIC "-//W3C//DTD SVG 1.1//EN"
 "http://www.w3.org/Graphics/SVG/1.1/DTD/svg11.dtd">
<!-- Generated by graphviz version 2.36.0 (20140111.2315)
 -->
<!-- Title: yw_data_view Pages: 1 -->
<svg width="940pt" height="894pt"
 viewBox="0.00 0.00 940.00 894.00" xmlns="http://www.w3.org/2000/svg" xmlns:xlink="http://www.w3.org/1999/xlink">
<g id="graph0" class="graph" transform="scale(1 1) rotate(0) translate(4 890)">
<title>yw_data_view</title>
<polygon fill="white" stroke="none" points="-4,4 -4,-890 936,-890 936,4 -4,4"/>
<text text-anchor="middle" x="466" y="-867.6" font-family="Courier,monospace" font-size="18.00">BranchingWorkflow</text>
<g id="clust5" class="cluster"><title>cluster_outflows</title>
<polygon fill="none" stroke="white" stroke-width="2" points="572,-8 572,-54 650,-54 650,-8 572,-8"/>
</g>
<g id="clust6" class="cluster"><title>cluster_outflows_inner</title>
<polygon fill="none" stroke="white" stroke-width="2" points="580,-16 580,-46 642,-46 642,-16 580,-16"/>
</g>
<g id="clust1" class="cluster"><title>cluster_workflow</title>
<polygon fill="none" stroke="black" stroke-width="2" points="8,-62 8,-850 924,-850 924,-62 8,-62"/>
</g>
<g id="clust2" class="cluster"><title>cluster_workflow_inner</title>
<polygon fill="none" stroke="white" stroke-width="2" points="16,-70 16,-842 916,-842 916,-70 16,-70"/>
</g>
<!-- FilterExcludingMarine -->
<g id="node1" class="node"><title>FilterExcludingMarine</title>
<polygon fill="#ccffcc" stroke="black" points="549.25,-618 356.75,-618 356.75,-582 549.25,-582 549.25,-618"/>
<text text-anchor="middle" x="453" y="-596.3" font-family="Courier,monospace" font-size="14.00">FilterExcludingMarine</text>
</g>
<!-- LogFile -->
<g id="node9" class="node"><title>LogFile</title>
<path fill="#ffffcc" stroke="black" d="M673,-402C673,-402 635,-402 635,-402 629,-402 623,-396 623,-390 623,-390 623,-378 623,-378 623,-372 629,-366 635,-366 635,-366 673,-366 673,-366 679,-366 685,-372 685,-378 685,-378 685,-390 685,-390 685,-396 679,-402 673,-402"/>
<text text-anchor="middle" x="654" y="-380.3" font-family="Helvetica,sans-Serif" font-size="14.00">LogFile</text>
</g>
<!-- FilterExcludingMarine&#45;&gt;LogFile -->
<g id="edge10" class="edge"><title>FilterExcludingMarine&#45;&gt;LogFile</title>
<path fill="none" stroke="black" d="M451.066,-581.874C449.785,-562.857 450.361,-531.953 464,-510 482.145,-480.795 563.539,-433.474 613.725,-406.203"/>
<polygon fill="black" stroke="black" points="615.573,-409.183 622.71,-401.353 612.248,-403.023 615.573,-409.183"/>
</g>
<!-- noMarineDataRecord[scientificName:scientificNameAuthorship] -->
<g id="node12" class="node"><title>noMarineDataRecord[scientificName:scientificNameAuthorship]</title>
<path fill="#ffffcc" stroke="black" d="M422,-546C422,-546 36,-546 36,-546 30,-546 24,-540 24,-534 24,-534 24,-522 24,-522 24,-516 30,-510 36,-510 36,-510 422,-510 422,-510 428,-510 434,-516 434,-522 434,-522 434,-534 434,-534 434,-540 428,-546 422,-546"/>
<text text-anchor="middle" x="229" y="-524.3" font-family="Helvetica,sans-Serif" font-size="14.00">noMarineDataRecord[scientificName:scientificNameAuthorship]</text>
</g>
<!-- FilterExcludingMarine&#45;&gt;noMarineDataRecord[scientificName:scientificNameAuthorship] -->
<g id="edge5" class="edge"><title>FilterExcludingMarine&#45;&gt;noMarineDataRecord[scientificName:scientificNameAuthorship]</title>
<path fill="none" stroke="black" d="M398.49,-581.966C366.784,-572.057 326.645,-559.514 293.387,-549.121"/>
<polygon fill="black" stroke="black" points="294.343,-545.753 283.755,-546.111 292.255,-552.434 294.343,-545.753"/>
</g>
<!-- FilterToJustMarine -->
<g id="node2" class="node"><title>FilterToJustMarine</title>
<polygon fill="#ccffcc" stroke="black" points="793,-618 625,-618 625,-582 793,-582 793,-618"/>
<text text-anchor="middle" x="709" y="-596.3" font-family="Courier,monospace" font-size="14.00">FilterToJustMarine</text>
</g>
<!-- FilterToJustMarine&#45;&gt;LogFile -->
<g id="edge11" class="edge"><title>FilterToJustMarine&#45;&gt;LogFile</title>
<path fill="none" stroke="black" d="M793.331,-592.73C824.451,-585.834 856.779,-572.266 876,-546 885.449,-533.088 884.075,-523.813 876,-510 836.995,-443.275 747.807,-409.401 695.115,-394.619"/>
<polygon fill="black" stroke="black" points="695.972,-391.226 685.405,-391.996 694.146,-397.983 695.972,-391.226"/>
</g>
<!-- MarineDataRecord[scientificName:scientificNameAuthorship] -->
<g id="node11" class="node"><title>MarineDataRecord[scientificName:scientificNameAuthorship]</title>
<path fill="#ffffcc" stroke="black" d="M855.25,-546C855.25,-546 484.75,-546 484.75,-546 478.75,-546 472.75,-540 472.75,-534 472.75,-534 472.75,-522 472.75,-522 472.75,-516 478.75,-510 484.75,-510 484.75,-510 855.25,-510 855.25,-510 861.25,-510 867.25,-516 867.25,-522 867.25,-522 867.25,-534 867.25,-534 867.25,-540 861.25,-546 855.25,-546"/>
<text text-anchor="middle" x="670" y="-524.3" font-family="Helvetica,sans-Serif" font-size="14.00">MarineDataRecord[scientificName:scientificNameAuthorship]</text>
</g>
<!-- FilterToJustMarine&#45;&gt;MarineDataRecord[scientificName:scientificNameAuthorship] -->
<g id="edge6" class="edge"><title>FilterToJustMarine&#45;&gt;MarineDataRecord[scientificName:scientificNameAuthorship]</title>
<path fill="none" stroke="black" d="M699.36,-581.697C694.873,-573.644 689.441,-563.894 684.476,-554.982"/>
<polygon fill="black" stroke="black" points="687.454,-553.137 679.53,-546.104 681.339,-556.544 687.454,-553.137"/>
</g>
<!-- StreamMerge -->
<g id="node3" class="node"><title>StreamMerge</title>
<polygon fill="#ccffcc" stroke="black" points="603.25,-330 494.75,-330 494.75,-294 603.25,-294 603.25,-330"/>
<text text-anchor="middle" x="549" y="-308.3" font-family="Courier,monospace" font-size="14.00">StreamMerge</text>
</g>
<!-- MergedStream -->
<g id="node15" class="node"><title>MergedStream</title>
<path fill="#ffffcc" stroke="black" d="M594.25,-258C594.25,-258 509.75,-258 509.75,-258 503.75,-258 497.75,-252 497.75,-246 497.75,-246 497.75,-234 497.75,-234 497.75,-228 503.75,-222 509.75,-222 509.75,-222 594.25,-222 594.25,-222 600.25,-222 606.25,-228 606.25,-234 606.25,-234 606.25,-246 606.25,-246 606.25,-252 600.25,-258 594.25,-258"/>
<text text-anchor="middle" x="552" y="-236.3" font-family="Helvetica,sans-Serif" font-size="14.00">MergedStream</text>
</g>
<!-- StreamMerge&#45;&gt;MergedStream -->
<g id="edge2" class="edge"><title>StreamMerge&#45;&gt;MergedStream</title>
<path fill="none" stroke="black" d="M549.742,-293.697C550.072,-285.983 550.469,-276.712 550.838,-268.112"/>
<polygon fill="black" stroke="black" points="554.335,-268.245 551.267,-258.104 547.342,-267.945 554.335,-268.245"/>
</g>
<!-- CsvFileWriter -->
<g id="node4" class="node"><title>CsvFileWriter</title>
<polygon fill="#ccffcc" stroke="black" points="622,-186 496,-186 496,-150 622,-150 622,-186"/>
<text text-anchor="middle" x="559" y="-164.3" font-family="Courier,monospace" font-size="14.00">CsvFileWriter</text>
</g>
<!-- OutputFile -->
<g id="node16" class="node"><title>OutputFile</title>
<path fill="#ffffcc" stroke="black" d="M599.25,-114C599.25,-114 542.75,-114 542.75,-114 536.75,-114 530.75,-108 530.75,-102 530.75,-102 530.75,-90 530.75,-90 530.75,-84 536.75,-78 542.75,-78 542.75,-78 599.25,-78 599.25,-78 605.25,-78 611.25,-84 611.25,-90 611.25,-90 611.25,-102 611.25,-102 611.25,-108 605.25,-114 599.25,-114"/>
<text text-anchor="middle" x="571" y="-92.3" font-family="Helvetica,sans-Serif" font-size="14.00">OutputFile</text>
</g>
<!-- CsvFileWriter&#45;&gt;OutputFile -->
<g id="edge1" class="edge"><title>CsvFileWriter&#45;&gt;OutputFile</title>
<path fill="none" stroke="black" d="M561.966,-149.697C563.289,-141.983 564.878,-132.712 566.352,-124.112"/>
<polygon fill="black" stroke="black" points="569.828,-124.552 568.068,-114.104 562.928,-123.369 569.828,-124.552"/>
</g>
<!-- GBIFLookup -->
<g id="node5" class="node"><title>GBIFLookup</title>
<polygon fill="#ccffcc" stroke="black" points="433.25,-474 332.75,-474 332.75,-438 433.25,-438 433.25,-474"/>
<text text-anchor="middle" x="383" y="-452.3" font-family="Courier,monospace" font-size="14.00">GBIFLookup</text>
</g>
<!-- GBIFLookup&#45;&gt;LogFile -->
<g id="edge8" class="edge"><title>GBIFLookup&#45;&gt;LogFile</title>
<path fill="none" stroke="black" d="M433.338,-441.617C438.286,-440.367 443.236,-439.142 448,-438 520.99,-420.5 541.382,-424.463 613,-402 613.101,-401.968 613.202,-401.936 613.304,-401.904"/>
<polygon fill="black" stroke="black" points="614.576,-405.168 622.873,-398.578 612.278,-398.555 614.576,-405.168"/>
</g>
<!-- GBIFOutput -->
<g id="node14" class="node"><title>GBIFOutput</title>
<path fill="#ffffcc" stroke="black" d="M447.25,-402C447.25,-402 380.75,-402 380.75,-402 374.75,-402 368.75,-396 368.75,-390 368.75,-390 368.75,-378 368.75,-378 368.75,-372 374.75,-366 380.75,-366 380.75,-366 447.25,-366 447.25,-366 453.25,-366 459.25,-372 459.25,-378 459.25,-378 459.25,-390 459.25,-390 459.25,-396 453.25,-402 447.25,-402"/>
<text text-anchor="middle" x="414" y="-380.3" font-family="Helvetica,sans-Serif" font-size="14.00">GBIFOutput</text>
</g>
<!-- GBIFLookup&#45;&gt;GBIFOutput -->
<g id="edge3" class="edge"><title>GBIFLookup&#45;&gt;GBIFOutput</title>
<path fill="none" stroke="black" d="M390.663,-437.697C394.192,-429.728 398.456,-420.1 402.369,-411.264"/>
<polygon fill="black" stroke="black" points="405.576,-412.665 406.425,-402.104 399.176,-409.831 405.576,-412.665"/>
</g>
<!-- WoRMSLookup -->
<g id="node6" class="node"><title>WoRMSLookup</title>
<polygon fill="#ccffcc" stroke="black" points="708.25,-474 599.75,-474 599.75,-438 708.25,-438 708.25,-474"/>
<text text-anchor="middle" x="654" y="-452.3" font-family="Courier,monospace" font-size="14.00">WoRMSLookup</text>
</g>
<!-- WoRMSLookup&#45;&gt;LogFile -->
<g id="edge9" class="edge"><title>WoRMSLookup&#45;&gt;LogFile</title>
<path fill="none" stroke="black" d="M654,-437.697C654,-429.983 654,-420.712 654,-412.112"/>
<polygon fill="black" stroke="black" points="657.5,-412.104 654,-402.104 650.5,-412.104 657.5,-412.104"/>
</g>
<!-- WoRMSOutput -->
<g id="node13" class="node"><title>WoRMSOutput</title>
<path fill="#ffffcc" stroke="black" d="M592.25,-402C592.25,-402 505.75,-402 505.75,-402 499.75,-402 493.75,-396 493.75,-390 493.75,-390 493.75,-378 493.75,-378 493.75,-372 499.75,-366 505.75,-366 505.75,-366 592.25,-366 592.25,-366 598.25,-366 604.25,-372 604.25,-378 604.25,-378 604.25,-390 604.25,-390 604.25,-396 598.25,-402 592.25,-402"/>
<text text-anchor="middle" x="549" y="-380.3" font-family="Helvetica,sans-Serif" font-size="14.00">WoRMSOutput</text>
</g>
<!-- WoRMSLookup&#45;&gt;WoRMSOutput -->
<g id="edge4" class="edge"><title>WoRMSLookup&#45;&gt;WoRMSOutput</title>
<path fill="none" stroke="black" d="M628.314,-437.876C614.712,-428.808 597.828,-417.552 583.139,-407.759"/>
<polygon fill="black" stroke="black" points="585.047,-404.825 574.785,-402.19 581.164,-410.649 585.047,-404.825"/>
</g>
<!-- EnvironmentTagger -->
<g id="node7" class="node"><title>EnvironmentTagger</title>
<polygon fill="#ccffcc" stroke="black" points="867.25,-762 708.75,-762 708.75,-726 867.25,-726 867.25,-762"/>
<text text-anchor="middle" x="788" y="-740.3" font-family="Courier,monospace" font-size="14.00">EnvironmentTagger</text>
</g>
<!-- EnvironmentTagger&#45;&gt;LogFile -->
<g id="edge12" class="edge"><title>EnvironmentTagger&#45;&gt;LogFile</title>
<path fill="none" stroke="black" d="M816.807,-725.852C852.025,-702.454 907,-656.967 907,-601 907,-601 907,-601 907,-527 907,-430.984 766.719,-399.226 695.071,-389.267"/>
<polygon fill="black" stroke="black" points="695.393,-385.779 685.023,-387.951 694.483,-392.72 695.393,-385.779"/>
</g>
<!-- TaggedDataRecord -->
<g id="node10" class="node"><title>TaggedDataRecord</title>
<path fill="#ffffcc" stroke="black" d="M766.25,-690C766.25,-690 651.75,-690 651.75,-690 645.75,-690 639.75,-684 639.75,-678 639.75,-678 639.75,-666 639.75,-666 639.75,-660 645.75,-654 651.75,-654 651.75,-654 766.25,-654 766.25,-654 772.25,-654 778.25,-660 778.25,-666 778.25,-666 778.25,-678 778.25,-678 778.25,-684 772.25,-690 766.25,-690"/>
<text text-anchor="middle" x="709" y="-668.3" font-family="Helvetica,sans-Serif" font-size="14.00">TaggedDataRecord</text>
</g>
<!-- EnvironmentTagger&#45;&gt;TaggedDataRecord -->
<g id="edge7" class="edge"><title>EnvironmentTagger&#45;&gt;TaggedDataRecord</title>
<path fill="none" stroke="black" d="M768.472,-725.697C758.618,-716.965 746.514,-706.24 735.804,-696.75"/>
<polygon fill="black" stroke="black" points="738.109,-694.117 728.303,-690.104 733.467,-699.356 738.109,-694.117"/>
</g>
<!-- DataRecord -->
<g id="node8" class="node"><title>DataRecord</title>
<path fill="#ffffcc" stroke="black" d="M821.25,-834C821.25,-834 754.75,-834 754.75,-834 748.75,-834 742.75,-828 742.75,-822 742.75,-822 742.75,-810 742.75,-810 742.75,-804 748.75,-798 754.75,-798 754.75,-798 821.25,-798 821.25,-798 827.25,-798 833.25,-804 833.25,-810 833.25,-810 833.25,-822 833.25,-822 833.25,-828 827.25,-834 821.25,-834"/>
<text text-anchor="middle" x="788" y="-812.3" font-family="Helvetica,sans-Serif" font-size="14.00">DataRecord</text>
</g>
<!-- DataRecord&#45;&gt;EnvironmentTagger -->
<g id="edge13" class="edge"><title>DataRecord&#45;&gt;EnvironmentTagger</title>
<path fill="none" stroke="black" d="M788,-797.697C788,-789.983 788,-780.712 788,-772.112"/>
<polygon fill="black" stroke="black" points="791.5,-772.104 788,-762.104 784.5,-772.104 791.5,-772.104"/>
</g>
<!-- LogFile_outflow -->
<g id="node17" class="node"><title>LogFile_outflow</title>
<ellipse fill="none" stroke="black" cx="627" cy="-31" rx="7" ry="7"/>
</g>
<!-- LogFile&#45;&gt;LogFile_outflow -->
<g id="edge21" class="edge"><title>LogFile&#45;&gt;LogFile_outflow</title>
<path fill="none" stroke="black" d="M653.605,-365.952C653.022,-339.294 652,-286.119 652,-241 652,-241 652,-241 652,-167 652,-123.171 639.102,-72.6551 631.835,-47.6709"/>
<polygon fill="black" stroke="black" points="635.112,-46.4169 628.879,-37.8497 628.409,-48.4341 635.112,-46.4169"/>
</g>
<!-- TaggedDataRecord&#45;&gt;FilterExcludingMarine -->
<g id="edge15" class="edge"><title>TaggedDataRecord&#45;&gt;FilterExcludingMarine</title>
<path fill="none" stroke="black" d="M646.703,-653.966C610.156,-643.972 563.806,-631.298 525.609,-620.854"/>
<polygon fill="black" stroke="black" points="526.146,-617.372 515.577,-618.111 524.299,-624.124 526.146,-617.372"/>
</g>
<!-- TaggedDataRecord&#45;&gt;FilterToJustMarine -->
<g id="edge14" class="edge"><title>TaggedDataRecord&#45;&gt;FilterToJustMarine</title>
<path fill="none" stroke="black" d="M709,-653.697C709,-645.983 709,-636.712 709,-628.112"/>
<polygon fill="black" stroke="black" points="712.5,-628.104 709,-618.104 705.5,-628.104 712.5,-628.104"/>
</g>
<!-- MarineDataRecord[scientificName:scientificNameAuthorship]&#45;&gt;WoRMSLookup -->
<g id="edge16" class="edge"><title>MarineDataRecord[scientificName:scientificNameAuthorship]&#45;&gt;WoRMSLookup</title>
<path fill="none" stroke="black" d="M666.045,-509.697C664.282,-501.983 662.163,-492.712 660.197,-484.112"/>
<polygon fill="black" stroke="black" points="663.55,-483.073 657.91,-474.104 656.726,-484.633 663.55,-483.073"/>
</g>
<!-- noMarineDataRecord[scientificName:scientificNameAuthorship]&#45;&gt;GBIFLookup -->
<g id="edge17" class="edge"><title>noMarineDataRecord[scientificName:scientificNameAuthorship]&#45;&gt;GBIFLookup</title>
<path fill="none" stroke="black" d="M266.673,-509.876C287.632,-500.349 313.905,-488.407 336.177,-478.283"/>
<polygon fill="black" stroke="black" points="337.794,-481.393 345.45,-474.068 334.898,-475.02 337.794,-481.393"/>
</g>
<!-- WoRMSOutput&#45;&gt;StreamMerge -->
<g id="edge18" class="edge"><title>WoRMSOutput&#45;&gt;StreamMerge</title>
<path fill="none" stroke="black" d="M549,-365.697C549,-357.983 549,-348.712 549,-340.112"/>
<polygon fill="black" stroke="black" points="552.5,-340.104 549,-330.104 545.5,-340.104 552.5,-340.104"/>
</g>
<!-- GBIFOutput&#45;&gt;StreamMerge -->
<g id="edge19" class="edge"><title>GBIFOutput&#45;&gt;StreamMerge</title>
<path fill="none" stroke="black" d="M447.025,-365.876C465.085,-356.512 487.645,-344.814 506.951,-334.803"/>
<polygon fill="black" stroke="black" points="508.582,-337.9 515.848,-330.19 505.36,-331.686 508.582,-337.9"/>
</g>
<!-- MergedStream&#45;&gt;CsvFileWriter -->
<g id="edge20" class="edge"><title>MergedStream&#45;&gt;CsvFileWriter</title>
<path fill="none" stroke="black" d="M553.73,-221.697C554.502,-213.983 555.429,-204.712 556.289,-196.112"/>
<polygon fill="black" stroke="black" points="559.777,-196.403 557.29,-186.104 552.812,-195.706 559.777,-196.403"/>
</g>
<!-- OutputFile_outflow -->
<g id="node18" class="node"><title>OutputFile_outflow</title>
<ellipse fill="none" stroke="black" cx="595" cy="-31" rx="7" ry="7"/>
</g>
<!-- OutputFile&#45;&gt;OutputFile_outflow -->
<g id="edge22" class="edge"><title>OutputFile&#45;&gt;OutputFile_outflow</title>
<path fill="none" stroke="black" d="M577.558,-77.785C581.189,-68.2535 585.664,-56.5081 589.171,-47.3002"/>
<polygon fill="black" stroke="black" points="592.447,-48.532 592.737,-37.9411 585.906,-46.0399 592.447,-48.532"/>
</g>
</g>
</svg>
