<?xml version="1.0" encoding="UTF-8" standalone="no"?>
<!DOCTYPE svg PUBLIC "-//W3C//DTD SVG 1.1//EN"
 "http://www.w3.org/Graphics/SVG/1.1/DTD/svg11.dtd">
<!-- Generated by graphviz version 2.36.0 (20140111.2315)
 -->
<!-- Title: yw_data_view Pages: 1 -->
<svg width="940pt" height="952pt"
 viewBox="0.00 0.00 940.00 952.00" xmlns="http://www.w3.org/2000/svg" xmlns:xlink="http://www.w3.org/1999/xlink">
<g id="graph0" class="graph" transform="scale(1 1) rotate(0) translate(4 948)">
<title>yw_data_view</title>
<polygon fill="white" stroke="none" points="-4,4 -4,-948 936,-948 936,4 -4,4"/>
<text text-anchor="middle" x="466" y="-925.6" font-family="Courier,monospace" font-size="18.00">BranchingWorkflow</text>
<g id="clust1" class="cluster"><title>cluster_workflow</title>
<polygon fill="none" stroke="black" stroke-width="2" points="8,-62 8,-854 924,-854 924,-62 8,-62"/>
</g>
<g id="clust2" class="cluster"><title>cluster_workflow_inner</title>
<polygon fill="none" stroke="white" stroke-width="2" points="16,-70 16,-846 916,-846 916,-70 16,-70"/>
</g>
<g id="clust3" class="cluster"><title>cluster_inflows</title>
<polygon fill="none" stroke="white" stroke-width="2" points="577,-862 577,-908 655,-908 655,-862 577,-862"/>
</g>
<g id="clust4" class="cluster"><title>cluster_inflows_inner</title>
<polygon fill="none" stroke="white" stroke-width="2" points="585,-870 585,-900 647,-900 647,-870 585,-870"/>
</g>
<g id="clust5" class="cluster"><title>cluster_outflows</title>
<polygon fill="none" stroke="white" stroke-width="2" points="647,-8 647,-54 693,-54 693,-8 647,-8"/>
</g>
<g id="clust6" class="cluster"><title>cluster_outflows_inner</title>
<polygon fill="none" stroke="white" stroke-width="2" points="655,-16 655,-46 685,-46 685,-16 655,-16"/>
</g>
<!-- FileToDataStream -->
<g id="node1" class="node"><title>FileToDataStream</title>
<polygon fill="#ccffcc" stroke="black" points="790.25,-620 639.75,-620 639.75,-584 790.25,-584 790.25,-620"/>
<text text-anchor="middle" x="715" y="-598.3" font-family="Courier,monospace" font-size="14.00">FileToDataStream</text>
</g>
<!-- DataRecord -->
<g id="node9" class="node"><title>DataRecord</title>
<path fill="#ffffcc" stroke="black" d="M748.25,-548C748.25,-548 681.75,-548 681.75,-548 675.75,-548 669.75,-542 669.75,-536 669.75,-536 669.75,-524 669.75,-524 669.75,-518 675.75,-512 681.75,-512 681.75,-512 748.25,-512 748.25,-512 754.25,-512 760.25,-518 760.25,-524 760.25,-524 760.25,-536 760.25,-536 760.25,-542 754.25,-548 748.25,-548"/>
<text text-anchor="middle" x="715" y="-526.3" font-family="Helvetica,sans-Serif" font-size="14.00">DataRecord</text>
</g>
<!-- FileToDataStream&#45;&gt;DataRecord -->
<g id="edge10" class="edge"><title>FileToDataStream&#45;&gt;DataRecord</title>
<path fill="none" stroke="black" d="M715,-583.697C715,-575.983 715,-566.712 715,-558.112"/>
<polygon fill="black" stroke="black" points="718.5,-558.104 715,-548.104 711.5,-558.104 718.5,-558.104"/>
</g>
<!-- Setup -->
<g id="node2" class="node"><title>Setup</title>
<polygon fill="#ccffcc" stroke="black" points="744.25,-764 685.75,-764 685.75,-728 744.25,-728 744.25,-764"/>
<text text-anchor="middle" x="715" y="-742.3" font-family="Courier,monospace" font-size="14.00">Setup</text>
</g>
<!-- OccurrenceFile -->
<g id="node8" class="node"><title>OccurrenceFile</title>
<path fill="#ffffcc" stroke="black" d="M758.25,-692C758.25,-692 671.75,-692 671.75,-692 665.75,-692 659.75,-686 659.75,-680 659.75,-680 659.75,-668 659.75,-668 659.75,-662 665.75,-656 671.75,-656 671.75,-656 758.25,-656 758.25,-656 764.25,-656 770.25,-662 770.25,-668 770.25,-668 770.25,-680 770.25,-680 770.25,-686 764.25,-692 758.25,-692"/>
<text text-anchor="middle" x="715" y="-670.3" font-family="Helvetica,sans-Serif" font-size="14.00">OccurrenceFile</text>
</g>
<!-- Setup&#45;&gt;OccurrenceFile -->
<g id="edge9" class="edge"><title>Setup&#45;&gt;OccurrenceFile</title>
<path fill="none" stroke="black" d="M715,-727.697C715,-719.983 715,-710.712 715,-702.112"/>
<polygon fill="black" stroke="black" points="718.5,-702.104 715,-692.104 711.5,-702.104 718.5,-702.104"/>
</g>
<!-- GBIFLookup -->
<g id="node3" class="node"><title>GBIFLookup</title>
<polygon fill="#ccffcc" stroke="black" points="356.25,-188 255.75,-188 255.75,-152 356.25,-152 356.25,-188"/>
<text text-anchor="middle" x="306" y="-166.3" font-family="Courier,monospace" font-size="14.00">GBIFLookup</text>
</g>
<!-- LogFile -->
<g id="node14" class="node"><title>LogFile</title>
<path fill="#ffe4b5" stroke="black" d="M646.5,-79C646.5,-79 693.5,-79 693.5,-79 699.5,-79 705.5,-85 705.5,-91 705.5,-91 705.5,-103 705.5,-103 705.5,-109 699.5,-115 693.5,-115 693.5,-115 646.5,-115 646.5,-115 640.5,-115 634.5,-109 634.5,-103 634.5,-103 634.5,-91 634.5,-91 634.5,-85 640.5,-79 646.5,-79"/>
<text text-anchor="middle" x="670" y="-103.8" font-family="Courier,monospace" font-weight="bold" font-size="9.00">LogFile</text>
<polyline fill="none" stroke="black" points="634.5,-97 705.5,-97 "/>
<text text-anchor="start" x="642.5" y="-85.8" font-family="Courier,monospace" font-weight="bold" font-size="9.00">runlog.log</text>
</g>
<!-- GBIFLookup&#45;&gt;LogFile -->
<g id="edge18" class="edge"><title>GBIFLookup&#45;&gt;LogFile</title>
<path fill="none" stroke="black" d="M356.613,-159.128C427.684,-145.265 555.992,-120.238 624.306,-106.913"/>
<polygon fill="black" stroke="black" points="625.192,-110.306 634.337,-104.956 623.851,-103.436 625.192,-110.306"/>
</g>
<!-- WoRMSLookup -->
<g id="node4" class="node"><title>WoRMSLookup</title>
<polygon fill="#ccffcc" stroke="black" points="724.25,-188 615.75,-188 615.75,-152 724.25,-152 724.25,-188"/>
<text text-anchor="middle" x="670" y="-166.3" font-family="Courier,monospace" font-size="14.00">WoRMSLookup</text>
</g>
<!-- WoRMSLookup&#45;&gt;LogFile -->
<g id="edge17" class="edge"><title>WoRMSLookup&#45;&gt;LogFile</title>
<path fill="none" stroke="black" d="M670,-151.813C670,-143.789 670,-134.047 670,-125.069"/>
<polygon fill="black" stroke="black" points="673.5,-125.029 670,-115.029 666.5,-125.029 673.5,-125.029"/>
</g>
<!-- FilterExcludingMarine -->
<g id="node5" class="node"><title>FilterExcludingMarine</title>
<polygon fill="#ccffcc" stroke="black" points="549.25,-332 356.75,-332 356.75,-296 549.25,-296 549.25,-332"/>
<text text-anchor="middle" x="453" y="-310.3" font-family="Courier,monospace" font-size="14.00">FilterExcludingMarine</text>
</g>
<!-- noMarineDataRecord[scientificName:scientificNameAuthorship] -->
<g id="node12" class="node"><title>noMarineDataRecord[scientificName:scientificNameAuthorship]</title>
<path fill="#ffffcc" stroke="black" d="M422,-260C422,-260 36,-260 36,-260 30,-260 24,-254 24,-248 24,-248 24,-236 24,-236 24,-230 30,-224 36,-224 36,-224 422,-224 422,-224 428,-224 434,-230 434,-236 434,-236 434,-248 434,-248 434,-254 428,-260 422,-260"/>
<text text-anchor="middle" x="229" y="-238.3" font-family="Helvetica,sans-Serif" font-size="14.00">noMarineDataRecord[scientificName:scientificNameAuthorship]</text>
</g>
<!-- FilterExcludingMarine&#45;&gt;noMarineDataRecord[scientificName:scientificNameAuthorship] -->
<g id="edge16" class="edge"><title>FilterExcludingMarine&#45;&gt;noMarineDataRecord[scientificName:scientificNameAuthorship]</title>
<path fill="none" stroke="black" d="M398.49,-295.966C366.784,-286.057 326.645,-273.514 293.387,-263.121"/>
<polygon fill="black" stroke="black" points="294.343,-259.753 283.755,-260.111 292.255,-266.434 294.343,-259.753"/>
</g>
<!-- FilterExcludingMarine&#45;&gt;LogFile -->
<g id="edge15" class="edge"><title>FilterExcludingMarine&#45;&gt;LogFile</title>
<path fill="none" stroke="black" d="M450.932,-295.79C449.532,-276.697 450.001,-245.725 464,-224 501.497,-165.809 576.327,-130.265 624.729,-112.362"/>
<polygon fill="black" stroke="black" points="626.107,-115.586 634.335,-108.911 623.741,-108.998 626.107,-115.586"/>
</g>
<!-- FilterToJustMarine -->
<g id="node6" class="node"><title>FilterToJustMarine</title>
<polygon fill="#ccffcc" stroke="black" points="763,-332 595,-332 595,-296 763,-296 763,-332"/>
<text text-anchor="middle" x="679" y="-310.3" font-family="Courier,monospace" font-size="14.00">FilterToJustMarine</text>
</g>
<!-- MarineDataRecord[scientificName:scientificNameAuthorship] -->
<g id="node11" class="node"><title>MarineDataRecord[scientificName:scientificNameAuthorship]</title>
<path fill="#ffffcc" stroke="black" d="M855.25,-260C855.25,-260 484.75,-260 484.75,-260 478.75,-260 472.75,-254 472.75,-248 472.75,-248 472.75,-236 472.75,-236 472.75,-230 478.75,-224 484.75,-224 484.75,-224 855.25,-224 855.25,-224 861.25,-224 867.25,-230 867.25,-236 867.25,-236 867.25,-248 867.25,-248 867.25,-254 861.25,-260 855.25,-260"/>
<text text-anchor="middle" x="670" y="-238.3" font-family="Helvetica,sans-Serif" font-size="14.00">MarineDataRecord[scientificName:scientificNameAuthorship]</text>
</g>
<!-- FilterToJustMarine&#45;&gt;MarineDataRecord[scientificName:scientificNameAuthorship] -->
<g id="edge14" class="edge"><title>FilterToJustMarine&#45;&gt;MarineDataRecord[scientificName:scientificNameAuthorship]</title>
<path fill="none" stroke="black" d="M676.775,-295.697C675.783,-287.983 674.592,-278.712 673.486,-270.112"/>
<polygon fill="black" stroke="black" points="676.946,-269.576 672.199,-260.104 670.003,-270.469 676.946,-269.576"/>
</g>
<!-- FilterToJustMarine&#45;&gt;LogFile -->
<g id="edge13" class="edge"><title>FilterToJustMarine&#45;&gt;LogFile</title>
<path fill="none" stroke="black" d="M763.142,-300.75C810.044,-292.012 861.806,-278.517 876,-260 928.384,-191.661 790.733,-135.828 715.393,-111.359"/>
<polygon fill="black" stroke="black" points="716.235,-107.954 705.644,-108.254 714.111,-114.624 716.235,-107.954"/>
</g>
<!-- EnvironmentTagger -->
<g id="node7" class="node"><title>EnvironmentTagger</title>
<polygon fill="#ccffcc" stroke="black" points="794.25,-476 635.75,-476 635.75,-440 794.25,-440 794.25,-476"/>
<text text-anchor="middle" x="715" y="-454.3" font-family="Courier,monospace" font-size="14.00">EnvironmentTagger</text>
</g>
<!-- TaggedDataRecord -->
<g id="node10" class="node"><title>TaggedDataRecord</title>
<path fill="#ffffcc" stroke="black" d="M736.25,-404C736.25,-404 621.75,-404 621.75,-404 615.75,-404 609.75,-398 609.75,-392 609.75,-392 609.75,-380 609.75,-380 609.75,-374 615.75,-368 621.75,-368 621.75,-368 736.25,-368 736.25,-368 742.25,-368 748.25,-374 748.25,-380 748.25,-380 748.25,-392 748.25,-392 748.25,-398 742.25,-404 736.25,-404"/>
<text text-anchor="middle" x="679" y="-382.3" font-family="Helvetica,sans-Serif" font-size="14.00">TaggedDataRecord</text>
</g>
<!-- EnvironmentTagger&#45;&gt;TaggedDataRecord -->
<g id="edge12" class="edge"><title>EnvironmentTagger&#45;&gt;TaggedDataRecord</title>
<path fill="none" stroke="black" d="M706.101,-439.697C702.003,-431.728 697.051,-422.1 692.507,-413.264"/>
<polygon fill="black" stroke="black" points="695.483,-411.396 687.797,-404.104 689.258,-414.598 695.483,-411.396"/>
</g>
<!-- EnvironmentTagger&#45;&gt;LogFile -->
<g id="edge11" class="edge"><title>EnvironmentTagger&#45;&gt;LogFile</title>
<path fill="none" stroke="black" d="M776.014,-439.962C832.234,-420.098 907,-381.231 907,-315 907,-315 907,-315 907,-241 907,-152.667 784.813,-117.46 715.905,-104.628"/>
<polygon fill="black" stroke="black" points="716.196,-101.125 705.738,-102.824 714.973,-108.017 716.196,-101.125"/>
</g>
<!-- OccurrenceFile&#45;&gt;FileToDataStream -->
<g id="edge6" class="edge"><title>OccurrenceFile&#45;&gt;FileToDataStream</title>
<path fill="none" stroke="black" d="M715,-655.697C715,-647.983 715,-638.712 715,-630.112"/>
<polygon fill="black" stroke="black" points="718.5,-630.104 715,-620.104 711.5,-630.104 718.5,-630.104"/>
</g>
<!-- DataRecord&#45;&gt;EnvironmentTagger -->
<g id="edge5" class="edge"><title>DataRecord&#45;&gt;EnvironmentTagger</title>
<path fill="none" stroke="black" d="M715,-511.697C715,-503.983 715,-494.712 715,-486.112"/>
<polygon fill="black" stroke="black" points="718.5,-486.104 715,-476.104 711.5,-486.104 718.5,-486.104"/>
</g>
<!-- TaggedDataRecord&#45;&gt;FilterExcludingMarine -->
<g id="edge3" class="edge"><title>TaggedDataRecord&#45;&gt;FilterExcludingMarine</title>
<path fill="none" stroke="black" d="M624.003,-367.966C592.014,-358.057 551.516,-345.514 517.962,-335.121"/>
<polygon fill="black" stroke="black" points="518.831,-331.726 508.243,-332.111 516.76,-338.413 518.831,-331.726"/>
</g>
<!-- TaggedDataRecord&#45;&gt;FilterToJustMarine -->
<g id="edge4" class="edge"><title>TaggedDataRecord&#45;&gt;FilterToJustMarine</title>
<path fill="none" stroke="black" d="M679,-367.697C679,-359.983 679,-350.712 679,-342.112"/>
<polygon fill="black" stroke="black" points="682.5,-342.104 679,-332.104 675.5,-342.104 682.5,-342.104"/>
</g>
<!-- MarineDataRecord[scientificName:scientificNameAuthorship]&#45;&gt;WoRMSLookup -->
<g id="edge2" class="edge"><title>MarineDataRecord[scientificName:scientificNameAuthorship]&#45;&gt;WoRMSLookup</title>
<path fill="none" stroke="black" d="M670,-223.697C670,-215.983 670,-206.712 670,-198.112"/>
<polygon fill="black" stroke="black" points="673.5,-198.104 670,-188.104 666.5,-198.104 673.5,-198.104"/>
</g>
<!-- noMarineDataRecord[scientificName:scientificNameAuthorship]&#45;&gt;GBIFLookup -->
<g id="edge1" class="edge"><title>noMarineDataRecord[scientificName:scientificNameAuthorship]&#45;&gt;GBIFLookup</title>
<path fill="none" stroke="black" d="M248.034,-223.697C257.545,-215.05 269.207,-204.449 279.57,-195.027"/>
<polygon fill="black" stroke="black" points="282.14,-197.421 287.185,-188.104 277.431,-192.241 282.14,-197.421"/>
</g>
<!-- DarwinCoreFile -->
<g id="node13" class="node"><title>DarwinCoreFile</title>
<path fill="#ffe4b5" stroke="black" d="M572,-801C572,-801 878,-801 878,-801 884,-801 890,-807 890,-813 890,-813 890,-825 890,-825 890,-831 884,-837 878,-837 878,-837 572,-837 572,-837 566,-837 560,-831 560,-825 560,-825 560,-813 560,-813 560,-807 566,-801 572,-801"/>
<text text-anchor="middle" x="725" y="-825.8" font-family="Courier,monospace" font-weight="bold" font-size="9.00">DarwinCoreFile</text>
<polyline fill="none" stroke="black" points="560,-819 890,-819 "/>
<text text-anchor="start" x="568" y="-807.8" font-family="Courier,monospace" font-weight="bold" font-size="9.00">packages/kurator_branching/data/kurator_sample_data_v2.txt</text>
</g>
<!-- DarwinCoreFile&#45;&gt;Setup -->
<g id="edge7" class="edge"><title>DarwinCoreFile&#45;&gt;Setup</title>
<path fill="none" stroke="black" d="M722.579,-800.813C721.449,-792.789 720.077,-783.047 718.813,-774.069"/>
<polygon fill="black" stroke="black" points="722.259,-773.443 717.398,-764.029 715.327,-774.419 722.259,-773.443"/>
</g>
<!-- LogFile_outflow -->
<g id="node18" class="node"><title>LogFile_outflow</title>
<ellipse fill="none" stroke="black" cx="670" cy="-31" rx="7" ry="7"/>
</g>
<!-- LogFile&#45;&gt;LogFile_outflow -->
<g id="edge21" class="edge"><title>LogFile&#45;&gt;LogFile_outflow</title>
<path fill="none" stroke="black" d="M670,-78.8492C670,-69.3727 670,-57.6638 670,-48.3223"/>
<polygon fill="black" stroke="black" points="673.5,-48.1021 670,-38.1022 666.5,-48.1022 673.5,-48.1021"/>
</g>
<!-- InputFilePath -->
<g id="node15" class="node"><title>InputFilePath</title>
<path fill="#ffffff" stroke="black" d="M530,-837C530,-837 484,-837 484,-837 478,-837 472,-831 472,-825 472,-825 472,-813 472,-813 472,-807 478,-801 484,-801 484,-801 530,-801 530,-801 536,-801 542,-807 542,-813 542,-813 542,-825 542,-825 542,-831 536,-837 530,-837"/>
<text text-anchor="middle" x="507" y="-816.8" font-family="Helvetica,sans-Serif" font-size="9.00">InputFilePath</text>
</g>
<!-- InputFilePath&#45;&gt;Setup -->
<g id="edge8" class="edge"><title>InputFilePath&#45;&gt;Setup</title>
<path fill="none" stroke="black" d="M542.452,-803.228C545.333,-802.109 548.209,-801.02 551,-800 593.278,-784.546 642.501,-768.952 675.907,-758.72"/>
<polygon fill="black" stroke="black" points="677.196,-761.986 685.741,-755.723 675.155,-755.29 677.196,-761.986"/>
</g>
<!-- DarwinCoreFile_inflow -->
<g id="node16" class="node"><title>DarwinCoreFile_inflow</title>
<ellipse fill="none" stroke="black" cx="632" cy="-885" rx="7" ry="7"/>
</g>
<!-- DarwinCoreFile_inflow&#45;&gt;DarwinCoreFile -->
<g id="edge19" class="edge"><title>DarwinCoreFile_inflow&#45;&gt;DarwinCoreFile</title>
<path fill="none" stroke="black" d="M637.267,-880.376C647.622,-873.249 671.384,-856.897 691.569,-843.006"/>
<polygon fill="black" stroke="black" points="693.698,-845.79 699.952,-837.238 689.73,-840.023 693.698,-845.79"/>
</g>
<!-- InputFilePath_inflow -->
<g id="node17" class="node"><title>InputFilePath_inflow</title>
<ellipse fill="none" stroke="black" cx="600" cy="-885" rx="7" ry="7"/>
</g>
<!-- InputFilePath_inflow&#45;&gt;InputFilePath -->
<g id="edge20" class="edge"><title>InputFilePath_inflow&#45;&gt;InputFilePath</title>
<path fill="none" stroke="black" d="M594.138,-880.688C584.813,-875.358 566.11,-864.418 551,-854 546.112,-850.63 541.033,-846.917 536.138,-843.22"/>
<polygon fill="black" stroke="black" points="538.2,-840.391 528.137,-837.077 533.937,-845.943 538.2,-840.391"/>
</g>
</g>
</svg>
