<?xml version="1.0" encoding="UTF-8" standalone="no"?>
<!DOCTYPE svg PUBLIC "-//W3C//DTD SVG 1.1//EN"
 "http://www.w3.org/Graphics/SVG/1.1/DTD/svg11.dtd">
<!-- Generated by graphviz version 2.36.0 (20140111.2315)
 -->
<!-- Title: yw_data_view Pages: 1 -->
<svg width="888pt" height="1258pt"
 viewBox="0.00 0.00 888.00 1258.00" xmlns="http://www.w3.org/2000/svg" xmlns:xlink="http://www.w3.org/1999/xlink">
<g id="graph0" class="graph" transform="scale(1 1) rotate(0) translate(4 1254)">
<title>yw_data_view</title>
<polygon fill="white" stroke="none" points="-4,4 -4,-1254 884,-1254 884,4 -4,4"/>
<text text-anchor="middle" x="440" y="-1231.6" font-family="Courier,monospace" font-size="18.00">BranchingWorkflow</text>
<g id="clust5" class="cluster"><title>cluster_outflows</title>
<polygon fill="none" stroke="white" stroke-width="2" points="455,-8 455,-54 533,-54 533,-8 455,-8"/>
</g>
<g id="clust6" class="cluster"><title>cluster_outflows_inner</title>
<polygon fill="none" stroke="white" stroke-width="2" points="463,-16 463,-46 525,-46 525,-16 463,-16"/>
</g>
<g id="clust3" class="cluster"><title>cluster_inflows</title>
<polygon fill="none" stroke="white" stroke-width="2" points="156,-1168 156,-1214 234,-1214 234,-1168 156,-1168"/>
</g>
<g id="clust4" class="cluster"><title>cluster_inflows_inner</title>
<polygon fill="none" stroke="white" stroke-width="2" points="164,-1176 164,-1206 226,-1206 226,-1176 164,-1176"/>
</g>
<g id="clust1" class="cluster"><title>cluster_workflow</title>
<polygon fill="none" stroke="black" stroke-width="2" points="8,-62 8,-1160 872,-1160 872,-62 8,-62"/>
</g>
<g id="clust2" class="cluster"><title>cluster_workflow_inner</title>
<polygon fill="none" stroke="white" stroke-width="2" points="16,-70 16,-1152 864,-1152 864,-70 16,-70"/>
</g>
<!-- FilterExcludingMarine -->
<g id="node1" class="node"><title>FilterExcludingMarine</title>
<polygon fill="#d6d6d7" stroke="black" points="560.25,-634 367.75,-634 367.75,-598 560.25,-598 560.25,-634"/>
<text text-anchor="middle" x="464" y="-612.3" font-family="Courier,monospace" font-size="14.00">FilterExcludingMarine</text>
</g>
<!-- noMarineDataRecord[scientificName:scientificNameAuthorship] -->
<g id="node10" class="node"><title>noMarineDataRecord[scientificName:scientificNameAuthorship]</title>
<path fill="#d6d6d7" stroke="black" d="M56,-525C56,-525 442,-525 442,-525 448,-525 454,-531 454,-537 454,-537 454,-549 454,-549 454,-555 448,-561 442,-561 442,-561 56,-561 56,-561 50,-561 44,-555 44,-549 44,-549 44,-537 44,-537 44,-531 50,-525 56,-525"/>
<text text-anchor="middle" x="249" y="-539.3" font-family="Helvetica,sans-Serif" font-size="14.00">noMarineDataRecord[scientificName:scientificNameAuthorship]</text>
</g>
<!-- FilterExcludingMarine&#45;&gt;noMarineDataRecord[scientificName:scientificNameAuthorship] -->
<g id="edge21" class="edge"><title>FilterExcludingMarine&#45;&gt;noMarineDataRecord[scientificName:scientificNameAuthorship]</title>
<path fill="none" stroke="black" d="M412.502,-597.994C381.879,-587.881 342.845,-574.991 310.596,-564.341"/>
<polygon fill="black" stroke="black" points="311.416,-560.926 300.823,-561.114 309.221,-567.573 311.416,-560.926"/>
</g>
<!-- LogFile -->
<g id="node20" class="node"><title>LogFile</title>
<path fill="#ffe4b5" stroke="black" d="M605.5,-374C605.5,-374 652.5,-374 652.5,-374 658.5,-374 664.5,-380 664.5,-386 664.5,-386 664.5,-398 664.5,-398 664.5,-404 658.5,-410 652.5,-410 652.5,-410 605.5,-410 605.5,-410 599.5,-410 593.5,-404 593.5,-398 593.5,-398 593.5,-386 593.5,-386 593.5,-380 599.5,-374 605.5,-374"/>
<text text-anchor="middle" x="629" y="-398.8" font-family="Courier,monospace" font-weight="bold" font-size="9.00">LogFile</text>
<polyline fill="none" stroke="black" points="593.5,-392 664.5,-392 "/>
<text text-anchor="middle" x="629" y="-380.8" font-family="Courier,monospace" font-weight="bold" font-size="9.00">runlog.log</text>
</g>
<!-- FilterExcludingMarine&#45;&gt;LogFile -->
<g id="edge20" class="edge"><title>FilterExcludingMarine&#45;&gt;LogFile</title>
<path fill="none" stroke="black" d="M464.435,-597.774C465.607,-578.585 469.626,-547.214 483,-524 509.685,-477.68 558.538,-438.911 592.341,-415.848"/>
<polygon fill="black" stroke="black" points="594.649,-418.515 601.016,-410.047 590.757,-412.696 594.649,-418.515"/>
</g>
<!-- GBIFLookup -->
<g id="node2" class="node"><title>GBIFLookup</title>
<polygon fill="#d6d6d7" stroke="black" points="323.25,-488 222.75,-488 222.75,-452 323.25,-452 323.25,-488"/>
<text text-anchor="middle" x="273" y="-466.3" font-family="Courier,monospace" font-size="14.00">GBIFLookup</text>
</g>
<!-- GBIFOutput -->
<g id="node11" class="node"><title>GBIFOutput</title>
<path fill="#d6d6d7" stroke="black" d="M239.5,-368.5C239.5,-368.5 306.5,-368.5 306.5,-368.5 312.5,-368.5 318.5,-374.5 318.5,-380.5 318.5,-380.5 318.5,-403.5 318.5,-403.5 318.5,-409.5 312.5,-415.5 306.5,-415.5 306.5,-415.5 239.5,-415.5 239.5,-415.5 233.5,-415.5 227.5,-409.5 227.5,-403.5 227.5,-403.5 227.5,-380.5 227.5,-380.5 227.5,-374.5 233.5,-368.5 239.5,-368.5"/>
<text text-anchor="middle" x="273" y="-400.3" font-family="Helvetica,sans-Serif" font-size="14.00">GBIFOutput</text>
<polyline fill="none" stroke="black" points="227.5,-392.5 318.5,-392.5 "/>
</g>
<!-- GBIFLookup&#45;&gt;GBIFOutput -->
<g id="edge25" class="edge"><title>GBIFLookup&#45;&gt;GBIFOutput</title>
<path fill="none" stroke="black" d="M273,-451.754C273,-444.074 273,-434.761 273,-425.836"/>
<polygon fill="black" stroke="black" points="276.5,-425.658 273,-415.658 269.5,-425.658 276.5,-425.658"/>
</g>
<!-- GBIFLookup&#45;&gt;LogFile -->
<g id="edge24" class="edge"><title>GBIFLookup&#45;&gt;LogFile</title>
<path fill="none" stroke="black" d="M323.419,-465.14C385.893,-459.291 494.984,-445.563 584,-416 585.66,-415.449 587.335,-414.844 589.011,-414.197"/>
<polygon fill="black" stroke="black" points="590.733,-417.267 598.55,-410.115 587.979,-410.831 590.733,-417.267"/>
</g>
<!-- Setup -->
<g id="node3" class="node"><title>Setup</title>
<polygon fill="#ccffcc" stroke="black" points="128.25,-1070 69.75,-1070 69.75,-1034 128.25,-1034 128.25,-1070"/>
<text text-anchor="middle" x="99" y="-1048.3" font-family="Courier,monospace" font-size="14.00">Setup</text>
</g>
<!-- Workspace -->
<g id="node17" class="node"><title>Workspace</title>
<path fill="#ffffcc" stroke="black" d="M87,-926C87,-926 49,-926 49,-926 43,-926 37,-920 37,-914 37,-914 37,-902 37,-902 37,-896 43,-890 49,-890 49,-890 87,-890 87,-890 93,-890 99,-896 99,-902 99,-902 99,-914 99,-914 99,-920 93,-926 87,-926"/>
<text text-anchor="middle" x="68" y="-905.8" font-family="Helvetica,sans-Serif" font-size="9.00">Workspace</text>
</g>
<!-- Setup&#45;&gt;Workspace -->
<g id="edge13" class="edge"><title>Setup&#45;&gt;Workspace</title>
<path fill="none" stroke="black" d="M95.2607,-1033.87C89.954,-1009.56 80.1858,-964.819 73.8973,-936.013"/>
<polygon fill="black" stroke="black" points="77.305,-935.213 71.7526,-926.189 70.4661,-936.706 77.305,-935.213"/>
</g>
<!-- OccurrenceFile -->
<g id="node18" class="node"><title>OccurrenceFile</title>
<path fill="#ffffcc" stroke="black" d="M203,-998C203,-998 149,-998 149,-998 143,-998 137,-992 137,-986 137,-986 137,-974 137,-974 137,-968 143,-962 149,-962 149,-962 203,-962 203,-962 209,-962 215,-968 215,-974 215,-974 215,-986 215,-986 215,-992 209,-998 203,-998"/>
<text text-anchor="middle" x="176" y="-977.8" font-family="Helvetica,sans-Serif" font-size="9.00">OccurrenceFile</text>
</g>
<!-- Setup&#45;&gt;OccurrenceFile -->
<g id="edge14" class="edge"><title>Setup&#45;&gt;OccurrenceFile</title>
<path fill="none" stroke="black" d="M118.034,-1033.7C127.545,-1025.05 139.207,-1014.45 149.57,-1005.03"/>
<polygon fill="black" stroke="black" points="152.14,-1007.42 157.185,-998.104 147.431,-1002.24 152.14,-1007.42"/>
</g>
<!-- FileToDataStream -->
<g id="node4" class="node"><title>FileToDataStream</title>
<polygon fill="#ccffcc" stroke="black" points="399.25,-926 248.75,-926 248.75,-890 399.25,-890 399.25,-926"/>
<text text-anchor="middle" x="324" y="-904.3" font-family="Courier,monospace" font-size="14.00">FileToDataStream</text>
</g>
<!-- DataRecord -->
<g id="node12" class="node"><title>DataRecord</title>
<path fill="#f8d2db" stroke="black" d="M352,-817C352,-817 426,-817 426,-817 432,-817 438,-823 438,-829 438,-829 438,-841 438,-841 438,-847 432,-853 426,-853 426,-853 352,-853 352,-853 346,-853 340,-847 340,-841 340,-841 340,-829 340,-829 340,-823 346,-817 352,-817"/>
<text text-anchor="middle" x="389" y="-841.8" font-family="Courier,monospace" font-weight="bold" font-size="9.00">DataRecord</text>
<polyline fill="none" stroke="black" points="340,-835 438,-835 "/>
<text text-anchor="middle" x="389" y="-823.8" font-family="Courier,monospace" font-weight="bold" font-size="9.00">MCZ:Mala:121655</text>
</g>
<!-- FileToDataStream&#45;&gt;DataRecord -->
<g id="edge15" class="edge"><title>FileToDataStream&#45;&gt;DataRecord</title>
<path fill="none" stroke="black" d="M339.735,-889.813C347.799,-881.005 357.759,-870.125 366.608,-860.458"/>
<polygon fill="black" stroke="black" points="369.239,-862.768 373.41,-853.029 364.076,-858.041 369.239,-862.768"/>
</g>
<!-- EnvironmentTagger -->
<g id="node5" class="node"><title>EnvironmentTagger</title>
<polygon fill="#ccffcc" stroke="black" points="642.25,-780 483.75,-780 483.75,-744 642.25,-744 642.25,-780"/>
<text text-anchor="middle" x="563" y="-758.3" font-family="Courier,monospace" font-size="14.00">EnvironmentTagger</text>
</g>
<!-- TaggedDataRecord -->
<g id="node13" class="node"><title>TaggedDataRecord</title>
<path fill="#f8d2db" stroke="black" d="M523.5,-671C523.5,-671 602.5,-671 602.5,-671 608.5,-671 614.5,-677 614.5,-683 614.5,-683 614.5,-695 614.5,-695 614.5,-701 608.5,-707 602.5,-707 602.5,-707 523.5,-707 523.5,-707 517.5,-707 511.5,-701 511.5,-695 511.5,-695 511.5,-683 511.5,-683 511.5,-677 517.5,-671 523.5,-671"/>
<text text-anchor="middle" x="563" y="-695.8" font-family="Courier,monospace" font-weight="bold" font-size="9.00">TaggedDataRecord</text>
<polyline fill="none" stroke="black" points="511.5,-689 614.5,-689 "/>
<text text-anchor="middle" x="563" y="-677.8" font-family="Courier,monospace" font-weight="bold" font-size="9.00">Marine</text>
</g>
<!-- EnvironmentTagger&#45;&gt;TaggedDataRecord -->
<g id="edge17" class="edge"><title>EnvironmentTagger&#45;&gt;TaggedDataRecord</title>
<path fill="none" stroke="black" d="M563,-743.813C563,-735.789 563,-726.047 563,-717.069"/>
<polygon fill="black" stroke="black" points="566.5,-717.029 563,-707.029 559.5,-717.029 566.5,-717.029"/>
</g>
<!-- EnvironmentTagger&#45;&gt;LogFile -->
<g id="edge16" class="edge"><title>EnvironmentTagger&#45;&gt;LogFile</title>
<path fill="none" stroke="black" d="M642.405,-755.363C728.872,-744.397 855,-712.101 855,-617 855,-617 855,-617 855,-542 855,-456.461 740.756,-417.236 674.721,-401.708"/>
<polygon fill="black" stroke="black" points="675.086,-398.203 664.561,-399.416 673.546,-405.031 675.086,-398.203"/>
</g>
<!-- FilterToJustMarine -->
<g id="node6" class="node"><title>FilterToJustMarine</title>
<polygon fill="#ccffcc" stroke="black" points="747,-634 579,-634 579,-598 747,-598 747,-634"/>
<text text-anchor="middle" x="663" y="-612.3" font-family="Courier,monospace" font-size="14.00">FilterToJustMarine</text>
</g>
<!-- MarineDataRecord[scientificName:scientificNameAuthorship] -->
<g id="node14" class="node"><title>MarineDataRecord[scientificName:scientificNameAuthorship]</title>
<path fill="#f8d2db" stroke="black" d="M504,-525C504,-525 804,-525 804,-525 810,-525 816,-531 816,-537 816,-537 816,-549 816,-549 816,-555 810,-561 804,-561 804,-561 504,-561 504,-561 498,-561 492,-555 492,-549 492,-549 492,-537 492,-537 492,-531 498,-525 504,-525"/>
<text text-anchor="middle" x="654" y="-540.8" font-family="Courier,monospace" font-weight="bold" font-size="9.00">MarineDataRecord[scientificName:scientificNameAuthorship]</text>
</g>
<!-- FilterToJustMarine&#45;&gt;MarineDataRecord[scientificName:scientificNameAuthorship] -->
<g id="edge19" class="edge"><title>FilterToJustMarine&#45;&gt;MarineDataRecord[scientificName:scientificNameAuthorship]</title>
<path fill="none" stroke="black" d="M660.821,-597.813C659.804,-589.789 658.569,-580.047 657.431,-571.069"/>
<polygon fill="black" stroke="black" points="660.888,-570.509 656.159,-561.029 653.944,-571.39 660.888,-570.509"/>
</g>
<!-- FilterToJustMarine&#45;&gt;LogFile -->
<g id="edge18" class="edge"><title>FilterToJustMarine&#45;&gt;LogFile</title>
<path fill="none" stroke="black" d="M747.409,-607.486C776.812,-600.335 806.936,-586.916 825,-562 834.913,-548.327 832.96,-538.895 825,-524 793.236,-464.564 721.249,-427.392 673.921,-408.432"/>
<polygon fill="black" stroke="black" points="675.101,-405.135 664.512,-404.771 672.562,-411.658 675.101,-405.135"/>
</g>
<!-- WoRMSLookup -->
<g id="node7" class="node"><title>WoRMSLookup</title>
<polygon fill="#ccffcc" stroke="black" points="683.25,-488 574.75,-488 574.75,-452 683.25,-452 683.25,-488"/>
<text text-anchor="middle" x="629" y="-466.3" font-family="Courier,monospace" font-size="14.00">WoRMSLookup</text>
</g>
<!-- WoRMSOutput -->
<g id="node15" class="node"><title>WoRMSOutput</title>
<path fill="#f8d2db" stroke="black" d="M349,-374C349,-374 563,-374 563,-374 569,-374 575,-380 575,-386 575,-386 575,-398 575,-398 575,-404 569,-410 563,-410 563,-410 349,-410 349,-410 343,-410 337,-404 337,-398 337,-398 337,-386 337,-386 337,-380 343,-374 349,-374"/>
<text text-anchor="middle" x="456" y="-398.8" font-family="Courier,monospace" font-weight="bold" font-size="9.00">WoRMSOutput</text>
<polyline fill="none" stroke="black" points="337,-392 575,-392 "/>
<text text-anchor="middle" x="456" y="-380.8" font-family="Courier,monospace" font-weight="bold" font-size="9.00">urn:lsid:marinespecies.org:taxname:527827</text>
</g>
<!-- WoRMSLookup&#45;&gt;WoRMSOutput -->
<g id="edge23" class="edge"><title>WoRMSLookup&#45;&gt;WoRMSOutput</title>
<path fill="none" stroke="black" d="M590.175,-451.944C564.778,-440.787 531.406,-426.126 504.298,-414.218"/>
<polygon fill="black" stroke="black" points="505.557,-410.948 494.994,-410.13 502.742,-417.357 505.557,-410.948"/>
</g>
<!-- WoRMSLookup&#45;&gt;LogFile -->
<g id="edge22" class="edge"><title>WoRMSLookup&#45;&gt;LogFile</title>
<path fill="none" stroke="black" d="M629,-451.754C629,-442.523 629,-430.935 629,-420.495"/>
<polygon fill="black" stroke="black" points="632.5,-420.177 629,-410.177 625.5,-420.177 632.5,-420.177"/>
</g>
<!-- StreamMerge -->
<g id="node8" class="node"><title>StreamMerge</title>
<polygon fill="#ccffcc" stroke="black" points="362.25,-332 253.75,-332 253.75,-296 362.25,-296 362.25,-332"/>
<text text-anchor="middle" x="308" y="-310.3" font-family="Courier,monospace" font-size="14.00">StreamMerge</text>
</g>
<!-- MergedStream -->
<g id="node19" class="node"><title>MergedStream</title>
<path fill="#ffffcc" stroke="black" d="M334,-260C334,-260 282,-260 282,-260 276,-260 270,-254 270,-248 270,-248 270,-236 270,-236 270,-230 276,-224 282,-224 282,-224 334,-224 334,-224 340,-224 346,-230 346,-236 346,-236 346,-248 346,-248 346,-254 340,-260 334,-260"/>
<text text-anchor="middle" x="308" y="-239.8" font-family="Helvetica,sans-Serif" font-size="9.00">MergedStream</text>
</g>
<!-- StreamMerge&#45;&gt;MergedStream -->
<g id="edge26" class="edge"><title>StreamMerge&#45;&gt;MergedStream</title>
<path fill="none" stroke="black" d="M308,-295.697C308,-287.983 308,-278.712 308,-270.112"/>
<polygon fill="black" stroke="black" points="311.5,-270.104 308,-260.104 304.5,-270.104 311.5,-270.104"/>
</g>
<!-- CsvFileWriter -->
<g id="node9" class="node"><title>CsvFileWriter</title>
<polygon fill="#ccffcc" stroke="black" points="371,-188 245,-188 245,-152 371,-152 371,-188"/>
<text text-anchor="middle" x="308" y="-166.3" font-family="Courier,monospace" font-size="14.00">CsvFileWriter</text>
</g>
<!-- OutputFile -->
<g id="node21" class="node"><title>OutputFile</title>
<path fill="#ffe4b5" stroke="black" d="M200,-79C200,-79 554,-79 554,-79 560,-79 566,-85 566,-91 566,-91 566,-103 566,-103 566,-109 560,-115 554,-115 554,-115 200,-115 200,-115 194,-115 188,-109 188,-103 188,-103 188,-91 188,-91 188,-85 194,-79 200,-79"/>
<text text-anchor="middle" x="377" y="-103.8" font-family="Courier,monospace" font-weight="bold" font-size="9.00">OutputFile</text>
<polyline fill="none" stroke="black" points="188,-97 566,-97 "/>
<text text-anchor="middle" x="377" y="-85.8" font-family="Courier,monospace" font-weight="bold" font-size="9.00">workspace_e17253f0&#45;52f9&#45;11e7&#45;9a79&#45;acbc3296f741/mergedoutputfile.csv</text>
</g>
<!-- CsvFileWriter&#45;&gt;OutputFile -->
<g id="edge27" class="edge"><title>CsvFileWriter&#45;&gt;OutputFile</title>
<path fill="none" stroke="black" d="M324.703,-151.813C333.263,-143.005 343.836,-132.125 353.231,-122.458"/>
<polygon fill="black" stroke="black" points="355.991,-124.64 360.451,-115.029 350.971,-119.761 355.991,-124.64"/>
</g>
<!-- noMarineDataRecord[scientificName:scientificNameAuthorship]&#45;&gt;GBIFLookup -->
<g id="edge9" class="edge"><title>noMarineDataRecord[scientificName:scientificNameAuthorship]&#45;&gt;GBIFLookup</title>
<path fill="none" stroke="black" d="M254.81,-524.813C257.551,-516.702 260.887,-506.836 263.949,-497.777"/>
<polygon fill="black" stroke="black" points="267.357,-498.623 267.244,-488.029 260.726,-496.381 267.357,-498.623"/>
</g>
<!-- GBIFOutput&#45;&gt;StreamMerge -->
<g id="edge11" class="edge"><title>GBIFOutput&#45;&gt;StreamMerge</title>
<path fill="none" stroke="black" d="M283.501,-368.197C287.363,-359.811 291.77,-350.242 295.772,-341.553"/>
<polygon fill="black" stroke="black" points="299.062,-342.775 300.066,-332.228 292.704,-339.847 299.062,-342.775"/>
</g>
<!-- DataRecord&#45;&gt;EnvironmentTagger -->
<g id="edge5" class="edge"><title>DataRecord&#45;&gt;EnvironmentTagger</title>
<path fill="none" stroke="black" d="M430.677,-816.994C455.033,-807.055 485.964,-794.434 511.795,-783.894"/>
<polygon fill="black" stroke="black" points="513.123,-787.132 521.06,-780.114 510.478,-780.651 513.123,-787.132"/>
</g>
<!-- TaggedDataRecord&#45;&gt;FilterExcludingMarine -->
<g id="edge7" class="edge"><title>TaggedDataRecord&#45;&gt;FilterExcludingMarine</title>
<path fill="none" stroke="black" d="M539.287,-670.994C526.402,-661.753 510.282,-650.192 496.268,-640.142"/>
<polygon fill="black" stroke="black" points="498.029,-637.097 487.863,-634.114 493.949,-642.786 498.029,-637.097"/>
</g>
<!-- TaggedDataRecord&#45;&gt;FilterToJustMarine -->
<g id="edge6" class="edge"><title>TaggedDataRecord&#45;&gt;FilterToJustMarine</title>
<path fill="none" stroke="black" d="M586.952,-670.994C599.968,-661.753 616.25,-650.192 630.406,-640.142"/>
<polygon fill="black" stroke="black" points="632.769,-642.757 638.896,-634.114 628.716,-637.049 632.769,-642.757"/>
</g>
<!-- MarineDataRecord[scientificName:scientificNameAuthorship]&#45;&gt;WoRMSLookup -->
<g id="edge8" class="edge"><title>MarineDataRecord[scientificName:scientificNameAuthorship]&#45;&gt;WoRMSLookup</title>
<path fill="none" stroke="black" d="M647.948,-524.813C645.062,-516.615 641.543,-506.623 638.326,-497.485"/>
<polygon fill="black" stroke="black" points="641.619,-496.299 634.996,-488.029 635.016,-498.624 641.619,-496.299"/>
</g>
<!-- WoRMSOutput&#45;&gt;StreamMerge -->
<g id="edge10" class="edge"><title>WoRMSOutput&#45;&gt;StreamMerge</title>
<path fill="none" stroke="black" d="M422.786,-373.944C401.438,-362.982 373.504,-348.637 350.538,-336.844"/>
<polygon fill="black" stroke="black" points="351.853,-333.585 341.359,-332.13 348.656,-339.812 351.853,-333.585"/>
</g>
<!-- DarwinCoreFile -->
<g id="node16" class="node"><title>DarwinCoreFile</title>
<path fill="#ffe4b5" stroke="black" d="M151,-1107C151,-1107 457,-1107 457,-1107 463,-1107 469,-1113 469,-1119 469,-1119 469,-1131 469,-1131 469,-1137 463,-1143 457,-1143 457,-1143 151,-1143 151,-1143 145,-1143 139,-1137 139,-1131 139,-1131 139,-1119 139,-1119 139,-1113 145,-1107 151,-1107"/>
<text text-anchor="middle" x="304" y="-1131.8" font-family="Courier,monospace" font-weight="bold" font-size="9.00">DarwinCoreFile</text>
<polyline fill="none" stroke="black" points="139,-1125 469,-1125 "/>
<text text-anchor="middle" x="304" y="-1113.8" font-family="Courier,monospace" font-weight="bold" font-size="9.00">packages/kurator_branching/data/kurator_sample_data_v2.txt</text>
</g>
<!-- DarwinCoreFile&#45;&gt;Setup -->
<g id="edge2" class="edge"><title>DarwinCoreFile&#45;&gt;Setup</title>
<path fill="none" stroke="black" d="M254.897,-1106.99C219.151,-1094.61 171.383,-1078.07 138.184,-1066.57"/>
<polygon fill="black" stroke="black" points="138.972,-1063.14 128.377,-1063.17 136.681,-1069.75 138.972,-1063.14"/>
</g>
<!-- Workspace&#45;&gt;CsvFileWriter -->
<g id="edge3" class="edge"><title>Workspace&#45;&gt;CsvFileWriter</title>
<path fill="none" stroke="black" d="M59.2983,-889.763C46.7336,-863.235 25,-810.485 25,-763 25,-763 25,-763 25,-313 25,-219.107 150.984,-187.293 234.836,-176.516"/>
<polygon fill="black" stroke="black" points="235.335,-179.982 244.842,-175.304 234.493,-173.032 235.335,-179.982"/>
</g>
<!-- OccurrenceFile&#45;&gt;FileToDataStream -->
<g id="edge4" class="edge"><title>OccurrenceFile&#45;&gt;FileToDataStream</title>
<path fill="none" stroke="black" d="M212.205,-961.876C232.258,-952.392 257.372,-940.513 278.714,-930.419"/>
<polygon fill="black" stroke="black" points="280.369,-933.508 287.913,-926.068 277.376,-927.18 280.369,-933.508"/>
</g>
<!-- MergedStream&#45;&gt;CsvFileWriter -->
<g id="edge12" class="edge"><title>MergedStream&#45;&gt;CsvFileWriter</title>
<path fill="none" stroke="black" d="M308,-223.697C308,-215.983 308,-206.712 308,-198.112"/>
<polygon fill="black" stroke="black" points="311.5,-198.104 308,-188.104 304.5,-198.104 311.5,-198.104"/>
</g>
<!-- LogFile_outflow -->
<g id="node25" class="node"><title>LogFile_outflow</title>
<ellipse fill="none" stroke="black" cx="510" cy="-31" rx="7" ry="7"/>
</g>
<!-- LogFile&#45;&gt;LogFile_outflow -->
<g id="edge30" class="edge"><title>LogFile&#45;&gt;LogFile_outflow</title>
<path fill="none" stroke="black" d="M625.529,-373.766C620.299,-346.247 611,-290.626 611,-243 611,-243 611,-243 611,-169 611,-118.825 608.515,-99.3399 575,-62 562.166,-47.7011 541.128,-39.7317 526.476,-35.6617"/>
<polygon fill="black" stroke="black" points="527.304,-32.2611 516.757,-33.2692 525.63,-39.0581 527.304,-32.2611"/>
</g>
<!-- OutputFile_outflow -->
<g id="node26" class="node"><title>OutputFile_outflow</title>
<ellipse fill="none" stroke="black" cx="478" cy="-31" rx="7" ry="7"/>
</g>
<!-- OutputFile&#45;&gt;OutputFile_outflow -->
<g id="edge31" class="edge"><title>OutputFile&#45;&gt;OutputFile_outflow</title>
<path fill="none" stroke="black" d="M404.066,-78.8492C423.239,-66.6999 448.203,-50.8812 463.661,-41.0862"/>
<polygon fill="black" stroke="black" points="465.716,-43.9275 472.29,-35.6185 461.969,-38.0146 465.716,-43.9275"/>
</g>
<!-- InputFilePath -->
<g id="node22" class="node"><title>InputFilePath</title>
<path fill="#ffffff" stroke="black" d="M109,-1143C109,-1143 63,-1143 63,-1143 57,-1143 51,-1137 51,-1131 51,-1131 51,-1119 51,-1119 51,-1113 57,-1107 63,-1107 63,-1107 109,-1107 109,-1107 115,-1107 121,-1113 121,-1119 121,-1119 121,-1131 121,-1131 121,-1137 115,-1143 109,-1143"/>
<text text-anchor="middle" x="86" y="-1122.8" font-family="Helvetica,sans-Serif" font-size="9.00">InputFilePath</text>
</g>
<!-- InputFilePath&#45;&gt;Setup -->
<g id="edge1" class="edge"><title>InputFilePath&#45;&gt;Setup</title>
<path fill="none" stroke="black" d="M89.1469,-1106.81C90.616,-1098.79 92.3998,-1089.05 94.0437,-1080.07"/>
<polygon fill="black" stroke="black" points="97.5237,-1080.5 95.882,-1070.03 90.6382,-1079.23 97.5237,-1080.5"/>
</g>
<!-- DarwinCoreFile_inflow -->
<g id="node23" class="node"><title>DarwinCoreFile_inflow</title>
<ellipse fill="none" stroke="black" cx="211" cy="-1191" rx="7" ry="7"/>
</g>
<!-- DarwinCoreFile_inflow&#45;&gt;DarwinCoreFile -->
<g id="edge28" class="edge"><title>DarwinCoreFile_inflow&#45;&gt;DarwinCoreFile</title>
<path fill="none" stroke="black" d="M216.267,-1186.38C226.622,-1179.25 250.384,-1162.9 270.569,-1149.01"/>
<polygon fill="black" stroke="black" points="272.698,-1151.79 278.952,-1143.24 268.73,-1146.02 272.698,-1151.79"/>
</g>
<!-- InputFilePath_inflow -->
<g id="node24" class="node"><title>InputFilePath_inflow</title>
<ellipse fill="none" stroke="black" cx="179" cy="-1191" rx="7" ry="7"/>
</g>
<!-- InputFilePath_inflow&#45;&gt;InputFilePath -->
<g id="edge29" class="edge"><title>InputFilePath_inflow&#45;&gt;InputFilePath</title>
<path fill="none" stroke="black" d="M173.138,-1186.69C163.813,-1181.36 145.11,-1170.42 130,-1160 125.112,-1156.63 120.033,-1152.92 115.138,-1149.22"/>
<polygon fill="black" stroke="black" points="117.2,-1146.39 107.137,-1143.08 112.937,-1151.94 117.2,-1146.39"/>
</g>
</g>
</svg>
