<?xml version="1.0" encoding="UTF-8" standalone="no"?>
<!DOCTYPE svg PUBLIC "-//W3C//DTD SVG 1.1//EN"
 "http://www.w3.org/Graphics/SVG/1.1/DTD/svg11.dtd">
<!-- Generated by graphviz version 2.36.0 (20140111.2315)
 -->
<!-- Title: yw_data_view Pages: 1 -->
<svg width="888pt" height="1258pt"
 viewBox="0.00 0.00 888.00 1258.00" xmlns="http://www.w3.org/2000/svg" xmlns:xlink="http://www.w3.org/1999/xlink">
<g id="graph0" class="graph" transform="scale(1 1) rotate(0) translate(4 1254)">
<title>yw_data_view</title>
<polygon fill="white" stroke="none" points="-4,4 -4,-1254 884,-1254 884,4 -4,4"/>
<text text-anchor="middle" x="440" y="-1231.6" font-family="Courier,monospace" font-size="18.00">BranchingWorkflow</text>
<g id="clust1" class="cluster"><title>cluster_workflow</title>
<polygon fill="none" stroke="black" stroke-width="2" points="8,-62 8,-1160 872,-1160 872,-62 8,-62"/>
</g>
<g id="clust2" class="cluster"><title>cluster_workflow_inner</title>
<polygon fill="none" stroke="white" stroke-width="2" points="16,-70 16,-1152 864,-1152 864,-70 16,-70"/>
</g>
<g id="clust3" class="cluster"><title>cluster_inflows</title>
<polygon fill="none" stroke="white" stroke-width="2" points="156,-1168 156,-1214 234,-1214 234,-1168 156,-1168"/>
</g>
<g id="clust4" class="cluster"><title>cluster_inflows_inner</title>
<polygon fill="none" stroke="white" stroke-width="2" points="164,-1176 164,-1206 226,-1206 226,-1176 164,-1176"/>
</g>
<g id="clust5" class="cluster"><title>cluster_outflows</title>
<polygon fill="none" stroke="white" stroke-width="2" points="424,-8 424,-54 502,-54 502,-8 424,-8"/>
</g>
<g id="clust6" class="cluster"><title>cluster_outflows_inner</title>
<polygon fill="none" stroke="white" stroke-width="2" points="432,-16 432,-46 494,-46 494,-16 432,-16"/>
</g>
<!-- FilterExcludingMarine -->
<g id="node1" class="node"><title>FilterExcludingMarine</title>
<polygon fill="#d6d6d7" stroke="black" points="560.25,-634 367.75,-634 367.75,-598 560.25,-598 560.25,-634"/>
<text text-anchor="middle" x="464" y="-612.3" font-family="Courier,monospace" font-size="14.00">FilterExcludingMarine</text>
</g>
<!-- noMarineDataRecord[scientificName:scientificNameAuthorship] -->
<g id="node10" class="node"><title>noMarineDataRecord[scientificName:scientificNameAuthorship]</title>
<path fill="#d6d6d7" stroke="black" d="M56,-525C56,-525 442,-525 442,-525 448,-525 454,-531 454,-537 454,-537 454,-549 454,-549 454,-555 448,-561 442,-561 442,-561 56,-561 56,-561 50,-561 44,-555 44,-549 44,-549 44,-537 44,-537 44,-531 50,-525 56,-525"/>
<text text-anchor="middle" x="249" y="-539.3" font-family="Helvetica,sans-Serif" font-size="14.00">noMarineDataRecord[scientificName:scientificNameAuthorship]</text>
</g>
<!-- FilterExcludingMarine&#45;&gt;noMarineDataRecord[scientificName:scientificNameAuthorship] -->
<g id="edge21" class="edge"><title>FilterExcludingMarine&#45;&gt;noMarineDataRecord[scientificName:scientificNameAuthorship]</title>
<path fill="none" stroke="black" d="M412.502,-597.994C381.879,-587.881 342.845,-574.991 310.596,-564.341"/>
<polygon fill="black" stroke="black" points="311.416,-560.926 300.823,-561.114 309.221,-567.573 311.416,-560.926"/>
</g>
<!-- LogFile -->
<g id="node20" class="node"><title>LogFile</title>
<path fill="#ffe4b5" stroke="black" d="M548.5,-374C548.5,-374 595.5,-374 595.5,-374 601.5,-374 607.5,-380 607.5,-386 607.5,-386 607.5,-398 607.5,-398 607.5,-404 601.5,-410 595.5,-410 595.5,-410 548.5,-410 548.5,-410 542.5,-410 536.5,-404 536.5,-398 536.5,-398 536.5,-386 536.5,-386 536.5,-380 542.5,-374 548.5,-374"/>
<text text-anchor="middle" x="572" y="-398.8" font-family="Courier,monospace" font-weight="bold" font-size="9.00">LogFile</text>
<polyline fill="none" stroke="black" points="536.5,-392 607.5,-392 "/>
<text text-anchor="middle" x="572" y="-380.8" font-family="Courier,monospace" font-weight="bold" font-size="9.00">runlog.log</text>
</g>
<!-- FilterExcludingMarine&#45;&gt;LogFile -->
<g id="edge20" class="edge"><title>FilterExcludingMarine&#45;&gt;LogFile</title>
<path fill="none" stroke="black" d="M465.266,-597.868C468.29,-566.516 478.161,-498.83 509,-452 517.638,-438.883 529.764,-426.616 541.073,-416.703"/>
<polygon fill="black" stroke="black" points="543.345,-419.365 548.719,-410.235 538.824,-414.021 543.345,-419.365"/>
</g>
<!-- GBIFLookup -->
<g id="node2" class="node"><title>GBIFLookup</title>
<polygon fill="#d6d6d7" stroke="black" points="411.25,-488 310.75,-488 310.75,-452 411.25,-452 411.25,-488"/>
<text text-anchor="middle" x="361" y="-466.3" font-family="Courier,monospace" font-size="14.00">GBIFLookup</text>
</g>
<!-- GBIFOutput -->
<g id="node11" class="node"><title>GBIFOutput</title>
<path fill="#d6d6d7" stroke="black" d="M327.5,-368.5C327.5,-368.5 394.5,-368.5 394.5,-368.5 400.5,-368.5 406.5,-374.5 406.5,-380.5 406.5,-380.5 406.5,-403.5 406.5,-403.5 406.5,-409.5 400.5,-415.5 394.5,-415.5 394.5,-415.5 327.5,-415.5 327.5,-415.5 321.5,-415.5 315.5,-409.5 315.5,-403.5 315.5,-403.5 315.5,-380.5 315.5,-380.5 315.5,-374.5 321.5,-368.5 327.5,-368.5"/>
<text text-anchor="middle" x="361" y="-400.3" font-family="Helvetica,sans-Serif" font-size="14.00">GBIFOutput</text>
<polyline fill="none" stroke="black" points="315.5,-392.5 406.5,-392.5 "/>
</g>
<!-- GBIFLookup&#45;&gt;GBIFOutput -->
<g id="edge25" class="edge"><title>GBIFLookup&#45;&gt;GBIFOutput</title>
<path fill="none" stroke="black" d="M361,-451.754C361,-444.074 361,-434.761 361,-425.836"/>
<polygon fill="black" stroke="black" points="364.5,-425.658 361,-415.658 357.5,-425.658 364.5,-425.658"/>
</g>
<!-- GBIFLookup&#45;&gt;LogFile -->
<g id="edge24" class="edge"><title>GBIFLookup&#45;&gt;LogFile</title>
<path fill="none" stroke="black" d="M411.562,-453.731C443.284,-443.788 484.876,-430.085 521,-416 522.866,-415.272 524.763,-414.513 526.673,-413.731"/>
<polygon fill="black" stroke="black" points="528.406,-416.798 536.255,-409.682 525.682,-410.35 528.406,-416.798"/>
</g>
<!-- Setup -->
<g id="node3" class="node"><title>Setup</title>
<polygon fill="#ccffcc" stroke="black" points="128.25,-1070 69.75,-1070 69.75,-1034 128.25,-1034 128.25,-1070"/>
<text text-anchor="middle" x="99" y="-1048.3" font-family="Courier,monospace" font-size="14.00">Setup</text>
</g>
<!-- Workspace -->
<g id="node17" class="node"><title>Workspace</title>
<path fill="#ffffcc" stroke="black" d="M87,-926C87,-926 49,-926 49,-926 43,-926 37,-920 37,-914 37,-914 37,-902 37,-902 37,-896 43,-890 49,-890 49,-890 87,-890 87,-890 93,-890 99,-896 99,-902 99,-902 99,-914 99,-914 99,-920 93,-926 87,-926"/>
<text text-anchor="middle" x="68" y="-905.8" font-family="Helvetica,sans-Serif" font-size="9.00">Workspace</text>
</g>
<!-- Setup&#45;&gt;Workspace -->
<g id="edge13" class="edge"><title>Setup&#45;&gt;Workspace</title>
<path fill="none" stroke="black" d="M95.2607,-1033.87C89.954,-1009.56 80.1858,-964.819 73.8973,-936.013"/>
<polygon fill="black" stroke="black" points="77.305,-935.213 71.7526,-926.189 70.4661,-936.706 77.305,-935.213"/>
</g>
<!-- OccurrenceFile -->
<g id="node18" class="node"><title>OccurrenceFile</title>
<path fill="#ffffcc" stroke="black" d="M203,-998C203,-998 149,-998 149,-998 143,-998 137,-992 137,-986 137,-986 137,-974 137,-974 137,-968 143,-962 149,-962 149,-962 203,-962 203,-962 209,-962 215,-968 215,-974 215,-974 215,-986 215,-986 215,-992 209,-998 203,-998"/>
<text text-anchor="middle" x="176" y="-977.8" font-family="Helvetica,sans-Serif" font-size="9.00">OccurrenceFile</text>
</g>
<!-- Setup&#45;&gt;OccurrenceFile -->
<g id="edge14" class="edge"><title>Setup&#45;&gt;OccurrenceFile</title>
<path fill="none" stroke="black" d="M118.034,-1033.7C127.545,-1025.05 139.207,-1014.45 149.57,-1005.03"/>
<polygon fill="black" stroke="black" points="152.14,-1007.42 157.185,-998.104 147.431,-1002.24 152.14,-1007.42"/>
</g>
<!-- FileToDataStream -->
<g id="node4" class="node"><title>FileToDataStream</title>
<polygon fill="#ccffcc" stroke="black" points="399.25,-926 248.75,-926 248.75,-890 399.25,-890 399.25,-926"/>
<text text-anchor="middle" x="324" y="-904.3" font-family="Courier,monospace" font-size="14.00">FileToDataStream</text>
</g>
<!-- DataRecord -->
<g id="node12" class="node"><title>DataRecord</title>
<path fill="#f8d2db" stroke="black" d="M352,-817C352,-817 426,-817 426,-817 432,-817 438,-823 438,-829 438,-829 438,-841 438,-841 438,-847 432,-853 426,-853 426,-853 352,-853 352,-853 346,-853 340,-847 340,-841 340,-841 340,-829 340,-829 340,-823 346,-817 352,-817"/>
<text text-anchor="middle" x="389" y="-841.8" font-family="Courier,monospace" font-weight="bold" font-size="9.00">DataRecord</text>
<polyline fill="none" stroke="black" points="340,-835 438,-835 "/>
<text text-anchor="middle" x="389" y="-823.8" font-family="Courier,monospace" font-weight="bold" font-size="9.00">MCZ:Mala:303063</text>
</g>
<!-- FileToDataStream&#45;&gt;DataRecord -->
<g id="edge15" class="edge"><title>FileToDataStream&#45;&gt;DataRecord</title>
<path fill="none" stroke="black" d="M339.735,-889.813C347.799,-881.005 357.759,-870.125 366.608,-860.458"/>
<polygon fill="black" stroke="black" points="369.239,-862.768 373.41,-853.029 364.076,-858.041 369.239,-862.768"/>
</g>
<!-- EnvironmentTagger -->
<g id="node5" class="node"><title>EnvironmentTagger</title>
<polygon fill="#ccffcc" stroke="black" points="642.25,-780 483.75,-780 483.75,-744 642.25,-744 642.25,-780"/>
<text text-anchor="middle" x="563" y="-758.3" font-family="Courier,monospace" font-size="14.00">EnvironmentTagger</text>
</g>
<!-- TaggedDataRecord -->
<g id="node13" class="node"><title>TaggedDataRecord</title>
<path fill="#f8d2db" stroke="black" d="M523.5,-671C523.5,-671 602.5,-671 602.5,-671 608.5,-671 614.5,-677 614.5,-683 614.5,-683 614.5,-695 614.5,-695 614.5,-701 608.5,-707 602.5,-707 602.5,-707 523.5,-707 523.5,-707 517.5,-707 511.5,-701 511.5,-695 511.5,-695 511.5,-683 511.5,-683 511.5,-677 517.5,-671 523.5,-671"/>
<text text-anchor="middle" x="563" y="-695.8" font-family="Courier,monospace" font-weight="bold" font-size="9.00">TaggedDataRecord</text>
<polyline fill="none" stroke="black" points="511.5,-689 614.5,-689 "/>
<text text-anchor="middle" x="563" y="-677.8" font-family="Courier,monospace" font-weight="bold" font-size="9.00">Marine</text>
</g>
<!-- EnvironmentTagger&#45;&gt;TaggedDataRecord -->
<g id="edge17" class="edge"><title>EnvironmentTagger&#45;&gt;TaggedDataRecord</title>
<path fill="none" stroke="black" d="M563,-743.813C563,-735.789 563,-726.047 563,-717.069"/>
<polygon fill="black" stroke="black" points="566.5,-717.029 563,-707.029 559.5,-717.029 566.5,-717.029"/>
</g>
<!-- EnvironmentTagger&#45;&gt;LogFile -->
<g id="edge16" class="edge"><title>EnvironmentTagger&#45;&gt;LogFile</title>
<path fill="none" stroke="black" d="M642.405,-755.363C728.872,-744.397 855,-712.101 855,-617 855,-617 855,-617 855,-542 855,-436.119 697.98,-405.303 617.861,-396.471"/>
<polygon fill="black" stroke="black" points="617.862,-392.953 607.556,-395.41 617.144,-399.916 617.862,-392.953"/>
</g>
<!-- FilterToJustMarine -->
<g id="node6" class="node"><title>FilterToJustMarine</title>
<polygon fill="#ccffcc" stroke="black" points="747,-634 579,-634 579,-598 747,-598 747,-634"/>
<text text-anchor="middle" x="663" y="-612.3" font-family="Courier,monospace" font-size="14.00">FilterToJustMarine</text>
</g>
<!-- MarineDataRecord[scientificName:scientificNameAuthorship] -->
<g id="node14" class="node"><title>MarineDataRecord[scientificName:scientificNameAuthorship]</title>
<path fill="#f8d2db" stroke="black" d="M504,-525C504,-525 804,-525 804,-525 810,-525 816,-531 816,-537 816,-537 816,-549 816,-549 816,-555 810,-561 804,-561 804,-561 504,-561 504,-561 498,-561 492,-555 492,-549 492,-549 492,-537 492,-537 492,-531 498,-525 504,-525"/>
<text text-anchor="middle" x="654" y="-540.8" font-family="Courier,monospace" font-weight="bold" font-size="9.00">MarineDataRecord[scientificName:scientificNameAuthorship]</text>
</g>
<!-- FilterToJustMarine&#45;&gt;MarineDataRecord[scientificName:scientificNameAuthorship] -->
<g id="edge19" class="edge"><title>FilterToJustMarine&#45;&gt;MarineDataRecord[scientificName:scientificNameAuthorship]</title>
<path fill="none" stroke="black" d="M660.821,-597.813C659.804,-589.789 658.569,-580.047 657.431,-571.069"/>
<polygon fill="black" stroke="black" points="660.888,-570.509 656.159,-561.029 653.944,-571.39 660.888,-570.509"/>
</g>
<!-- FilterToJustMarine&#45;&gt;LogFile -->
<g id="edge18" class="edge"><title>FilterToJustMarine&#45;&gt;LogFile</title>
<path fill="none" stroke="black" d="M747.409,-607.486C776.812,-600.335 806.936,-586.916 825,-562 834.913,-548.327 833.777,-538.429 825,-524 779.802,-449.699 677.342,-415.665 617.6,-401.635"/>
<polygon fill="black" stroke="black" points="618.204,-398.184 607.679,-399.397 616.664,-405.012 618.204,-398.184"/>
</g>
<!-- WoRMSLookup -->
<g id="node7" class="node"><title>WoRMSLookup</title>
<polygon fill="#ccffcc" stroke="black" points="626.25,-488 517.75,-488 517.75,-452 626.25,-452 626.25,-488"/>
<text text-anchor="middle" x="572" y="-466.3" font-family="Courier,monospace" font-size="14.00">WoRMSLookup</text>
</g>
<!-- WoRMSOutput -->
<g id="node15" class="node"><title>WoRMSOutput</title>
<path fill="#f8d2db" stroke="black" d="M448,-374C448,-374 500,-374 500,-374 506,-374 512,-380 512,-386 512,-386 512,-398 512,-398 512,-404 506,-410 500,-410 500,-410 448,-410 448,-410 442,-410 436,-404 436,-398 436,-398 436,-386 436,-386 436,-380 442,-374 448,-374"/>
<text text-anchor="middle" x="474" y="-398.8" font-family="Courier,monospace" font-weight="bold" font-size="9.00">WoRMSOutput</text>
<polyline fill="none" stroke="black" points="436,-392 512,-392 "/>
<text text-anchor="middle" x="474" y="-380.8" font-family="Courier,monospace" font-weight="bold" font-size="9.00">null</text>
</g>
<!-- WoRMSLookup&#45;&gt;WoRMSOutput -->
<g id="edge23" class="edge"><title>WoRMSLookup&#45;&gt;WoRMSOutput</title>
<path fill="none" stroke="black" d="M549.762,-451.754C536.355,-441.357 519.092,-427.97 504.432,-416.6"/>
<polygon fill="black" stroke="black" points="506.197,-413.54 496.15,-410.177 501.907,-419.071 506.197,-413.54"/>
</g>
<!-- WoRMSLookup&#45;&gt;LogFile -->
<g id="edge22" class="edge"><title>WoRMSLookup&#45;&gt;LogFile</title>
<path fill="none" stroke="black" d="M572,-451.754C572,-442.523 572,-430.935 572,-420.495"/>
<polygon fill="black" stroke="black" points="575.5,-420.177 572,-410.177 568.5,-420.177 575.5,-420.177"/>
</g>
<!-- StreamMerge -->
<g id="node8" class="node"><title>StreamMerge</title>
<polygon fill="#ccffcc" stroke="black" points="415.25,-332 306.75,-332 306.75,-296 415.25,-296 415.25,-332"/>
<text text-anchor="middle" x="361" y="-310.3" font-family="Courier,monospace" font-size="14.00">StreamMerge</text>
</g>
<!-- MergedStream -->
<g id="node19" class="node"><title>MergedStream</title>
<path fill="#ffffcc" stroke="black" d="M384,-260C384,-260 332,-260 332,-260 326,-260 320,-254 320,-248 320,-248 320,-236 320,-236 320,-230 326,-224 332,-224 332,-224 384,-224 384,-224 390,-224 396,-230 396,-236 396,-236 396,-248 396,-248 396,-254 390,-260 384,-260"/>
<text text-anchor="middle" x="358" y="-239.8" font-family="Helvetica,sans-Serif" font-size="9.00">MergedStream</text>
</g>
<!-- StreamMerge&#45;&gt;MergedStream -->
<g id="edge26" class="edge"><title>StreamMerge&#45;&gt;MergedStream</title>
<path fill="none" stroke="black" d="M360.258,-295.697C359.928,-287.983 359.531,-278.712 359.162,-270.112"/>
<polygon fill="black" stroke="black" points="362.658,-269.945 358.733,-260.104 355.665,-270.245 362.658,-269.945"/>
</g>
<!-- CsvFileWriter -->
<g id="node9" class="node"><title>CsvFileWriter</title>
<polygon fill="#ccffcc" stroke="black" points="418,-188 292,-188 292,-152 418,-152 418,-188"/>
<text text-anchor="middle" x="355" y="-166.3" font-family="Courier,monospace" font-size="14.00">CsvFileWriter</text>
</g>
<!-- OutputFile -->
<g id="node21" class="node"><title>OutputFile</title>
<path fill="#ffe4b5" stroke="black" d="M178,-79C178,-79 532,-79 532,-79 538,-79 544,-85 544,-91 544,-91 544,-103 544,-103 544,-109 538,-115 532,-115 532,-115 178,-115 178,-115 172,-115 166,-109 166,-103 166,-103 166,-91 166,-91 166,-85 172,-79 178,-79"/>
<text text-anchor="middle" x="355" y="-103.8" font-family="Courier,monospace" font-weight="bold" font-size="9.00">OutputFile</text>
<polyline fill="none" stroke="black" points="166,-97 544,-97 "/>
<text text-anchor="middle" x="355" y="-85.8" font-family="Courier,monospace" font-weight="bold" font-size="9.00">workspace_e17253f0&#45;52f9&#45;11e7&#45;9a79&#45;acbc3296f741/mergedoutputfile.csv</text>
</g>
<!-- CsvFileWriter&#45;&gt;OutputFile -->
<g id="edge27" class="edge"><title>CsvFileWriter&#45;&gt;OutputFile</title>
<path fill="none" stroke="black" d="M355,-151.813C355,-143.789 355,-134.047 355,-125.069"/>
<polygon fill="black" stroke="black" points="358.5,-125.029 355,-115.029 351.5,-125.029 358.5,-125.029"/>
</g>
<!-- noMarineDataRecord[scientificName:scientificNameAuthorship]&#45;&gt;GBIFLookup -->
<g id="edge9" class="edge"><title>noMarineDataRecord[scientificName:scientificNameAuthorship]&#45;&gt;GBIFLookup</title>
<path fill="none" stroke="black" d="M275.827,-524.994C290.679,-515.579 309.329,-503.755 325.389,-493.575"/>
<polygon fill="black" stroke="black" points="327.432,-496.424 334.004,-488.114 323.684,-490.512 327.432,-496.424"/>
</g>
<!-- GBIFOutput&#45;&gt;StreamMerge -->
<g id="edge11" class="edge"><title>GBIFOutput&#45;&gt;StreamMerge</title>
<path fill="none" stroke="black" d="M361,-368.197C361,-360.081 361,-350.858 361,-342.397"/>
<polygon fill="black" stroke="black" points="364.5,-342.228 361,-332.228 357.5,-342.228 364.5,-342.228"/>
</g>
<!-- DataRecord&#45;&gt;EnvironmentTagger -->
<g id="edge5" class="edge"><title>DataRecord&#45;&gt;EnvironmentTagger</title>
<path fill="none" stroke="black" d="M430.677,-816.994C455.033,-807.055 485.964,-794.434 511.795,-783.894"/>
<polygon fill="black" stroke="black" points="513.123,-787.132 521.06,-780.114 510.478,-780.651 513.123,-787.132"/>
</g>
<!-- TaggedDataRecord&#45;&gt;FilterExcludingMarine -->
<g id="edge7" class="edge"><title>TaggedDataRecord&#45;&gt;FilterExcludingMarine</title>
<path fill="none" stroke="black" d="M539.287,-670.994C526.402,-661.753 510.282,-650.192 496.268,-640.142"/>
<polygon fill="black" stroke="black" points="498.029,-637.097 487.863,-634.114 493.949,-642.786 498.029,-637.097"/>
</g>
<!-- TaggedDataRecord&#45;&gt;FilterToJustMarine -->
<g id="edge6" class="edge"><title>TaggedDataRecord&#45;&gt;FilterToJustMarine</title>
<path fill="none" stroke="black" d="M586.952,-670.994C599.968,-661.753 616.25,-650.192 630.406,-640.142"/>
<polygon fill="black" stroke="black" points="632.769,-642.757 638.896,-634.114 628.716,-637.049 632.769,-642.757"/>
</g>
<!-- MarineDataRecord[scientificName:scientificNameAuthorship]&#45;&gt;WoRMSLookup -->
<g id="edge8" class="edge"><title>MarineDataRecord[scientificName:scientificNameAuthorship]&#45;&gt;WoRMSLookup</title>
<path fill="none" stroke="black" d="M634.15,-524.813C623.675,-515.743 610.663,-504.477 599.257,-494.6"/>
<polygon fill="black" stroke="black" points="601.518,-491.929 591.667,-488.029 596.936,-497.221 601.518,-491.929"/>
</g>
<!-- WoRMSOutput&#45;&gt;StreamMerge -->
<g id="edge10" class="edge"><title>WoRMSOutput&#45;&gt;StreamMerge</title>
<path fill="none" stroke="black" d="M448.641,-373.944C432.904,-363.36 412.479,-349.623 395.307,-338.074"/>
<polygon fill="black" stroke="black" points="396.917,-334.939 386.666,-332.262 393.01,-340.747 396.917,-334.939"/>
</g>
<!-- DarwinCoreFile -->
<g id="node16" class="node"><title>DarwinCoreFile</title>
<path fill="#ffe4b5" stroke="black" d="M151,-1107C151,-1107 457,-1107 457,-1107 463,-1107 469,-1113 469,-1119 469,-1119 469,-1131 469,-1131 469,-1137 463,-1143 457,-1143 457,-1143 151,-1143 151,-1143 145,-1143 139,-1137 139,-1131 139,-1131 139,-1119 139,-1119 139,-1113 145,-1107 151,-1107"/>
<text text-anchor="middle" x="304" y="-1131.8" font-family="Courier,monospace" font-weight="bold" font-size="9.00">DarwinCoreFile</text>
<polyline fill="none" stroke="black" points="139,-1125 469,-1125 "/>
<text text-anchor="middle" x="304" y="-1113.8" font-family="Courier,monospace" font-weight="bold" font-size="9.00">packages/kurator_branching/data/kurator_sample_data_v2.txt</text>
</g>
<!-- DarwinCoreFile&#45;&gt;Setup -->
<g id="edge2" class="edge"><title>DarwinCoreFile&#45;&gt;Setup</title>
<path fill="none" stroke="black" d="M254.897,-1106.99C219.151,-1094.61 171.383,-1078.07 138.184,-1066.57"/>
<polygon fill="black" stroke="black" points="138.972,-1063.14 128.377,-1063.17 136.681,-1069.75 138.972,-1063.14"/>
</g>
<!-- Workspace&#45;&gt;CsvFileWriter -->
<g id="edge3" class="edge"><title>Workspace&#45;&gt;CsvFileWriter</title>
<path fill="none" stroke="black" d="M59.2983,-889.763C46.7336,-863.235 25,-810.485 25,-763 25,-763 25,-763 25,-313 25,-202.01 184.456,-176.71 281.684,-171.599"/>
<polygon fill="black" stroke="black" points="281.937,-175.091 291.763,-171.13 281.611,-168.099 281.937,-175.091"/>
</g>
<!-- OccurrenceFile&#45;&gt;FileToDataStream -->
<g id="edge4" class="edge"><title>OccurrenceFile&#45;&gt;FileToDataStream</title>
<path fill="none" stroke="black" d="M212.205,-961.876C232.258,-952.392 257.372,-940.513 278.714,-930.419"/>
<polygon fill="black" stroke="black" points="280.369,-933.508 287.913,-926.068 277.376,-927.18 280.369,-933.508"/>
</g>
<!-- MergedStream&#45;&gt;CsvFileWriter -->
<g id="edge12" class="edge"><title>MergedStream&#45;&gt;CsvFileWriter</title>
<path fill="none" stroke="black" d="M357.258,-223.697C356.928,-215.983 356.531,-206.712 356.162,-198.112"/>
<polygon fill="black" stroke="black" points="359.658,-197.945 355.733,-188.104 352.665,-198.245 359.658,-197.945"/>
</g>
<!-- LogFile_outflow -->
<g id="node25" class="node"><title>LogFile_outflow</title>
<ellipse fill="none" stroke="black" cx="479" cy="-31" rx="7" ry="7"/>
</g>
<!-- LogFile&#45;&gt;LogFile_outflow -->
<g id="edge30" class="edge"><title>LogFile&#45;&gt;LogFile_outflow</title>
<path fill="none" stroke="black" d="M572,-373.683C572,-346.051 572,-290.278 572,-243 572,-243 572,-243 572,-169 572,-120.701 583.396,-99.5354 553,-62 538.965,-44.6684 513.346,-37.2725 496.245,-34.1692"/>
<polygon fill="black" stroke="black" points="496.422,-30.6567 486.014,-32.6371 495.386,-37.5795 496.422,-30.6567"/>
</g>
<!-- OutputFile_outflow -->
<g id="node26" class="node"><title>OutputFile_outflow</title>
<ellipse fill="none" stroke="black" cx="447" cy="-31" rx="7" ry="7"/>
</g>
<!-- OutputFile&#45;&gt;OutputFile_outflow -->
<g id="edge31" class="edge"><title>OutputFile&#45;&gt;OutputFile_outflow</title>
<path fill="none" stroke="black" d="M379.654,-78.8492C396.78,-66.9359 418.977,-51.4945 433.108,-41.6639"/>
<polygon fill="black" stroke="black" points="435.231,-44.4507 441.441,-35.8668 431.234,-38.7043 435.231,-44.4507"/>
</g>
<!-- InputFilePath -->
<g id="node22" class="node"><title>InputFilePath</title>
<path fill="#ffffff" stroke="black" d="M109,-1143C109,-1143 63,-1143 63,-1143 57,-1143 51,-1137 51,-1131 51,-1131 51,-1119 51,-1119 51,-1113 57,-1107 63,-1107 63,-1107 109,-1107 109,-1107 115,-1107 121,-1113 121,-1119 121,-1119 121,-1131 121,-1131 121,-1137 115,-1143 109,-1143"/>
<text text-anchor="middle" x="86" y="-1122.8" font-family="Helvetica,sans-Serif" font-size="9.00">InputFilePath</text>
</g>
<!-- InputFilePath&#45;&gt;Setup -->
<g id="edge1" class="edge"><title>InputFilePath&#45;&gt;Setup</title>
<path fill="none" stroke="black" d="M89.1469,-1106.81C90.616,-1098.79 92.3998,-1089.05 94.0437,-1080.07"/>
<polygon fill="black" stroke="black" points="97.5237,-1080.5 95.882,-1070.03 90.6382,-1079.23 97.5237,-1080.5"/>
</g>
<!-- DarwinCoreFile_inflow -->
<g id="node23" class="node"><title>DarwinCoreFile_inflow</title>
<ellipse fill="none" stroke="black" cx="211" cy="-1191" rx="7" ry="7"/>
</g>
<!-- DarwinCoreFile_inflow&#45;&gt;DarwinCoreFile -->
<g id="edge28" class="edge"><title>DarwinCoreFile_inflow&#45;&gt;DarwinCoreFile</title>
<path fill="none" stroke="black" d="M216.267,-1186.38C226.622,-1179.25 250.384,-1162.9 270.569,-1149.01"/>
<polygon fill="black" stroke="black" points="272.698,-1151.79 278.952,-1143.24 268.73,-1146.02 272.698,-1151.79"/>
</g>
<!-- InputFilePath_inflow -->
<g id="node24" class="node"><title>InputFilePath_inflow</title>
<ellipse fill="none" stroke="black" cx="179" cy="-1191" rx="7" ry="7"/>
</g>
<!-- InputFilePath_inflow&#45;&gt;InputFilePath -->
<g id="edge29" class="edge"><title>InputFilePath_inflow&#45;&gt;InputFilePath</title>
<path fill="none" stroke="black" d="M173.138,-1186.69C163.813,-1181.36 145.11,-1170.42 130,-1160 125.112,-1156.63 120.033,-1152.92 115.138,-1149.22"/>
<polygon fill="black" stroke="black" points="117.2,-1146.39 107.137,-1143.08 112.937,-1151.94 117.2,-1146.39"/>
</g>
</g>
</svg>
