<?xml version="1.0" encoding="UTF-8" standalone="no"?>
<!DOCTYPE svg PUBLIC "-//W3C//DTD SVG 1.1//EN"
 "http://www.w3.org/Graphics/SVG/1.1/DTD/svg11.dtd">
<!-- Generated by graphviz version 2.36.0 (20140111.2315)
 -->
<!-- Title: yw_data_view Pages: 1 -->
<svg width="900pt" height="1240pt"
 viewBox="0.00 0.00 900.00 1240.00" xmlns="http://www.w3.org/2000/svg" xmlns:xlink="http://www.w3.org/1999/xlink">
<g id="graph0" class="graph" transform="scale(1 1) rotate(0) translate(4 1236)">
<title>yw_data_view</title>
<polygon fill="white" stroke="none" points="-4,4 -4,-1236 896,-1236 896,4 -4,4"/>
<text text-anchor="middle" x="446" y="-1213.6" font-family="Courier,monospace" font-size="18.00">BranchingWorkflow</text>
<g id="clust1" class="cluster"><title>cluster_workflow</title>
<polygon fill="none" stroke="black" stroke-width="2" points="8,-62 8,-1142 884,-1142 884,-62 8,-62"/>
</g>
<g id="clust2" class="cluster"><title>cluster_workflow_inner</title>
<polygon fill="none" stroke="white" stroke-width="2" points="16,-70 16,-1134 876,-1134 876,-70 16,-70"/>
</g>
<g id="clust3" class="cluster"><title>cluster_inflows</title>
<polygon fill="none" stroke="white" stroke-width="2" points="152,-1150 152,-1196 230,-1196 230,-1150 152,-1150"/>
</g>
<g id="clust4" class="cluster"><title>cluster_inflows_inner</title>
<polygon fill="none" stroke="white" stroke-width="2" points="160,-1158 160,-1188 222,-1188 222,-1158 160,-1158"/>
</g>
<g id="clust5" class="cluster"><title>cluster_outflows</title>
<polygon fill="none" stroke="white" stroke-width="2" points="197,-8 197,-54 243,-54 243,-8 197,-8"/>
</g>
<g id="clust6" class="cluster"><title>cluster_outflows_inner</title>
<polygon fill="none" stroke="white" stroke-width="2" points="205,-16 205,-46 235,-46 235,-16 205,-16"/>
</g>
<!-- Setup -->
<g id="node1" class="node"><title>Setup</title>
<polygon fill="#ccffcc" stroke="black" points="152.25,-1052 93.75,-1052 93.75,-1016 152.25,-1016 152.25,-1052"/>
<text text-anchor="middle" x="123" y="-1030.3" font-family="Courier,monospace" font-size="14.00">Setup</text>
</g>
<!-- Workspace -->
<g id="node10" class="node"><title>Workspace</title>
<path fill="#ffffcc" stroke="black" d="M102.25,-908C102.25,-908 39.75,-908 39.75,-908 33.75,-908 27.75,-902 27.75,-896 27.75,-896 27.75,-884 27.75,-884 27.75,-878 33.75,-872 39.75,-872 39.75,-872 102.25,-872 102.25,-872 108.25,-872 114.25,-878 114.25,-884 114.25,-884 114.25,-896 114.25,-896 114.25,-902 108.25,-908 102.25,-908"/>
<text text-anchor="middle" x="71" y="-886.3" font-family="Helvetica,sans-Serif" font-size="14.00">Workspace</text>
</g>
<!-- Setup&#45;&gt;Workspace -->
<g id="edge13" class="edge"><title>Setup&#45;&gt;Workspace</title>
<path fill="none" stroke="black" d="M116.728,-1015.87C107.787,-991.457 91.2968,-946.426 80.7537,-917.635"/>
<polygon fill="black" stroke="black" points="84.02,-916.376 77.2947,-908.189 77.4468,-918.783 84.02,-916.376"/>
</g>
<!-- OccurrenceFile -->
<g id="node11" class="node"><title>OccurrenceFile</title>
<path fill="#ffffcc" stroke="black" d="M235.25,-980C235.25,-980 148.75,-980 148.75,-980 142.75,-980 136.75,-974 136.75,-968 136.75,-968 136.75,-956 136.75,-956 136.75,-950 142.75,-944 148.75,-944 148.75,-944 235.25,-944 235.25,-944 241.25,-944 247.25,-950 247.25,-956 247.25,-956 247.25,-968 247.25,-968 247.25,-974 241.25,-980 235.25,-980"/>
<text text-anchor="middle" x="192" y="-958.3" font-family="Helvetica,sans-Serif" font-size="14.00">OccurrenceFile</text>
</g>
<!-- Setup&#45;&gt;OccurrenceFile -->
<g id="edge14" class="edge"><title>Setup&#45;&gt;OccurrenceFile</title>
<path fill="none" stroke="black" d="M140.056,-1015.7C148.495,-1007.14 158.825,-996.656 168.043,-987.304"/>
<polygon fill="black" stroke="black" points="170.613,-989.683 175.14,-980.104 165.627,-984.769 170.613,-989.683"/>
</g>
<!-- FileToDataStream -->
<g id="node2" class="node"><title>FileToDataStream</title>
<polygon fill="#ccffcc" stroke="black" points="301.25,-908 150.75,-908 150.75,-872 301.25,-872 301.25,-908"/>
<text text-anchor="middle" x="226" y="-886.3" font-family="Courier,monospace" font-size="14.00">FileToDataStream</text>
</g>
<!-- DataRecord -->
<g id="node12" class="node"><title>DataRecord</title>
<path fill="#ffffcc" stroke="black" d="M264.25,-836C264.25,-836 197.75,-836 197.75,-836 191.75,-836 185.75,-830 185.75,-824 185.75,-824 185.75,-812 185.75,-812 185.75,-806 191.75,-800 197.75,-800 197.75,-800 264.25,-800 264.25,-800 270.25,-800 276.25,-806 276.25,-812 276.25,-812 276.25,-824 276.25,-824 276.25,-830 270.25,-836 264.25,-836"/>
<text text-anchor="middle" x="231" y="-814.3" font-family="Helvetica,sans-Serif" font-size="14.00">DataRecord</text>
</g>
<!-- FileToDataStream&#45;&gt;DataRecord -->
<g id="edge15" class="edge"><title>FileToDataStream&#45;&gt;DataRecord</title>
<path fill="none" stroke="black" d="M227.236,-871.697C227.787,-863.983 228.449,-854.712 229.063,-846.112"/>
<polygon fill="black" stroke="black" points="232.557,-846.328 229.778,-836.104 225.575,-845.83 232.557,-846.328"/>
</g>
<!-- EnvironmentTagger -->
<g id="node3" class="node"><title>EnvironmentTagger</title>
<polygon fill="#ccffcc" stroke="black" points="319.25,-764 160.75,-764 160.75,-728 319.25,-728 319.25,-764"/>
<text text-anchor="middle" x="240" y="-742.3" font-family="Courier,monospace" font-size="14.00">EnvironmentTagger</text>
</g>
<!-- TaggedDataRecord -->
<g id="node13" class="node"><title>TaggedDataRecord</title>
<path fill="#ffffcc" stroke="black" d="M299.25,-692C299.25,-692 184.75,-692 184.75,-692 178.75,-692 172.75,-686 172.75,-680 172.75,-680 172.75,-668 172.75,-668 172.75,-662 178.75,-656 184.75,-656 184.75,-656 299.25,-656 299.25,-656 305.25,-656 311.25,-662 311.25,-668 311.25,-668 311.25,-680 311.25,-680 311.25,-686 305.25,-692 299.25,-692"/>
<text text-anchor="middle" x="242" y="-670.3" font-family="Helvetica,sans-Serif" font-size="14.00">TaggedDataRecord</text>
</g>
<!-- EnvironmentTagger&#45;&gt;TaggedDataRecord -->
<g id="edge16" class="edge"><title>EnvironmentTagger&#45;&gt;TaggedDataRecord</title>
<path fill="none" stroke="black" d="M240.494,-727.697C240.715,-719.983 240.98,-710.712 241.225,-702.112"/>
<polygon fill="black" stroke="black" points="244.724,-702.2 241.511,-692.104 237.727,-702 244.724,-702.2"/>
</g>
<!-- FilterToJustMarine -->
<g id="node4" class="node"><title>FilterToJustMarine</title>
<polygon fill="#ccffcc" stroke="black" points="326,-620 158,-620 158,-584 326,-584 326,-620"/>
<text text-anchor="middle" x="242" y="-598.3" font-family="Courier,monospace" font-size="14.00">FilterToJustMarine</text>
</g>
<!-- MarineDataRecord[scientificName:scientificNameAuthorship] -->
<g id="node14" class="node"><title>MarineDataRecord[scientificName:scientificNameAuthorship]</title>
<path fill="#ffffcc" stroke="black" d="M427.25,-548C427.25,-548 56.75,-548 56.75,-548 50.75,-548 44.75,-542 44.75,-536 44.75,-536 44.75,-524 44.75,-524 44.75,-518 50.75,-512 56.75,-512 56.75,-512 427.25,-512 427.25,-512 433.25,-512 439.25,-518 439.25,-524 439.25,-524 439.25,-536 439.25,-536 439.25,-542 433.25,-548 427.25,-548"/>
<text text-anchor="middle" x="242" y="-526.3" font-family="Helvetica,sans-Serif" font-size="14.00">MarineDataRecord[scientificName:scientificNameAuthorship]</text>
</g>
<!-- FilterToJustMarine&#45;&gt;MarineDataRecord[scientificName:scientificNameAuthorship] -->
<g id="edge17" class="edge"><title>FilterToJustMarine&#45;&gt;MarineDataRecord[scientificName:scientificNameAuthorship]</title>
<path fill="none" stroke="black" d="M242,-583.697C242,-575.983 242,-566.712 242,-558.112"/>
<polygon fill="black" stroke="black" points="245.5,-558.104 242,-548.104 238.5,-558.104 245.5,-558.104"/>
</g>
<!-- FilterExcludingMarine -->
<g id="node5" class="node"><title>FilterExcludingMarine</title>
<polygon fill="#ccffcc" stroke="black" points="648.25,-620 455.75,-620 455.75,-584 648.25,-584 648.25,-620"/>
<text text-anchor="middle" x="552" y="-598.3" font-family="Courier,monospace" font-size="14.00">FilterExcludingMarine</text>
</g>
<!-- noMarineDataRecord[scientificName:scientificNameAuthorship] -->
<g id="node15" class="node"><title>noMarineDataRecord[scientificName:scientificNameAuthorship]</title>
<path fill="#ffffcc" stroke="black" d="M856,-548C856,-548 470,-548 470,-548 464,-548 458,-542 458,-536 458,-536 458,-524 458,-524 458,-518 464,-512 470,-512 470,-512 856,-512 856,-512 862,-512 868,-518 868,-524 868,-524 868,-536 868,-536 868,-542 862,-548 856,-548"/>
<text text-anchor="middle" x="663" y="-526.3" font-family="Helvetica,sans-Serif" font-size="14.00">noMarineDataRecord[scientificName:scientificNameAuthorship]</text>
</g>
<!-- FilterExcludingMarine&#45;&gt;noMarineDataRecord[scientificName:scientificNameAuthorship] -->
<g id="edge18" class="edge"><title>FilterExcludingMarine&#45;&gt;noMarineDataRecord[scientificName:scientificNameAuthorship]</title>
<path fill="none" stroke="black" d="M579.154,-583.876C593.533,-574.808 611.381,-563.552 626.91,-553.759"/>
<polygon fill="black" stroke="black" points="629.15,-556.484 635.742,-548.19 625.416,-550.564 629.15,-556.484"/>
</g>
<!-- WoRMSLookup -->
<g id="node6" class="node"><title>WoRMSLookup</title>
<polygon fill="#ccffcc" stroke="black" points="296.25,-476 187.75,-476 187.75,-440 296.25,-440 296.25,-476"/>
<text text-anchor="middle" x="242" y="-454.3" font-family="Courier,monospace" font-size="14.00">WoRMSLookup</text>
</g>
<!-- WoRMSOutput -->
<g id="node16" class="node"><title>WoRMSOutput</title>
<path fill="#ffffcc" stroke="black" d="M285.25,-404C285.25,-404 198.75,-404 198.75,-404 192.75,-404 186.75,-398 186.75,-392 186.75,-392 186.75,-380 186.75,-380 186.75,-374 192.75,-368 198.75,-368 198.75,-368 285.25,-368 285.25,-368 291.25,-368 297.25,-374 297.25,-380 297.25,-380 297.25,-392 297.25,-392 297.25,-398 291.25,-404 285.25,-404"/>
<text text-anchor="middle" x="242" y="-382.3" font-family="Helvetica,sans-Serif" font-size="14.00">WoRMSOutput</text>
</g>
<!-- WoRMSLookup&#45;&gt;WoRMSOutput -->
<g id="edge19" class="edge"><title>WoRMSLookup&#45;&gt;WoRMSOutput</title>
<path fill="none" stroke="black" d="M242,-439.697C242,-431.983 242,-422.712 242,-414.112"/>
<polygon fill="black" stroke="black" points="245.5,-414.104 242,-404.104 238.5,-414.104 245.5,-414.104"/>
</g>
<!-- GBIFLookup -->
<g id="node7" class="node"><title>GBIFLookup</title>
<polygon fill="#ccffcc" stroke="black" points="564.25,-476 463.75,-476 463.75,-440 564.25,-440 564.25,-476"/>
<text text-anchor="middle" x="514" y="-454.3" font-family="Courier,monospace" font-size="14.00">GBIFLookup</text>
</g>
<!-- GBIFOutput -->
<g id="node17" class="node"><title>GBIFOutput</title>
<path fill="#ffffcc" stroke="black" d="M470.25,-404C470.25,-404 403.75,-404 403.75,-404 397.75,-404 391.75,-398 391.75,-392 391.75,-392 391.75,-380 391.75,-380 391.75,-374 397.75,-368 403.75,-368 403.75,-368 470.25,-368 470.25,-368 476.25,-368 482.25,-374 482.25,-380 482.25,-380 482.25,-392 482.25,-392 482.25,-398 476.25,-404 470.25,-404"/>
<text text-anchor="middle" x="437" y="-382.3" font-family="Helvetica,sans-Serif" font-size="14.00">GBIFOutput</text>
</g>
<!-- GBIFLookup&#45;&gt;GBIFOutput -->
<g id="edge20" class="edge"><title>GBIFLookup&#45;&gt;GBIFOutput</title>
<path fill="none" stroke="black" d="M494.966,-439.697C485.455,-431.05 473.793,-420.449 463.43,-411.027"/>
<polygon fill="black" stroke="black" points="465.569,-408.241 455.815,-404.104 460.86,-413.421 465.569,-408.241"/>
</g>
<!-- StreamMerge -->
<g id="node8" class="node"><title>StreamMerge</title>
<polygon fill="#ccffcc" stroke="black" points="296.25,-332 187.75,-332 187.75,-296 296.25,-296 296.25,-332"/>
<text text-anchor="middle" x="242" y="-310.3" font-family="Courier,monospace" font-size="14.00">StreamMerge</text>
</g>
<!-- MergedStream -->
<g id="node18" class="node"><title>MergedStream</title>
<path fill="#ffffcc" stroke="black" d="M276.25,-260C276.25,-260 191.75,-260 191.75,-260 185.75,-260 179.75,-254 179.75,-248 179.75,-248 179.75,-236 179.75,-236 179.75,-230 185.75,-224 191.75,-224 191.75,-224 276.25,-224 276.25,-224 282.25,-224 288.25,-230 288.25,-236 288.25,-236 288.25,-248 288.25,-248 288.25,-254 282.25,-260 276.25,-260"/>
<text text-anchor="middle" x="234" y="-238.3" font-family="Helvetica,sans-Serif" font-size="14.00">MergedStream</text>
</g>
<!-- StreamMerge&#45;&gt;MergedStream -->
<g id="edge21" class="edge"><title>StreamMerge&#45;&gt;MergedStream</title>
<path fill="none" stroke="black" d="M240.022,-295.697C239.141,-287.983 238.081,-278.712 237.099,-270.112"/>
<polygon fill="black" stroke="black" points="240.568,-269.642 235.955,-260.104 233.613,-270.437 240.568,-269.642"/>
</g>
<!-- CsvFileWriter -->
<g id="node9" class="node"><title>CsvFileWriter</title>
<polygon fill="#ccffcc" stroke="black" points="283,-188 157,-188 157,-152 283,-152 283,-188"/>
<text text-anchor="middle" x="220" y="-166.3" font-family="Courier,monospace" font-size="14.00">CsvFileWriter</text>
</g>
<!-- OutputFile -->
<g id="node20" class="node"><title>OutputFile</title>
<path fill="#ffe4b5" stroke="black" d="M43,-79C43,-79 397,-79 397,-79 403,-79 409,-85 409,-91 409,-91 409,-103 409,-103 409,-109 403,-115 397,-115 397,-115 43,-115 43,-115 37,-115 31,-109 31,-103 31,-103 31,-91 31,-91 31,-85 37,-79 43,-79"/>
<text text-anchor="middle" x="220" y="-103.8" font-family="Courier,monospace" font-weight="bold" font-size="9.00">OutputFile</text>
<polyline fill="none" stroke="black" points="31,-97 409,-97 "/>
<text text-anchor="start" x="39" y="-85.8" font-family="Courier,monospace" font-weight="bold" font-size="9.00">workspace_e17253f0&#45;52f9&#45;11e7&#45;9a79&#45;acbc3296f741/mergedoutputfile.csv</text>
</g>
<!-- CsvFileWriter&#45;&gt;OutputFile -->
<g id="edge22" class="edge"><title>CsvFileWriter&#45;&gt;OutputFile</title>
<path fill="none" stroke="black" d="M220,-151.813C220,-143.789 220,-134.047 220,-125.069"/>
<polygon fill="black" stroke="black" points="223.5,-125.029 220,-115.029 216.5,-125.029 223.5,-125.029"/>
</g>
<!-- Workspace&#45;&gt;CsvFileWriter -->
<g id="edge4" class="edge"><title>Workspace&#45;&gt;CsvFileWriter</title>
<path fill="none" stroke="black" d="M61.4688,-871.655C47.9951,-845.468 25,-793.904 25,-747 25,-747 25,-747 25,-313 25,-250.054 92.2202,-212.072 147.727,-191.439"/>
<polygon fill="black" stroke="black" points="148.997,-194.702 157.227,-188.031 146.633,-188.114 148.997,-194.702"/>
</g>
<!-- OccurrenceFile&#45;&gt;FileToDataStream -->
<g id="edge5" class="edge"><title>OccurrenceFile&#45;&gt;FileToDataStream</title>
<path fill="none" stroke="black" d="M200.404,-943.697C204.275,-935.728 208.952,-926.1 213.243,-917.264"/>
<polygon fill="black" stroke="black" points="216.471,-918.629 217.692,-908.104 210.175,-915.57 216.471,-918.629"/>
</g>
<!-- DataRecord&#45;&gt;EnvironmentTagger -->
<g id="edge7" class="edge"><title>DataRecord&#45;&gt;EnvironmentTagger</title>
<path fill="none" stroke="black" d="M233.225,-799.697C234.217,-791.983 235.408,-782.712 236.514,-774.112"/>
<polygon fill="black" stroke="black" points="239.997,-774.469 237.801,-764.104 233.054,-773.576 239.997,-774.469"/>
</g>
<!-- TaggedDataRecord&#45;&gt;FilterToJustMarine -->
<g id="edge12" class="edge"><title>TaggedDataRecord&#45;&gt;FilterToJustMarine</title>
<path fill="none" stroke="black" d="M242,-655.697C242,-647.983 242,-638.712 242,-630.112"/>
<polygon fill="black" stroke="black" points="245.5,-630.104 242,-620.104 238.5,-630.104 245.5,-630.104"/>
</g>
<!-- TaggedDataRecord&#45;&gt;FilterExcludingMarine -->
<g id="edge11" class="edge"><title>TaggedDataRecord&#45;&gt;FilterExcludingMarine</title>
<path fill="none" stroke="black" d="M311.57,-657.291C357.497,-646.92 417.976,-633.263 466.786,-622.242"/>
<polygon fill="black" stroke="black" points="467.716,-625.62 476.7,-620.003 466.174,-618.792 467.716,-625.62"/>
</g>
<!-- MarineDataRecord[scientificName:scientificNameAuthorship]&#45;&gt;WoRMSLookup -->
<g id="edge3" class="edge"><title>MarineDataRecord[scientificName:scientificNameAuthorship]&#45;&gt;WoRMSLookup</title>
<path fill="none" stroke="black" d="M242,-511.697C242,-503.983 242,-494.712 242,-486.112"/>
<polygon fill="black" stroke="black" points="245.5,-486.104 242,-476.104 238.5,-486.104 245.5,-486.104"/>
</g>
<!-- noMarineDataRecord[scientificName:scientificNameAuthorship]&#45;&gt;GBIFLookup -->
<g id="edge6" class="edge"><title>noMarineDataRecord[scientificName:scientificNameAuthorship]&#45;&gt;GBIFLookup</title>
<path fill="none" stroke="black" d="M626.55,-511.876C606.362,-502.392 581.079,-490.513 559.592,-480.419"/>
<polygon fill="black" stroke="black" points="560.87,-477.153 550.331,-476.068 557.894,-483.488 560.87,-477.153"/>
</g>
<!-- WoRMSOutput&#45;&gt;StreamMerge -->
<g id="edge8" class="edge"><title>WoRMSOutput&#45;&gt;StreamMerge</title>
<path fill="none" stroke="black" d="M242,-367.697C242,-359.983 242,-350.712 242,-342.112"/>
<polygon fill="black" stroke="black" points="245.5,-342.104 242,-332.104 238.5,-342.104 245.5,-342.104"/>
</g>
<!-- GBIFOutput&#45;&gt;StreamMerge -->
<g id="edge10" class="edge"><title>GBIFOutput&#45;&gt;StreamMerge</title>
<path fill="none" stroke="black" d="M391.281,-368.588C363.772,-358.713 328.515,-346.057 299.173,-335.524"/>
<polygon fill="black" stroke="black" points="300.063,-332.125 289.469,-332.04 297.698,-338.713 300.063,-332.125"/>
</g>
<!-- MergedStream&#45;&gt;CsvFileWriter -->
<g id="edge2" class="edge"><title>MergedStream&#45;&gt;CsvFileWriter</title>
<path fill="none" stroke="black" d="M230.539,-223.697C228.997,-215.983 227.142,-206.712 225.422,-198.112"/>
<polygon fill="black" stroke="black" points="228.814,-197.224 223.421,-188.104 221.95,-198.597 228.814,-197.224"/>
</g>
<!-- DarwinCoreFile -->
<g id="node19" class="node"><title>DarwinCoreFile</title>
<path fill="#ffe4b5" stroke="black" d="M147,-1089C147,-1089 453,-1089 453,-1089 459,-1089 465,-1095 465,-1101 465,-1101 465,-1113 465,-1113 465,-1119 459,-1125 453,-1125 453,-1125 147,-1125 147,-1125 141,-1125 135,-1119 135,-1113 135,-1113 135,-1101 135,-1101 135,-1095 141,-1089 147,-1089"/>
<text text-anchor="middle" x="300" y="-1113.8" font-family="Courier,monospace" font-weight="bold" font-size="9.00">DarwinCoreFile</text>
<polyline fill="none" stroke="black" points="135,-1107 465,-1107 "/>
<text text-anchor="start" x="143" y="-1095.8" font-family="Courier,monospace" font-weight="bold" font-size="9.00">packages/kurator_branching/data/kurator_sample_data_v2.txt</text>
</g>
<!-- DarwinCoreFile&#45;&gt;Setup -->
<g id="edge1" class="edge"><title>DarwinCoreFile&#45;&gt;Setup</title>
<path fill="none" stroke="black" d="M257.604,-1088.99C228.511,-1077.32 190.196,-1061.95 161.887,-1050.6"/>
<polygon fill="black" stroke="black" points="162.907,-1047.24 152.323,-1046.76 160.301,-1053.73 162.907,-1047.24"/>
</g>
<!-- OutputFile_outflow -->
<g id="node24" class="node"><title>OutputFile_outflow</title>
<ellipse fill="none" stroke="black" cx="220" cy="-31" rx="7" ry="7"/>
</g>
<!-- OutputFile&#45;&gt;OutputFile_outflow -->
<g id="edge25" class="edge"><title>OutputFile&#45;&gt;OutputFile_outflow</title>
<path fill="none" stroke="black" d="M220,-78.8492C220,-69.3727 220,-57.6638 220,-48.3223"/>
<polygon fill="black" stroke="black" points="223.5,-48.1021 220,-38.1022 216.5,-48.1022 223.5,-48.1021"/>
</g>
<!-- InputFilePath -->
<g id="node21" class="node"><title>InputFilePath</title>
<path fill="#ffffff" stroke="black" d="M105,-1125C105,-1125 59,-1125 59,-1125 53,-1125 47,-1119 47,-1113 47,-1113 47,-1101 47,-1101 47,-1095 53,-1089 59,-1089 59,-1089 105,-1089 105,-1089 111,-1089 117,-1095 117,-1101 117,-1101 117,-1113 117,-1113 117,-1119 111,-1125 105,-1125"/>
<text text-anchor="middle" x="82" y="-1104.8" font-family="Helvetica,sans-Serif" font-size="9.00">InputFilePath</text>
</g>
<!-- InputFilePath&#45;&gt;Setup -->
<g id="edge9" class="edge"><title>InputFilePath&#45;&gt;Setup</title>
<path fill="none" stroke="black" d="M91.925,-1088.81C96.7596,-1080.44 102.675,-1070.2 108.042,-1060.9"/>
<polygon fill="black" stroke="black" points="111.197,-1062.44 113.166,-1052.03 105.135,-1058.94 111.197,-1062.44"/>
</g>
<!-- DarwinCoreFile_inflow -->
<g id="node22" class="node"><title>DarwinCoreFile_inflow</title>
<ellipse fill="none" stroke="black" cx="207" cy="-1173" rx="7" ry="7"/>
</g>
<!-- DarwinCoreFile_inflow&#45;&gt;DarwinCoreFile -->
<g id="edge23" class="edge"><title>DarwinCoreFile_inflow&#45;&gt;DarwinCoreFile</title>
<path fill="none" stroke="black" d="M212.267,-1168.38C222.622,-1161.25 246.384,-1144.9 266.569,-1131.01"/>
<polygon fill="black" stroke="black" points="268.698,-1133.79 274.952,-1125.24 264.73,-1128.02 268.698,-1133.79"/>
</g>
<!-- InputFilePath_inflow -->
<g id="node23" class="node"><title>InputFilePath_inflow</title>
<ellipse fill="none" stroke="black" cx="175" cy="-1173" rx="7" ry="7"/>
</g>
<!-- InputFilePath_inflow&#45;&gt;InputFilePath -->
<g id="edge24" class="edge"><title>InputFilePath_inflow&#45;&gt;InputFilePath</title>
<path fill="none" stroke="black" d="M169.138,-1168.69C159.813,-1163.36 141.11,-1152.42 126,-1142 121.112,-1138.63 116.033,-1134.92 111.138,-1131.22"/>
<polygon fill="black" stroke="black" points="113.2,-1128.39 103.137,-1125.08 108.937,-1133.94 113.2,-1128.39"/>
</g>
</g>
</svg>
