<?xml version="1.0" encoding="UTF-8" standalone="no"?>
<!DOCTYPE svg PUBLIC "-//W3C//DTD SVG 1.1//EN"
 "http://www.w3.org/Graphics/SVG/1.1/DTD/svg11.dtd">
<!-- Generated by graphviz version 2.36.0 (20140111.2315)
 -->
<!-- Title: yw_data_view Pages: 1 -->
<svg width="886pt" height="1258pt"
 viewBox="0.00 0.00 886.00 1258.00" xmlns="http://www.w3.org/2000/svg" xmlns:xlink="http://www.w3.org/1999/xlink">
<g id="graph0" class="graph" transform="scale(1 1) rotate(0) translate(4 1254)">
<title>yw_data_view</title>
<polygon fill="white" stroke="none" points="-4,4 -4,-1254 882,-1254 882,4 -4,4"/>
<text text-anchor="middle" x="439" y="-1231.6" font-family="Courier,monospace" font-size="18.00">BranchingWorkflow</text>
<g id="clust1" class="cluster"><title>cluster_workflow</title>
<polygon fill="none" stroke="black" stroke-width="2" points="8,-62 8,-1160 870,-1160 870,-62 8,-62"/>
</g>
<g id="clust2" class="cluster"><title>cluster_workflow_inner</title>
<polygon fill="none" stroke="white" stroke-width="2" points="16,-70 16,-1152 862,-1152 862,-70 16,-70"/>
</g>
<g id="clust3" class="cluster"><title>cluster_inflows</title>
<polygon fill="none" stroke="white" stroke-width="2" points="156,-1168 156,-1214 234,-1214 234,-1168 156,-1168"/>
</g>
<g id="clust4" class="cluster"><title>cluster_inflows_inner</title>
<polygon fill="none" stroke="white" stroke-width="2" points="164,-1176 164,-1206 226,-1206 226,-1176 164,-1176"/>
</g>
<g id="clust5" class="cluster"><title>cluster_outflows</title>
<polygon fill="none" stroke="white" stroke-width="2" points="446,-8 446,-54 524,-54 524,-8 446,-8"/>
</g>
<g id="clust6" class="cluster"><title>cluster_outflows_inner</title>
<polygon fill="none" stroke="white" stroke-width="2" points="454,-16 454,-46 516,-46 516,-16 454,-16"/>
</g>
<!-- FilterToJustMarine -->
<g id="node1" class="node"><title>FilterToJustMarine</title>
<polygon fill="#d6d6d7" stroke="black" points="537,-634 369,-634 369,-598 537,-598 537,-634"/>
<text text-anchor="middle" x="453" y="-612.3" font-family="Courier,monospace" font-size="14.00">FilterToJustMarine</text>
</g>
<!-- MarineDataRecord[scientificName:scientificNameAuthorship] -->
<g id="node10" class="node"><title>MarineDataRecord[scientificName:scientificNameAuthorship]</title>
<path fill="#d6d6d7" stroke="black" d="M56.5,-525C56.5,-525 427.5,-525 427.5,-525 433.5,-525 439.5,-531 439.5,-537 439.5,-537 439.5,-549 439.5,-549 439.5,-555 433.5,-561 427.5,-561 427.5,-561 56.5,-561 56.5,-561 50.5,-561 44.5,-555 44.5,-549 44.5,-549 44.5,-537 44.5,-537 44.5,-531 50.5,-525 56.5,-525"/>
<text text-anchor="middle" x="242" y="-539.3" font-family="Helvetica,sans-Serif" font-size="14.00">MarineDataRecord[scientificName:scientificNameAuthorship]</text>
</g>
<!-- FilterToJustMarine&#45;&gt;MarineDataRecord[scientificName:scientificNameAuthorship] -->
<g id="edge19" class="edge"><title>FilterToJustMarine&#45;&gt;MarineDataRecord[scientificName:scientificNameAuthorship]</title>
<path fill="none" stroke="black" d="M402.46,-597.994C372.407,-587.881 334.099,-574.991 302.45,-564.341"/>
<polygon fill="black" stroke="black" points="303.453,-560.986 292.859,-561.114 301.22,-567.62 303.453,-560.986"/>
</g>
<!-- LogFile -->
<g id="node20" class="node"><title>LogFile</title>
<path fill="#ffe4b5" stroke="black" d="M595.5,-374C595.5,-374 642.5,-374 642.5,-374 648.5,-374 654.5,-380 654.5,-386 654.5,-386 654.5,-398 654.5,-398 654.5,-404 648.5,-410 642.5,-410 642.5,-410 595.5,-410 595.5,-410 589.5,-410 583.5,-404 583.5,-398 583.5,-398 583.5,-386 583.5,-386 583.5,-380 589.5,-374 595.5,-374"/>
<text text-anchor="middle" x="619" y="-398.8" font-family="Courier,monospace" font-weight="bold" font-size="9.00">LogFile</text>
<polyline fill="none" stroke="black" points="583.5,-392 654.5,-392 "/>
<text text-anchor="middle" x="619" y="-380.8" font-family="Courier,monospace" font-weight="bold" font-size="9.00">runlog.log</text>
</g>
<!-- FilterToJustMarine&#45;&gt;LogFile -->
<g id="edge18" class="edge"><title>FilterToJustMarine&#45;&gt;LogFile</title>
<path fill="none" stroke="black" d="M452.935,-597.765C453.578,-578.569 456.81,-547.191 470,-524 496.688,-477.078 546.54,-438.511 581.194,-415.655"/>
<polygon fill="black" stroke="black" points="583.155,-418.554 589.653,-410.186 579.355,-412.676 583.155,-418.554"/>
</g>
<!-- WoRMSLookup -->
<g id="node2" class="node"><title>WoRMSLookup</title>
<polygon fill="#d6d6d7" stroke="black" points="323.25,-488 214.75,-488 214.75,-452 323.25,-452 323.25,-488"/>
<text text-anchor="middle" x="269" y="-466.3" font-family="Courier,monospace" font-size="14.00">WoRMSLookup</text>
</g>
<!-- WoRMSOutput -->
<g id="node11" class="node"><title>WoRMSOutput</title>
<path fill="#d6d6d7" stroke="black" d="M225.5,-368.5C225.5,-368.5 312.5,-368.5 312.5,-368.5 318.5,-368.5 324.5,-374.5 324.5,-380.5 324.5,-380.5 324.5,-403.5 324.5,-403.5 324.5,-409.5 318.5,-415.5 312.5,-415.5 312.5,-415.5 225.5,-415.5 225.5,-415.5 219.5,-415.5 213.5,-409.5 213.5,-403.5 213.5,-403.5 213.5,-380.5 213.5,-380.5 213.5,-374.5 219.5,-368.5 225.5,-368.5"/>
<text text-anchor="middle" x="269" y="-400.3" font-family="Helvetica,sans-Serif" font-size="14.00">WoRMSOutput</text>
<polyline fill="none" stroke="black" points="213.5,-392.5 324.5,-392.5 "/>
</g>
<!-- WoRMSLookup&#45;&gt;WoRMSOutput -->
<g id="edge23" class="edge"><title>WoRMSLookup&#45;&gt;WoRMSOutput</title>
<path fill="none" stroke="black" d="M269,-451.754C269,-444.074 269,-434.761 269,-425.836"/>
<polygon fill="black" stroke="black" points="272.5,-425.658 269,-415.658 265.5,-425.658 272.5,-425.658"/>
</g>
<!-- WoRMSLookup&#45;&gt;LogFile -->
<g id="edge22" class="edge"><title>WoRMSLookup&#45;&gt;LogFile</title>
<path fill="none" stroke="black" d="M323.369,-464.516C385.323,-458.279 488.994,-444.385 574,-416 575.659,-415.446 577.333,-414.839 579.009,-414.19"/>
<polygon fill="black" stroke="black" points="580.734,-417.258 588.545,-410.101 577.975,-410.825 580.734,-417.258"/>
</g>
<!-- Setup -->
<g id="node3" class="node"><title>Setup</title>
<polygon fill="#ccffcc" stroke="black" points="128.25,-1070 69.75,-1070 69.75,-1034 128.25,-1034 128.25,-1070"/>
<text text-anchor="middle" x="99" y="-1048.3" font-family="Courier,monospace" font-size="14.00">Setup</text>
</g>
<!-- Workspace -->
<g id="node17" class="node"><title>Workspace</title>
<path fill="#ffffcc" stroke="black" d="M87,-926C87,-926 49,-926 49,-926 43,-926 37,-920 37,-914 37,-914 37,-902 37,-902 37,-896 43,-890 49,-890 49,-890 87,-890 87,-890 93,-890 99,-896 99,-902 99,-902 99,-914 99,-914 99,-920 93,-926 87,-926"/>
<text text-anchor="middle" x="68" y="-905.8" font-family="Helvetica,sans-Serif" font-size="9.00">Workspace</text>
</g>
<!-- Setup&#45;&gt;Workspace -->
<g id="edge13" class="edge"><title>Setup&#45;&gt;Workspace</title>
<path fill="none" stroke="black" d="M95.2607,-1033.87C89.954,-1009.56 80.1858,-964.819 73.8973,-936.013"/>
<polygon fill="black" stroke="black" points="77.305,-935.213 71.7526,-926.189 70.4661,-936.706 77.305,-935.213"/>
</g>
<!-- OccurrenceFile -->
<g id="node18" class="node"><title>OccurrenceFile</title>
<path fill="#ffffcc" stroke="black" d="M203,-998C203,-998 149,-998 149,-998 143,-998 137,-992 137,-986 137,-986 137,-974 137,-974 137,-968 143,-962 149,-962 149,-962 203,-962 203,-962 209,-962 215,-968 215,-974 215,-974 215,-986 215,-986 215,-992 209,-998 203,-998"/>
<text text-anchor="middle" x="176" y="-977.8" font-family="Helvetica,sans-Serif" font-size="9.00">OccurrenceFile</text>
</g>
<!-- Setup&#45;&gt;OccurrenceFile -->
<g id="edge14" class="edge"><title>Setup&#45;&gt;OccurrenceFile</title>
<path fill="none" stroke="black" d="M118.034,-1033.7C127.545,-1025.05 139.207,-1014.45 149.57,-1005.03"/>
<polygon fill="black" stroke="black" points="152.14,-1007.42 157.185,-998.104 147.431,-1002.24 152.14,-1007.42"/>
</g>
<!-- FileToDataStream -->
<g id="node4" class="node"><title>FileToDataStream</title>
<polygon fill="#ccffcc" stroke="black" points="395.25,-926 244.75,-926 244.75,-890 395.25,-890 395.25,-926"/>
<text text-anchor="middle" x="320" y="-904.3" font-family="Courier,monospace" font-size="14.00">FileToDataStream</text>
</g>
<!-- DataRecord -->
<g id="node12" class="node"><title>DataRecord</title>
<path fill="#f8d2db" stroke="black" d="M346,-817C346,-817 420,-817 420,-817 426,-817 432,-823 432,-829 432,-829 432,-841 432,-841 432,-847 426,-853 420,-853 420,-853 346,-853 346,-853 340,-853 334,-847 334,-841 334,-841 334,-829 334,-829 334,-823 340,-817 346,-817"/>
<text text-anchor="middle" x="383" y="-841.8" font-family="Courier,monospace" font-weight="bold" font-size="9.00">DataRecord</text>
<polyline fill="none" stroke="black" points="334,-835 432,-835 "/>
<text text-anchor="middle" x="383" y="-823.8" font-family="Courier,monospace" font-weight="bold" font-size="9.00">MCZ:Mala:278687</text>
</g>
<!-- FileToDataStream&#45;&gt;DataRecord -->
<g id="edge15" class="edge"><title>FileToDataStream&#45;&gt;DataRecord</title>
<path fill="none" stroke="black" d="M335.251,-889.813C342.989,-881.092 352.529,-870.34 361.042,-860.746"/>
<polygon fill="black" stroke="black" points="363.871,-862.832 367.89,-853.029 358.635,-858.186 363.871,-862.832"/>
</g>
<!-- EnvironmentTagger -->
<g id="node5" class="node"><title>EnvironmentTagger</title>
<polygon fill="#ccffcc" stroke="black" points="631.25,-780 472.75,-780 472.75,-744 631.25,-744 631.25,-780"/>
<text text-anchor="middle" x="552" y="-758.3" font-family="Courier,monospace" font-size="14.00">EnvironmentTagger</text>
</g>
<!-- TaggedDataRecord -->
<g id="node13" class="node"><title>TaggedDataRecord</title>
<path fill="#f8d2db" stroke="black" d="M512.5,-671C512.5,-671 591.5,-671 591.5,-671 597.5,-671 603.5,-677 603.5,-683 603.5,-683 603.5,-695 603.5,-695 603.5,-701 597.5,-707 591.5,-707 591.5,-707 512.5,-707 512.5,-707 506.5,-707 500.5,-701 500.5,-695 500.5,-695 500.5,-683 500.5,-683 500.5,-677 506.5,-671 512.5,-671"/>
<text text-anchor="middle" x="552" y="-695.8" font-family="Courier,monospace" font-weight="bold" font-size="9.00">TaggedDataRecord</text>
<polyline fill="none" stroke="black" points="500.5,-689 603.5,-689 "/>
<text text-anchor="middle" x="552" y="-677.8" font-family="Courier,monospace" font-weight="bold" font-size="9.00">NonMarine</text>
</g>
<!-- EnvironmentTagger&#45;&gt;TaggedDataRecord -->
<g id="edge17" class="edge"><title>EnvironmentTagger&#45;&gt;TaggedDataRecord</title>
<path fill="none" stroke="black" d="M552,-743.813C552,-735.789 552,-726.047 552,-717.069"/>
<polygon fill="black" stroke="black" points="555.5,-717.029 552,-707.029 548.5,-717.029 555.5,-717.029"/>
</g>
<!-- EnvironmentTagger&#45;&gt;LogFile -->
<g id="edge16" class="edge"><title>EnvironmentTagger&#45;&gt;LogFile</title>
<path fill="none" stroke="black" d="M631.478,-756.464C720.655,-746.575 853,-715.335 853,-617 853,-617 853,-617 853,-542 853,-453.587 732.671,-415.355 664.588,-400.8"/>
<polygon fill="black" stroke="black" points="665.038,-397.319 654.54,-398.742 663.634,-404.177 665.038,-397.319"/>
</g>
<!-- FilterExcludingMarine -->
<g id="node6" class="node"><title>FilterExcludingMarine</title>
<polygon fill="#ccffcc" stroke="black" points="748.25,-634 555.75,-634 555.75,-598 748.25,-598 748.25,-634"/>
<text text-anchor="middle" x="652" y="-612.3" font-family="Courier,monospace" font-size="14.00">FilterExcludingMarine</text>
</g>
<!-- noMarineDataRecord[scientificName:scientificNameAuthorship] -->
<g id="node14" class="node"><title>noMarineDataRecord[scientificName:scientificNameAuthorship]</title>
<path fill="#f8d2db" stroke="black" d="M490.5,-525C490.5,-525 801.5,-525 801.5,-525 807.5,-525 813.5,-531 813.5,-537 813.5,-537 813.5,-549 813.5,-549 813.5,-555 807.5,-561 801.5,-561 801.5,-561 490.5,-561 490.5,-561 484.5,-561 478.5,-555 478.5,-549 478.5,-549 478.5,-537 478.5,-537 478.5,-531 484.5,-525 490.5,-525"/>
<text text-anchor="middle" x="646" y="-540.8" font-family="Courier,monospace" font-weight="bold" font-size="9.00">noMarineDataRecord[scientificName:scientificNameAuthorship]</text>
</g>
<!-- FilterExcludingMarine&#45;&gt;noMarineDataRecord[scientificName:scientificNameAuthorship] -->
<g id="edge21" class="edge"><title>FilterExcludingMarine&#45;&gt;noMarineDataRecord[scientificName:scientificNameAuthorship]</title>
<path fill="none" stroke="black" d="M650.548,-597.813C649.87,-589.789 649.046,-580.047 648.288,-571.069"/>
<polygon fill="black" stroke="black" points="651.769,-570.699 647.439,-561.029 644.794,-571.288 651.769,-570.699"/>
</g>
<!-- FilterExcludingMarine&#45;&gt;LogFile -->
<g id="edge20" class="edge"><title>FilterExcludingMarine&#45;&gt;LogFile</title>
<path fill="none" stroke="black" d="M748.491,-606.549C776.698,-599.054 804.596,-585.657 822,-562 832.008,-548.396 830.08,-538.831 822,-524 788.607,-462.708 712.853,-425.747 663.918,-407.383"/>
<polygon fill="black" stroke="black" points="665.104,-404.09 654.51,-403.957 662.708,-410.668 665.104,-404.09"/>
</g>
<!-- GBIFLookup -->
<g id="node7" class="node"><title>GBIFLookup</title>
<polygon fill="#ccffcc" stroke="black" points="669.25,-488 568.75,-488 568.75,-452 669.25,-452 669.25,-488"/>
<text text-anchor="middle" x="619" y="-466.3" font-family="Courier,monospace" font-size="14.00">GBIFLookup</text>
</g>
<!-- GBIFOutput -->
<g id="node15" class="node"><title>GBIFOutput</title>
<path fill="#f8d2db" stroke="black" d="M355,-374C355,-374 553,-374 553,-374 559,-374 565,-380 565,-386 565,-386 565,-398 565,-398 565,-404 559,-410 553,-410 553,-410 355,-410 355,-410 349,-410 343,-404 343,-398 343,-398 343,-386 343,-386 343,-380 349,-374 355,-374"/>
<text text-anchor="middle" x="454" y="-398.8" font-family="Courier,monospace" font-weight="bold" font-size="9.00">GBIFOutput</text>
<polyline fill="none" stroke="black" points="343,-392 565,-392 "/>
<text text-anchor="middle" x="454" y="-380.8" font-family="Courier,monospace" font-weight="bold" font-size="9.00">http://api.gbif.org/v1/species/5193794</text>
</g>
<!-- GBIFLookup&#45;&gt;GBIFOutput -->
<g id="edge25" class="edge"><title>GBIFLookup&#45;&gt;GBIFOutput</title>
<path fill="none" stroke="black" d="M581.971,-451.944C557.853,-440.836 526.197,-426.254 500.403,-414.374"/>
<polygon fill="black" stroke="black" points="501.738,-411.135 491.191,-410.13 498.809,-417.493 501.738,-411.135"/>
</g>
<!-- GBIFLookup&#45;&gt;LogFile -->
<g id="edge24" class="edge"><title>GBIFLookup&#45;&gt;LogFile</title>
<path fill="none" stroke="black" d="M619,-451.754C619,-442.523 619,-430.935 619,-420.495"/>
<polygon fill="black" stroke="black" points="622.5,-420.177 619,-410.177 615.5,-420.177 622.5,-420.177"/>
</g>
<!-- StreamMerge -->
<g id="node8" class="node"><title>StreamMerge</title>
<polygon fill="#ccffcc" stroke="black" points="356.25,-332 247.75,-332 247.75,-296 356.25,-296 356.25,-332"/>
<text text-anchor="middle" x="302" y="-310.3" font-family="Courier,monospace" font-size="14.00">StreamMerge</text>
</g>
<!-- MergedStream -->
<g id="node19" class="node"><title>MergedStream</title>
<path fill="#ffffcc" stroke="black" d="M328,-260C328,-260 276,-260 276,-260 270,-260 264,-254 264,-248 264,-248 264,-236 264,-236 264,-230 270,-224 276,-224 276,-224 328,-224 328,-224 334,-224 340,-230 340,-236 340,-236 340,-248 340,-248 340,-254 334,-260 328,-260"/>
<text text-anchor="middle" x="302" y="-239.8" font-family="Helvetica,sans-Serif" font-size="9.00">MergedStream</text>
</g>
<!-- StreamMerge&#45;&gt;MergedStream -->
<g id="edge26" class="edge"><title>StreamMerge&#45;&gt;MergedStream</title>
<path fill="none" stroke="black" d="M302,-295.697C302,-287.983 302,-278.712 302,-270.112"/>
<polygon fill="black" stroke="black" points="305.5,-270.104 302,-260.104 298.5,-270.104 305.5,-270.104"/>
</g>
<!-- CsvFileWriter -->
<g id="node9" class="node"><title>CsvFileWriter</title>
<polygon fill="#ccffcc" stroke="black" points="365,-188 239,-188 239,-152 365,-152 365,-188"/>
<text text-anchor="middle" x="302" y="-166.3" font-family="Courier,monospace" font-size="14.00">CsvFileWriter</text>
</g>
<!-- OutputFile -->
<g id="node21" class="node"><title>OutputFile</title>
<path fill="#ffe4b5" stroke="black" d="M191,-79C191,-79 545,-79 545,-79 551,-79 557,-85 557,-91 557,-91 557,-103 557,-103 557,-109 551,-115 545,-115 545,-115 191,-115 191,-115 185,-115 179,-109 179,-103 179,-103 179,-91 179,-91 179,-85 185,-79 191,-79"/>
<text text-anchor="middle" x="368" y="-103.8" font-family="Courier,monospace" font-weight="bold" font-size="9.00">OutputFile</text>
<polyline fill="none" stroke="black" points="179,-97 557,-97 "/>
<text text-anchor="middle" x="368" y="-85.8" font-family="Courier,monospace" font-weight="bold" font-size="9.00">workspace_e17253f0&#45;52f9&#45;11e7&#45;9a79&#45;acbc3296f741/mergedoutputfile.csv</text>
</g>
<!-- CsvFileWriter&#45;&gt;OutputFile -->
<g id="edge27" class="edge"><title>CsvFileWriter&#45;&gt;OutputFile</title>
<path fill="none" stroke="black" d="M317.977,-151.813C326.165,-143.005 336.278,-132.125 345.264,-122.458"/>
<polygon fill="black" stroke="black" points="347.925,-124.736 352.17,-115.029 342.798,-119.97 347.925,-124.736"/>
</g>
<!-- MarineDataRecord[scientificName:scientificNameAuthorship]&#45;&gt;WoRMSLookup -->
<g id="edge8" class="edge"><title>MarineDataRecord[scientificName:scientificNameAuthorship]&#45;&gt;WoRMSLookup</title>
<path fill="none" stroke="black" d="M248.536,-524.813C251.653,-516.615 255.453,-506.623 258.928,-497.485"/>
<polygon fill="black" stroke="black" points="262.241,-498.62 262.524,-488.029 255.698,-496.132 262.241,-498.62"/>
</g>
<!-- WoRMSOutput&#45;&gt;StreamMerge -->
<g id="edge10" class="edge"><title>WoRMSOutput&#45;&gt;StreamMerge</title>
<path fill="none" stroke="black" d="M278.901,-368.197C282.543,-359.811 286.698,-350.242 290.47,-341.553"/>
<polygon fill="black" stroke="black" points="293.747,-342.794 294.52,-332.228 287.326,-340.006 293.747,-342.794"/>
</g>
<!-- DataRecord&#45;&gt;EnvironmentTagger -->
<g id="edge5" class="edge"><title>DataRecord&#45;&gt;EnvironmentTagger</title>
<path fill="none" stroke="black" d="M423.48,-816.994C447.032,-807.099 476.914,-794.545 501.936,-784.033"/>
<polygon fill="black" stroke="black" points="503.401,-787.214 511.265,-780.114 500.69,-780.76 503.401,-787.214"/>
</g>
<!-- TaggedDataRecord&#45;&gt;FilterToJustMarine -->
<g id="edge6" class="edge"><title>TaggedDataRecord&#45;&gt;FilterToJustMarine</title>
<path fill="none" stroke="black" d="M528.287,-670.994C515.402,-661.753 499.282,-650.192 485.268,-640.142"/>
<polygon fill="black" stroke="black" points="487.029,-637.097 476.863,-634.114 482.949,-642.786 487.029,-637.097"/>
</g>
<!-- TaggedDataRecord&#45;&gt;FilterExcludingMarine -->
<g id="edge7" class="edge"><title>TaggedDataRecord&#45;&gt;FilterExcludingMarine</title>
<path fill="none" stroke="black" d="M575.952,-670.994C588.968,-661.753 605.25,-650.192 619.406,-640.142"/>
<polygon fill="black" stroke="black" points="621.769,-642.757 627.896,-634.114 617.716,-637.049 621.769,-642.757"/>
</g>
<!-- noMarineDataRecord[scientificName:scientificNameAuthorship]&#45;&gt;GBIFLookup -->
<g id="edge9" class="edge"><title>noMarineDataRecord[scientificName:scientificNameAuthorship]&#45;&gt;GBIFLookup</title>
<path fill="none" stroke="black" d="M639.464,-524.813C636.347,-516.615 632.547,-506.623 629.072,-497.485"/>
<polygon fill="black" stroke="black" points="632.302,-496.132 625.476,-488.029 625.759,-498.62 632.302,-496.132"/>
</g>
<!-- GBIFOutput&#45;&gt;StreamMerge -->
<g id="edge11" class="edge"><title>GBIFOutput&#45;&gt;StreamMerge</title>
<path fill="none" stroke="black" d="M419.888,-373.944C397.866,-362.933 369.02,-348.51 345.374,-336.687"/>
<polygon fill="black" stroke="black" points="346.77,-333.472 336.261,-332.13 343.64,-339.733 346.77,-333.472"/>
</g>
<!-- DarwinCoreFile -->
<g id="node16" class="node"><title>DarwinCoreFile</title>
<path fill="#ffe4b5" stroke="black" d="M151,-1107C151,-1107 457,-1107 457,-1107 463,-1107 469,-1113 469,-1119 469,-1119 469,-1131 469,-1131 469,-1137 463,-1143 457,-1143 457,-1143 151,-1143 151,-1143 145,-1143 139,-1137 139,-1131 139,-1131 139,-1119 139,-1119 139,-1113 145,-1107 151,-1107"/>
<text text-anchor="middle" x="304" y="-1131.8" font-family="Courier,monospace" font-weight="bold" font-size="9.00">DarwinCoreFile</text>
<polyline fill="none" stroke="black" points="139,-1125 469,-1125 "/>
<text text-anchor="middle" x="304" y="-1113.8" font-family="Courier,monospace" font-weight="bold" font-size="9.00">packages/kurator_branching/data/kurator_sample_data_v2.txt</text>
</g>
<!-- DarwinCoreFile&#45;&gt;Setup -->
<g id="edge2" class="edge"><title>DarwinCoreFile&#45;&gt;Setup</title>
<path fill="none" stroke="black" d="M254.897,-1106.99C219.151,-1094.61 171.383,-1078.07 138.184,-1066.57"/>
<polygon fill="black" stroke="black" points="138.972,-1063.14 128.377,-1063.17 136.681,-1069.75 138.972,-1063.14"/>
</g>
<!-- Workspace&#45;&gt;CsvFileWriter -->
<g id="edge3" class="edge"><title>Workspace&#45;&gt;CsvFileWriter</title>
<path fill="none" stroke="black" d="M59.2983,-889.763C46.7336,-863.235 25,-810.485 25,-763 25,-763 25,-763 25,-313 25,-221.307 146.682,-188.781 228.748,-177.272"/>
<polygon fill="black" stroke="black" points="229.345,-180.723 238.798,-175.938 228.424,-173.784 229.345,-180.723"/>
</g>
<!-- OccurrenceFile&#45;&gt;FileToDataStream -->
<g id="edge4" class="edge"><title>OccurrenceFile&#45;&gt;FileToDataStream</title>
<path fill="none" stroke="black" d="M211.226,-961.876C230.577,-952.469 254.773,-940.708 275.427,-930.667"/>
<polygon fill="black" stroke="black" points="277.175,-933.71 284.638,-926.19 274.114,-927.414 277.175,-933.71"/>
</g>
<!-- MergedStream&#45;&gt;CsvFileWriter -->
<g id="edge12" class="edge"><title>MergedStream&#45;&gt;CsvFileWriter</title>
<path fill="none" stroke="black" d="M302,-223.697C302,-215.983 302,-206.712 302,-198.112"/>
<polygon fill="black" stroke="black" points="305.5,-198.104 302,-188.104 298.5,-198.104 305.5,-198.104"/>
</g>
<!-- LogFile_outflow -->
<g id="node25" class="node"><title>LogFile_outflow</title>
<ellipse fill="none" stroke="black" cx="501" cy="-31" rx="7" ry="7"/>
</g>
<!-- LogFile&#45;&gt;LogFile_outflow -->
<g id="edge30" class="edge"><title>LogFile&#45;&gt;LogFile_outflow</title>
<path fill="none" stroke="black" d="M615.722,-373.757C610.782,-346.226 602,-290.589 602,-243 602,-243 602,-243 602,-169 602,-118.825 599.515,-99.3399 566,-62 553.166,-47.7011 532.128,-39.7317 517.476,-35.6617"/>
<polygon fill="black" stroke="black" points="518.304,-32.2611 507.757,-33.2692 516.63,-39.0581 518.304,-32.2611"/>
</g>
<!-- OutputFile_outflow -->
<g id="node26" class="node"><title>OutputFile_outflow</title>
<ellipse fill="none" stroke="black" cx="469" cy="-31" rx="7" ry="7"/>
</g>
<!-- OutputFile&#45;&gt;OutputFile_outflow -->
<g id="edge31" class="edge"><title>OutputFile&#45;&gt;OutputFile_outflow</title>
<path fill="none" stroke="black" d="M395.066,-78.8492C414.239,-66.6999 439.203,-50.8812 454.661,-41.0862"/>
<polygon fill="black" stroke="black" points="456.716,-43.9275 463.29,-35.6185 452.969,-38.0146 456.716,-43.9275"/>
</g>
<!-- InputFilePath -->
<g id="node22" class="node"><title>InputFilePath</title>
<path fill="#ffffff" stroke="black" d="M109,-1143C109,-1143 63,-1143 63,-1143 57,-1143 51,-1137 51,-1131 51,-1131 51,-1119 51,-1119 51,-1113 57,-1107 63,-1107 63,-1107 109,-1107 109,-1107 115,-1107 121,-1113 121,-1119 121,-1119 121,-1131 121,-1131 121,-1137 115,-1143 109,-1143"/>
<text text-anchor="middle" x="86" y="-1122.8" font-family="Helvetica,sans-Serif" font-size="9.00">InputFilePath</text>
</g>
<!-- InputFilePath&#45;&gt;Setup -->
<g id="edge1" class="edge"><title>InputFilePath&#45;&gt;Setup</title>
<path fill="none" stroke="black" d="M89.1469,-1106.81C90.616,-1098.79 92.3998,-1089.05 94.0437,-1080.07"/>
<polygon fill="black" stroke="black" points="97.5237,-1080.5 95.882,-1070.03 90.6382,-1079.23 97.5237,-1080.5"/>
</g>
<!-- DarwinCoreFile_inflow -->
<g id="node23" class="node"><title>DarwinCoreFile_inflow</title>
<ellipse fill="none" stroke="black" cx="211" cy="-1191" rx="7" ry="7"/>
</g>
<!-- DarwinCoreFile_inflow&#45;&gt;DarwinCoreFile -->
<g id="edge28" class="edge"><title>DarwinCoreFile_inflow&#45;&gt;DarwinCoreFile</title>
<path fill="none" stroke="black" d="M216.267,-1186.38C226.622,-1179.25 250.384,-1162.9 270.569,-1149.01"/>
<polygon fill="black" stroke="black" points="272.698,-1151.79 278.952,-1143.24 268.73,-1146.02 272.698,-1151.79"/>
</g>
<!-- InputFilePath_inflow -->
<g id="node24" class="node"><title>InputFilePath_inflow</title>
<ellipse fill="none" stroke="black" cx="179" cy="-1191" rx="7" ry="7"/>
</g>
<!-- InputFilePath_inflow&#45;&gt;InputFilePath -->
<g id="edge29" class="edge"><title>InputFilePath_inflow&#45;&gt;InputFilePath</title>
<path fill="none" stroke="black" d="M173.138,-1186.69C163.813,-1181.36 145.11,-1170.42 130,-1160 125.112,-1156.63 120.033,-1152.92 115.138,-1149.22"/>
<polygon fill="black" stroke="black" points="117.2,-1146.39 107.137,-1143.08 112.937,-1151.94 117.2,-1146.39"/>
</g>
</g>
</svg>
