<?xml version="1.0" encoding="UTF-8" standalone="no"?>
<!DOCTYPE svg PUBLIC "-//W3C//DTD SVG 1.1//EN"
 "http://www.w3.org/Graphics/SVG/1.1/DTD/svg11.dtd">
<!-- Generated by graphviz version 2.36.0 (20140111.2315)
 -->
<!-- Title: yw_data_view Pages: 1 -->
<svg width="476pt" height="1242pt"
 viewBox="0.00 0.00 476.00 1242.00" xmlns="http://www.w3.org/2000/svg" xmlns:xlink="http://www.w3.org/1999/xlink">
<g id="graph0" class="graph" transform="scale(1 1) rotate(0) translate(4 1238)">
<title>yw_data_view</title>
<polygon fill="white" stroke="none" points="-4,4 -4,-1238 472,-1238 472,4 -4,4"/>
<text text-anchor="middle" x="234" y="-1215.6" font-family="Courier,monospace" font-size="18.00">BranchingWorkflow</text>
<g id="clust5" class="cluster"><title>cluster_outflows</title>
<polygon fill="none" stroke="white" stroke-width="2" points="287,-8 287,-54 365,-54 365,-8 287,-8"/>
</g>
<g id="clust6" class="cluster"><title>cluster_outflows_inner</title>
<polygon fill="none" stroke="white" stroke-width="2" points="295,-16 295,-46 357,-46 357,-16 295,-16"/>
</g>
<g id="clust1" class="cluster"><title>cluster_workflow</title>
<polygon fill="none" stroke="black" stroke-width="2" points="8,-62 8,-1144 460,-1144 460,-62 8,-62"/>
</g>
<g id="clust2" class="cluster"><title>cluster_workflow_inner</title>
<polygon fill="none" stroke="white" stroke-width="2" points="16,-70 16,-1136 452,-1136 452,-70 16,-70"/>
</g>
<g id="clust3" class="cluster"><title>cluster_inflows</title>
<polygon fill="none" stroke="white" stroke-width="2" points="132,-1152 132,-1198 210,-1198 210,-1152 132,-1152"/>
</g>
<g id="clust4" class="cluster"><title>cluster_inflows_inner</title>
<polygon fill="none" stroke="white" stroke-width="2" points="140,-1160 140,-1190 202,-1190 202,-1160 140,-1160"/>
</g>
<!-- Setup -->
<g id="node1" class="node"><title>Setup</title>
<polygon fill="#ccffcc" stroke="black" points="119.25,-1054 60.75,-1054 60.75,-1018 119.25,-1018 119.25,-1054"/>
<text text-anchor="middle" x="90" y="-1032.3" font-family="Courier,monospace" font-size="14.00">Setup</text>
</g>
<!-- Workspace -->
<g id="node11" class="node"><title>Workspace</title>
<path fill="#ffffcc" stroke="black" d="M83,-910C83,-910 45,-910 45,-910 39,-910 33,-904 33,-898 33,-898 33,-886 33,-886 33,-880 39,-874 45,-874 45,-874 83,-874 83,-874 89,-874 95,-880 95,-886 95,-886 95,-898 95,-898 95,-904 89,-910 83,-910"/>
<text text-anchor="middle" x="64" y="-889.8" font-family="Helvetica,sans-Serif" font-size="9.00">Workspace</text>
</g>
<!-- Setup&#45;&gt;Workspace -->
<g id="edge13" class="edge"><title>Setup&#45;&gt;Workspace</title>
<path fill="none" stroke="black" d="M86.8638,-1017.87C82.4326,-993.67 74.2921,-949.211 69.0157,-920.393"/>
<polygon fill="black" stroke="black" points="72.3912,-919.395 67.1473,-910.189 65.5057,-920.656 72.3912,-919.395"/>
</g>
<!-- OccurrenceFile -->
<g id="node12" class="node"><title>OccurrenceFile</title>
<path fill="#ffffcc" stroke="black" d="M199,-982C199,-982 145,-982 145,-982 139,-982 133,-976 133,-970 133,-970 133,-958 133,-958 133,-952 139,-946 145,-946 145,-946 199,-946 199,-946 205,-946 211,-952 211,-958 211,-958 211,-970 211,-970 211,-976 205,-982 199,-982"/>
<text text-anchor="middle" x="172" y="-961.8" font-family="Helvetica,sans-Serif" font-size="9.00">OccurrenceFile</text>
</g>
<!-- Setup&#45;&gt;OccurrenceFile -->
<g id="edge14" class="edge"><title>Setup&#45;&gt;OccurrenceFile</title>
<path fill="none" stroke="black" d="M110.27,-1017.7C120.498,-1008.97 133.061,-998.24 144.178,-988.75"/>
<polygon fill="black" stroke="black" points="146.63,-991.259 151.963,-982.104 142.085,-985.935 146.63,-991.259"/>
</g>
<!-- FileToDataStream -->
<g id="node2" class="node"><title>FileToDataStream</title>
<polygon fill="#ccffcc" stroke="black" points="339.25,-910 188.75,-910 188.75,-874 339.25,-874 339.25,-910"/>
<text text-anchor="middle" x="264" y="-888.3" font-family="Courier,monospace" font-size="14.00">FileToDataStream</text>
</g>
<!-- DataRecord -->
<g id="node13" class="node"><title>DataRecord</title>
<path fill="#ffffcc" stroke="black" d="M303.25,-838C303.25,-838 262.75,-838 262.75,-838 256.75,-838 250.75,-832 250.75,-826 250.75,-826 250.75,-814 250.75,-814 250.75,-808 256.75,-802 262.75,-802 262.75,-802 303.25,-802 303.25,-802 309.25,-802 315.25,-808 315.25,-814 315.25,-814 315.25,-826 315.25,-826 315.25,-832 309.25,-838 303.25,-838"/>
<text text-anchor="middle" x="283" y="-817.8" font-family="Helvetica,sans-Serif" font-size="9.00">DataRecord</text>
</g>
<!-- FileToDataStream&#45;&gt;DataRecord -->
<g id="edge15" class="edge"><title>FileToDataStream&#45;&gt;DataRecord</title>
<path fill="none" stroke="black" d="M268.697,-873.697C270.813,-865.898 273.362,-856.509 275.718,-847.829"/>
<polygon fill="black" stroke="black" points="279.116,-848.672 278.357,-838.104 272.36,-846.838 279.116,-848.672"/>
</g>
<!-- EnvironmentTagger -->
<g id="node3" class="node"><title>EnvironmentTagger</title>
<polygon fill="#ccffcc" stroke="black" points="400.25,-766 241.75,-766 241.75,-730 400.25,-730 400.25,-766"/>
<text text-anchor="middle" x="321" y="-744.3" font-family="Courier,monospace" font-size="14.00">EnvironmentTagger</text>
</g>
<!-- TaggedDataRecord -->
<g id="node14" class="node"><title>TaggedDataRecord</title>
<path fill="#ffffcc" stroke="black" d="M356.25,-694C356.25,-694 285.75,-694 285.75,-694 279.75,-694 273.75,-688 273.75,-682 273.75,-682 273.75,-670 273.75,-670 273.75,-664 279.75,-658 285.75,-658 285.75,-658 356.25,-658 356.25,-658 362.25,-658 368.25,-664 368.25,-670 368.25,-670 368.25,-682 368.25,-682 368.25,-688 362.25,-694 356.25,-694"/>
<text text-anchor="middle" x="321" y="-673.8" font-family="Helvetica,sans-Serif" font-size="9.00">TaggedDataRecord</text>
</g>
<!-- EnvironmentTagger&#45;&gt;TaggedDataRecord -->
<g id="edge17" class="edge"><title>EnvironmentTagger&#45;&gt;TaggedDataRecord</title>
<path fill="none" stroke="black" d="M321,-729.697C321,-721.983 321,-712.712 321,-704.112"/>
<polygon fill="black" stroke="black" points="324.5,-704.104 321,-694.104 317.5,-704.104 324.5,-704.104"/>
</g>
<!-- LogFile -->
<g id="node20" class="node"><title>LogFile</title>
<path fill="#ffe4b5" stroke="black" d="M368.5,-513C368.5,-513 415.5,-513 415.5,-513 421.5,-513 427.5,-519 427.5,-525 427.5,-525 427.5,-537 427.5,-537 427.5,-543 421.5,-549 415.5,-549 415.5,-549 368.5,-549 368.5,-549 362.5,-549 356.5,-543 356.5,-537 356.5,-537 356.5,-525 356.5,-525 356.5,-519 362.5,-513 368.5,-513"/>
<text text-anchor="middle" x="392" y="-537.8" font-family="Courier,monospace" font-weight="bold" font-size="9.00">LogFile</text>
<polyline fill="none" stroke="black" points="356.5,-531 427.5,-531 "/>
<text text-anchor="start" x="364.5" y="-519.8" font-family="Courier,monospace" font-weight="bold" font-size="9.00">runlog.log</text>
</g>
<!-- EnvironmentTagger&#45;&gt;LogFile -->
<g id="edge16" class="edge"><title>EnvironmentTagger&#45;&gt;LogFile</title>
<path fill="none" stroke="black" d="M345.477,-729.641C373.327,-708.134 417.019,-668.578 433,-622 438.193,-606.866 438.104,-601.164 433,-586 429.471,-575.517 423.009,-565.454 416.242,-556.915"/>
<polygon fill="black" stroke="black" points="418.875,-554.609 409.747,-549.232 413.53,-559.128 418.875,-554.609"/>
</g>
<!-- FilterToJustMarine -->
<g id="node4" class="node"><title>FilterToJustMarine</title>
<polygon fill="#ccffcc" stroke="black" points="424,-622 256,-622 256,-586 424,-586 424,-622"/>
<text text-anchor="middle" x="340" y="-600.3" font-family="Courier,monospace" font-size="14.00">FilterToJustMarine</text>
</g>
<!-- Marine -->
<g id="node15" class="node"><title>Marine</title>
<path fill="#ffffcc" stroke="black" d="M318,-549C318,-549 288,-549 288,-549 282,-549 276,-543 276,-537 276,-537 276,-525 276,-525 276,-519 282,-513 288,-513 288,-513 318,-513 318,-513 324,-513 330,-519 330,-525 330,-525 330,-537 330,-537 330,-543 324,-549 318,-549"/>
<text text-anchor="middle" x="303" y="-528.8" font-family="Helvetica,sans-Serif" font-size="9.00">Marine</text>
</g>
<!-- FilterToJustMarine&#45;&gt;Marine -->
<g id="edge19" class="edge"><title>FilterToJustMarine&#45;&gt;Marine</title>
<path fill="none" stroke="black" d="M331.043,-585.813C326.68,-577.441 321.342,-567.197 316.499,-557.903"/>
<polygon fill="black" stroke="black" points="319.599,-556.279 311.874,-549.029 313.392,-559.514 319.599,-556.279"/>
</g>
<!-- FilterToJustMarine&#45;&gt;LogFile -->
<g id="edge18" class="edge"><title>FilterToJustMarine&#45;&gt;LogFile</title>
<path fill="none" stroke="black" d="M352.588,-585.813C358.847,-577.266 366.535,-566.769 373.454,-557.323"/>
<polygon fill="black" stroke="black" points="376.443,-559.165 379.528,-549.029 370.796,-555.028 376.443,-559.165"/>
</g>
<!-- FilterExcludingMarine -->
<g id="node5" class="node"><title>FilterExcludingMarine</title>
<polygon fill="#ccffcc" stroke="black" points="237.25,-622 44.75,-622 44.75,-586 237.25,-586 237.25,-622"/>
<text text-anchor="middle" x="141" y="-600.3" font-family="Courier,monospace" font-size="14.00">FilterExcludingMarine</text>
</g>
<!-- NotMarine -->
<g id="node16" class="node"><title>NotMarine</title>
<path fill="#ffffcc" stroke="black" d="M160,-549C160,-549 126,-549 126,-549 120,-549 114,-543 114,-537 114,-537 114,-525 114,-525 114,-519 120,-513 126,-513 126,-513 160,-513 160,-513 166,-513 172,-519 172,-525 172,-525 172,-537 172,-537 172,-543 166,-549 160,-549"/>
<text text-anchor="middle" x="143" y="-528.8" font-family="Helvetica,sans-Serif" font-size="9.00">NotMarine</text>
</g>
<!-- FilterExcludingMarine&#45;&gt;NotMarine -->
<g id="edge21" class="edge"><title>FilterExcludingMarine&#45;&gt;NotMarine</title>
<path fill="none" stroke="black" d="M141.484,-585.813C141.71,-577.789 141.985,-568.047 142.237,-559.069"/>
<polygon fill="black" stroke="black" points="145.737,-559.123 142.52,-549.029 138.74,-558.926 145.737,-559.123"/>
</g>
<!-- FilterExcludingMarine&#45;&gt;LogFile -->
<g id="edge20" class="edge"><title>FilterExcludingMarine&#45;&gt;LogFile</title>
<path fill="none" stroke="black" d="M209.126,-585.946C247.457,-576.056 296.093,-563.013 339,-550 341.57,-549.22 344.204,-548.399 346.856,-547.555"/>
<polygon fill="black" stroke="black" points="348.042,-550.85 356.468,-544.426 345.875,-544.193 348.042,-550.85"/>
</g>
<!-- WoRMSLookup -->
<g id="node6" class="node"><title>WoRMSLookup</title>
<polygon fill="#ccffcc" stroke="black" points="353.25,-476 244.75,-476 244.75,-440 353.25,-440 353.25,-476"/>
<text text-anchor="middle" x="299" y="-454.3" font-family="Courier,monospace" font-size="14.00">WoRMSLookup</text>
</g>
<!-- WoRMSOutput -->
<g id="node17" class="node"><title>WoRMSOutput</title>
<path fill="#ffffcc" stroke="black" d="M307.25,-404C307.25,-404 254.75,-404 254.75,-404 248.75,-404 242.75,-398 242.75,-392 242.75,-392 242.75,-380 242.75,-380 242.75,-374 248.75,-368 254.75,-368 254.75,-368 307.25,-368 307.25,-368 313.25,-368 319.25,-374 319.25,-380 319.25,-380 319.25,-392 319.25,-392 319.25,-398 313.25,-404 307.25,-404"/>
<text text-anchor="middle" x="281" y="-383.8" font-family="Helvetica,sans-Serif" font-size="9.00">WoRMSOutput</text>
</g>
<!-- WoRMSLookup&#45;&gt;WoRMSOutput -->
<g id="edge22" class="edge"><title>WoRMSLookup&#45;&gt;WoRMSOutput</title>
<path fill="none" stroke="black" d="M294.551,-439.697C292.545,-431.898 290.131,-422.509 287.899,-413.829"/>
<polygon fill="black" stroke="black" points="291.278,-412.918 285.398,-404.104 284.499,-414.661 291.278,-412.918"/>
</g>
<!-- GBIFLookup -->
<g id="node7" class="node"><title>GBIFLookup</title>
<polygon fill="#ccffcc" stroke="black" points="224.25,-476 123.75,-476 123.75,-440 224.25,-440 224.25,-476"/>
<text text-anchor="middle" x="174" y="-454.3" font-family="Courier,monospace" font-size="14.00">GBIFLookup</text>
</g>
<!-- GBIFOutput -->
<g id="node18" class="node"><title>GBIFOutput</title>
<path fill="#ffffcc" stroke="black" d="M203.25,-404C203.25,-404 162.75,-404 162.75,-404 156.75,-404 150.75,-398 150.75,-392 150.75,-392 150.75,-380 150.75,-380 150.75,-374 156.75,-368 162.75,-368 162.75,-368 203.25,-368 203.25,-368 209.25,-368 215.25,-374 215.25,-380 215.25,-380 215.25,-392 215.25,-392 215.25,-398 209.25,-404 203.25,-404"/>
<text text-anchor="middle" x="183" y="-383.8" font-family="Helvetica,sans-Serif" font-size="9.00">GBIFOutput</text>
</g>
<!-- GBIFLookup&#45;&gt;GBIFOutput -->
<g id="edge23" class="edge"><title>GBIFLookup&#45;&gt;GBIFOutput</title>
<path fill="none" stroke="black" d="M176.225,-439.697C177.217,-431.983 178.408,-422.712 179.514,-414.112"/>
<polygon fill="black" stroke="black" points="182.997,-414.469 180.801,-404.104 176.054,-413.576 182.997,-414.469"/>
</g>
<!-- StreamMerge -->
<g id="node8" class="node"><title>StreamMerge</title>
<polygon fill="#ccffcc" stroke="black" points="249.25,-332 140.75,-332 140.75,-296 249.25,-296 249.25,-332"/>
<text text-anchor="middle" x="195" y="-310.3" font-family="Courier,monospace" font-size="14.00">StreamMerge</text>
</g>
<!-- MergedStream -->
<g id="node19" class="node"><title>MergedStream</title>
<path fill="#ffffcc" stroke="black" d="M221,-260C221,-260 169,-260 169,-260 163,-260 157,-254 157,-248 157,-248 157,-236 157,-236 157,-230 163,-224 169,-224 169,-224 221,-224 221,-224 227,-224 233,-230 233,-236 233,-236 233,-248 233,-248 233,-254 227,-260 221,-260"/>
<text text-anchor="middle" x="195" y="-239.8" font-family="Helvetica,sans-Serif" font-size="9.00">MergedStream</text>
</g>
<!-- StreamMerge&#45;&gt;MergedStream -->
<g id="edge24" class="edge"><title>StreamMerge&#45;&gt;MergedStream</title>
<path fill="none" stroke="black" d="M195,-295.697C195,-287.983 195,-278.712 195,-270.112"/>
<polygon fill="black" stroke="black" points="198.5,-270.104 195,-260.104 191.5,-270.104 198.5,-270.104"/>
</g>
<!-- CsvFileWriter -->
<g id="node9" class="node"><title>CsvFileWriter</title>
<polygon fill="#ccffcc" stroke="black" points="258,-188 132,-188 132,-152 258,-152 258,-188"/>
<text text-anchor="middle" x="195" y="-166.3" font-family="Courier,monospace" font-size="14.00">CsvFileWriter</text>
</g>
<!-- OutputFile -->
<g id="node21" class="node"><title>OutputFile</title>
<path fill="#ffe4b5" stroke="black" d="M36,-79C36,-79 396,-79 396,-79 402,-79 408,-85 408,-91 408,-91 408,-103 408,-103 408,-109 402,-115 396,-115 396,-115 36,-115 36,-115 30,-115 24,-109 24,-103 24,-103 24,-91 24,-91 24,-85 30,-79 36,-79"/>
<text text-anchor="middle" x="216" y="-103.8" font-family="Courier,monospace" font-weight="bold" font-size="9.00">OutputFile</text>
<polyline fill="none" stroke="black" points="24,-97 408,-97 "/>
<text text-anchor="start" x="32" y="-85.8" font-family="Courier,monospace" font-weight="bold" font-size="9.00">workspace_ef376d40&#45;4fed&#45;11e7&#45;8921&#45;acbc3296f741/mergedoutuputfile.csv</text>
</g>
<!-- CsvFileWriter&#45;&gt;OutputFile -->
<g id="edge25" class="edge"><title>CsvFileWriter&#45;&gt;OutputFile</title>
<path fill="none" stroke="black" d="M200.084,-151.813C202.482,-143.702 205.401,-133.836 208.08,-124.777"/>
<polygon fill="black" stroke="black" points="211.483,-125.611 210.963,-115.029 204.771,-123.625 211.483,-125.611"/>
</g>
<!-- DarwinCoreArchive -->
<g id="node10" class="node"><title>DarwinCoreArchive</title>
<path fill="#ffe4b5" stroke="black" d="M130,-1091C130,-1091 420,-1091 420,-1091 426,-1091 432,-1097 432,-1103 432,-1103 432,-1115 432,-1115 432,-1121 426,-1127 420,-1127 420,-1127 130,-1127 130,-1127 124,-1127 118,-1121 118,-1115 118,-1115 118,-1103 118,-1103 118,-1097 124,-1091 130,-1091"/>
<text text-anchor="middle" x="275" y="-1115.8" font-family="Courier,monospace" font-weight="bold" font-size="9.00">DarwinCoreArchive</text>
<polyline fill="none" stroke="black" points="118,-1109 432,-1109 "/>
<text text-anchor="start" x="126" y="-1097.8" font-family="Courier,monospace" font-weight="bold" font-size="9.00">packages/kurator_branching/data/kurator_sample_data.txt</text>
</g>
<!-- DarwinCoreArchive&#45;&gt;Setup -->
<g id="edge2" class="edge"><title>DarwinCoreArchive&#45;&gt;Setup</title>
<path fill="none" stroke="black" d="M230.688,-1090.99C199.763,-1079.13 158.869,-1063.43 129.145,-1052.02"/>
<polygon fill="black" stroke="black" points="130.113,-1048.65 119.523,-1048.33 127.605,-1055.18 130.113,-1048.65"/>
</g>
<!-- Workspace&#45;&gt;CsvFileWriter -->
<g id="edge3" class="edge"><title>Workspace&#45;&gt;CsvFileWriter</title>
<path fill="none" stroke="black" d="M56.1078,-873.928C44.7119,-847.671 25,-795.53 25,-749 25,-749 25,-749 25,-313 25,-253.39 87.3286,-213.906 136.505,-192.03"/>
<polygon fill="black" stroke="black" points="138.026,-195.186 145.829,-188.019 135.26,-188.756 138.026,-195.186"/>
</g>
<!-- OccurrenceFile&#45;&gt;FileToDataStream -->
<g id="edge4" class="edge"><title>OccurrenceFile&#45;&gt;FileToDataStream</title>
<path fill="none" stroke="black" d="M194.742,-945.697C206.44,-936.796 220.861,-925.823 233.51,-916.199"/>
<polygon fill="black" stroke="black" points="235.681,-918.945 241.52,-910.104 231.442,-913.374 235.681,-918.945"/>
</g>
<!-- DataRecord&#45;&gt;EnvironmentTagger -->
<g id="edge5" class="edge"><title>DataRecord&#45;&gt;EnvironmentTagger</title>
<path fill="none" stroke="black" d="M292.393,-801.697C296.765,-793.644 302.057,-783.894 306.895,-774.982"/>
<polygon fill="black" stroke="black" points="310.02,-776.563 311.715,-766.104 303.868,-773.223 310.02,-776.563"/>
</g>
<!-- TaggedDataRecord&#45;&gt;FilterToJustMarine -->
<g id="edge6" class="edge"><title>TaggedDataRecord&#45;&gt;FilterToJustMarine</title>
<path fill="none" stroke="black" d="M325.697,-657.697C327.813,-649.898 330.362,-640.509 332.718,-631.829"/>
<polygon fill="black" stroke="black" points="336.116,-632.672 335.357,-622.104 329.36,-630.838 336.116,-632.672"/>
</g>
<!-- TaggedDataRecord&#45;&gt;FilterExcludingMarine -->
<g id="edge7" class="edge"><title>TaggedDataRecord&#45;&gt;FilterExcludingMarine</title>
<path fill="none" stroke="black" d="M276.967,-657.876C252.032,-648.179 220.662,-635.98 194.338,-625.743"/>
<polygon fill="black" stroke="black" points="195.479,-622.431 184.89,-622.068 192.941,-628.955 195.479,-622.431"/>
</g>
<!-- Marine&#45;&gt;WoRMSLookup -->
<g id="edge8" class="edge"><title>Marine&#45;&gt;WoRMSLookup</title>
<path fill="none" stroke="black" d="M302.032,-512.813C301.58,-504.789 301.031,-495.047 300.525,-486.069"/>
<polygon fill="black" stroke="black" points="304.016,-485.816 299.959,-476.029 297.027,-486.21 304.016,-485.816"/>
</g>
<!-- NotMarine&#45;&gt;GBIFLookup -->
<g id="edge9" class="edge"><title>NotMarine&#45;&gt;GBIFLookup</title>
<path fill="none" stroke="black" d="M150.504,-512.813C154.084,-504.615 158.446,-494.623 162.436,-485.485"/>
<polygon fill="black" stroke="black" points="165.771,-486.594 166.565,-476.029 159.356,-483.793 165.771,-486.594"/>
</g>
<!-- WoRMSOutput&#45;&gt;StreamMerge -->
<g id="edge10" class="edge"><title>WoRMSOutput&#45;&gt;StreamMerge</title>
<path fill="none" stroke="black" d="M259.742,-367.697C248.911,-358.881 235.582,-348.032 223.84,-338.474"/>
<polygon fill="black" stroke="black" points="225.979,-335.703 216.014,-332.104 221.56,-341.132 225.979,-335.703"/>
</g>
<!-- GBIFOutput&#45;&gt;StreamMerge -->
<g id="edge11" class="edge"><title>GBIFOutput&#45;&gt;StreamMerge</title>
<path fill="none" stroke="black" d="M185.966,-367.697C187.289,-359.983 188.878,-350.712 190.352,-342.112"/>
<polygon fill="black" stroke="black" points="193.828,-342.552 192.068,-332.104 186.928,-341.369 193.828,-342.552"/>
</g>
<!-- MergedStream&#45;&gt;CsvFileWriter -->
<g id="edge12" class="edge"><title>MergedStream&#45;&gt;CsvFileWriter</title>
<path fill="none" stroke="black" d="M195,-223.697C195,-215.983 195,-206.712 195,-198.112"/>
<polygon fill="black" stroke="black" points="198.5,-198.104 195,-188.104 191.5,-198.104 198.5,-198.104"/>
</g>
<!-- LogFile_outflow -->
<g id="node25" class="node"><title>LogFile_outflow</title>
<ellipse fill="none" stroke="black" cx="342" cy="-31" rx="7" ry="7"/>
</g>
<!-- LogFile&#45;&gt;LogFile_outflow -->
<g id="edge28" class="edge"><title>LogFile&#45;&gt;LogFile_outflow</title>
<path fill="none" stroke="black" d="M400.904,-512.912C413.761,-486.607 436,-434.275 436,-387 436,-387 436,-387 436,-169 436,-120.701 447.483,-99.4646 417,-62 402.761,-44.5001 376.8,-37.1474 359.473,-34.0995"/>
<polygon fill="black" stroke="black" points="359.503,-30.5678 349.106,-32.6053 358.505,-37.4962 359.503,-30.5678"/>
</g>
<!-- OutputFile_outflow -->
<g id="node26" class="node"><title>OutputFile_outflow</title>
<ellipse fill="none" stroke="black" cx="310" cy="-31" rx="7" ry="7"/>
</g>
<!-- OutputFile&#45;&gt;OutputFile_outflow -->
<g id="edge29" class="edge"><title>OutputFile&#45;&gt;OutputFile_outflow</title>
<path fill="none" stroke="black" d="M241.19,-78.8492C258.865,-66.8156 281.826,-51.1822 296.241,-41.3677"/>
<polygon fill="black" stroke="black" points="298.389,-44.1396 304.685,-35.6185 294.45,-38.3533 298.389,-44.1396"/>
</g>
<!-- DwCA_URI -->
<g id="node22" class="node"><title>DwCA_URI</title>
<path fill="#ffffff" stroke="black" d="M87.25,-1127C87.25,-1127 48.75,-1127 48.75,-1127 42.75,-1127 36.75,-1121 36.75,-1115 36.75,-1115 36.75,-1103 36.75,-1103 36.75,-1097 42.75,-1091 48.75,-1091 48.75,-1091 87.25,-1091 87.25,-1091 93.25,-1091 99.25,-1097 99.25,-1103 99.25,-1103 99.25,-1115 99.25,-1115 99.25,-1121 93.25,-1127 87.25,-1127"/>
<text text-anchor="middle" x="68" y="-1106.8" font-family="Helvetica,sans-Serif" font-size="9.00">DwCA_URI</text>
</g>
<!-- DwCA_URI&#45;&gt;Setup -->
<g id="edge1" class="edge"><title>DwCA_URI&#45;&gt;Setup</title>
<path fill="none" stroke="black" d="M73.3256,-1090.81C75.8387,-1082.7 78.896,-1072.84 81.703,-1063.78"/>
<polygon fill="black" stroke="black" points="85.1068,-1064.62 84.7235,-1054.03 78.4204,-1062.54 85.1068,-1064.62"/>
</g>
<!-- DarwinCoreArchive_inflow -->
<g id="node23" class="node"><title>DarwinCoreArchive_inflow</title>
<ellipse fill="none" stroke="black" cx="187" cy="-1175" rx="7" ry="7"/>
</g>
<!-- DarwinCoreArchive_inflow&#45;&gt;DarwinCoreArchive -->
<g id="edge26" class="edge"><title>DarwinCoreArchive_inflow&#45;&gt;DarwinCoreArchive</title>
<path fill="none" stroke="black" d="M192.241,-1170.19C202.169,-1162.97 224.417,-1146.79 243.347,-1133.02"/>
<polygon fill="black" stroke="black" points="245.454,-1135.82 251.483,-1127.1 241.337,-1130.15 245.454,-1135.82"/>
</g>
<!-- DwCA_URI_inflow -->
<g id="node24" class="node"><title>DwCA_URI_inflow</title>
<ellipse fill="none" stroke="black" cx="155" cy="-1175" rx="7" ry="7"/>
</g>
<!-- DwCA_URI_inflow&#45;&gt;DwCA_URI -->
<g id="edge27" class="edge"><title>DwCA_URI_inflow&#45;&gt;DwCA_URI</title>
<path fill="none" stroke="black" d="M149.482,-1170.69C140.708,-1165.35 123.122,-1154.41 109,-1144 104.534,-1140.71 99.9087,-1137.09 95.4448,-1133.48"/>
<polygon fill="black" stroke="black" points="97.5981,-1130.72 87.6529,-1127.07 93.1495,-1136.13 97.5981,-1130.72"/>
</g>
</g>
</svg>
