<?xml version="1.0" encoding="UTF-8" standalone="no"?>
<!DOCTYPE svg PUBLIC "-//W3C//DTD SVG 1.1//EN"
 "http://www.w3.org/Graphics/SVG/1.1/DTD/svg11.dtd">
<!-- Generated by graphviz version 2.36.0 (20140111.2315)
 -->
<!-- Title: yw_data_view Pages: 1 -->
<svg width="684pt" height="1242pt"
 viewBox="0.00 0.00 684.00 1242.00" xmlns="http://www.w3.org/2000/svg" xmlns:xlink="http://www.w3.org/1999/xlink">
<g id="graph0" class="graph" transform="scale(1 1) rotate(0) translate(4 1238)">
<title>yw_data_view</title>
<polygon fill="white" stroke="none" points="-4,4 -4,-1238 680,-1238 680,4 -4,4"/>
<text text-anchor="middle" x="338" y="-1215.6" font-family="Courier,monospace" font-size="18.00">BranchingWorkflow</text>
<g id="clust1" class="cluster"><title>cluster_workflow</title>
<polygon fill="none" stroke="black" stroke-width="2" points="8,-62 8,-1144 668,-1144 668,-62 8,-62"/>
</g>
<g id="clust2" class="cluster"><title>cluster_workflow_inner</title>
<polygon fill="none" stroke="white" stroke-width="2" points="16,-70 16,-1136 660,-1136 660,-70 16,-70"/>
</g>
<g id="clust3" class="cluster"><title>cluster_inflows</title>
<polygon fill="none" stroke="white" stroke-width="2" points="156,-1152 156,-1198 234,-1198 234,-1152 156,-1152"/>
</g>
<g id="clust4" class="cluster"><title>cluster_inflows_inner</title>
<polygon fill="none" stroke="white" stroke-width="2" points="164,-1160 164,-1190 226,-1190 226,-1160 164,-1160"/>
</g>
<g id="clust5" class="cluster"><title>cluster_outflows</title>
<polygon fill="none" stroke="white" stroke-width="2" points="286,-8 286,-54 364,-54 364,-8 286,-8"/>
</g>
<g id="clust6" class="cluster"><title>cluster_outflows_inner</title>
<polygon fill="none" stroke="white" stroke-width="2" points="294,-16 294,-46 356,-46 356,-16 294,-16"/>
</g>
<!-- Setup -->
<g id="node1" class="node"><title>Setup</title>
<polygon fill="#ccffcc" stroke="black" points="128.25,-1054 69.75,-1054 69.75,-1018 128.25,-1018 128.25,-1054"/>
<text text-anchor="middle" x="99" y="-1032.3" font-family="Courier,monospace" font-size="14.00">Setup</text>
</g>
<!-- Workspace -->
<g id="node11" class="node"><title>Workspace</title>
<path fill="#ffffcc" stroke="black" d="M87,-910C87,-910 49,-910 49,-910 43,-910 37,-904 37,-898 37,-898 37,-886 37,-886 37,-880 43,-874 49,-874 49,-874 87,-874 87,-874 93,-874 99,-880 99,-886 99,-886 99,-898 99,-898 99,-904 93,-910 87,-910"/>
<text text-anchor="middle" x="68" y="-889.8" font-family="Helvetica,sans-Serif" font-size="9.00">Workspace</text>
</g>
<!-- Setup&#45;&gt;Workspace -->
<g id="edge13" class="edge"><title>Setup&#45;&gt;Workspace</title>
<path fill="none" stroke="black" d="M95.2607,-1017.87C89.954,-993.564 80.1858,-948.819 73.8973,-920.013"/>
<polygon fill="black" stroke="black" points="77.305,-919.213 71.7526,-910.189 70.4661,-920.706 77.305,-919.213"/>
</g>
<!-- OccurrenceFile -->
<g id="node12" class="node"><title>OccurrenceFile</title>
<path fill="#ffffcc" stroke="black" d="M203,-982C203,-982 149,-982 149,-982 143,-982 137,-976 137,-970 137,-970 137,-958 137,-958 137,-952 143,-946 149,-946 149,-946 203,-946 203,-946 209,-946 215,-952 215,-958 215,-958 215,-970 215,-970 215,-976 209,-982 203,-982"/>
<text text-anchor="middle" x="176" y="-961.8" font-family="Helvetica,sans-Serif" font-size="9.00">OccurrenceFile</text>
</g>
<!-- Setup&#45;&gt;OccurrenceFile -->
<g id="edge14" class="edge"><title>Setup&#45;&gt;OccurrenceFile</title>
<path fill="none" stroke="black" d="M118.034,-1017.7C127.545,-1009.05 139.207,-998.449 149.57,-989.027"/>
<polygon fill="black" stroke="black" points="152.14,-991.421 157.185,-982.104 147.431,-986.241 152.14,-991.421"/>
</g>
<!-- FileToDataStream -->
<g id="node2" class="node"><title>FileToDataStream</title>
<polygon fill="#ccffcc" stroke="black" points="310.25,-910 159.75,-910 159.75,-874 310.25,-874 310.25,-910"/>
<text text-anchor="middle" x="235" y="-888.3" font-family="Courier,monospace" font-size="14.00">FileToDataStream</text>
</g>
<!-- DataRecord -->
<g id="node13" class="node"><title>DataRecord</title>
<path fill="#ffffcc" stroke="black" d="M276.25,-838C276.25,-838 235.75,-838 235.75,-838 229.75,-838 223.75,-832 223.75,-826 223.75,-826 223.75,-814 223.75,-814 223.75,-808 229.75,-802 235.75,-802 235.75,-802 276.25,-802 276.25,-802 282.25,-802 288.25,-808 288.25,-814 288.25,-814 288.25,-826 288.25,-826 288.25,-832 282.25,-838 276.25,-838"/>
<text text-anchor="middle" x="256" y="-817.8" font-family="Helvetica,sans-Serif" font-size="9.00">DataRecord</text>
</g>
<!-- FileToDataStream&#45;&gt;DataRecord -->
<g id="edge15" class="edge"><title>FileToDataStream&#45;&gt;DataRecord</title>
<path fill="none" stroke="black" d="M240.191,-873.697C242.531,-865.898 245.347,-856.509 247.951,-847.829"/>
<polygon fill="black" stroke="black" points="251.348,-848.688 250.869,-838.104 244.643,-846.677 251.348,-848.688"/>
</g>
<!-- EnvironmentTagger -->
<g id="node3" class="node"><title>EnvironmentTagger</title>
<polygon fill="#ccffcc" stroke="black" points="478.25,-766 319.75,-766 319.75,-730 478.25,-730 478.25,-766"/>
<text text-anchor="middle" x="399" y="-744.3" font-family="Courier,monospace" font-size="14.00">EnvironmentTagger</text>
</g>
<!-- TaggedDataRecord -->
<g id="node14" class="node"><title>TaggedDataRecord</title>
<path fill="#ffffcc" stroke="black" d="M434.25,-694C434.25,-694 363.75,-694 363.75,-694 357.75,-694 351.75,-688 351.75,-682 351.75,-682 351.75,-670 351.75,-670 351.75,-664 357.75,-658 363.75,-658 363.75,-658 434.25,-658 434.25,-658 440.25,-658 446.25,-664 446.25,-670 446.25,-670 446.25,-682 446.25,-682 446.25,-688 440.25,-694 434.25,-694"/>
<text text-anchor="middle" x="399" y="-673.8" font-family="Helvetica,sans-Serif" font-size="9.00">TaggedDataRecord</text>
</g>
<!-- EnvironmentTagger&#45;&gt;TaggedDataRecord -->
<g id="edge17" class="edge"><title>EnvironmentTagger&#45;&gt;TaggedDataRecord</title>
<path fill="none" stroke="black" d="M399,-729.697C399,-721.983 399,-712.712 399,-704.112"/>
<polygon fill="black" stroke="black" points="402.5,-704.104 399,-694.104 395.5,-704.104 402.5,-704.104"/>
</g>
<!-- LogFile -->
<g id="node20" class="node"><title>LogFile</title>
<path fill="#ffe4b5" stroke="black" d="M410.5,-369C410.5,-369 457.5,-369 457.5,-369 463.5,-369 469.5,-375 469.5,-381 469.5,-381 469.5,-393 469.5,-393 469.5,-399 463.5,-405 457.5,-405 457.5,-405 410.5,-405 410.5,-405 404.5,-405 398.5,-399 398.5,-393 398.5,-393 398.5,-381 398.5,-381 398.5,-375 404.5,-369 410.5,-369"/>
<text text-anchor="middle" x="434" y="-393.8" font-family="Courier,monospace" font-weight="bold" font-size="9.00">LogFile</text>
<polyline fill="none" stroke="black" points="398.5,-387 469.5,-387 "/>
<text text-anchor="start" x="406.5" y="-375.8" font-family="Courier,monospace" font-weight="bold" font-size="9.00">runlog.log</text>
</g>
<!-- EnvironmentTagger&#45;&gt;LogFile -->
<g id="edge16" class="edge"><title>EnvironmentTagger&#45;&gt;LogFile</title>
<path fill="none" stroke="black" d="M478.388,-736.039C552.255,-720.841 651,-685.474 651,-605 651,-605 651,-605 651,-531 651,-449.629 543.299,-411.936 479.647,-396.765"/>
<polygon fill="black" stroke="black" points="480.362,-393.338 469.833,-394.52 478.801,-400.162 480.362,-393.338"/>
</g>
<!-- FilterToJustMarine -->
<g id="node4" class="node"><title>FilterToJustMarine</title>
<polygon fill="#ccffcc" stroke="black" points="384,-622 216,-622 216,-586 384,-586 384,-622"/>
<text text-anchor="middle" x="300" y="-600.3" font-family="Courier,monospace" font-size="14.00">FilterToJustMarine</text>
</g>
<!-- MarineDataRecord[scientificName:scientificNameAuthorship] -->
<g id="node15" class="node"><title>MarineDataRecord[scientificName:scientificNameAuthorship]</title>
<path fill="#ffffcc" stroke="black" d="M292,-550C292,-550 56,-550 56,-550 50,-550 44,-544 44,-538 44,-538 44,-526 44,-526 44,-520 50,-514 56,-514 56,-514 292,-514 292,-514 298,-514 304,-520 304,-526 304,-526 304,-538 304,-538 304,-544 298,-550 292,-550"/>
<text text-anchor="middle" x="174" y="-529.8" font-family="Helvetica,sans-Serif" font-size="9.00">MarineDataRecord[scientificName:scientificNameAuthorship]</text>
</g>
<!-- FilterToJustMarine&#45;&gt;MarineDataRecord[scientificName:scientificNameAuthorship] -->
<g id="edge19" class="edge"><title>FilterToJustMarine&#45;&gt;MarineDataRecord[scientificName:scientificNameAuthorship]</title>
<path fill="none" stroke="black" d="M269.177,-585.876C252.55,-576.639 231.835,-565.131 213.981,-555.212"/>
<polygon fill="black" stroke="black" points="215.383,-551.987 204.942,-550.19 211.983,-558.106 215.383,-551.987"/>
</g>
<!-- FilterToJustMarine&#45;&gt;LogFile -->
<g id="edge18" class="edge"><title>FilterToJustMarine&#45;&gt;LogFile</title>
<path fill="none" stroke="black" d="M304.763,-585.984C314.097,-554.863 337.154,-487.768 374,-442 382.668,-431.233 393.563,-420.747 403.683,-411.923"/>
<polygon fill="black" stroke="black" points="406.213,-414.367 411.575,-405.23 401.685,-409.029 406.213,-414.367"/>
</g>
<!-- FilterExcludingMarine -->
<g id="node5" class="node"><title>FilterExcludingMarine</title>
<polygon fill="#ccffcc" stroke="black" points="595.25,-622 402.75,-622 402.75,-586 595.25,-586 595.25,-622"/>
<text text-anchor="middle" x="499" y="-600.3" font-family="Courier,monospace" font-size="14.00">FilterExcludingMarine</text>
</g>
<!-- noMarineDataRecord[scientificName:scientificNameAuthorship] -->
<g id="node16" class="node"><title>noMarineDataRecord[scientificName:scientificNameAuthorship]</title>
<path fill="#ffffcc" stroke="black" d="M600,-550C600,-550 354,-550 354,-550 348,-550 342,-544 342,-538 342,-538 342,-526 342,-526 342,-520 348,-514 354,-514 354,-514 600,-514 600,-514 606,-514 612,-520 612,-526 612,-526 612,-538 612,-538 612,-544 606,-550 600,-550"/>
<text text-anchor="middle" x="477" y="-529.8" font-family="Helvetica,sans-Serif" font-size="9.00">noMarineDataRecord[scientificName:scientificNameAuthorship]</text>
</g>
<!-- FilterExcludingMarine&#45;&gt;noMarineDataRecord[scientificName:scientificNameAuthorship] -->
<g id="edge21" class="edge"><title>FilterExcludingMarine&#45;&gt;noMarineDataRecord[scientificName:scientificNameAuthorship]</title>
<path fill="none" stroke="black" d="M493.562,-585.697C491.111,-577.898 488.16,-568.509 485.432,-559.829"/>
<polygon fill="black" stroke="black" points="488.713,-558.595 482.376,-550.104 482.035,-560.694 488.713,-558.595"/>
</g>
<!-- FilterExcludingMarine&#45;&gt;LogFile -->
<g id="edge20" class="edge"><title>FilterExcludingMarine&#45;&gt;LogFile</title>
<path fill="none" stroke="black" d="M574.537,-585.895C592.766,-578.037 610.108,-566.607 621,-550 629.775,-536.621 628.515,-528.125 621,-514 591.279,-458.137 524.539,-422.585 479.376,-403.967"/>
<polygon fill="black" stroke="black" points="480.391,-400.603 469.806,-400.141 477.792,-407.103 480.391,-400.603"/>
</g>
<!-- WoRMSLookup -->
<g id="node6" class="node"><title>WoRMSLookup</title>
<polygon fill="#ccffcc" stroke="black" points="294.25,-478 185.75,-478 185.75,-442 294.25,-442 294.25,-478"/>
<text text-anchor="middle" x="240" y="-456.3" font-family="Courier,monospace" font-size="14.00">WoRMSLookup</text>
</g>
<!-- WoRMSOutput -->
<g id="node17" class="node"><title>WoRMSOutput</title>
<path fill="#ffffcc" stroke="black" d="M266.25,-405C266.25,-405 213.75,-405 213.75,-405 207.75,-405 201.75,-399 201.75,-393 201.75,-393 201.75,-381 201.75,-381 201.75,-375 207.75,-369 213.75,-369 213.75,-369 266.25,-369 266.25,-369 272.25,-369 278.25,-375 278.25,-381 278.25,-381 278.25,-393 278.25,-393 278.25,-399 272.25,-405 266.25,-405"/>
<text text-anchor="middle" x="240" y="-384.8" font-family="Helvetica,sans-Serif" font-size="9.00">WoRMSOutput</text>
</g>
<!-- WoRMSLookup&#45;&gt;WoRMSOutput -->
<g id="edge23" class="edge"><title>WoRMSLookup&#45;&gt;WoRMSOutput</title>
<path fill="none" stroke="black" d="M240,-441.813C240,-433.789 240,-424.047 240,-415.069"/>
<polygon fill="black" stroke="black" points="243.5,-415.029 240,-405.029 236.5,-415.029 243.5,-415.029"/>
</g>
<!-- WoRMSLookup&#45;&gt;LogFile -->
<g id="edge22" class="edge"><title>WoRMSLookup&#45;&gt;LogFile</title>
<path fill="none" stroke="black" d="M287.388,-441.94C315.977,-431.613 353.112,-418.135 386,-406 386.877,-405.676 387.762,-405.349 388.654,-405.019"/>
<polygon fill="black" stroke="black" points="390.212,-408.174 398.367,-401.41 387.774,-401.612 390.212,-408.174"/>
</g>
<!-- GBIFLookup -->
<g id="node7" class="node"><title>GBIFLookup</title>
<polygon fill="#ccffcc" stroke="black" points="484.25,-478 383.75,-478 383.75,-442 484.25,-442 484.25,-478"/>
<text text-anchor="middle" x="434" y="-456.3" font-family="Courier,monospace" font-size="14.00">GBIFLookup</text>
</g>
<!-- GBIFOutput -->
<g id="node18" class="node"><title>GBIFOutput</title>
<path fill="#ffffcc" stroke="black" d="M365.25,-405C365.25,-405 324.75,-405 324.75,-405 318.75,-405 312.75,-399 312.75,-393 312.75,-393 312.75,-381 312.75,-381 312.75,-375 318.75,-369 324.75,-369 324.75,-369 365.25,-369 365.25,-369 371.25,-369 377.25,-375 377.25,-381 377.25,-381 377.25,-393 377.25,-393 377.25,-399 371.25,-405 365.25,-405"/>
<text text-anchor="middle" x="345" y="-384.8" font-family="Helvetica,sans-Serif" font-size="9.00">GBIFOutput</text>
</g>
<!-- GBIFLookup&#45;&gt;GBIFOutput -->
<g id="edge25" class="edge"><title>GBIFLookup&#45;&gt;GBIFOutput</title>
<path fill="none" stroke="black" d="M412.456,-441.813C400.977,-432.656 386.692,-421.26 374.227,-411.316"/>
<polygon fill="black" stroke="black" points="376.346,-408.529 366.346,-405.029 371.981,-414.001 376.346,-408.529"/>
</g>
<!-- GBIFLookup&#45;&gt;LogFile -->
<g id="edge24" class="edge"><title>GBIFLookup&#45;&gt;LogFile</title>
<path fill="none" stroke="black" d="M434,-441.813C434,-433.789 434,-424.047 434,-415.069"/>
<polygon fill="black" stroke="black" points="437.5,-415.029 434,-405.029 430.5,-415.029 437.5,-415.029"/>
</g>
<!-- StreamMerge -->
<g id="node8" class="node"><title>StreamMerge</title>
<polygon fill="#ccffcc" stroke="black" points="294.25,-332 185.75,-332 185.75,-296 294.25,-296 294.25,-332"/>
<text text-anchor="middle" x="240" y="-310.3" font-family="Courier,monospace" font-size="14.00">StreamMerge</text>
</g>
<!-- MergedStream -->
<g id="node19" class="node"><title>MergedStream</title>
<path fill="#ffffcc" stroke="black" d="M261,-260C261,-260 209,-260 209,-260 203,-260 197,-254 197,-248 197,-248 197,-236 197,-236 197,-230 203,-224 209,-224 209,-224 261,-224 261,-224 267,-224 273,-230 273,-236 273,-236 273,-248 273,-248 273,-254 267,-260 261,-260"/>
<text text-anchor="middle" x="235" y="-239.8" font-family="Helvetica,sans-Serif" font-size="9.00">MergedStream</text>
</g>
<!-- StreamMerge&#45;&gt;MergedStream -->
<g id="edge26" class="edge"><title>StreamMerge&#45;&gt;MergedStream</title>
<path fill="none" stroke="black" d="M238.764,-295.697C238.213,-287.983 237.551,-278.712 236.937,-270.112"/>
<polygon fill="black" stroke="black" points="240.425,-269.83 236.222,-260.104 233.443,-270.328 240.425,-269.83"/>
</g>
<!-- CsvFileWriter -->
<g id="node9" class="node"><title>CsvFileWriter</title>
<polygon fill="#ccffcc" stroke="black" points="280,-188 154,-188 154,-152 280,-152 280,-188"/>
<text text-anchor="middle" x="217" y="-166.3" font-family="Courier,monospace" font-size="14.00">CsvFileWriter</text>
</g>
<!-- OutputFile -->
<g id="node21" class="node"><title>OutputFile</title>
<path fill="#ffe4b5" stroke="black" d="M40,-79C40,-79 394,-79 394,-79 400,-79 406,-85 406,-91 406,-91 406,-103 406,-103 406,-109 400,-115 394,-115 394,-115 40,-115 40,-115 34,-115 28,-109 28,-103 28,-103 28,-91 28,-91 28,-85 34,-79 40,-79"/>
<text text-anchor="middle" x="217" y="-103.8" font-family="Courier,monospace" font-weight="bold" font-size="9.00">OutputFile</text>
<polyline fill="none" stroke="black" points="28,-97 406,-97 "/>
<text text-anchor="start" x="36" y="-85.8" font-family="Courier,monospace" font-weight="bold" font-size="9.00">workspace_e17253f0&#45;52f9&#45;11e7&#45;9a79&#45;acbc3296f741/mergedoutputfile.csv</text>
</g>
<!-- CsvFileWriter&#45;&gt;OutputFile -->
<g id="edge27" class="edge"><title>CsvFileWriter&#45;&gt;OutputFile</title>
<path fill="none" stroke="black" d="M217,-151.813C217,-143.789 217,-134.047 217,-125.069"/>
<polygon fill="black" stroke="black" points="220.5,-125.029 217,-115.029 213.5,-125.029 220.5,-125.029"/>
</g>
<!-- DarwinCoreFile -->
<g id="node10" class="node"><title>DarwinCoreFile</title>
<path fill="#ffe4b5" stroke="black" d="M151,-1091C151,-1091 457,-1091 457,-1091 463,-1091 469,-1097 469,-1103 469,-1103 469,-1115 469,-1115 469,-1121 463,-1127 457,-1127 457,-1127 151,-1127 151,-1127 145,-1127 139,-1121 139,-1115 139,-1115 139,-1103 139,-1103 139,-1097 145,-1091 151,-1091"/>
<text text-anchor="middle" x="304" y="-1115.8" font-family="Courier,monospace" font-weight="bold" font-size="9.00">DarwinCoreFile</text>
<polyline fill="none" stroke="black" points="139,-1109 469,-1109 "/>
<text text-anchor="start" x="147" y="-1097.8" font-family="Courier,monospace" font-weight="bold" font-size="9.00">packages/kurator_branching/data/kurator_sample_data_v2.txt</text>
</g>
<!-- DarwinCoreFile&#45;&gt;Setup -->
<g id="edge2" class="edge"><title>DarwinCoreFile&#45;&gt;Setup</title>
<path fill="none" stroke="black" d="M254.897,-1090.99C219.151,-1078.61 171.383,-1062.07 138.184,-1050.57"/>
<polygon fill="black" stroke="black" points="138.972,-1047.14 128.377,-1047.17 136.681,-1053.75 138.972,-1047.14"/>
</g>
<!-- Workspace&#45;&gt;CsvFileWriter -->
<g id="edge3" class="edge"><title>Workspace&#45;&gt;CsvFileWriter</title>
<path fill="none" stroke="black" d="M59.0904,-873.582C46.4954,-847.303 25,-795.623 25,-749 25,-749 25,-749 25,-313 25,-250.52 91.5361,-212.392 146.272,-191.598"/>
<polygon fill="black" stroke="black" points="147.801,-194.765 155.986,-188.038 145.392,-188.192 147.801,-194.765"/>
</g>
<!-- OccurrenceFile&#45;&gt;FileToDataStream -->
<g id="edge4" class="edge"><title>OccurrenceFile&#45;&gt;FileToDataStream</title>
<path fill="none" stroke="black" d="M190.584,-945.697C197.658,-937.305 206.283,-927.07 214.045,-917.861"/>
<polygon fill="black" stroke="black" points="216.815,-920.006 220.583,-910.104 211.463,-915.495 216.815,-920.006"/>
</g>
<!-- DataRecord&#45;&gt;EnvironmentTagger -->
<g id="edge5" class="edge"><title>DataRecord&#45;&gt;EnvironmentTagger</title>
<path fill="none" stroke="black" d="M288.449,-803.116C308.117,-793.488 333.472,-781.076 354.938,-770.569"/>
<polygon fill="black" stroke="black" points="356.738,-773.584 364.181,-766.044 353.661,-767.297 356.738,-773.584"/>
</g>
<!-- TaggedDataRecord&#45;&gt;FilterToJustMarine -->
<g id="edge6" class="edge"><title>TaggedDataRecord&#45;&gt;FilterToJustMarine</title>
<path fill="none" stroke="black" d="M374.782,-657.876C362.077,-648.893 346.336,-637.763 332.577,-628.034"/>
<polygon fill="black" stroke="black" points="334.497,-625.105 324.311,-622.19 330.456,-630.821 334.497,-625.105"/>
</g>
<!-- TaggedDataRecord&#45;&gt;FilterExcludingMarine -->
<g id="edge7" class="edge"><title>TaggedDataRecord&#45;&gt;FilterExcludingMarine</title>
<path fill="none" stroke="black" d="M423.463,-657.876C436.296,-648.893 452.196,-637.763 466.094,-628.034"/>
<polygon fill="black" stroke="black" points="468.258,-630.792 474.443,-622.19 464.244,-625.057 468.258,-630.792"/>
</g>
<!-- MarineDataRecord[scientificName:scientificNameAuthorship]&#45;&gt;WoRMSLookup -->
<g id="edge8" class="edge"><title>MarineDataRecord[scientificName:scientificNameAuthorship]&#45;&gt;WoRMSLookup</title>
<path fill="none" stroke="black" d="M190.315,-513.697C198.307,-505.22 208.072,-494.864 216.822,-485.583"/>
<polygon fill="black" stroke="black" points="219.559,-487.781 223.873,-478.104 214.466,-482.979 219.559,-487.781"/>
</g>
<!-- noMarineDataRecord[scientificName:scientificNameAuthorship]&#45;&gt;GBIFLookup -->
<g id="edge9" class="edge"><title>noMarineDataRecord[scientificName:scientificNameAuthorship]&#45;&gt;GBIFLookup</title>
<path fill="none" stroke="black" d="M466.371,-513.697C461.372,-505.559 455.309,-495.689 449.788,-486.701"/>
<polygon fill="black" stroke="black" points="452.723,-484.793 444.507,-478.104 446.759,-488.457 452.723,-484.793"/>
</g>
<!-- WoRMSOutput&#45;&gt;StreamMerge -->
<g id="edge10" class="edge"><title>WoRMSOutput&#45;&gt;StreamMerge</title>
<path fill="none" stroke="black" d="M240,-368.813C240,-360.789 240,-351.047 240,-342.069"/>
<polygon fill="black" stroke="black" points="243.5,-342.029 240,-332.029 236.5,-342.029 243.5,-342.029"/>
</g>
<!-- GBIFOutput&#45;&gt;StreamMerge -->
<g id="edge11" class="edge"><title>GBIFOutput&#45;&gt;StreamMerge</title>
<path fill="none" stroke="black" d="M319.85,-368.994C306.055,-359.666 288.765,-347.974 273.804,-337.858"/>
<polygon fill="black" stroke="black" points="275.553,-334.816 265.309,-332.114 271.632,-340.614 275.553,-334.816"/>
</g>
<!-- MergedStream&#45;&gt;CsvFileWriter -->
<g id="edge12" class="edge"><title>MergedStream&#45;&gt;CsvFileWriter</title>
<path fill="none" stroke="black" d="M230.551,-223.697C228.545,-215.898 226.131,-206.509 223.899,-197.829"/>
<polygon fill="black" stroke="black" points="227.278,-196.918 221.398,-188.104 220.499,-198.661 227.278,-196.918"/>
</g>
<!-- LogFile_outflow -->
<g id="node25" class="node"><title>LogFile_outflow</title>
<ellipse fill="none" stroke="black" cx="341" cy="-31" rx="7" ry="7"/>
</g>
<!-- LogFile&#45;&gt;LogFile_outflow -->
<g id="edge30" class="edge"><title>LogFile&#45;&gt;LogFile_outflow</title>
<path fill="none" stroke="black" d="M434,-368.831C434,-341.984 434,-288.432 434,-243 434,-243 434,-243 434,-169 434,-120.701 445.396,-99.5354 415,-62 400.965,-44.6684 375.346,-37.2725 358.245,-34.1692"/>
<polygon fill="black" stroke="black" points="358.422,-30.6567 348.014,-32.6371 357.386,-37.5795 358.422,-30.6567"/>
</g>
<!-- OutputFile_outflow -->
<g id="node26" class="node"><title>OutputFile_outflow</title>
<ellipse fill="none" stroke="black" cx="309" cy="-31" rx="7" ry="7"/>
</g>
<!-- OutputFile&#45;&gt;OutputFile_outflow -->
<g id="edge31" class="edge"><title>OutputFile&#45;&gt;OutputFile_outflow</title>
<path fill="none" stroke="black" d="M241.654,-78.8492C258.78,-66.9359 280.977,-51.4945 295.108,-41.6639"/>
<polygon fill="black" stroke="black" points="297.231,-44.4507 303.441,-35.8668 293.234,-38.7043 297.231,-44.4507"/>
</g>
<!-- InputFilePath -->
<g id="node22" class="node"><title>InputFilePath</title>
<path fill="#ffffff" stroke="black" d="M109,-1127C109,-1127 63,-1127 63,-1127 57,-1127 51,-1121 51,-1115 51,-1115 51,-1103 51,-1103 51,-1097 57,-1091 63,-1091 63,-1091 109,-1091 109,-1091 115,-1091 121,-1097 121,-1103 121,-1103 121,-1115 121,-1115 121,-1121 115,-1127 109,-1127"/>
<text text-anchor="middle" x="86" y="-1106.8" font-family="Helvetica,sans-Serif" font-size="9.00">InputFilePath</text>
</g>
<!-- InputFilePath&#45;&gt;Setup -->
<g id="edge1" class="edge"><title>InputFilePath&#45;&gt;Setup</title>
<path fill="none" stroke="black" d="M89.1469,-1090.81C90.616,-1082.79 92.3998,-1073.05 94.0437,-1064.07"/>
<polygon fill="black" stroke="black" points="97.5237,-1064.5 95.882,-1054.03 90.6382,-1063.23 97.5237,-1064.5"/>
</g>
<!-- DarwinCoreFile_inflow -->
<g id="node23" class="node"><title>DarwinCoreFile_inflow</title>
<ellipse fill="none" stroke="black" cx="211" cy="-1175" rx="7" ry="7"/>
</g>
<!-- DarwinCoreFile_inflow&#45;&gt;DarwinCoreFile -->
<g id="edge28" class="edge"><title>DarwinCoreFile_inflow&#45;&gt;DarwinCoreFile</title>
<path fill="none" stroke="black" d="M216.267,-1170.38C226.622,-1163.25 250.384,-1146.9 270.569,-1133.01"/>
<polygon fill="black" stroke="black" points="272.698,-1135.79 278.952,-1127.24 268.73,-1130.02 272.698,-1135.79"/>
</g>
<!-- InputFilePath_inflow -->
<g id="node24" class="node"><title>InputFilePath_inflow</title>
<ellipse fill="none" stroke="black" cx="179" cy="-1175" rx="7" ry="7"/>
</g>
<!-- InputFilePath_inflow&#45;&gt;InputFilePath -->
<g id="edge29" class="edge"><title>InputFilePath_inflow&#45;&gt;InputFilePath</title>
<path fill="none" stroke="black" d="M173.138,-1170.69C163.813,-1165.36 145.11,-1154.42 130,-1144 125.112,-1140.63 120.033,-1136.92 115.138,-1133.22"/>
<polygon fill="black" stroke="black" points="117.2,-1130.39 107.137,-1127.08 112.937,-1135.94 117.2,-1130.39"/>
</g>
</g>
</svg>
