<?xml version="1.0" encoding="UTF-8" standalone="no"?>
<!DOCTYPE svg PUBLIC "-//W3C//DTD SVG 1.1//EN"
 "http://www.w3.org/Graphics/SVG/1.1/DTD/svg11.dtd">
<!-- Generated by graphviz version 2.36.0 (20140111.2315)
 -->
<!-- Title: yw_data_view Pages: 1 -->
<svg width="456pt" height="1236pt"
 viewBox="0.00 0.00 456.00 1236.00" xmlns="http://www.w3.org/2000/svg" xmlns:xlink="http://www.w3.org/1999/xlink">
<g id="graph0" class="graph" transform="scale(1 1) rotate(0) translate(4 1232)">
<title>yw_data_view</title>
<polygon fill="white" stroke="none" points="-4,4 -4,-1232 452,-1232 452,4 -4,4"/>
<text text-anchor="middle" x="224" y="-1209.6" font-family="Courier,monospace" font-size="18.00">BranchingWorkflow</text>
<g id="clust1" class="cluster"><title>cluster_workflow</title>
<polygon fill="none" stroke="black" stroke-width="2" points="8,-62 8,-1138 440,-1138 440,-62 8,-62"/>
</g>
<g id="clust2" class="cluster"><title>cluster_workflow_inner</title>
<polygon fill="none" stroke="white" stroke-width="2" points="16,-70 16,-1130 432,-1130 432,-70 16,-70"/>
</g>
<g id="clust5" class="cluster"><title>cluster_outflows</title>
<polygon fill="none" stroke="white" stroke-width="2" points="77,-8 77,-54 123,-54 123,-8 77,-8"/>
</g>
<g id="clust6" class="cluster"><title>cluster_outflows_inner</title>
<polygon fill="none" stroke="white" stroke-width="2" points="85,-16 85,-46 115,-46 115,-16 85,-16"/>
</g>
<g id="clust3" class="cluster"><title>cluster_inflows</title>
<polygon fill="none" stroke="white" stroke-width="2" points="131,-1146 131,-1192 209,-1192 209,-1146 131,-1146"/>
</g>
<g id="clust4" class="cluster"><title>cluster_inflows_inner</title>
<polygon fill="none" stroke="white" stroke-width="2" points="139,-1154 139,-1184 201,-1184 201,-1154 139,-1154"/>
</g>
<!-- Setup -->
<g id="node1" class="node"><title>Setup</title>
<polygon fill="#ccffcc" stroke="black" points="153.25,-1050 94.75,-1050 94.75,-1014 153.25,-1014 153.25,-1050"/>
<text text-anchor="middle" x="124" y="-1028.3" font-family="Courier,monospace" font-size="14.00">Setup</text>
</g>
<!-- Workspace -->
<g id="node11" class="node"><title>Workspace</title>
<path fill="#ffffcc" stroke="black" d="M99.25,-906C99.25,-906 36.75,-906 36.75,-906 30.75,-906 24.75,-900 24.75,-894 24.75,-894 24.75,-882 24.75,-882 24.75,-876 30.75,-870 36.75,-870 36.75,-870 99.25,-870 99.25,-870 105.25,-870 111.25,-876 111.25,-882 111.25,-882 111.25,-894 111.25,-894 111.25,-900 105.25,-906 99.25,-906"/>
<text text-anchor="middle" x="68" y="-884.3" font-family="Helvetica,sans-Serif" font-size="14.00">Workspace</text>
</g>
<!-- Setup&#45;&gt;Workspace -->
<g id="edge13" class="edge"><title>Setup&#45;&gt;Workspace</title>
<path fill="none" stroke="black" d="M117.245,-1013.87C107.617,-989.457 89.8581,-944.426 78.504,-915.635"/>
<polygon fill="black" stroke="black" points="81.7036,-914.208 74.7789,-906.189 75.1917,-916.776 81.7036,-914.208"/>
</g>
<!-- OccurrenceFile -->
<g id="node12" class="node"><title>OccurrenceFile</title>
<path fill="#ffffcc" stroke="black" d="M232.25,-978C232.25,-978 145.75,-978 145.75,-978 139.75,-978 133.75,-972 133.75,-966 133.75,-966 133.75,-954 133.75,-954 133.75,-948 139.75,-942 145.75,-942 145.75,-942 232.25,-942 232.25,-942 238.25,-942 244.25,-948 244.25,-954 244.25,-954 244.25,-966 244.25,-966 244.25,-972 238.25,-978 232.25,-978"/>
<text text-anchor="middle" x="189" y="-956.3" font-family="Helvetica,sans-Serif" font-size="14.00">OccurrenceFile</text>
</g>
<!-- Setup&#45;&gt;OccurrenceFile -->
<g id="edge14" class="edge"><title>Setup&#45;&gt;OccurrenceFile</title>
<path fill="none" stroke="black" d="M140.067,-1013.7C147.939,-1005.22 157.555,-994.864 166.173,-985.583"/>
<polygon fill="black" stroke="black" points="168.878,-987.814 173.117,-978.104 163.748,-983.051 168.878,-987.814"/>
</g>
<!-- FileToDataStream -->
<g id="node2" class="node"><title>FileToDataStream</title>
<polygon fill="#ccffcc" stroke="black" points="280.25,-906 129.75,-906 129.75,-870 280.25,-870 280.25,-906"/>
<text text-anchor="middle" x="205" y="-884.3" font-family="Courier,monospace" font-size="14.00">FileToDataStream</text>
</g>
<!-- DataRecord -->
<g id="node13" class="node"><title>DataRecord</title>
<path fill="#ffffcc" stroke="black" d="M238.25,-834C238.25,-834 171.75,-834 171.75,-834 165.75,-834 159.75,-828 159.75,-822 159.75,-822 159.75,-810 159.75,-810 159.75,-804 165.75,-798 171.75,-798 171.75,-798 238.25,-798 238.25,-798 244.25,-798 250.25,-804 250.25,-810 250.25,-810 250.25,-822 250.25,-822 250.25,-828 244.25,-834 238.25,-834"/>
<text text-anchor="middle" x="205" y="-812.3" font-family="Helvetica,sans-Serif" font-size="14.00">DataRecord</text>
</g>
<!-- FileToDataStream&#45;&gt;DataRecord -->
<g id="edge15" class="edge"><title>FileToDataStream&#45;&gt;DataRecord</title>
<path fill="none" stroke="black" d="M205,-869.697C205,-861.983 205,-852.712 205,-844.112"/>
<polygon fill="black" stroke="black" points="208.5,-844.104 205,-834.104 201.5,-844.104 208.5,-844.104"/>
</g>
<!-- EnvironmentTagger -->
<g id="node3" class="node"><title>EnvironmentTagger</title>
<polygon fill="#ccffcc" stroke="black" points="284.25,-762 125.75,-762 125.75,-726 284.25,-726 284.25,-762"/>
<text text-anchor="middle" x="205" y="-740.3" font-family="Courier,monospace" font-size="14.00">EnvironmentTagger</text>
</g>
<!-- TaggedDataRecord -->
<g id="node14" class="node"><title>TaggedDataRecord</title>
<path fill="#ffffcc" stroke="black" d="M262.25,-690C262.25,-690 147.75,-690 147.75,-690 141.75,-690 135.75,-684 135.75,-678 135.75,-678 135.75,-666 135.75,-666 135.75,-660 141.75,-654 147.75,-654 147.75,-654 262.25,-654 262.25,-654 268.25,-654 274.25,-660 274.25,-666 274.25,-666 274.25,-678 274.25,-678 274.25,-684 268.25,-690 262.25,-690"/>
<text text-anchor="middle" x="205" y="-668.3" font-family="Helvetica,sans-Serif" font-size="14.00">TaggedDataRecord</text>
</g>
<!-- EnvironmentTagger&#45;&gt;TaggedDataRecord -->
<g id="edge16" class="edge"><title>EnvironmentTagger&#45;&gt;TaggedDataRecord</title>
<path fill="none" stroke="black" d="M205,-725.697C205,-717.983 205,-708.712 205,-700.112"/>
<polygon fill="black" stroke="black" points="208.5,-700.104 205,-690.104 201.5,-700.104 208.5,-700.104"/>
</g>
<!-- FilterToJustMarine -->
<g id="node4" class="node"><title>FilterToJustMarine</title>
<polygon fill="#ccffcc" stroke="black" points="212,-618 44,-618 44,-582 212,-582 212,-618"/>
<text text-anchor="middle" x="128" y="-596.3" font-family="Courier,monospace" font-size="14.00">FilterToJustMarine</text>
</g>
<!-- Marine -->
<g id="node15" class="node"><title>Marine</title>
<path fill="#ffffcc" stroke="black" d="M145.25,-546C145.25,-546 110.75,-546 110.75,-546 104.75,-546 98.75,-540 98.75,-534 98.75,-534 98.75,-522 98.75,-522 98.75,-516 104.75,-510 110.75,-510 110.75,-510 145.25,-510 145.25,-510 151.25,-510 157.25,-516 157.25,-522 157.25,-522 157.25,-534 157.25,-534 157.25,-540 151.25,-546 145.25,-546"/>
<text text-anchor="middle" x="128" y="-524.3" font-family="Helvetica,sans-Serif" font-size="14.00">Marine</text>
</g>
<!-- FilterToJustMarine&#45;&gt;Marine -->
<g id="edge17" class="edge"><title>FilterToJustMarine&#45;&gt;Marine</title>
<path fill="none" stroke="black" d="M128,-581.697C128,-573.983 128,-564.712 128,-556.112"/>
<polygon fill="black" stroke="black" points="131.5,-556.104 128,-546.104 124.5,-556.104 131.5,-556.104"/>
</g>
<!-- FilterExcludingMarine -->
<g id="node5" class="node"><title>FilterExcludingMarine</title>
<polygon fill="#ccffcc" stroke="black" points="423.25,-618 230.75,-618 230.75,-582 423.25,-582 423.25,-618"/>
<text text-anchor="middle" x="327" y="-596.3" font-family="Courier,monospace" font-size="14.00">FilterExcludingMarine</text>
</g>
<!-- NotMarine -->
<g id="node16" class="node"><title>NotMarine</title>
<path fill="#ffffcc" stroke="black" d="M336.25,-546C336.25,-546 279.75,-546 279.75,-546 273.75,-546 267.75,-540 267.75,-534 267.75,-534 267.75,-522 267.75,-522 267.75,-516 273.75,-510 279.75,-510 279.75,-510 336.25,-510 336.25,-510 342.25,-510 348.25,-516 348.25,-522 348.25,-522 348.25,-534 348.25,-534 348.25,-540 342.25,-546 336.25,-546"/>
<text text-anchor="middle" x="308" y="-524.3" font-family="Helvetica,sans-Serif" font-size="14.00">NotMarine</text>
</g>
<!-- FilterExcludingMarine&#45;&gt;NotMarine -->
<g id="edge18" class="edge"><title>FilterExcludingMarine&#45;&gt;NotMarine</title>
<path fill="none" stroke="black" d="M322.303,-581.697C320.187,-573.898 317.638,-564.509 315.282,-555.829"/>
<polygon fill="black" stroke="black" points="318.64,-554.838 312.643,-546.104 311.884,-556.672 318.64,-554.838"/>
</g>
<!-- WoRMSLookup -->
<g id="node6" class="node"><title>WoRMSLookup</title>
<polygon fill="#ccffcc" stroke="black" points="182.25,-474 73.75,-474 73.75,-438 182.25,-438 182.25,-474"/>
<text text-anchor="middle" x="128" y="-452.3" font-family="Courier,monospace" font-size="14.00">WoRMSLookup</text>
</g>
<!-- WoRMSOutput -->
<g id="node17" class="node"><title>WoRMSOutput</title>
<path fill="#ffffcc" stroke="black" d="M171.25,-402C171.25,-402 84.75,-402 84.75,-402 78.75,-402 72.75,-396 72.75,-390 72.75,-390 72.75,-378 72.75,-378 72.75,-372 78.75,-366 84.75,-366 84.75,-366 171.25,-366 171.25,-366 177.25,-366 183.25,-372 183.25,-378 183.25,-378 183.25,-390 183.25,-390 183.25,-396 177.25,-402 171.25,-402"/>
<text text-anchor="middle" x="128" y="-380.3" font-family="Helvetica,sans-Serif" font-size="14.00">WoRMSOutput</text>
</g>
<!-- WoRMSLookup&#45;&gt;WoRMSOutput -->
<g id="edge19" class="edge"><title>WoRMSLookup&#45;&gt;WoRMSOutput</title>
<path fill="none" stroke="black" d="M128,-437.697C128,-429.983 128,-420.712 128,-412.112"/>
<polygon fill="black" stroke="black" points="131.5,-412.104 128,-402.104 124.5,-412.104 131.5,-412.104"/>
</g>
<!-- GBIFLookup -->
<g id="node7" class="node"><title>GBIFLookup</title>
<polygon fill="#ccffcc" stroke="black" points="320.25,-474 219.75,-474 219.75,-438 320.25,-438 320.25,-474"/>
<text text-anchor="middle" x="270" y="-452.3" font-family="Courier,monospace" font-size="14.00">GBIFLookup</text>
</g>
<!-- GBIFOutput -->
<g id="node18" class="node"><title>GBIFOutput</title>
<path fill="#ffffcc" stroke="black" d="M291.25,-402C291.25,-402 224.75,-402 224.75,-402 218.75,-402 212.75,-396 212.75,-390 212.75,-390 212.75,-378 212.75,-378 212.75,-372 218.75,-366 224.75,-366 224.75,-366 291.25,-366 291.25,-366 297.25,-366 303.25,-372 303.25,-378 303.25,-378 303.25,-390 303.25,-390 303.25,-396 297.25,-402 291.25,-402"/>
<text text-anchor="middle" x="258" y="-380.3" font-family="Helvetica,sans-Serif" font-size="14.00">GBIFOutput</text>
</g>
<!-- GBIFLookup&#45;&gt;GBIFOutput -->
<g id="edge20" class="edge"><title>GBIFLookup&#45;&gt;GBIFOutput</title>
<path fill="none" stroke="black" d="M267.034,-437.697C265.711,-429.983 264.122,-420.712 262.648,-412.112"/>
<polygon fill="black" stroke="black" points="266.072,-411.369 260.932,-402.104 259.172,-412.552 266.072,-411.369"/>
</g>
<!-- StreamMerge -->
<g id="node8" class="node"><title>StreamMerge</title>
<polygon fill="#ccffcc" stroke="black" points="182.25,-330 73.75,-330 73.75,-294 182.25,-294 182.25,-330"/>
<text text-anchor="middle" x="128" y="-308.3" font-family="Courier,monospace" font-size="14.00">StreamMerge</text>
</g>
<!-- MergedStream -->
<g id="node19" class="node"><title>MergedStream</title>
<path fill="#ffffcc" stroke="black" d="M155.25,-258C155.25,-258 70.75,-258 70.75,-258 64.75,-258 58.75,-252 58.75,-246 58.75,-246 58.75,-234 58.75,-234 58.75,-228 64.75,-222 70.75,-222 70.75,-222 155.25,-222 155.25,-222 161.25,-222 167.25,-228 167.25,-234 167.25,-234 167.25,-246 167.25,-246 167.25,-252 161.25,-258 155.25,-258"/>
<text text-anchor="middle" x="113" y="-236.3" font-family="Helvetica,sans-Serif" font-size="14.00">MergedStream</text>
</g>
<!-- StreamMerge&#45;&gt;MergedStream -->
<g id="edge21" class="edge"><title>StreamMerge&#45;&gt;MergedStream</title>
<path fill="none" stroke="black" d="M124.292,-293.697C122.639,-285.983 120.653,-276.712 118.81,-268.112"/>
<polygon fill="black" stroke="black" points="122.183,-267.149 116.665,-258.104 115.338,-268.616 122.183,-267.149"/>
</g>
<!-- CsvFileWriter -->
<g id="node9" class="node"><title>CsvFileWriter</title>
<polygon fill="#ccffcc" stroke="black" points="163,-186 37,-186 37,-150 163,-150 163,-186"/>
<text text-anchor="middle" x="100" y="-164.3" font-family="Courier,monospace" font-size="14.00">CsvFileWriter</text>
</g>
<!-- OutputFile -->
<g id="node20" class="node"><title>OutputFile</title>
<path fill="#ffffcc" stroke="black" d="M128.25,-114C128.25,-114 71.75,-114 71.75,-114 65.75,-114 59.75,-108 59.75,-102 59.75,-102 59.75,-90 59.75,-90 59.75,-84 65.75,-78 71.75,-78 71.75,-78 128.25,-78 128.25,-78 134.25,-78 140.25,-84 140.25,-90 140.25,-90 140.25,-102 140.25,-102 140.25,-108 134.25,-114 128.25,-114"/>
<text text-anchor="middle" x="100" y="-92.3" font-family="Helvetica,sans-Serif" font-size="14.00">OutputFile</text>
</g>
<!-- CsvFileWriter&#45;&gt;OutputFile -->
<g id="edge22" class="edge"><title>CsvFileWriter&#45;&gt;OutputFile</title>
<path fill="none" stroke="black" d="M100,-149.697C100,-141.983 100,-132.712 100,-124.112"/>
<polygon fill="black" stroke="black" points="103.5,-124.104 100,-114.104 96.5001,-124.104 103.5,-124.104"/>
</g>
<!-- DarwinCoreArchive -->
<g id="node10" class="node"><title>DarwinCoreArchive</title>
<path fill="#ffffcc" stroke="black" d="M292.25,-1122C292.25,-1122 179.75,-1122 179.75,-1122 173.75,-1122 167.75,-1116 167.75,-1110 167.75,-1110 167.75,-1098 167.75,-1098 167.75,-1092 173.75,-1086 179.75,-1086 179.75,-1086 292.25,-1086 292.25,-1086 298.25,-1086 304.25,-1092 304.25,-1098 304.25,-1098 304.25,-1110 304.25,-1110 304.25,-1116 298.25,-1122 292.25,-1122"/>
<text text-anchor="middle" x="236" y="-1100.3" font-family="Helvetica,sans-Serif" font-size="14.00">DarwinCoreArchive</text>
</g>
<!-- DarwinCoreArchive&#45;&gt;Setup -->
<g id="edge10" class="edge"><title>DarwinCoreArchive&#45;&gt;Setup</title>
<path fill="none" stroke="black" d="M208.602,-1085.88C194.093,-1076.81 176.084,-1065.55 160.415,-1055.76"/>
<polygon fill="black" stroke="black" points="161.839,-1052.52 151.504,-1050.19 158.129,-1058.46 161.839,-1052.52"/>
</g>
<!-- Workspace&#45;&gt;CsvFileWriter -->
<g id="edge12" class="edge"><title>Workspace&#45;&gt;CsvFileWriter</title>
<path fill="none" stroke="black" d="M59.0904,-869.582C46.4954,-843.303 25,-791.623 25,-745 25,-745 25,-745 25,-311 25,-270.031 28.8293,-257.659 49,-222 54.9324,-211.512 63.4204,-201.555 71.7741,-193.163"/>
<polygon fill="black" stroke="black" points="74.2211,-195.666 79.0129,-186.216 69.3743,-190.615 74.2211,-195.666"/>
</g>
<!-- OccurrenceFile&#45;&gt;FileToDataStream -->
<g id="edge2" class="edge"><title>OccurrenceFile&#45;&gt;FileToDataStream</title>
<path fill="none" stroke="black" d="M192.955,-941.697C194.718,-933.983 196.837,-924.712 198.803,-916.112"/>
<polygon fill="black" stroke="black" points="202.274,-916.633 201.09,-906.104 195.45,-915.073 202.274,-916.633"/>
</g>
<!-- DataRecord&#45;&gt;EnvironmentTagger -->
<g id="edge4" class="edge"><title>DataRecord&#45;&gt;EnvironmentTagger</title>
<path fill="none" stroke="black" d="M205,-797.697C205,-789.983 205,-780.712 205,-772.112"/>
<polygon fill="black" stroke="black" points="208.5,-772.104 205,-762.104 201.5,-772.104 208.5,-772.104"/>
</g>
<!-- TaggedDataRecord&#45;&gt;FilterToJustMarine -->
<g id="edge9" class="edge"><title>TaggedDataRecord&#45;&gt;FilterToJustMarine</title>
<path fill="none" stroke="black" d="M185.966,-653.697C176.455,-645.05 164.793,-634.449 154.43,-625.027"/>
<polygon fill="black" stroke="black" points="156.569,-622.241 146.815,-618.104 151.86,-627.421 156.569,-622.241"/>
</g>
<!-- TaggedDataRecord&#45;&gt;FilterExcludingMarine -->
<g id="edge8" class="edge"><title>TaggedDataRecord&#45;&gt;FilterExcludingMarine</title>
<path fill="none" stroke="black" d="M234.845,-653.876C250.944,-644.639 271.001,-633.131 288.288,-623.212"/>
<polygon fill="black" stroke="black" points="290.109,-626.202 297.041,-618.19 286.625,-620.131 290.109,-626.202"/>
</g>
<!-- Marine&#45;&gt;WoRMSLookup -->
<g id="edge11" class="edge"><title>Marine&#45;&gt;WoRMSLookup</title>
<path fill="none" stroke="black" d="M128,-509.697C128,-501.983 128,-492.712 128,-484.112"/>
<polygon fill="black" stroke="black" points="131.5,-484.104 128,-474.104 124.5,-484.104 131.5,-484.104"/>
</g>
<!-- NotMarine&#45;&gt;GBIFLookup -->
<g id="edge1" class="edge"><title>NotMarine&#45;&gt;GBIFLookup</title>
<path fill="none" stroke="black" d="M298.607,-509.697C294.235,-501.644 288.943,-491.894 284.105,-482.982"/>
<polygon fill="black" stroke="black" points="287.132,-481.223 279.285,-474.104 280.98,-484.563 287.132,-481.223"/>
</g>
<!-- WoRMSOutput&#45;&gt;StreamMerge -->
<g id="edge3" class="edge"><title>WoRMSOutput&#45;&gt;StreamMerge</title>
<path fill="none" stroke="black" d="M128,-365.697C128,-357.983 128,-348.712 128,-340.112"/>
<polygon fill="black" stroke="black" points="131.5,-340.104 128,-330.104 124.5,-340.104 131.5,-340.104"/>
</g>
<!-- GBIFOutput&#45;&gt;StreamMerge -->
<g id="edge5" class="edge"><title>GBIFOutput&#45;&gt;StreamMerge</title>
<path fill="none" stroke="black" d="M226.198,-365.876C208.886,-356.554 187.279,-344.919 168.744,-334.939"/>
<polygon fill="black" stroke="black" points="170.388,-331.849 159.924,-330.19 167.069,-338.012 170.388,-331.849"/>
</g>
<!-- MergedStream&#45;&gt;CsvFileWriter -->
<g id="edge6" class="edge"><title>MergedStream&#45;&gt;CsvFileWriter</title>
<path fill="none" stroke="black" d="M109.787,-221.697C108.354,-213.983 106.632,-204.712 105.035,-196.112"/>
<polygon fill="black" stroke="black" points="108.444,-195.297 103.177,-186.104 101.561,-196.575 108.444,-195.297"/>
</g>
<!-- OutputFile_outflow -->
<g id="node24" class="node"><title>OutputFile_outflow</title>
<ellipse fill="none" stroke="black" cx="100" cy="-31" rx="7" ry="7"/>
</g>
<!-- OutputFile&#45;&gt;OutputFile_outflow -->
<g id="edge25" class="edge"><title>OutputFile&#45;&gt;OutputFile_outflow</title>
<path fill="none" stroke="black" d="M100,-77.785C100,-68.6656 100,-57.5197 100,-48.5085"/>
<polygon fill="black" stroke="black" points="103.5,-48.242 100,-38.242 96.5001,-48.2421 103.5,-48.242"/>
</g>
<!-- DwCA_URI -->
<g id="node21" class="node"><title>DwCA_URI</title>
<path fill="#ffffff" stroke="black" d="M137,-1122C137,-1122 73,-1122 73,-1122 67,-1122 61,-1116 61,-1110 61,-1110 61,-1098 61,-1098 61,-1092 67,-1086 73,-1086 73,-1086 137,-1086 137,-1086 143,-1086 149,-1092 149,-1098 149,-1098 149,-1110 149,-1110 149,-1116 143,-1122 137,-1122"/>
<text text-anchor="middle" x="105" y="-1100.3" font-family="Helvetica,sans-Serif" font-size="14.00">DwCA_URI</text>
</g>
<!-- DwCA_URI&#45;&gt;Setup -->
<g id="edge7" class="edge"><title>DwCA_URI&#45;&gt;Setup</title>
<path fill="none" stroke="black" d="M109.697,-1085.7C111.813,-1077.9 114.362,-1068.51 116.718,-1059.83"/>
<polygon fill="black" stroke="black" points="120.116,-1060.67 119.357,-1050.1 113.36,-1058.84 120.116,-1060.67"/>
</g>
<!-- DarwinCoreArchive_inflow -->
<g id="node22" class="node"><title>DarwinCoreArchive_inflow</title>
<ellipse fill="none" stroke="black" cx="186" cy="-1169" rx="7" ry="7"/>
</g>
<!-- DarwinCoreArchive_inflow&#45;&gt;DarwinCoreArchive -->
<g id="edge23" class="edge"><title>DarwinCoreArchive_inflow&#45;&gt;DarwinCoreArchive</title>
<path fill="none" stroke="black" d="M189.923,-1163.06C195.535,-1155.99 206.247,-1142.49 215.93,-1130.29"/>
<polygon fill="black" stroke="black" points="218.92,-1132.15 222.395,-1122.14 213.437,-1127.8 218.92,-1132.15"/>
</g>
<!-- DwCA_URI_inflow -->
<g id="node23" class="node"><title>DwCA_URI_inflow</title>
<ellipse fill="none" stroke="black" cx="154" cy="-1169" rx="7" ry="7"/>
</g>
<!-- DwCA_URI_inflow&#45;&gt;DwCA_URI -->
<g id="edge24" class="edge"><title>DwCA_URI_inflow&#45;&gt;DwCA_URI</title>
<path fill="none" stroke="black" d="M150.155,-1163.06C144.656,-1155.99 134.158,-1142.49 124.668,-1130.29"/>
<polygon fill="black" stroke="black" points="127.235,-1127.89 118.333,-1122.14 121.71,-1132.18 127.235,-1127.89"/>
</g>
</g>
</svg>
