<?xml version="1.0" encoding="UTF-8" standalone="no"?>
<!DOCTYPE svg PUBLIC "-//W3C//DTD SVG 1.1//EN"
 "http://www.w3.org/Graphics/SVG/1.1/DTD/svg11.dtd">
<!-- Generated by graphviz version 2.36.0 (20140111.2315)
 -->
<!-- Title: yw_data_view Pages: 1 -->
<svg width="466pt" height="894pt"
 viewBox="0.00 0.00 466.00 894.00" xmlns="http://www.w3.org/2000/svg" xmlns:xlink="http://www.w3.org/1999/xlink">
<g id="graph0" class="graph" transform="scale(1 1) rotate(0) translate(4 890)">
<title>yw_data_view</title>
<polygon fill="white" stroke="none" points="-4,4 -4,-890 462,-890 462,4 -4,4"/>
<text text-anchor="middle" x="229" y="-867.6" font-family="Courier,monospace" font-size="18.00">BranchingWorkflow</text>
<g id="clust1" class="cluster"><title>cluster_workflow</title>
<polygon fill="none" stroke="black" stroke-width="2" points="8,-8 8,-796 450,-796 450,-8 8,-8"/>
</g>
<g id="clust2" class="cluster"><title>cluster_workflow_inner</title>
<polygon fill="none" stroke="white" stroke-width="2" points="16,-16 16,-788 442,-788 442,-16 16,-16"/>
</g>
<g id="clust3" class="cluster"><title>cluster_inflows</title>
<polygon fill="none" stroke="white" stroke-width="2" points="190,-804 190,-850 268,-850 268,-804 190,-804"/>
</g>
<g id="clust4" class="cluster"><title>cluster_inflows_inner</title>
<polygon fill="none" stroke="white" stroke-width="2" points="198,-812 198,-842 260,-842 260,-812 198,-812"/>
</g>
<!-- FilterExcludingMarine -->
<g id="node1" class="node"><title>FilterExcludingMarine</title>
<polygon fill="#ccffcc" stroke="black" points="325.25,-276 132.75,-276 132.75,-240 325.25,-240 325.25,-276"/>
<text text-anchor="middle" x="229" y="-254.3" font-family="Courier,monospace" font-size="14.00">FilterExcludingMarine</text>
</g>
<!-- noMarineDataRecord[scientificName:scientificNameAuthorship] -->
<g id="node10" class="node"><title>noMarineDataRecord[scientificName:scientificNameAuthorship]</title>
<path fill="#ffffcc" stroke="black" d="M422,-204C422,-204 36,-204 36,-204 30,-204 24,-198 24,-192 24,-192 24,-180 24,-180 24,-174 30,-168 36,-168 36,-168 422,-168 422,-168 428,-168 434,-174 434,-180 434,-180 434,-192 434,-192 434,-198 428,-204 422,-204"/>
<text text-anchor="middle" x="229" y="-182.3" font-family="Helvetica,sans-Serif" font-size="14.00">noMarineDataRecord[scientificName:scientificNameAuthorship]</text>
</g>
<!-- FilterExcludingMarine&#45;&gt;noMarineDataRecord[scientificName:scientificNameAuthorship] -->
<g id="edge10" class="edge"><title>FilterExcludingMarine&#45;&gt;noMarineDataRecord[scientificName:scientificNameAuthorship]</title>
<path fill="none" stroke="black" d="M229,-239.697C229,-231.983 229,-222.712 229,-214.112"/>
<polygon fill="black" stroke="black" points="232.5,-214.104 229,-204.104 225.5,-214.104 232.5,-214.104"/>
</g>
<!-- EnvironmentTagger -->
<g id="node2" class="node"><title>EnvironmentTagger</title>
<polygon fill="#ccffcc" stroke="black" points="308.25,-420 149.75,-420 149.75,-384 308.25,-384 308.25,-420"/>
<text text-anchor="middle" x="229" y="-398.3" font-family="Courier,monospace" font-size="14.00">EnvironmentTagger</text>
</g>
<!-- TaggedDataRecord -->
<g id="node9" class="node"><title>TaggedDataRecord</title>
<path fill="#ffffcc" stroke="black" d="M286.25,-348C286.25,-348 171.75,-348 171.75,-348 165.75,-348 159.75,-342 159.75,-336 159.75,-336 159.75,-324 159.75,-324 159.75,-318 165.75,-312 171.75,-312 171.75,-312 286.25,-312 286.25,-312 292.25,-312 298.25,-318 298.25,-324 298.25,-324 298.25,-336 298.25,-336 298.25,-342 292.25,-348 286.25,-348"/>
<text text-anchor="middle" x="229" y="-326.3" font-family="Helvetica,sans-Serif" font-size="14.00">TaggedDataRecord</text>
</g>
<!-- EnvironmentTagger&#45;&gt;TaggedDataRecord -->
<g id="edge9" class="edge"><title>EnvironmentTagger&#45;&gt;TaggedDataRecord</title>
<path fill="none" stroke="black" d="M229,-383.697C229,-375.983 229,-366.712 229,-358.112"/>
<polygon fill="black" stroke="black" points="232.5,-358.104 229,-348.104 225.5,-358.104 232.5,-358.104"/>
</g>
<!-- FileToDataStream -->
<g id="node3" class="node"><title>FileToDataStream</title>
<polygon fill="#ccffcc" stroke="black" points="304.25,-564 153.75,-564 153.75,-528 304.25,-528 304.25,-564"/>
<text text-anchor="middle" x="229" y="-542.3" font-family="Courier,monospace" font-size="14.00">FileToDataStream</text>
</g>
<!-- DataRecord -->
<g id="node8" class="node"><title>DataRecord</title>
<path fill="#ffffcc" stroke="black" d="M262.25,-492C262.25,-492 195.75,-492 195.75,-492 189.75,-492 183.75,-486 183.75,-480 183.75,-480 183.75,-468 183.75,-468 183.75,-462 189.75,-456 195.75,-456 195.75,-456 262.25,-456 262.25,-456 268.25,-456 274.25,-462 274.25,-468 274.25,-468 274.25,-480 274.25,-480 274.25,-486 268.25,-492 262.25,-492"/>
<text text-anchor="middle" x="229" y="-470.3" font-family="Helvetica,sans-Serif" font-size="14.00">DataRecord</text>
</g>
<!-- FileToDataStream&#45;&gt;DataRecord -->
<g id="edge8" class="edge"><title>FileToDataStream&#45;&gt;DataRecord</title>
<path fill="none" stroke="black" d="M229,-527.697C229,-519.983 229,-510.712 229,-502.112"/>
<polygon fill="black" stroke="black" points="232.5,-502.104 229,-492.104 225.5,-502.104 232.5,-502.104"/>
</g>
<!-- Setup -->
<g id="node4" class="node"><title>Setup</title>
<polygon fill="#ccffcc" stroke="black" points="258.25,-708 199.75,-708 199.75,-672 258.25,-672 258.25,-708"/>
<text text-anchor="middle" x="229" y="-686.3" font-family="Courier,monospace" font-size="14.00">Setup</text>
</g>
<!-- OccurrenceFile -->
<g id="node7" class="node"><title>OccurrenceFile</title>
<path fill="#ffffcc" stroke="black" d="M272.25,-636C272.25,-636 185.75,-636 185.75,-636 179.75,-636 173.75,-630 173.75,-624 173.75,-624 173.75,-612 173.75,-612 173.75,-606 179.75,-600 185.75,-600 185.75,-600 272.25,-600 272.25,-600 278.25,-600 284.25,-606 284.25,-612 284.25,-612 284.25,-624 284.25,-624 284.25,-630 278.25,-636 272.25,-636"/>
<text text-anchor="middle" x="229" y="-614.3" font-family="Helvetica,sans-Serif" font-size="14.00">OccurrenceFile</text>
</g>
<!-- Setup&#45;&gt;OccurrenceFile -->
<g id="edge7" class="edge"><title>Setup&#45;&gt;OccurrenceFile</title>
<path fill="none" stroke="black" d="M229,-671.697C229,-663.983 229,-654.712 229,-646.112"/>
<polygon fill="black" stroke="black" points="232.5,-646.104 229,-636.104 225.5,-646.104 232.5,-646.104"/>
</g>
<!-- GBIFLookup -->
<g id="node5" class="node"><title>GBIFLookup</title>
<polygon fill="#ccffcc" stroke="black" points="279.25,-132 178.75,-132 178.75,-96 279.25,-96 279.25,-132"/>
<text text-anchor="middle" x="229" y="-110.3" font-family="Courier,monospace" font-size="14.00">GBIFLookup</text>
</g>
<!-- GBIFOutput -->
<g id="node11" class="node"><title>GBIFOutput</title>
<path fill="#ffffcc" stroke="black" d="M262.25,-60C262.25,-60 195.75,-60 195.75,-60 189.75,-60 183.75,-54 183.75,-48 183.75,-48 183.75,-36 183.75,-36 183.75,-30 189.75,-24 195.75,-24 195.75,-24 262.25,-24 262.25,-24 268.25,-24 274.25,-30 274.25,-36 274.25,-36 274.25,-48 274.25,-48 274.25,-54 268.25,-60 262.25,-60"/>
<text text-anchor="middle" x="229" y="-38.3" font-family="Helvetica,sans-Serif" font-size="14.00">GBIFOutput</text>
</g>
<!-- GBIFLookup&#45;&gt;GBIFOutput -->
<g id="edge11" class="edge"><title>GBIFLookup&#45;&gt;GBIFOutput</title>
<path fill="none" stroke="black" d="M229,-95.6966C229,-87.9827 229,-78.7125 229,-70.1124"/>
<polygon fill="black" stroke="black" points="232.5,-70.1043 229,-60.1043 225.5,-70.1044 232.5,-70.1043"/>
</g>
<!-- DarwinCoreFile -->
<g id="node6" class="node"><title>DarwinCoreFile</title>
<path fill="#ffffcc" stroke="black" d="M335.25,-780C335.25,-780 246.75,-780 246.75,-780 240.75,-780 234.75,-774 234.75,-768 234.75,-768 234.75,-756 234.75,-756 234.75,-750 240.75,-744 246.75,-744 246.75,-744 335.25,-744 335.25,-744 341.25,-744 347.25,-750 347.25,-756 347.25,-756 347.25,-768 347.25,-768 347.25,-774 341.25,-780 335.25,-780"/>
<text text-anchor="middle" x="291" y="-758.3" font-family="Helvetica,sans-Serif" font-size="14.00">DarwinCoreFile</text>
</g>
<!-- DarwinCoreFile&#45;&gt;Setup -->
<g id="edge5" class="edge"><title>DarwinCoreFile&#45;&gt;Setup</title>
<path fill="none" stroke="black" d="M275.674,-743.697C268.241,-735.305 259.177,-725.07 251.02,-715.861"/>
<polygon fill="black" stroke="black" points="253.4,-713.27 244.15,-708.104 248.16,-717.911 253.4,-713.27"/>
</g>
<!-- OccurrenceFile&#45;&gt;FileToDataStream -->
<g id="edge4" class="edge"><title>OccurrenceFile&#45;&gt;FileToDataStream</title>
<path fill="none" stroke="black" d="M229,-599.697C229,-591.983 229,-582.712 229,-574.112"/>
<polygon fill="black" stroke="black" points="232.5,-574.104 229,-564.104 225.5,-574.104 232.5,-574.104"/>
</g>
<!-- DataRecord&#45;&gt;EnvironmentTagger -->
<g id="edge3" class="edge"><title>DataRecord&#45;&gt;EnvironmentTagger</title>
<path fill="none" stroke="black" d="M229,-455.697C229,-447.983 229,-438.712 229,-430.112"/>
<polygon fill="black" stroke="black" points="232.5,-430.104 229,-420.104 225.5,-430.104 232.5,-430.104"/>
</g>
<!-- TaggedDataRecord&#45;&gt;FilterExcludingMarine -->
<g id="edge2" class="edge"><title>TaggedDataRecord&#45;&gt;FilterExcludingMarine</title>
<path fill="none" stroke="black" d="M229,-311.697C229,-303.983 229,-294.712 229,-286.112"/>
<polygon fill="black" stroke="black" points="232.5,-286.104 229,-276.104 225.5,-286.104 232.5,-286.104"/>
</g>
<!-- noMarineDataRecord[scientificName:scientificNameAuthorship]&#45;&gt;GBIFLookup -->
<g id="edge1" class="edge"><title>noMarineDataRecord[scientificName:scientificNameAuthorship]&#45;&gt;GBIFLookup</title>
<path fill="none" stroke="black" d="M229,-167.697C229,-159.983 229,-150.712 229,-142.112"/>
<polygon fill="black" stroke="black" points="232.5,-142.104 229,-132.104 225.5,-142.104 232.5,-142.104"/>
</g>
<!-- InputFilePath -->
<g id="node12" class="node"><title>InputFilePath</title>
<path fill="#ffffff" stroke="black" d="M204.25,-780C204.25,-780 129.75,-780 129.75,-780 123.75,-780 117.75,-774 117.75,-768 117.75,-768 117.75,-756 117.75,-756 117.75,-750 123.75,-744 129.75,-744 129.75,-744 204.25,-744 204.25,-744 210.25,-744 216.25,-750 216.25,-756 216.25,-756 216.25,-768 216.25,-768 216.25,-774 210.25,-780 204.25,-780"/>
<text text-anchor="middle" x="167" y="-758.3" font-family="Helvetica,sans-Serif" font-size="14.00">InputFilePath</text>
</g>
<!-- InputFilePath&#45;&gt;Setup -->
<g id="edge6" class="edge"><title>InputFilePath&#45;&gt;Setup</title>
<path fill="none" stroke="black" d="M182.326,-743.697C189.759,-735.305 198.823,-725.07 206.98,-715.861"/>
<polygon fill="black" stroke="black" points="209.84,-717.911 213.85,-708.104 204.6,-713.27 209.84,-717.911"/>
</g>
<!-- DarwinCoreFile_inflow -->
<g id="node13" class="node"><title>DarwinCoreFile_inflow</title>
<ellipse fill="none" stroke="black" cx="245" cy="-827" rx="7" ry="7"/>
</g>
<!-- DarwinCoreFile_inflow&#45;&gt;DarwinCoreFile -->
<g id="edge12" class="edge"><title>DarwinCoreFile_inflow&#45;&gt;DarwinCoreFile</title>
<path fill="none" stroke="black" d="M248.922,-820.629C254.132,-813.493 263.692,-800.4 272.384,-788.496"/>
<polygon fill="black" stroke="black" points="275.415,-790.28 278.485,-780.14 269.762,-786.152 275.415,-790.28"/>
</g>
<!-- InputFilePath_inflow -->
<g id="node14" class="node"><title>InputFilePath_inflow</title>
<ellipse fill="none" stroke="black" cx="213" cy="-827" rx="7" ry="7"/>
</g>
<!-- InputFilePath_inflow&#45;&gt;InputFilePath -->
<g id="edge13" class="edge"><title>InputFilePath_inflow&#45;&gt;InputFilePath</title>
<path fill="none" stroke="black" d="M209.078,-820.629C203.868,-813.493 194.308,-800.4 185.616,-788.496"/>
<polygon fill="black" stroke="black" points="188.238,-786.152 179.515,-780.14 182.585,-790.28 188.238,-786.152"/>
</g>
</g>
</svg>
