<?xml version="1.0" encoding="UTF-8" standalone="no"?>
<!DOCTYPE svg PUBLIC "-//W3C//DTD SVG 1.1//EN"
 "http://www.w3.org/Graphics/SVG/1.1/DTD/svg11.dtd">
<!-- Generated by graphviz version 2.36.0 (20140111.2315)
 -->
<!-- Title: yw_data_view Pages: 1 -->
<svg width="900pt" height="1236pt"
 viewBox="0.00 0.00 900.00 1236.00" xmlns="http://www.w3.org/2000/svg" xmlns:xlink="http://www.w3.org/1999/xlink">
<g id="graph0" class="graph" transform="scale(1 1) rotate(0) translate(4 1232)">
<title>yw_data_view</title>
<polygon fill="white" stroke="none" points="-4,4 -4,-1232 896,-1232 896,4 -4,4"/>
<text text-anchor="middle" x="446" y="-1209.6" font-family="Courier,monospace" font-size="18.00">BranchingWorkflow</text>
<g id="clust1" class="cluster"><title>cluster_workflow</title>
<polygon fill="none" stroke="black" stroke-width="2" points="8,-62 8,-1138 884,-1138 884,-62 8,-62"/>
</g>
<g id="clust2" class="cluster"><title>cluster_workflow_inner</title>
<polygon fill="none" stroke="white" stroke-width="2" points="16,-70 16,-1130 876,-1130 876,-70 16,-70"/>
</g>
<g id="clust3" class="cluster"><title>cluster_inflows</title>
<polygon fill="none" stroke="white" stroke-width="2" points="147,-1146 147,-1192 225,-1192 225,-1146 147,-1146"/>
</g>
<g id="clust4" class="cluster"><title>cluster_inflows_inner</title>
<polygon fill="none" stroke="white" stroke-width="2" points="155,-1154 155,-1184 217,-1184 217,-1154 155,-1154"/>
</g>
<g id="clust5" class="cluster"><title>cluster_outflows</title>
<polygon fill="none" stroke="white" stroke-width="2" points="105,-8 105,-54 151,-54 151,-8 105,-8"/>
</g>
<g id="clust6" class="cluster"><title>cluster_outflows_inner</title>
<polygon fill="none" stroke="white" stroke-width="2" points="113,-16 113,-46 143,-46 143,-16 113,-16"/>
</g>
<!-- Setup -->
<g id="node1" class="node"><title>Setup</title>
<polygon fill="#ccffcc" stroke="black" points="168.25,-1050 109.75,-1050 109.75,-1014 168.25,-1014 168.25,-1050"/>
<text text-anchor="middle" x="139" y="-1028.3" font-family="Courier,monospace" font-size="14.00">Setup</text>
</g>
<!-- Workspace -->
<g id="node11" class="node"><title>Workspace</title>
<path fill="#ffffcc" stroke="black" d="M102.25,-906C102.25,-906 39.75,-906 39.75,-906 33.75,-906 27.75,-900 27.75,-894 27.75,-894 27.75,-882 27.75,-882 27.75,-876 33.75,-870 39.75,-870 39.75,-870 102.25,-870 102.25,-870 108.25,-870 114.25,-876 114.25,-882 114.25,-882 114.25,-894 114.25,-894 114.25,-900 108.25,-906 102.25,-906"/>
<text text-anchor="middle" x="71" y="-884.3" font-family="Helvetica,sans-Serif" font-size="14.00">Workspace</text>
</g>
<!-- Setup&#45;&gt;Workspace -->
<g id="edge13" class="edge"><title>Setup&#45;&gt;Workspace</title>
<path fill="none" stroke="black" d="M130.798,-1013.87C119.055,-989.35 97.3534,-944.032 83.5747,-915.259"/>
<polygon fill="black" stroke="black" points="86.7073,-913.697 79.2315,-906.189 80.3939,-916.72 86.7073,-913.697"/>
</g>
<!-- OccurrenceFile -->
<g id="node12" class="node"><title>OccurrenceFile</title>
<path fill="#ffffcc" stroke="black" d="M235.25,-978C235.25,-978 148.75,-978 148.75,-978 142.75,-978 136.75,-972 136.75,-966 136.75,-966 136.75,-954 136.75,-954 136.75,-948 142.75,-942 148.75,-942 148.75,-942 235.25,-942 235.25,-942 241.25,-942 247.25,-948 247.25,-954 247.25,-954 247.25,-966 247.25,-966 247.25,-972 241.25,-978 235.25,-978"/>
<text text-anchor="middle" x="192" y="-956.3" font-family="Helvetica,sans-Serif" font-size="14.00">OccurrenceFile</text>
</g>
<!-- Setup&#45;&gt;OccurrenceFile -->
<g id="edge14" class="edge"><title>Setup&#45;&gt;OccurrenceFile</title>
<path fill="none" stroke="black" d="M152.101,-1013.7C158.391,-1005.39 166.047,-995.277 172.965,-986.141"/>
<polygon fill="black" stroke="black" points="175.804,-988.19 179.05,-978.104 170.223,-983.964 175.804,-988.19"/>
</g>
<!-- FileToDataStream -->
<g id="node2" class="node"><title>FileToDataStream</title>
<polygon fill="#ccffcc" stroke="black" points="301.25,-906 150.75,-906 150.75,-870 301.25,-870 301.25,-906"/>
<text text-anchor="middle" x="226" y="-884.3" font-family="Courier,monospace" font-size="14.00">FileToDataStream</text>
</g>
<!-- DataRecord -->
<g id="node13" class="node"><title>DataRecord</title>
<path fill="#ffffcc" stroke="black" d="M264.25,-834C264.25,-834 197.75,-834 197.75,-834 191.75,-834 185.75,-828 185.75,-822 185.75,-822 185.75,-810 185.75,-810 185.75,-804 191.75,-798 197.75,-798 197.75,-798 264.25,-798 264.25,-798 270.25,-798 276.25,-804 276.25,-810 276.25,-810 276.25,-822 276.25,-822 276.25,-828 270.25,-834 264.25,-834"/>
<text text-anchor="middle" x="231" y="-812.3" font-family="Helvetica,sans-Serif" font-size="14.00">DataRecord</text>
</g>
<!-- FileToDataStream&#45;&gt;DataRecord -->
<g id="edge15" class="edge"><title>FileToDataStream&#45;&gt;DataRecord</title>
<path fill="none" stroke="black" d="M227.236,-869.697C227.787,-861.983 228.449,-852.712 229.063,-844.112"/>
<polygon fill="black" stroke="black" points="232.557,-844.328 229.778,-834.104 225.575,-843.83 232.557,-844.328"/>
</g>
<!-- EnvironmentTagger -->
<g id="node3" class="node"><title>EnvironmentTagger</title>
<polygon fill="#ccffcc" stroke="black" points="319.25,-762 160.75,-762 160.75,-726 319.25,-726 319.25,-762"/>
<text text-anchor="middle" x="240" y="-740.3" font-family="Courier,monospace" font-size="14.00">EnvironmentTagger</text>
</g>
<!-- TaggedDataRecord -->
<g id="node14" class="node"><title>TaggedDataRecord</title>
<path fill="#ffffcc" stroke="black" d="M299.25,-690C299.25,-690 184.75,-690 184.75,-690 178.75,-690 172.75,-684 172.75,-678 172.75,-678 172.75,-666 172.75,-666 172.75,-660 178.75,-654 184.75,-654 184.75,-654 299.25,-654 299.25,-654 305.25,-654 311.25,-660 311.25,-666 311.25,-666 311.25,-678 311.25,-678 311.25,-684 305.25,-690 299.25,-690"/>
<text text-anchor="middle" x="242" y="-668.3" font-family="Helvetica,sans-Serif" font-size="14.00">TaggedDataRecord</text>
</g>
<!-- EnvironmentTagger&#45;&gt;TaggedDataRecord -->
<g id="edge16" class="edge"><title>EnvironmentTagger&#45;&gt;TaggedDataRecord</title>
<path fill="none" stroke="black" d="M240.494,-725.697C240.715,-717.983 240.98,-708.712 241.225,-700.112"/>
<polygon fill="black" stroke="black" points="244.724,-700.2 241.511,-690.104 237.727,-700 244.724,-700.2"/>
</g>
<!-- FilterToJustMarine -->
<g id="node4" class="node"><title>FilterToJustMarine</title>
<polygon fill="#ccffcc" stroke="black" points="326,-618 158,-618 158,-582 326,-582 326,-618"/>
<text text-anchor="middle" x="242" y="-596.3" font-family="Courier,monospace" font-size="14.00">FilterToJustMarine</text>
</g>
<!-- MarineDataRecord[scientificName:scientificNameAuthorship] -->
<g id="node15" class="node"><title>MarineDataRecord[scientificName:scientificNameAuthorship]</title>
<path fill="#ffffcc" stroke="black" d="M427.25,-546C427.25,-546 56.75,-546 56.75,-546 50.75,-546 44.75,-540 44.75,-534 44.75,-534 44.75,-522 44.75,-522 44.75,-516 50.75,-510 56.75,-510 56.75,-510 427.25,-510 427.25,-510 433.25,-510 439.25,-516 439.25,-522 439.25,-522 439.25,-534 439.25,-534 439.25,-540 433.25,-546 427.25,-546"/>
<text text-anchor="middle" x="242" y="-524.3" font-family="Helvetica,sans-Serif" font-size="14.00">MarineDataRecord[scientificName:scientificNameAuthorship]</text>
</g>
<!-- FilterToJustMarine&#45;&gt;MarineDataRecord[scientificName:scientificNameAuthorship] -->
<g id="edge17" class="edge"><title>FilterToJustMarine&#45;&gt;MarineDataRecord[scientificName:scientificNameAuthorship]</title>
<path fill="none" stroke="black" d="M242,-581.697C242,-573.983 242,-564.712 242,-556.112"/>
<polygon fill="black" stroke="black" points="245.5,-556.104 242,-546.104 238.5,-556.104 245.5,-556.104"/>
</g>
<!-- FilterExcludingMarine -->
<g id="node5" class="node"><title>FilterExcludingMarine</title>
<polygon fill="#ccffcc" stroke="black" points="648.25,-618 455.75,-618 455.75,-582 648.25,-582 648.25,-618"/>
<text text-anchor="middle" x="552" y="-596.3" font-family="Courier,monospace" font-size="14.00">FilterExcludingMarine</text>
</g>
<!-- noMarineDataRecord[scientificName:scientificNameAuthorship] -->
<g id="node16" class="node"><title>noMarineDataRecord[scientificName:scientificNameAuthorship]</title>
<path fill="#ffffcc" stroke="black" d="M856,-546C856,-546 470,-546 470,-546 464,-546 458,-540 458,-534 458,-534 458,-522 458,-522 458,-516 464,-510 470,-510 470,-510 856,-510 856,-510 862,-510 868,-516 868,-522 868,-522 868,-534 868,-534 868,-540 862,-546 856,-546"/>
<text text-anchor="middle" x="663" y="-524.3" font-family="Helvetica,sans-Serif" font-size="14.00">noMarineDataRecord[scientificName:scientificNameAuthorship]</text>
</g>
<!-- FilterExcludingMarine&#45;&gt;noMarineDataRecord[scientificName:scientificNameAuthorship] -->
<g id="edge18" class="edge"><title>FilterExcludingMarine&#45;&gt;noMarineDataRecord[scientificName:scientificNameAuthorship]</title>
<path fill="none" stroke="black" d="M579.154,-581.876C593.533,-572.808 611.381,-561.552 626.91,-551.759"/>
<polygon fill="black" stroke="black" points="629.15,-554.484 635.742,-546.19 625.416,-548.564 629.15,-554.484"/>
</g>
<!-- WoRMSLookup -->
<g id="node6" class="node"><title>WoRMSLookup</title>
<polygon fill="#ccffcc" stroke="black" points="296.25,-474 187.75,-474 187.75,-438 296.25,-438 296.25,-474"/>
<text text-anchor="middle" x="242" y="-452.3" font-family="Courier,monospace" font-size="14.00">WoRMSLookup</text>
</g>
<!-- WoRMSOutput -->
<g id="node17" class="node"><title>WoRMSOutput</title>
<path fill="#ffffcc" stroke="black" d="M285.25,-402C285.25,-402 198.75,-402 198.75,-402 192.75,-402 186.75,-396 186.75,-390 186.75,-390 186.75,-378 186.75,-378 186.75,-372 192.75,-366 198.75,-366 198.75,-366 285.25,-366 285.25,-366 291.25,-366 297.25,-372 297.25,-378 297.25,-378 297.25,-390 297.25,-390 297.25,-396 291.25,-402 285.25,-402"/>
<text text-anchor="middle" x="242" y="-380.3" font-family="Helvetica,sans-Serif" font-size="14.00">WoRMSOutput</text>
</g>
<!-- WoRMSLookup&#45;&gt;WoRMSOutput -->
<g id="edge19" class="edge"><title>WoRMSLookup&#45;&gt;WoRMSOutput</title>
<path fill="none" stroke="black" d="M242,-437.697C242,-429.983 242,-420.712 242,-412.112"/>
<polygon fill="black" stroke="black" points="245.5,-412.104 242,-402.104 238.5,-412.104 245.5,-412.104"/>
</g>
<!-- GBIFLookup -->
<g id="node7" class="node"><title>GBIFLookup</title>
<polygon fill="#ccffcc" stroke="black" points="564.25,-474 463.75,-474 463.75,-438 564.25,-438 564.25,-474"/>
<text text-anchor="middle" x="514" y="-452.3" font-family="Courier,monospace" font-size="14.00">GBIFLookup</text>
</g>
<!-- GBIFOutput -->
<g id="node18" class="node"><title>GBIFOutput</title>
<path fill="#ffffcc" stroke="black" d="M470.25,-402C470.25,-402 403.75,-402 403.75,-402 397.75,-402 391.75,-396 391.75,-390 391.75,-390 391.75,-378 391.75,-378 391.75,-372 397.75,-366 403.75,-366 403.75,-366 470.25,-366 470.25,-366 476.25,-366 482.25,-372 482.25,-378 482.25,-378 482.25,-390 482.25,-390 482.25,-396 476.25,-402 470.25,-402"/>
<text text-anchor="middle" x="437" y="-380.3" font-family="Helvetica,sans-Serif" font-size="14.00">GBIFOutput</text>
</g>
<!-- GBIFLookup&#45;&gt;GBIFOutput -->
<g id="edge20" class="edge"><title>GBIFLookup&#45;&gt;GBIFOutput</title>
<path fill="none" stroke="black" d="M494.966,-437.697C485.455,-429.05 473.793,-418.449 463.43,-409.027"/>
<polygon fill="black" stroke="black" points="465.569,-406.241 455.815,-402.104 460.86,-411.421 465.569,-406.241"/>
</g>
<!-- StreamMerge -->
<g id="node8" class="node"><title>StreamMerge</title>
<polygon fill="#ccffcc" stroke="black" points="296.25,-330 187.75,-330 187.75,-294 296.25,-294 296.25,-330"/>
<text text-anchor="middle" x="242" y="-308.3" font-family="Courier,monospace" font-size="14.00">StreamMerge</text>
</g>
<!-- MergedStream -->
<g id="node19" class="node"><title>MergedStream</title>
<path fill="#ffffcc" stroke="black" d="M212.25,-258C212.25,-258 127.75,-258 127.75,-258 121.75,-258 115.75,-252 115.75,-246 115.75,-246 115.75,-234 115.75,-234 115.75,-228 121.75,-222 127.75,-222 127.75,-222 212.25,-222 212.25,-222 218.25,-222 224.25,-228 224.25,-234 224.25,-234 224.25,-246 224.25,-246 224.25,-252 218.25,-258 212.25,-258"/>
<text text-anchor="middle" x="170" y="-236.3" font-family="Helvetica,sans-Serif" font-size="14.00">MergedStream</text>
</g>
<!-- StreamMerge&#45;&gt;MergedStream -->
<g id="edge21" class="edge"><title>StreamMerge&#45;&gt;MergedStream</title>
<path fill="none" stroke="black" d="M224.202,-293.697C215.396,-285.135 204.618,-274.656 194.999,-265.304"/>
<polygon fill="black" stroke="black" points="197.203,-262.566 187.593,-258.104 192.323,-267.585 197.203,-262.566"/>
</g>
<!-- CsvFileWriter -->
<g id="node9" class="node"><title>CsvFileWriter</title>
<polygon fill="#ccffcc" stroke="black" points="191,-186 65,-186 65,-150 191,-150 191,-186"/>
<text text-anchor="middle" x="128" y="-164.3" font-family="Courier,monospace" font-size="14.00">CsvFileWriter</text>
</g>
<!-- OutputFile -->
<g id="node20" class="node"><title>OutputFile</title>
<path fill="#ffffcc" stroke="black" d="M156.25,-114C156.25,-114 99.75,-114 99.75,-114 93.75,-114 87.75,-108 87.75,-102 87.75,-102 87.75,-90 87.75,-90 87.75,-84 93.75,-78 99.75,-78 99.75,-78 156.25,-78 156.25,-78 162.25,-78 168.25,-84 168.25,-90 168.25,-90 168.25,-102 168.25,-102 168.25,-108 162.25,-114 156.25,-114"/>
<text text-anchor="middle" x="128" y="-92.3" font-family="Helvetica,sans-Serif" font-size="14.00">OutputFile</text>
</g>
<!-- CsvFileWriter&#45;&gt;OutputFile -->
<g id="edge22" class="edge"><title>CsvFileWriter&#45;&gt;OutputFile</title>
<path fill="none" stroke="black" d="M128,-149.697C128,-141.983 128,-132.712 128,-124.112"/>
<polygon fill="black" stroke="black" points="131.5,-124.104 128,-114.104 124.5,-124.104 131.5,-124.104"/>
</g>
<!-- DarwinCoreFile -->
<g id="node10" class="node"><title>DarwinCoreFile</title>
<path fill="#ffffcc" stroke="black" d="M292.25,-1122C292.25,-1122 203.75,-1122 203.75,-1122 197.75,-1122 191.75,-1116 191.75,-1110 191.75,-1110 191.75,-1098 191.75,-1098 191.75,-1092 197.75,-1086 203.75,-1086 203.75,-1086 292.25,-1086 292.25,-1086 298.25,-1086 304.25,-1092 304.25,-1098 304.25,-1098 304.25,-1110 304.25,-1110 304.25,-1116 298.25,-1122 292.25,-1122"/>
<text text-anchor="middle" x="248" y="-1100.3" font-family="Helvetica,sans-Serif" font-size="14.00">DarwinCoreFile</text>
</g>
<!-- DarwinCoreFile&#45;&gt;Setup -->
<g id="edge9" class="edge"><title>DarwinCoreFile&#45;&gt;Setup</title>
<path fill="none" stroke="black" d="M221.336,-1085.88C207.216,-1076.81 189.689,-1065.55 174.439,-1055.76"/>
<polygon fill="black" stroke="black" points="176.073,-1052.65 165.767,-1050.19 172.29,-1058.54 176.073,-1052.65"/>
</g>
<!-- Workspace&#45;&gt;CsvFileWriter -->
<g id="edge12" class="edge"><title>Workspace&#45;&gt;CsvFileWriter</title>
<path fill="none" stroke="black" d="M61.4688,-869.655C47.9951,-843.468 25,-791.904 25,-745 25,-745 25,-745 25,-311 25,-261.656 66.2575,-217.892 96.549,-192.41"/>
<polygon fill="black" stroke="black" points="98.8364,-195.061 104.37,-186.026 94.4098,-189.638 98.8364,-195.061"/>
</g>
<!-- OccurrenceFile&#45;&gt;FileToDataStream -->
<g id="edge1" class="edge"><title>OccurrenceFile&#45;&gt;FileToDataStream</title>
<path fill="none" stroke="black" d="M200.404,-941.697C204.275,-933.728 208.952,-924.1 213.243,-915.264"/>
<polygon fill="black" stroke="black" points="216.471,-916.629 217.692,-906.104 210.175,-913.57 216.471,-916.629"/>
</g>
<!-- DataRecord&#45;&gt;EnvironmentTagger -->
<g id="edge3" class="edge"><title>DataRecord&#45;&gt;EnvironmentTagger</title>
<path fill="none" stroke="black" d="M233.225,-797.697C234.217,-789.983 235.408,-780.712 236.514,-772.112"/>
<polygon fill="black" stroke="black" points="239.997,-772.469 237.801,-762.104 233.054,-771.576 239.997,-772.469"/>
</g>
<!-- TaggedDataRecord&#45;&gt;FilterToJustMarine -->
<g id="edge8" class="edge"><title>TaggedDataRecord&#45;&gt;FilterToJustMarine</title>
<path fill="none" stroke="black" d="M242,-653.697C242,-645.983 242,-636.712 242,-628.112"/>
<polygon fill="black" stroke="black" points="245.5,-628.104 242,-618.104 238.5,-628.104 245.5,-628.104"/>
</g>
<!-- TaggedDataRecord&#45;&gt;FilterExcludingMarine -->
<g id="edge7" class="edge"><title>TaggedDataRecord&#45;&gt;FilterExcludingMarine</title>
<path fill="none" stroke="black" d="M311.57,-655.291C357.497,-644.92 417.976,-631.263 466.786,-620.242"/>
<polygon fill="black" stroke="black" points="467.716,-623.62 476.7,-618.003 466.174,-616.792 467.716,-623.62"/>
</g>
<!-- MarineDataRecord[scientificName:scientificNameAuthorship]&#45;&gt;WoRMSLookup -->
<g id="edge11" class="edge"><title>MarineDataRecord[scientificName:scientificNameAuthorship]&#45;&gt;WoRMSLookup</title>
<path fill="none" stroke="black" d="M242,-509.697C242,-501.983 242,-492.712 242,-484.112"/>
<polygon fill="black" stroke="black" points="245.5,-484.104 242,-474.104 238.5,-484.104 245.5,-484.104"/>
</g>
<!-- noMarineDataRecord[scientificName:scientificNameAuthorship]&#45;&gt;GBIFLookup -->
<g id="edge2" class="edge"><title>noMarineDataRecord[scientificName:scientificNameAuthorship]&#45;&gt;GBIFLookup</title>
<path fill="none" stroke="black" d="M626.55,-509.876C606.362,-500.392 581.079,-488.513 559.592,-478.419"/>
<polygon fill="black" stroke="black" points="560.87,-475.153 550.331,-474.068 557.894,-481.488 560.87,-475.153"/>
</g>
<!-- WoRMSOutput&#45;&gt;StreamMerge -->
<g id="edge4" class="edge"><title>WoRMSOutput&#45;&gt;StreamMerge</title>
<path fill="none" stroke="black" d="M242,-365.697C242,-357.983 242,-348.712 242,-340.112"/>
<polygon fill="black" stroke="black" points="245.5,-340.104 242,-330.104 238.5,-340.104 245.5,-340.104"/>
</g>
<!-- GBIFOutput&#45;&gt;StreamMerge -->
<g id="edge6" class="edge"><title>GBIFOutput&#45;&gt;StreamMerge</title>
<path fill="none" stroke="black" d="M391.281,-366.588C363.772,-356.713 328.515,-344.057 299.173,-333.524"/>
<polygon fill="black" stroke="black" points="300.063,-330.125 289.469,-330.04 297.698,-336.713 300.063,-330.125"/>
</g>
<!-- MergedStream&#45;&gt;CsvFileWriter -->
<g id="edge10" class="edge"><title>MergedStream&#45;&gt;CsvFileWriter</title>
<path fill="none" stroke="black" d="M159.618,-221.697C154.735,-213.559 148.813,-203.689 143.421,-194.701"/>
<polygon fill="black" stroke="black" points="146.409,-192.879 138.263,-186.104 140.406,-196.48 146.409,-192.879"/>
</g>
<!-- OutputFile_outflow -->
<g id="node24" class="node"><title>OutputFile_outflow</title>
<ellipse fill="none" stroke="black" cx="128" cy="-31" rx="7" ry="7"/>
</g>
<!-- OutputFile&#45;&gt;OutputFile_outflow -->
<g id="edge25" class="edge"><title>OutputFile&#45;&gt;OutputFile_outflow</title>
<path fill="none" stroke="black" d="M128,-77.785C128,-68.6656 128,-57.5197 128,-48.5085"/>
<polygon fill="black" stroke="black" points="131.5,-48.242 128,-38.242 124.5,-48.2421 131.5,-48.242"/>
</g>
<!-- InputFilePath -->
<g id="node21" class="node"><title>InputFilePath</title>
<path fill="#ffffff" stroke="black" d="M161.25,-1122C161.25,-1122 86.75,-1122 86.75,-1122 80.75,-1122 74.75,-1116 74.75,-1110 74.75,-1110 74.75,-1098 74.75,-1098 74.75,-1092 80.75,-1086 86.75,-1086 86.75,-1086 161.25,-1086 161.25,-1086 167.25,-1086 173.25,-1092 173.25,-1098 173.25,-1098 173.25,-1110 173.25,-1110 173.25,-1116 167.25,-1122 161.25,-1122"/>
<text text-anchor="middle" x="124" y="-1100.3" font-family="Helvetica,sans-Serif" font-size="14.00">InputFilePath</text>
</g>
<!-- InputFilePath&#45;&gt;Setup -->
<g id="edge5" class="edge"><title>InputFilePath&#45;&gt;Setup</title>
<path fill="none" stroke="black" d="M127.708,-1085.7C129.361,-1077.98 131.347,-1068.71 133.19,-1060.11"/>
<polygon fill="black" stroke="black" points="136.662,-1060.62 135.335,-1050.1 129.817,-1059.15 136.662,-1060.62"/>
</g>
<!-- DarwinCoreFile_inflow -->
<g id="node22" class="node"><title>DarwinCoreFile_inflow</title>
<ellipse fill="none" stroke="black" cx="202" cy="-1169" rx="7" ry="7"/>
</g>
<!-- DarwinCoreFile_inflow&#45;&gt;DarwinCoreFile -->
<g id="edge23" class="edge"><title>DarwinCoreFile_inflow&#45;&gt;DarwinCoreFile</title>
<path fill="none" stroke="black" d="M205.922,-1162.63C211.132,-1155.49 220.692,-1142.4 229.384,-1130.5"/>
<polygon fill="black" stroke="black" points="232.415,-1132.28 235.485,-1122.14 226.762,-1128.15 232.415,-1132.28"/>
</g>
<!-- InputFilePath_inflow -->
<g id="node23" class="node"><title>InputFilePath_inflow</title>
<ellipse fill="none" stroke="black" cx="170" cy="-1169" rx="7" ry="7"/>
</g>
<!-- InputFilePath_inflow&#45;&gt;InputFilePath -->
<g id="edge24" class="edge"><title>InputFilePath_inflow&#45;&gt;InputFilePath</title>
<path fill="none" stroke="black" d="M166.078,-1162.63C160.868,-1155.49 151.308,-1142.4 142.616,-1130.5"/>
<polygon fill="black" stroke="black" points="145.238,-1128.15 136.515,-1122.14 139.585,-1132.28 145.238,-1128.15"/>
</g>
</g>
</svg>
