<?xml version="1.0" encoding="UTF-8" standalone="no"?>
<!DOCTYPE svg PUBLIC "-//W3C//DTD SVG 1.1//EN"
 "http://www.w3.org/Graphics/SVG/1.1/DTD/svg11.dtd">
<!-- Generated by graphviz version 2.36.0 (20140111.2315)
 -->
<!-- Title: yw_data_view Pages: 1 -->
<svg width="436pt" height="1038pt"
 viewBox="0.00 0.00 436.00 1038.00" xmlns="http://www.w3.org/2000/svg" xmlns:xlink="http://www.w3.org/1999/xlink">
<g id="graph0" class="graph" transform="scale(1 1) rotate(0) translate(4 1034)">
<title>yw_data_view</title>
<polygon fill="white" stroke="none" points="-4,4 -4,-1034 432,-1034 432,4 -4,4"/>
<text text-anchor="middle" x="214" y="-1011.6" font-family="Courier,monospace" font-size="18.00">BranchingWorkflow</text>
<g id="clust1" class="cluster"><title>cluster_workflow</title>
<polygon fill="none" stroke="black" stroke-width="2" points="8,-8 8,-940 420,-940 420,-8 8,-8"/>
</g>
<g id="clust2" class="cluster"><title>cluster_workflow_inner</title>
<polygon fill="none" stroke="white" stroke-width="2" points="16,-16 16,-932 412,-932 412,-16 16,-16"/>
</g>
<g id="clust3" class="cluster"><title>cluster_inflows</title>
<polygon fill="none" stroke="white" stroke-width="2" points="175,-948 175,-994 253,-994 253,-948 175,-948"/>
</g>
<g id="clust4" class="cluster"><title>cluster_inflows_inner</title>
<polygon fill="none" stroke="white" stroke-width="2" points="183,-956 183,-986 245,-986 245,-956 183,-956"/>
</g>
<!-- GBIFLookup -->
<g id="node1" class="node"><title>GBIFLookup</title>
<polygon fill="#ccffcc" stroke="black" points="218.25,-276 117.75,-276 117.75,-240 218.25,-240 218.25,-276"/>
<text text-anchor="middle" x="168" y="-254.3" font-family="Courier,monospace" font-size="14.00">GBIFLookup</text>
</g>
<!-- GBIFOutput -->
<g id="node16" class="node"><title>GBIFOutput</title>
<path fill="#ffffcc" stroke="black" d="M203.25,-204C203.25,-204 136.75,-204 136.75,-204 130.75,-204 124.75,-198 124.75,-192 124.75,-192 124.75,-180 124.75,-180 124.75,-174 130.75,-168 136.75,-168 136.75,-168 203.25,-168 203.25,-168 209.25,-168 215.25,-174 215.25,-180 215.25,-180 215.25,-192 215.25,-192 215.25,-198 209.25,-204 203.25,-204"/>
<text text-anchor="middle" x="170" y="-182.3" font-family="Helvetica,sans-Serif" font-size="14.00">GBIFOutput</text>
</g>
<!-- GBIFLookup&#45;&gt;GBIFOutput -->
<g id="edge17" class="edge"><title>GBIFLookup&#45;&gt;GBIFOutput</title>
<path fill="none" stroke="black" d="M168.494,-239.697C168.715,-231.983 168.98,-222.712 169.225,-214.112"/>
<polygon fill="black" stroke="black" points="172.724,-214.2 169.511,-204.104 165.727,-214 172.724,-214.2"/>
</g>
<!-- WoRMSLookup -->
<g id="node2" class="node"><title>WoRMSLookup</title>
<polygon fill="#ccffcc" stroke="black" points="350.25,-276 241.75,-276 241.75,-240 350.25,-240 350.25,-276"/>
<text text-anchor="middle" x="296" y="-254.3" font-family="Courier,monospace" font-size="14.00">WoRMSLookup</text>
</g>
<!-- WoRMSOutput -->
<g id="node15" class="node"><title>WoRMSOutput</title>
<path fill="#ffffcc" stroke="black" d="M336.25,-204C336.25,-204 249.75,-204 249.75,-204 243.75,-204 237.75,-198 237.75,-192 237.75,-192 237.75,-180 237.75,-180 237.75,-174 243.75,-168 249.75,-168 249.75,-168 336.25,-168 336.25,-168 342.25,-168 348.25,-174 348.25,-180 348.25,-180 348.25,-192 348.25,-192 348.25,-198 342.25,-204 336.25,-204"/>
<text text-anchor="middle" x="293" y="-182.3" font-family="Helvetica,sans-Serif" font-size="14.00">WoRMSOutput</text>
</g>
<!-- WoRMSLookup&#45;&gt;WoRMSOutput -->
<g id="edge16" class="edge"><title>WoRMSLookup&#45;&gt;WoRMSOutput</title>
<path fill="none" stroke="black" d="M295.258,-239.697C294.928,-231.983 294.531,-222.712 294.162,-214.112"/>
<polygon fill="black" stroke="black" points="297.658,-213.945 293.733,-204.104 290.665,-214.245 297.658,-213.945"/>
</g>
<!-- FilterExcludingMarine -->
<g id="node3" class="node"><title>FilterExcludingMarine</title>
<polygon fill="#ccffcc" stroke="black" points="217.25,-420 24.75,-420 24.75,-384 217.25,-384 217.25,-420"/>
<text text-anchor="middle" x="121" y="-398.3" font-family="Courier,monospace" font-size="14.00">FilterExcludingMarine</text>
</g>
<!-- NotMarine -->
<g id="node14" class="node"><title>NotMarine</title>
<path fill="#ffffcc" stroke="black" d="M158.25,-348C158.25,-348 101.75,-348 101.75,-348 95.75,-348 89.75,-342 89.75,-336 89.75,-336 89.75,-324 89.75,-324 89.75,-318 95.75,-312 101.75,-312 101.75,-312 158.25,-312 158.25,-312 164.25,-312 170.25,-318 170.25,-324 170.25,-324 170.25,-336 170.25,-336 170.25,-342 164.25,-348 158.25,-348"/>
<text text-anchor="middle" x="130" y="-326.3" font-family="Helvetica,sans-Serif" font-size="14.00">NotMarine</text>
</g>
<!-- FilterExcludingMarine&#45;&gt;NotMarine -->
<g id="edge15" class="edge"><title>FilterExcludingMarine&#45;&gt;NotMarine</title>
<path fill="none" stroke="black" d="M123.225,-383.697C124.217,-375.983 125.408,-366.712 126.514,-358.112"/>
<polygon fill="black" stroke="black" points="129.997,-358.469 127.801,-348.104 123.054,-357.576 129.997,-358.469"/>
</g>
<!-- FilterToJustMarine -->
<g id="node4" class="node"><title>FilterToJustMarine</title>
<polygon fill="#ccffcc" stroke="black" points="404,-420 236,-420 236,-384 404,-384 404,-420"/>
<text text-anchor="middle" x="320" y="-398.3" font-family="Courier,monospace" font-size="14.00">FilterToJustMarine</text>
</g>
<!-- Marine -->
<g id="node13" class="node"><title>Marine</title>
<path fill="#ffffcc" stroke="black" d="M332.25,-348C332.25,-348 297.75,-348 297.75,-348 291.75,-348 285.75,-342 285.75,-336 285.75,-336 285.75,-324 285.75,-324 285.75,-318 291.75,-312 297.75,-312 297.75,-312 332.25,-312 332.25,-312 338.25,-312 344.25,-318 344.25,-324 344.25,-324 344.25,-336 344.25,-336 344.25,-342 338.25,-348 332.25,-348"/>
<text text-anchor="middle" x="315" y="-326.3" font-family="Helvetica,sans-Serif" font-size="14.00">Marine</text>
</g>
<!-- FilterToJustMarine&#45;&gt;Marine -->
<g id="edge14" class="edge"><title>FilterToJustMarine&#45;&gt;Marine</title>
<path fill="none" stroke="black" d="M318.764,-383.697C318.213,-375.983 317.551,-366.712 316.937,-358.112"/>
<polygon fill="black" stroke="black" points="320.425,-357.83 316.222,-348.104 313.443,-358.328 320.425,-357.83"/>
</g>
<!-- EnvironmentTagger -->
<g id="node5" class="node"><title>EnvironmentTagger</title>
<polygon fill="#ccffcc" stroke="black" points="254.25,-564 95.75,-564 95.75,-528 254.25,-528 254.25,-564"/>
<text text-anchor="middle" x="175" y="-542.3" font-family="Courier,monospace" font-size="14.00">EnvironmentTagger</text>
</g>
<!-- TaggedDataRecord -->
<g id="node12" class="node"><title>TaggedDataRecord</title>
<path fill="#ffffcc" stroke="black" d="M232.25,-492C232.25,-492 117.75,-492 117.75,-492 111.75,-492 105.75,-486 105.75,-480 105.75,-480 105.75,-468 105.75,-468 105.75,-462 111.75,-456 117.75,-456 117.75,-456 232.25,-456 232.25,-456 238.25,-456 244.25,-462 244.25,-468 244.25,-468 244.25,-480 244.25,-480 244.25,-486 238.25,-492 232.25,-492"/>
<text text-anchor="middle" x="175" y="-470.3" font-family="Helvetica,sans-Serif" font-size="14.00">TaggedDataRecord</text>
</g>
<!-- EnvironmentTagger&#45;&gt;TaggedDataRecord -->
<g id="edge13" class="edge"><title>EnvironmentTagger&#45;&gt;TaggedDataRecord</title>
<path fill="none" stroke="black" d="M175,-527.697C175,-519.983 175,-510.712 175,-502.112"/>
<polygon fill="black" stroke="black" points="178.5,-502.104 175,-492.104 171.5,-502.104 178.5,-502.104"/>
</g>
<!-- FileToDataStream -->
<g id="node6" class="node"><title>FileToDataStream</title>
<polygon fill="#ccffcc" stroke="black" points="250.25,-708 99.75,-708 99.75,-672 250.25,-672 250.25,-708"/>
<text text-anchor="middle" x="175" y="-686.3" font-family="Courier,monospace" font-size="14.00">FileToDataStream</text>
</g>
<!-- DataRecord -->
<g id="node11" class="node"><title>DataRecord</title>
<path fill="#ffffcc" stroke="black" d="M208.25,-636C208.25,-636 141.75,-636 141.75,-636 135.75,-636 129.75,-630 129.75,-624 129.75,-624 129.75,-612 129.75,-612 129.75,-606 135.75,-600 141.75,-600 141.75,-600 208.25,-600 208.25,-600 214.25,-600 220.25,-606 220.25,-612 220.25,-612 220.25,-624 220.25,-624 220.25,-630 214.25,-636 208.25,-636"/>
<text text-anchor="middle" x="175" y="-614.3" font-family="Helvetica,sans-Serif" font-size="14.00">DataRecord</text>
</g>
<!-- FileToDataStream&#45;&gt;DataRecord -->
<g id="edge12" class="edge"><title>FileToDataStream&#45;&gt;DataRecord</title>
<path fill="none" stroke="black" d="M175,-671.697C175,-663.983 175,-654.712 175,-646.112"/>
<polygon fill="black" stroke="black" points="178.5,-646.104 175,-636.104 171.5,-646.104 178.5,-646.104"/>
</g>
<!-- Setup -->
<g id="node7" class="node"><title>Setup</title>
<polygon fill="#ccffcc" stroke="black" points="204.25,-852 145.75,-852 145.75,-816 204.25,-816 204.25,-852"/>
<text text-anchor="middle" x="175" y="-830.3" font-family="Courier,monospace" font-size="14.00">Setup</text>
</g>
<!-- OccurrenceFile -->
<g id="node10" class="node"><title>OccurrenceFile</title>
<path fill="#ffffcc" stroke="black" d="M218.25,-780C218.25,-780 131.75,-780 131.75,-780 125.75,-780 119.75,-774 119.75,-768 119.75,-768 119.75,-756 119.75,-756 119.75,-750 125.75,-744 131.75,-744 131.75,-744 218.25,-744 218.25,-744 224.25,-744 230.25,-750 230.25,-756 230.25,-756 230.25,-768 230.25,-768 230.25,-774 224.25,-780 218.25,-780"/>
<text text-anchor="middle" x="175" y="-758.3" font-family="Helvetica,sans-Serif" font-size="14.00">OccurrenceFile</text>
</g>
<!-- Setup&#45;&gt;OccurrenceFile -->
<g id="edge11" class="edge"><title>Setup&#45;&gt;OccurrenceFile</title>
<path fill="none" stroke="black" d="M175,-815.697C175,-807.983 175,-798.712 175,-790.112"/>
<polygon fill="black" stroke="black" points="178.5,-790.104 175,-780.104 171.5,-790.104 178.5,-790.104"/>
</g>
<!-- StreamMerge -->
<g id="node8" class="node"><title>StreamMerge</title>
<polygon fill="#ccffcc" stroke="black" points="283.25,-132 174.75,-132 174.75,-96 283.25,-96 283.25,-132"/>
<text text-anchor="middle" x="229" y="-110.3" font-family="Courier,monospace" font-size="14.00">StreamMerge</text>
</g>
<!-- MergedStream -->
<g id="node17" class="node"><title>MergedStream</title>
<path fill="#ffffcc" stroke="black" d="M271.25,-60C271.25,-60 186.75,-60 186.75,-60 180.75,-60 174.75,-54 174.75,-48 174.75,-48 174.75,-36 174.75,-36 174.75,-30 180.75,-24 186.75,-24 186.75,-24 271.25,-24 271.25,-24 277.25,-24 283.25,-30 283.25,-36 283.25,-36 283.25,-48 283.25,-48 283.25,-54 277.25,-60 271.25,-60"/>
<text text-anchor="middle" x="229" y="-38.3" font-family="Helvetica,sans-Serif" font-size="14.00">MergedStream</text>
</g>
<!-- StreamMerge&#45;&gt;MergedStream -->
<g id="edge18" class="edge"><title>StreamMerge&#45;&gt;MergedStream</title>
<path fill="none" stroke="black" d="M229,-95.6966C229,-87.9827 229,-78.7125 229,-70.1124"/>
<polygon fill="black" stroke="black" points="232.5,-70.1043 229,-60.1043 225.5,-70.1044 232.5,-70.1043"/>
</g>
<!-- DarwinCoreArchive -->
<g id="node9" class="node"><title>DarwinCoreArchive</title>
<path fill="#ffffcc" stroke="black" d="M336.25,-924C336.25,-924 223.75,-924 223.75,-924 217.75,-924 211.75,-918 211.75,-912 211.75,-912 211.75,-900 211.75,-900 211.75,-894 217.75,-888 223.75,-888 223.75,-888 336.25,-888 336.25,-888 342.25,-888 348.25,-894 348.25,-900 348.25,-900 348.25,-912 348.25,-912 348.25,-918 342.25,-924 336.25,-924"/>
<text text-anchor="middle" x="280" y="-902.3" font-family="Helvetica,sans-Serif" font-size="14.00">DarwinCoreArchive</text>
</g>
<!-- DarwinCoreArchive&#45;&gt;Setup -->
<g id="edge10" class="edge"><title>DarwinCoreArchive&#45;&gt;Setup</title>
<path fill="none" stroke="black" d="M254.314,-887.876C240.712,-878.808 223.828,-867.552 209.139,-857.759"/>
<polygon fill="black" stroke="black" points="211.047,-854.825 200.785,-852.19 207.164,-860.649 211.047,-854.825"/>
</g>
<!-- OccurrenceFile&#45;&gt;FileToDataStream -->
<g id="edge3" class="edge"><title>OccurrenceFile&#45;&gt;FileToDataStream</title>
<path fill="none" stroke="black" d="M175,-743.697C175,-735.983 175,-726.712 175,-718.112"/>
<polygon fill="black" stroke="black" points="178.5,-718.104 175,-708.104 171.5,-718.104 178.5,-718.104"/>
</g>
<!-- DataRecord&#45;&gt;EnvironmentTagger -->
<g id="edge5" class="edge"><title>DataRecord&#45;&gt;EnvironmentTagger</title>
<path fill="none" stroke="black" d="M175,-599.697C175,-591.983 175,-582.712 175,-574.112"/>
<polygon fill="black" stroke="black" points="178.5,-574.104 175,-564.104 171.5,-574.104 178.5,-574.104"/>
</g>
<!-- TaggedDataRecord&#45;&gt;FilterExcludingMarine -->
<g id="edge8" class="edge"><title>TaggedDataRecord&#45;&gt;FilterExcludingMarine</title>
<path fill="none" stroke="black" d="M161.652,-455.697C155.243,-447.389 147.442,-437.277 140.394,-428.141"/>
<polygon fill="black" stroke="black" points="143.074,-425.884 134.195,-420.104 137.532,-430.16 143.074,-425.884"/>
</g>
<!-- TaggedDataRecord&#45;&gt;FilterToJustMarine -->
<g id="edge9" class="edge"><title>TaggedDataRecord&#45;&gt;FilterToJustMarine</title>
<path fill="none" stroke="black" d="M210.471,-455.876C230.117,-446.392 254.722,-434.513 275.632,-424.419"/>
<polygon fill="black" stroke="black" points="277.16,-427.568 284.644,-420.068 274.117,-421.264 277.16,-427.568"/>
</g>
<!-- Marine&#45;&gt;WoRMSLookup -->
<g id="edge1" class="edge"><title>Marine&#45;&gt;WoRMSLookup</title>
<path fill="none" stroke="black" d="M310.303,-311.697C308.187,-303.898 305.638,-294.509 303.282,-285.829"/>
<polygon fill="black" stroke="black" points="306.64,-284.838 300.643,-276.104 299.884,-286.672 306.64,-284.838"/>
</g>
<!-- NotMarine&#45;&gt;GBIFLookup -->
<g id="edge2" class="edge"><title>NotMarine&#45;&gt;GBIFLookup</title>
<path fill="none" stroke="black" d="M139.393,-311.697C143.765,-303.644 149.057,-293.894 153.895,-284.982"/>
<polygon fill="black" stroke="black" points="157.02,-286.563 158.715,-276.104 150.868,-283.223 157.02,-286.563"/>
</g>
<!-- WoRMSOutput&#45;&gt;StreamMerge -->
<g id="edge4" class="edge"><title>WoRMSOutput&#45;&gt;StreamMerge</title>
<path fill="none" stroke="black" d="M277.18,-167.697C269.43,-159.22 259.961,-148.864 251.476,-139.583"/>
<polygon fill="black" stroke="black" points="253.969,-137.123 244.638,-132.104 248.803,-141.846 253.969,-137.123"/>
</g>
<!-- GBIFOutput&#45;&gt;StreamMerge -->
<g id="edge6" class="edge"><title>GBIFOutput&#45;&gt;StreamMerge</title>
<path fill="none" stroke="black" d="M184.584,-167.697C191.658,-159.305 200.283,-149.07 208.045,-139.861"/>
<polygon fill="black" stroke="black" points="210.815,-142.006 214.583,-132.104 205.463,-137.495 210.815,-142.006"/>
</g>
<!-- DwCA_URI -->
<g id="node18" class="node"><title>DwCA_URI</title>
<path fill="#ffffff" stroke="black" d="M181,-924C181,-924 117,-924 117,-924 111,-924 105,-918 105,-912 105,-912 105,-900 105,-900 105,-894 111,-888 117,-888 117,-888 181,-888 181,-888 187,-888 193,-894 193,-900 193,-900 193,-912 193,-912 193,-918 187,-924 181,-924"/>
<text text-anchor="middle" x="149" y="-902.3" font-family="Helvetica,sans-Serif" font-size="14.00">DwCA_URI</text>
</g>
<!-- DwCA_URI&#45;&gt;Setup -->
<g id="edge7" class="edge"><title>DwCA_URI&#45;&gt;Setup</title>
<path fill="none" stroke="black" d="M155.427,-887.697C158.355,-879.813 161.887,-870.304 165.14,-861.546"/>
<polygon fill="black" stroke="black" points="168.446,-862.697 168.647,-852.104 161.884,-860.26 168.446,-862.697"/>
</g>
<!-- DarwinCoreArchive_inflow -->
<g id="node19" class="node"><title>DarwinCoreArchive_inflow</title>
<ellipse fill="none" stroke="black" cx="230" cy="-971" rx="7" ry="7"/>
</g>
<!-- DarwinCoreArchive_inflow&#45;&gt;DarwinCoreArchive -->
<g id="edge19" class="edge"><title>DarwinCoreArchive_inflow&#45;&gt;DarwinCoreArchive</title>
<path fill="none" stroke="black" d="M233.923,-965.056C239.535,-957.986 250.247,-944.489 259.93,-932.288"/>
<polygon fill="black" stroke="black" points="262.92,-934.151 266.395,-924.142 257.437,-929.799 262.92,-934.151"/>
</g>
<!-- DwCA_URI_inflow -->
<g id="node20" class="node"><title>DwCA_URI_inflow</title>
<ellipse fill="none" stroke="black" cx="198" cy="-971" rx="7" ry="7"/>
</g>
<!-- DwCA_URI_inflow&#45;&gt;DwCA_URI -->
<g id="edge20" class="edge"><title>DwCA_URI_inflow&#45;&gt;DwCA_URI</title>
<path fill="none" stroke="black" d="M194.155,-965.056C188.656,-957.986 178.158,-944.489 168.668,-932.288"/>
<polygon fill="black" stroke="black" points="171.235,-929.887 162.333,-924.142 165.71,-934.185 171.235,-929.887"/>
</g>
</g>
</svg>
