<?xml version="1.0" encoding="UTF-8" standalone="no"?>
<!DOCTYPE svg PUBLIC "-//W3C//DTD SVG 1.1//EN"
 "http://www.w3.org/Graphics/SVG/1.1/DTD/svg11.dtd">
<!-- Generated by graphviz version 2.36.0 (20140111.2315)
 -->
<!-- Title: yw_data_view Pages: 1 -->
<svg width="940pt" height="948pt"
 viewBox="0.00 0.00 940.00 948.00" xmlns="http://www.w3.org/2000/svg" xmlns:xlink="http://www.w3.org/1999/xlink">
<g id="graph0" class="graph" transform="scale(1 1) rotate(0) translate(4 944)">
<title>yw_data_view</title>
<polygon fill="white" stroke="none" points="-4,4 -4,-944 936,-944 936,4 -4,4"/>
<text text-anchor="middle" x="466" y="-921.6" font-family="Courier,monospace" font-size="18.00">BranchingWorkflow</text>
<g id="clust1" class="cluster"><title>cluster_workflow</title>
<polygon fill="none" stroke="black" stroke-width="2" points="8,-62 8,-850 924,-850 924,-62 8,-62"/>
</g>
<g id="clust2" class="cluster"><title>cluster_workflow_inner</title>
<polygon fill="none" stroke="white" stroke-width="2" points="16,-70 16,-842 916,-842 916,-70 16,-70"/>
</g>
<g id="clust3" class="cluster"><title>cluster_inflows</title>
<polygon fill="none" stroke="white" stroke-width="2" points="194,-858 194,-904 272,-904 272,-858 194,-858"/>
</g>
<g id="clust4" class="cluster"><title>cluster_inflows_inner</title>
<polygon fill="none" stroke="white" stroke-width="2" points="202,-866 202,-896 264,-896 264,-866 202,-866"/>
</g>
<g id="clust5" class="cluster"><title>cluster_outflows</title>
<polygon fill="none" stroke="white" stroke-width="2" points="246,-8 246,-54 292,-54 292,-8 246,-8"/>
</g>
<g id="clust6" class="cluster"><title>cluster_outflows_inner</title>
<polygon fill="none" stroke="white" stroke-width="2" points="254,-16 254,-46 284,-46 284,-16 254,-16"/>
</g>
<!-- FileToDataStream -->
<g id="node1" class="node"><title>FileToDataStream</title>
<polygon fill="#ccffcc" stroke="black" points="261.25,-618 110.75,-618 110.75,-582 261.25,-582 261.25,-618"/>
<text text-anchor="middle" x="186" y="-596.3" font-family="Courier,monospace" font-size="14.00">FileToDataStream</text>
</g>
<!-- DataRecord -->
<g id="node10" class="node"><title>DataRecord</title>
<path fill="#ffffcc" stroke="black" d="M219.25,-546C219.25,-546 152.75,-546 152.75,-546 146.75,-546 140.75,-540 140.75,-534 140.75,-534 140.75,-522 140.75,-522 140.75,-516 146.75,-510 152.75,-510 152.75,-510 219.25,-510 219.25,-510 225.25,-510 231.25,-516 231.25,-522 231.25,-522 231.25,-534 231.25,-534 231.25,-540 225.25,-546 219.25,-546"/>
<text text-anchor="middle" x="186" y="-524.3" font-family="Helvetica,sans-Serif" font-size="14.00">DataRecord</text>
</g>
<!-- FileToDataStream&#45;&gt;DataRecord -->
<g id="edge10" class="edge"><title>FileToDataStream&#45;&gt;DataRecord</title>
<path fill="none" stroke="black" d="M186,-581.697C186,-573.983 186,-564.712 186,-556.112"/>
<polygon fill="black" stroke="black" points="189.5,-556.104 186,-546.104 182.5,-556.104 189.5,-556.104"/>
</g>
<!-- Setup -->
<g id="node2" class="node"><title>Setup</title>
<polygon fill="#ccffcc" stroke="black" points="215.25,-762 156.75,-762 156.75,-726 215.25,-726 215.25,-762"/>
<text text-anchor="middle" x="186" y="-740.3" font-family="Courier,monospace" font-size="14.00">Setup</text>
</g>
<!-- OccurrenceFile -->
<g id="node9" class="node"><title>OccurrenceFile</title>
<path fill="#ffffcc" stroke="black" d="M229.25,-690C229.25,-690 142.75,-690 142.75,-690 136.75,-690 130.75,-684 130.75,-678 130.75,-678 130.75,-666 130.75,-666 130.75,-660 136.75,-654 142.75,-654 142.75,-654 229.25,-654 229.25,-654 235.25,-654 241.25,-660 241.25,-666 241.25,-666 241.25,-678 241.25,-678 241.25,-684 235.25,-690 229.25,-690"/>
<text text-anchor="middle" x="186" y="-668.3" font-family="Helvetica,sans-Serif" font-size="14.00">OccurrenceFile</text>
</g>
<!-- Setup&#45;&gt;OccurrenceFile -->
<g id="edge9" class="edge"><title>Setup&#45;&gt;OccurrenceFile</title>
<path fill="none" stroke="black" d="M186,-725.697C186,-717.983 186,-708.712 186,-700.112"/>
<polygon fill="black" stroke="black" points="189.5,-700.104 186,-690.104 182.5,-700.104 189.5,-700.104"/>
</g>
<!-- GBIFLookup -->
<g id="node3" class="node"><title>GBIFLookup</title>
<polygon fill="#ccffcc" stroke="black" points="319.25,-186 218.75,-186 218.75,-150 319.25,-150 319.25,-186"/>
<text text-anchor="middle" x="269" y="-164.3" font-family="Courier,monospace" font-size="14.00">GBIFLookup</text>
</g>
<!-- LogFile -->
<g id="node11" class="node"><title>LogFile</title>
<path fill="#ffffcc" stroke="black" d="M288,-114C288,-114 250,-114 250,-114 244,-114 238,-108 238,-102 238,-102 238,-90 238,-90 238,-84 244,-78 250,-78 250,-78 288,-78 288,-78 294,-78 300,-84 300,-90 300,-90 300,-102 300,-102 300,-108 294,-114 288,-114"/>
<text text-anchor="middle" x="269" y="-92.3" font-family="Helvetica,sans-Serif" font-size="14.00">LogFile</text>
</g>
<!-- GBIFLookup&#45;&gt;LogFile -->
<g id="edge18" class="edge"><title>GBIFLookup&#45;&gt;LogFile</title>
<path fill="none" stroke="black" d="M269,-149.697C269,-141.983 269,-132.712 269,-124.112"/>
<polygon fill="black" stroke="black" points="272.5,-124.104 269,-114.104 265.5,-124.104 272.5,-124.104"/>
</g>
<!-- WoRMSLookup -->
<g id="node4" class="node"><title>WoRMSLookup</title>
<polygon fill="#ccffcc" stroke="black" points="692.25,-186 583.75,-186 583.75,-150 692.25,-150 692.25,-186"/>
<text text-anchor="middle" x="638" y="-164.3" font-family="Courier,monospace" font-size="14.00">WoRMSLookup</text>
</g>
<!-- WoRMSLookup&#45;&gt;LogFile -->
<g id="edge17" class="edge"><title>WoRMSLookup&#45;&gt;LogFile</title>
<path fill="none" stroke="black" d="M583.553,-156.671C509.147,-142.556 377.326,-117.55 310.427,-104.859"/>
<polygon fill="black" stroke="black" points="310.744,-101.357 300.267,-102.931 309.439,-108.234 310.744,-101.357"/>
</g>
<!-- FilterExcludingMarine -->
<g id="node5" class="node"><title>FilterExcludingMarine</title>
<polygon fill="#ccffcc" stroke="black" points="324.25,-330 131.75,-330 131.75,-294 324.25,-294 324.25,-330"/>
<text text-anchor="middle" x="228" y="-308.3" font-family="Courier,monospace" font-size="14.00">FilterExcludingMarine</text>
</g>
<!-- FilterExcludingMarine&#45;&gt;LogFile -->
<g id="edge15" class="edge"><title>FilterExcludingMarine&#45;&gt;LogFile</title>
<path fill="none" stroke="black" d="M131.652,-296.23C80.5644,-283.63 32.5532,-261.107 55,-222 92.1485,-157.28 177.186,-122.88 228.173,-107.423"/>
<polygon fill="black" stroke="black" points="229.276,-110.747 237.892,-104.581 227.312,-104.029 229.276,-110.747"/>
</g>
<!-- noMarineDataRecord[scientificName:scientificNameAuthorship] -->
<g id="node14" class="node"><title>noMarineDataRecord[scientificName:scientificNameAuthorship]</title>
<path fill="#ffffcc" stroke="black" d="M462,-258C462,-258 76,-258 76,-258 70,-258 64,-252 64,-246 64,-246 64,-234 64,-234 64,-228 70,-222 76,-222 76,-222 462,-222 462,-222 468,-222 474,-228 474,-234 474,-234 474,-246 474,-246 474,-252 468,-258 462,-258"/>
<text text-anchor="middle" x="269" y="-236.3" font-family="Helvetica,sans-Serif" font-size="14.00">noMarineDataRecord[scientificName:scientificNameAuthorship]</text>
</g>
<!-- FilterExcludingMarine&#45;&gt;noMarineDataRecord[scientificName:scientificNameAuthorship] -->
<g id="edge16" class="edge"><title>FilterExcludingMarine&#45;&gt;noMarineDataRecord[scientificName:scientificNameAuthorship]</title>
<path fill="none" stroke="black" d="M238.135,-293.697C242.852,-285.644 248.562,-275.894 253.782,-266.982"/>
<polygon fill="black" stroke="black" points="256.948,-268.502 258.982,-258.104 250.908,-264.964 256.948,-268.502"/>
</g>
<!-- FilterToJustMarine -->
<g id="node6" class="node"><title>FilterToJustMarine</title>
<polygon fill="#ccffcc" stroke="black" points="577,-330 409,-330 409,-294 577,-294 577,-330"/>
<text text-anchor="middle" x="493" y="-308.3" font-family="Courier,monospace" font-size="14.00">FilterToJustMarine</text>
</g>
<!-- FilterToJustMarine&#45;&gt;LogFile -->
<g id="edge13" class="edge"><title>FilterToJustMarine&#45;&gt;LogFile</title>
<path fill="none" stroke="black" d="M495.382,-293.755C497.105,-274.632 497.08,-243.632 483,-222 442.595,-159.926 359.768,-124.813 309.839,-108.469"/>
<polygon fill="black" stroke="black" points="310.603,-105.04 300.013,-105.356 308.488,-111.713 310.603,-105.04"/>
</g>
<!-- MarineDataRecord[scientificName:scientificNameAuthorship] -->
<g id="node13" class="node"><title>MarineDataRecord[scientificName:scientificNameAuthorship]</title>
<path fill="#ffffcc" stroke="black" d="M895.25,-258C895.25,-258 524.75,-258 524.75,-258 518.75,-258 512.75,-252 512.75,-246 512.75,-246 512.75,-234 512.75,-234 512.75,-228 518.75,-222 524.75,-222 524.75,-222 895.25,-222 895.25,-222 901.25,-222 907.25,-228 907.25,-234 907.25,-234 907.25,-246 907.25,-246 907.25,-252 901.25,-258 895.25,-258"/>
<text text-anchor="middle" x="710" y="-236.3" font-family="Helvetica,sans-Serif" font-size="14.00">MarineDataRecord[scientificName:scientificNameAuthorship]</text>
</g>
<!-- FilterToJustMarine&#45;&gt;MarineDataRecord[scientificName:scientificNameAuthorship] -->
<g id="edge14" class="edge"><title>FilterToJustMarine&#45;&gt;MarineDataRecord[scientificName:scientificNameAuthorship]</title>
<path fill="none" stroke="black" d="M545.807,-293.966C576.39,-284.1 615.073,-271.622 647.21,-261.255"/>
<polygon fill="black" stroke="black" points="648.514,-264.512 656.957,-258.111 646.365,-257.85 648.514,-264.512"/>
</g>
<!-- EnvironmentTagger -->
<g id="node7" class="node"><title>EnvironmentTagger</title>
<polygon fill="#ccffcc" stroke="black" points="265.25,-474 106.75,-474 106.75,-438 265.25,-438 265.25,-474"/>
<text text-anchor="middle" x="186" y="-452.3" font-family="Courier,monospace" font-size="14.00">EnvironmentTagger</text>
</g>
<!-- EnvironmentTagger&#45;&gt;LogFile -->
<g id="edge11" class="edge"><title>EnvironmentTagger&#45;&gt;LogFile</title>
<path fill="none" stroke="black" d="M140.724,-437.821C93.1043,-416.457 25,-375.054 25,-313 25,-313 25,-313 25,-239 25,-192.266 43.5699,-177.984 81,-150 124.349,-117.591 186.722,-104.993 227.547,-100.099"/>
<polygon fill="black" stroke="black" points="228.132,-103.556 237.692,-98.9889 227.37,-96.598 228.132,-103.556"/>
</g>
<!-- TaggedDataRecord -->
<g id="node12" class="node"><title>TaggedDataRecord</title>
<path fill="#ffffcc" stroke="black" d="M285.25,-402C285.25,-402 170.75,-402 170.75,-402 164.75,-402 158.75,-396 158.75,-390 158.75,-390 158.75,-378 158.75,-378 158.75,-372 164.75,-366 170.75,-366 170.75,-366 285.25,-366 285.25,-366 291.25,-366 297.25,-372 297.25,-378 297.25,-378 297.25,-390 297.25,-390 297.25,-396 291.25,-402 285.25,-402"/>
<text text-anchor="middle" x="228" y="-380.3" font-family="Helvetica,sans-Serif" font-size="14.00">TaggedDataRecord</text>
</g>
<!-- EnvironmentTagger&#45;&gt;TaggedDataRecord -->
<g id="edge12" class="edge"><title>EnvironmentTagger&#45;&gt;TaggedDataRecord</title>
<path fill="none" stroke="black" d="M196.382,-437.697C201.265,-429.559 207.187,-419.689 212.579,-410.701"/>
<polygon fill="black" stroke="black" points="215.594,-412.48 217.737,-402.104 209.591,-408.879 215.594,-412.48"/>
</g>
<!-- DarwinCoreFile -->
<g id="node8" class="node"><title>DarwinCoreFile</title>
<path fill="#ffffcc" stroke="black" d="M339.25,-834C339.25,-834 250.75,-834 250.75,-834 244.75,-834 238.75,-828 238.75,-822 238.75,-822 238.75,-810 238.75,-810 238.75,-804 244.75,-798 250.75,-798 250.75,-798 339.25,-798 339.25,-798 345.25,-798 351.25,-804 351.25,-810 351.25,-810 351.25,-822 351.25,-822 351.25,-828 345.25,-834 339.25,-834"/>
<text text-anchor="middle" x="295" y="-812.3" font-family="Helvetica,sans-Serif" font-size="14.00">DarwinCoreFile</text>
</g>
<!-- DarwinCoreFile&#45;&gt;Setup -->
<g id="edge7" class="edge"><title>DarwinCoreFile&#45;&gt;Setup</title>
<path fill="none" stroke="black" d="M268.336,-797.876C254.216,-788.808 236.689,-777.552 221.439,-767.759"/>
<polygon fill="black" stroke="black" points="223.073,-764.648 212.767,-762.19 219.29,-770.538 223.073,-764.648"/>
</g>
<!-- OccurrenceFile&#45;&gt;FileToDataStream -->
<g id="edge6" class="edge"><title>OccurrenceFile&#45;&gt;FileToDataStream</title>
<path fill="none" stroke="black" d="M186,-653.697C186,-645.983 186,-636.712 186,-628.112"/>
<polygon fill="black" stroke="black" points="189.5,-628.104 186,-618.104 182.5,-628.104 189.5,-628.104"/>
</g>
<!-- DataRecord&#45;&gt;EnvironmentTagger -->
<g id="edge5" class="edge"><title>DataRecord&#45;&gt;EnvironmentTagger</title>
<path fill="none" stroke="black" d="M186,-509.697C186,-501.983 186,-492.712 186,-484.112"/>
<polygon fill="black" stroke="black" points="189.5,-484.104 186,-474.104 182.5,-484.104 189.5,-484.104"/>
</g>
<!-- LogFile_outflow -->
<g id="node18" class="node"><title>LogFile_outflow</title>
<ellipse fill="none" stroke="black" cx="269" cy="-31" rx="7" ry="7"/>
</g>
<!-- LogFile&#45;&gt;LogFile_outflow -->
<g id="edge21" class="edge"><title>LogFile&#45;&gt;LogFile_outflow</title>
<path fill="none" stroke="black" d="M269,-77.785C269,-68.6656 269,-57.5197 269,-48.5085"/>
<polygon fill="black" stroke="black" points="272.5,-48.242 269,-38.242 265.5,-48.2421 272.5,-48.242"/>
</g>
<!-- TaggedDataRecord&#45;&gt;FilterExcludingMarine -->
<g id="edge3" class="edge"><title>TaggedDataRecord&#45;&gt;FilterExcludingMarine</title>
<path fill="none" stroke="black" d="M228,-365.697C228,-357.983 228,-348.712 228,-340.112"/>
<polygon fill="black" stroke="black" points="231.5,-340.104 228,-330.104 224.5,-340.104 231.5,-340.104"/>
</g>
<!-- TaggedDataRecord&#45;&gt;FilterToJustMarine -->
<g id="edge4" class="edge"><title>TaggedDataRecord&#45;&gt;FilterToJustMarine</title>
<path fill="none" stroke="black" d="M292.487,-365.966C330.48,-355.93 378.707,-343.19 418.343,-332.721"/>
<polygon fill="black" stroke="black" points="419.449,-336.049 428.223,-330.111 417.661,-329.281 419.449,-336.049"/>
</g>
<!-- MarineDataRecord[scientificName:scientificNameAuthorship]&#45;&gt;WoRMSLookup -->
<g id="edge2" class="edge"><title>MarineDataRecord[scientificName:scientificNameAuthorship]&#45;&gt;WoRMSLookup</title>
<path fill="none" stroke="black" d="M692.202,-221.697C683.396,-213.135 672.618,-202.656 662.999,-193.304"/>
<polygon fill="black" stroke="black" points="665.203,-190.566 655.593,-186.104 660.323,-195.585 665.203,-190.566"/>
</g>
<!-- noMarineDataRecord[scientificName:scientificNameAuthorship]&#45;&gt;GBIFLookup -->
<g id="edge1" class="edge"><title>noMarineDataRecord[scientificName:scientificNameAuthorship]&#45;&gt;GBIFLookup</title>
<path fill="none" stroke="black" d="M269,-221.697C269,-213.983 269,-204.712 269,-196.112"/>
<polygon fill="black" stroke="black" points="272.5,-196.104 269,-186.104 265.5,-196.104 272.5,-196.104"/>
</g>
<!-- InputFilePath -->
<g id="node15" class="node"><title>InputFilePath</title>
<path fill="#ffffff" stroke="black" d="M208.25,-834C208.25,-834 133.75,-834 133.75,-834 127.75,-834 121.75,-828 121.75,-822 121.75,-822 121.75,-810 121.75,-810 121.75,-804 127.75,-798 133.75,-798 133.75,-798 208.25,-798 208.25,-798 214.25,-798 220.25,-804 220.25,-810 220.25,-810 220.25,-822 220.25,-822 220.25,-828 214.25,-834 208.25,-834"/>
<text text-anchor="middle" x="171" y="-812.3" font-family="Helvetica,sans-Serif" font-size="14.00">InputFilePath</text>
</g>
<!-- InputFilePath&#45;&gt;Setup -->
<g id="edge8" class="edge"><title>InputFilePath&#45;&gt;Setup</title>
<path fill="none" stroke="black" d="M174.708,-797.697C176.361,-789.983 178.347,-780.712 180.19,-772.112"/>
<polygon fill="black" stroke="black" points="183.662,-772.616 182.335,-762.104 176.817,-771.149 183.662,-772.616"/>
</g>
<!-- DarwinCoreFile_inflow -->
<g id="node16" class="node"><title>DarwinCoreFile_inflow</title>
<ellipse fill="none" stroke="black" cx="249" cy="-881" rx="7" ry="7"/>
</g>
<!-- DarwinCoreFile_inflow&#45;&gt;DarwinCoreFile -->
<g id="edge19" class="edge"><title>DarwinCoreFile_inflow&#45;&gt;DarwinCoreFile</title>
<path fill="none" stroke="black" d="M252.922,-874.629C258.132,-867.493 267.692,-854.4 276.384,-842.496"/>
<polygon fill="black" stroke="black" points="279.415,-844.28 282.485,-834.14 273.762,-840.152 279.415,-844.28"/>
</g>
<!-- InputFilePath_inflow -->
<g id="node17" class="node"><title>InputFilePath_inflow</title>
<ellipse fill="none" stroke="black" cx="217" cy="-881" rx="7" ry="7"/>
</g>
<!-- InputFilePath_inflow&#45;&gt;InputFilePath -->
<g id="edge20" class="edge"><title>InputFilePath_inflow&#45;&gt;InputFilePath</title>
<path fill="none" stroke="black" d="M213.078,-874.629C207.868,-867.493 198.308,-854.4 189.616,-842.496"/>
<polygon fill="black" stroke="black" points="192.238,-840.152 183.515,-834.14 186.585,-844.28 192.238,-840.152"/>
</g>
</g>
</svg>
