<?xml version="1.0" encoding="UTF-8" standalone="no"?>
<!DOCTYPE svg PUBLIC "-//W3C//DTD SVG 1.1//EN"
 "http://www.w3.org/Graphics/SVG/1.1/DTD/svg11.dtd">
<!-- Generated by graphviz version 2.36.0 (20140111.2315)
 -->
<!-- Title: yw_data_view Pages: 1 -->
<svg width="452pt" height="750pt"
 viewBox="0.00 0.00 452.00 750.00" xmlns="http://www.w3.org/2000/svg" xmlns:xlink="http://www.w3.org/1999/xlink">
<g id="graph0" class="graph" transform="scale(1 1) rotate(0) translate(4 746)">
<title>yw_data_view</title>
<polygon fill="white" stroke="none" points="-4,4 -4,-746 448,-746 448,4 -4,4"/>
<text text-anchor="middle" x="222" y="-723.6" font-family="Courier,monospace" font-size="18.00">BranchingWorkflow</text>
<g id="clust1" class="cluster"><title>cluster_workflow</title>
<polygon fill="none" stroke="black" stroke-width="2" points="8,-8 8,-652 436,-652 436,-8 8,-8"/>
</g>
<g id="clust2" class="cluster"><title>cluster_workflow_inner</title>
<polygon fill="none" stroke="white" stroke-width="2" points="16,-16 16,-644 428,-644 428,-16 16,-16"/>
</g>
<g id="clust3" class="cluster"><title>cluster_inflows</title>
<polygon fill="none" stroke="white" stroke-width="2" points="183,-660 183,-706 261,-706 261,-660 183,-660"/>
</g>
<g id="clust4" class="cluster"><title>cluster_inflows_inner</title>
<polygon fill="none" stroke="white" stroke-width="2" points="191,-668 191,-698 253,-698 253,-668 191,-668"/>
</g>
<!-- EnvironmentTagger -->
<g id="node1" class="node"><title>EnvironmentTagger</title>
<polygon fill="#ccffcc" stroke="black" points="301.25,-276 142.75,-276 142.75,-240 301.25,-240 301.25,-276"/>
<text text-anchor="middle" x="222" y="-254.3" font-family="Courier,monospace" font-size="14.00">EnvironmentTagger</text>
</g>
<!-- TaggedDataRecord -->
<g id="node8" class="node"><title>TaggedDataRecord</title>
<path fill="#ffffcc" stroke="black" d="M279.25,-204C279.25,-204 164.75,-204 164.75,-204 158.75,-204 152.75,-198 152.75,-192 152.75,-192 152.75,-180 152.75,-180 152.75,-174 158.75,-168 164.75,-168 164.75,-168 279.25,-168 279.25,-168 285.25,-168 291.25,-174 291.25,-180 291.25,-180 291.25,-192 291.25,-192 291.25,-198 285.25,-204 279.25,-204"/>
<text text-anchor="middle" x="222" y="-182.3" font-family="Helvetica,sans-Serif" font-size="14.00">TaggedDataRecord</text>
</g>
<!-- EnvironmentTagger&#45;&gt;TaggedDataRecord -->
<g id="edge8" class="edge"><title>EnvironmentTagger&#45;&gt;TaggedDataRecord</title>
<path fill="none" stroke="black" d="M222,-239.697C222,-231.983 222,-222.712 222,-214.112"/>
<polygon fill="black" stroke="black" points="225.5,-214.104 222,-204.104 218.5,-214.104 225.5,-214.104"/>
</g>
<!-- FileToDataStream -->
<g id="node2" class="node"><title>FileToDataStream</title>
<polygon fill="#ccffcc" stroke="black" points="297.25,-420 146.75,-420 146.75,-384 297.25,-384 297.25,-420"/>
<text text-anchor="middle" x="222" y="-398.3" font-family="Courier,monospace" font-size="14.00">FileToDataStream</text>
</g>
<!-- DataRecord -->
<g id="node7" class="node"><title>DataRecord</title>
<path fill="#ffffcc" stroke="black" d="M255.25,-348C255.25,-348 188.75,-348 188.75,-348 182.75,-348 176.75,-342 176.75,-336 176.75,-336 176.75,-324 176.75,-324 176.75,-318 182.75,-312 188.75,-312 188.75,-312 255.25,-312 255.25,-312 261.25,-312 267.25,-318 267.25,-324 267.25,-324 267.25,-336 267.25,-336 267.25,-342 261.25,-348 255.25,-348"/>
<text text-anchor="middle" x="222" y="-326.3" font-family="Helvetica,sans-Serif" font-size="14.00">DataRecord</text>
</g>
<!-- FileToDataStream&#45;&gt;DataRecord -->
<g id="edge7" class="edge"><title>FileToDataStream&#45;&gt;DataRecord</title>
<path fill="none" stroke="black" d="M222,-383.697C222,-375.983 222,-366.712 222,-358.112"/>
<polygon fill="black" stroke="black" points="225.5,-358.104 222,-348.104 218.5,-358.104 225.5,-358.104"/>
</g>
<!-- Setup -->
<g id="node3" class="node"><title>Setup</title>
<polygon fill="#ccffcc" stroke="black" points="251.25,-564 192.75,-564 192.75,-528 251.25,-528 251.25,-564"/>
<text text-anchor="middle" x="222" y="-542.3" font-family="Courier,monospace" font-size="14.00">Setup</text>
</g>
<!-- OccurrenceFile -->
<g id="node6" class="node"><title>OccurrenceFile</title>
<path fill="#ffffcc" stroke="black" d="M265.25,-492C265.25,-492 178.75,-492 178.75,-492 172.75,-492 166.75,-486 166.75,-480 166.75,-480 166.75,-468 166.75,-468 166.75,-462 172.75,-456 178.75,-456 178.75,-456 265.25,-456 265.25,-456 271.25,-456 277.25,-462 277.25,-468 277.25,-468 277.25,-480 277.25,-480 277.25,-486 271.25,-492 265.25,-492"/>
<text text-anchor="middle" x="222" y="-470.3" font-family="Helvetica,sans-Serif" font-size="14.00">OccurrenceFile</text>
</g>
<!-- Setup&#45;&gt;OccurrenceFile -->
<g id="edge6" class="edge"><title>Setup&#45;&gt;OccurrenceFile</title>
<path fill="none" stroke="black" d="M222,-527.697C222,-519.983 222,-510.712 222,-502.112"/>
<polygon fill="black" stroke="black" points="225.5,-502.104 222,-492.104 218.5,-502.104 225.5,-502.104"/>
</g>
<!-- FilterToJustMarine -->
<g id="node4" class="node"><title>FilterToJustMarine</title>
<polygon fill="#ccffcc" stroke="black" points="306,-132 138,-132 138,-96 306,-96 306,-132"/>
<text text-anchor="middle" x="222" y="-110.3" font-family="Courier,monospace" font-size="14.00">FilterToJustMarine</text>
</g>
<!-- MarineDataRecord[scientificName:scientificNameAuthorship] -->
<g id="node9" class="node"><title>MarineDataRecord[scientificName:scientificNameAuthorship]</title>
<path fill="#ffffcc" stroke="black" d="M407.25,-60C407.25,-60 36.75,-60 36.75,-60 30.75,-60 24.75,-54 24.75,-48 24.75,-48 24.75,-36 24.75,-36 24.75,-30 30.75,-24 36.75,-24 36.75,-24 407.25,-24 407.25,-24 413.25,-24 419.25,-30 419.25,-36 419.25,-36 419.25,-48 419.25,-48 419.25,-54 413.25,-60 407.25,-60"/>
<text text-anchor="middle" x="222" y="-38.3" font-family="Helvetica,sans-Serif" font-size="14.00">MarineDataRecord[scientificName:scientificNameAuthorship]</text>
</g>
<!-- FilterToJustMarine&#45;&gt;MarineDataRecord[scientificName:scientificNameAuthorship] -->
<g id="edge9" class="edge"><title>FilterToJustMarine&#45;&gt;MarineDataRecord[scientificName:scientificNameAuthorship]</title>
<path fill="none" stroke="black" d="M222,-95.6966C222,-87.9827 222,-78.7125 222,-70.1124"/>
<polygon fill="black" stroke="black" points="225.5,-70.1043 222,-60.1043 218.5,-70.1044 225.5,-70.1043"/>
</g>
<!-- DarwinCoreFile -->
<g id="node5" class="node"><title>DarwinCoreFile</title>
<path fill="#ffffcc" stroke="black" d="M328.25,-636C328.25,-636 239.75,-636 239.75,-636 233.75,-636 227.75,-630 227.75,-624 227.75,-624 227.75,-612 227.75,-612 227.75,-606 233.75,-600 239.75,-600 239.75,-600 328.25,-600 328.25,-600 334.25,-600 340.25,-606 340.25,-612 340.25,-612 340.25,-624 340.25,-624 340.25,-630 334.25,-636 328.25,-636"/>
<text text-anchor="middle" x="284" y="-614.3" font-family="Helvetica,sans-Serif" font-size="14.00">DarwinCoreFile</text>
</g>
<!-- DarwinCoreFile&#45;&gt;Setup -->
<g id="edge4" class="edge"><title>DarwinCoreFile&#45;&gt;Setup</title>
<path fill="none" stroke="black" d="M268.674,-599.697C261.241,-591.305 252.177,-581.07 244.02,-571.861"/>
<polygon fill="black" stroke="black" points="246.4,-569.27 237.15,-564.104 241.16,-573.911 246.4,-569.27"/>
</g>
<!-- OccurrenceFile&#45;&gt;FileToDataStream -->
<g id="edge3" class="edge"><title>OccurrenceFile&#45;&gt;FileToDataStream</title>
<path fill="none" stroke="black" d="M222,-455.697C222,-447.983 222,-438.712 222,-430.112"/>
<polygon fill="black" stroke="black" points="225.5,-430.104 222,-420.104 218.5,-430.104 225.5,-430.104"/>
</g>
<!-- DataRecord&#45;&gt;EnvironmentTagger -->
<g id="edge2" class="edge"><title>DataRecord&#45;&gt;EnvironmentTagger</title>
<path fill="none" stroke="black" d="M222,-311.697C222,-303.983 222,-294.712 222,-286.112"/>
<polygon fill="black" stroke="black" points="225.5,-286.104 222,-276.104 218.5,-286.104 225.5,-286.104"/>
</g>
<!-- TaggedDataRecord&#45;&gt;FilterToJustMarine -->
<g id="edge1" class="edge"><title>TaggedDataRecord&#45;&gt;FilterToJustMarine</title>
<path fill="none" stroke="black" d="M222,-167.697C222,-159.983 222,-150.712 222,-142.112"/>
<polygon fill="black" stroke="black" points="225.5,-142.104 222,-132.104 218.5,-142.104 225.5,-142.104"/>
</g>
<!-- InputFilePath -->
<g id="node10" class="node"><title>InputFilePath</title>
<path fill="#ffffff" stroke="black" d="M197.25,-636C197.25,-636 122.75,-636 122.75,-636 116.75,-636 110.75,-630 110.75,-624 110.75,-624 110.75,-612 110.75,-612 110.75,-606 116.75,-600 122.75,-600 122.75,-600 197.25,-600 197.25,-600 203.25,-600 209.25,-606 209.25,-612 209.25,-612 209.25,-624 209.25,-624 209.25,-630 203.25,-636 197.25,-636"/>
<text text-anchor="middle" x="160" y="-614.3" font-family="Helvetica,sans-Serif" font-size="14.00">InputFilePath</text>
</g>
<!-- InputFilePath&#45;&gt;Setup -->
<g id="edge5" class="edge"><title>InputFilePath&#45;&gt;Setup</title>
<path fill="none" stroke="black" d="M175.326,-599.697C182.759,-591.305 191.823,-581.07 199.98,-571.861"/>
<polygon fill="black" stroke="black" points="202.84,-573.911 206.85,-564.104 197.6,-569.27 202.84,-573.911"/>
</g>
<!-- DarwinCoreFile_inflow -->
<g id="node11" class="node"><title>DarwinCoreFile_inflow</title>
<ellipse fill="none" stroke="black" cx="238" cy="-683" rx="7" ry="7"/>
</g>
<!-- DarwinCoreFile_inflow&#45;&gt;DarwinCoreFile -->
<g id="edge10" class="edge"><title>DarwinCoreFile_inflow&#45;&gt;DarwinCoreFile</title>
<path fill="none" stroke="black" d="M241.922,-676.629C247.132,-669.493 256.692,-656.4 265.384,-644.496"/>
<polygon fill="black" stroke="black" points="268.415,-646.28 271.485,-636.14 262.762,-642.152 268.415,-646.28"/>
</g>
<!-- InputFilePath_inflow -->
<g id="node12" class="node"><title>InputFilePath_inflow</title>
<ellipse fill="none" stroke="black" cx="206" cy="-683" rx="7" ry="7"/>
</g>
<!-- InputFilePath_inflow&#45;&gt;InputFilePath -->
<g id="edge11" class="edge"><title>InputFilePath_inflow&#45;&gt;InputFilePath</title>
<path fill="none" stroke="black" d="M202.078,-676.629C196.868,-669.493 187.308,-656.4 178.616,-644.496"/>
<polygon fill="black" stroke="black" points="181.238,-642.152 172.515,-636.14 175.585,-646.28 181.238,-642.152"/>
</g>
</g>
</svg>
