<?xml version="1.0" encoding="UTF-8" standalone="no"?>
<!DOCTYPE svg PUBLIC "-//W3C//DTD SVG 1.1//EN"
 "http://www.w3.org/Graphics/SVG/1.1/DTD/svg11.dtd">
<!-- Generated by graphviz version 2.36.0 (20140111.2315)
 -->
<!-- Title: yw_data_view Pages: 1 -->
<svg width="456pt" height="804pt"
 viewBox="0.00 0.00 456.00 804.00" xmlns="http://www.w3.org/2000/svg" xmlns:xlink="http://www.w3.org/1999/xlink">
<g id="graph0" class="graph" transform="scale(1 1) rotate(0) translate(4 800)">
<title>yw_data_view</title>
<polygon fill="white" stroke="none" points="-4,4 -4,-800 452,-800 452,4 -4,4"/>
<text text-anchor="middle" x="224" y="-777.6" font-family="Courier,monospace" font-size="18.00">BranchingWorkflow</text>
<g id="clust1" class="cluster"><title>cluster_workflow</title>
<polygon fill="none" stroke="black" stroke-width="2" points="8,-62 8,-706 440,-706 440,-62 8,-62"/>
</g>
<g id="clust2" class="cluster"><title>cluster_workflow_inner</title>
<polygon fill="none" stroke="white" stroke-width="2" points="16,-70 16,-698 432,-698 432,-70 16,-70"/>
</g>
<g id="clust3" class="cluster"><title>cluster_inflows</title>
<polygon fill="none" stroke="white" stroke-width="2" points="130,-714 130,-760 208,-760 208,-714 130,-714"/>
</g>
<g id="clust4" class="cluster"><title>cluster_inflows_inner</title>
<polygon fill="none" stroke="white" stroke-width="2" points="138,-722 138,-752 200,-752 200,-722 138,-722"/>
</g>
<g id="clust5" class="cluster"><title>cluster_outflows</title>
<polygon fill="none" stroke="white" stroke-width="2" points="118,-8 118,-54 164,-54 164,-8 118,-8"/>
</g>
<g id="clust6" class="cluster"><title>cluster_outflows_inner</title>
<polygon fill="none" stroke="white" stroke-width="2" points="126,-16 126,-46 156,-46 156,-16 126,-16"/>
</g>
<!-- FileToDataStream -->
<g id="node1" class="node"><title>FileToDataStream</title>
<polygon fill="#ccffcc" stroke="black" points="197.25,-474 46.75,-474 46.75,-438 197.25,-438 197.25,-474"/>
<text text-anchor="middle" x="122" y="-452.3" font-family="Courier,monospace" font-size="14.00">FileToDataStream</text>
</g>
<!-- DataRecord -->
<g id="node8" class="node"><title>DataRecord</title>
<path fill="#ffffcc" stroke="black" d="M155.25,-402C155.25,-402 88.75,-402 88.75,-402 82.75,-402 76.75,-396 76.75,-390 76.75,-390 76.75,-378 76.75,-378 76.75,-372 82.75,-366 88.75,-366 88.75,-366 155.25,-366 155.25,-366 161.25,-366 167.25,-372 167.25,-378 167.25,-378 167.25,-390 167.25,-390 167.25,-396 161.25,-402 155.25,-402"/>
<text text-anchor="middle" x="122" y="-380.3" font-family="Helvetica,sans-Serif" font-size="14.00">DataRecord</text>
</g>
<!-- FileToDataStream&#45;&gt;DataRecord -->
<g id="edge8" class="edge"><title>FileToDataStream&#45;&gt;DataRecord</title>
<path fill="none" stroke="black" d="M122,-437.697C122,-429.983 122,-420.712 122,-412.112"/>
<polygon fill="black" stroke="black" points="125.5,-412.104 122,-402.104 118.5,-412.104 125.5,-412.104"/>
</g>
<!-- Setup -->
<g id="node2" class="node"><title>Setup</title>
<polygon fill="#ccffcc" stroke="black" points="151.25,-618 92.75,-618 92.75,-582 151.25,-582 151.25,-618"/>
<text text-anchor="middle" x="122" y="-596.3" font-family="Courier,monospace" font-size="14.00">Setup</text>
</g>
<!-- OccurrenceFile -->
<g id="node7" class="node"><title>OccurrenceFile</title>
<path fill="#ffffcc" stroke="black" d="M165.25,-546C165.25,-546 78.75,-546 78.75,-546 72.75,-546 66.75,-540 66.75,-534 66.75,-534 66.75,-522 66.75,-522 66.75,-516 72.75,-510 78.75,-510 78.75,-510 165.25,-510 165.25,-510 171.25,-510 177.25,-516 177.25,-522 177.25,-522 177.25,-534 177.25,-534 177.25,-540 171.25,-546 165.25,-546"/>
<text text-anchor="middle" x="122" y="-524.3" font-family="Helvetica,sans-Serif" font-size="14.00">OccurrenceFile</text>
</g>
<!-- Setup&#45;&gt;OccurrenceFile -->
<g id="edge7" class="edge"><title>Setup&#45;&gt;OccurrenceFile</title>
<path fill="none" stroke="black" d="M122,-581.697C122,-573.983 122,-564.712 122,-556.112"/>
<polygon fill="black" stroke="black" points="125.5,-556.104 122,-546.104 118.5,-556.104 125.5,-556.104"/>
</g>
<!-- FilterExcludingMarine -->
<g id="node3" class="node"><title>FilterExcludingMarine</title>
<polygon fill="#ccffcc" stroke="black" points="237.25,-186 44.75,-186 44.75,-150 237.25,-150 237.25,-186"/>
<text text-anchor="middle" x="141" y="-164.3" font-family="Courier,monospace" font-size="14.00">FilterExcludingMarine</text>
</g>
<!-- LogFile -->
<g id="node9" class="node"><title>LogFile</title>
<path fill="#ffffcc" stroke="black" d="M160,-114C160,-114 122,-114 122,-114 116,-114 110,-108 110,-102 110,-102 110,-90 110,-90 110,-84 116,-78 122,-78 122,-78 160,-78 160,-78 166,-78 172,-84 172,-90 172,-90 172,-102 172,-102 172,-108 166,-114 160,-114"/>
<text text-anchor="middle" x="141" y="-92.3" font-family="Helvetica,sans-Serif" font-size="14.00">LogFile</text>
</g>
<!-- FilterExcludingMarine&#45;&gt;LogFile -->
<g id="edge12" class="edge"><title>FilterExcludingMarine&#45;&gt;LogFile</title>
<path fill="none" stroke="black" d="M141,-149.697C141,-141.983 141,-132.712 141,-124.112"/>
<polygon fill="black" stroke="black" points="144.5,-124.104 141,-114.104 137.5,-124.104 144.5,-124.104"/>
</g>
<!-- FilterToJustMarine -->
<g id="node4" class="node"><title>FilterToJustMarine</title>
<polygon fill="#ccffcc" stroke="black" points="424,-186 256,-186 256,-150 424,-150 424,-186"/>
<text text-anchor="middle" x="340" y="-164.3" font-family="Courier,monospace" font-size="14.00">FilterToJustMarine</text>
</g>
<!-- FilterToJustMarine&#45;&gt;LogFile -->
<g id="edge11" class="edge"><title>FilterToJustMarine&#45;&gt;LogFile</title>
<path fill="none" stroke="black" d="M291.574,-149.966C257.897,-138.12 213.511,-122.506 181.668,-111.305"/>
<polygon fill="black" stroke="black" points="182.81,-107.997 172.215,-107.98 180.487,-114.6 182.81,-107.997"/>
</g>
<!-- EnvironmentTagger -->
<g id="node5" class="node"><title>EnvironmentTagger</title>
<polygon fill="#ccffcc" stroke="black" points="201.25,-330 42.75,-330 42.75,-294 201.25,-294 201.25,-330"/>
<text text-anchor="middle" x="122" y="-308.3" font-family="Courier,monospace" font-size="14.00">EnvironmentTagger</text>
</g>
<!-- EnvironmentTagger&#45;&gt;LogFile -->
<g id="edge9" class="edge"><title>EnvironmentTagger&#45;&gt;LogFile</title>
<path fill="none" stroke="black" d="M97.4985,-293.884C85.4635,-284.449 71.5377,-271.851 62,-258 33.9399,-217.249 8.98826,-192.088 35,-150 49.1972,-127.029 76.6995,-113.68 100.132,-106.126"/>
<polygon fill="black" stroke="black" points="101.285,-109.435 109.875,-103.232 99.2922,-102.725 101.285,-109.435"/>
</g>
<!-- TaggedDataRecord -->
<g id="node10" class="node"><title>TaggedDataRecord</title>
<path fill="#ffffcc" stroke="black" d="M198.25,-258C198.25,-258 83.75,-258 83.75,-258 77.75,-258 71.75,-252 71.75,-246 71.75,-246 71.75,-234 71.75,-234 71.75,-228 77.75,-222 83.75,-222 83.75,-222 198.25,-222 198.25,-222 204.25,-222 210.25,-228 210.25,-234 210.25,-234 210.25,-246 210.25,-246 210.25,-252 204.25,-258 198.25,-258"/>
<text text-anchor="middle" x="141" y="-236.3" font-family="Helvetica,sans-Serif" font-size="14.00">TaggedDataRecord</text>
</g>
<!-- EnvironmentTagger&#45;&gt;TaggedDataRecord -->
<g id="edge10" class="edge"><title>EnvironmentTagger&#45;&gt;TaggedDataRecord</title>
<path fill="none" stroke="black" d="M126.697,-293.697C128.813,-285.898 131.362,-276.509 133.718,-267.829"/>
<polygon fill="black" stroke="black" points="137.116,-268.672 136.357,-258.104 130.36,-266.838 137.116,-268.672"/>
</g>
<!-- DarwinCoreArchive -->
<g id="node6" class="node"><title>DarwinCoreArchive</title>
<path fill="#ffffcc" stroke="black" d="M291.25,-690C291.25,-690 178.75,-690 178.75,-690 172.75,-690 166.75,-684 166.75,-678 166.75,-678 166.75,-666 166.75,-666 166.75,-660 172.75,-654 178.75,-654 178.75,-654 291.25,-654 291.25,-654 297.25,-654 303.25,-660 303.25,-666 303.25,-666 303.25,-678 303.25,-678 303.25,-684 297.25,-690 291.25,-690"/>
<text text-anchor="middle" x="235" y="-668.3" font-family="Helvetica,sans-Serif" font-size="14.00">DarwinCoreArchive</text>
</g>
<!-- DarwinCoreArchive&#45;&gt;Setup -->
<g id="edge5" class="edge"><title>DarwinCoreArchive&#45;&gt;Setup</title>
<path fill="none" stroke="black" d="M207.357,-653.876C192.582,-644.724 174.209,-633.342 158.297,-623.485"/>
<polygon fill="black" stroke="black" points="160.093,-620.481 149.749,-618.19 156.407,-626.431 160.093,-620.481"/>
</g>
<!-- OccurrenceFile&#45;&gt;FileToDataStream -->
<g id="edge4" class="edge"><title>OccurrenceFile&#45;&gt;FileToDataStream</title>
<path fill="none" stroke="black" d="M122,-509.697C122,-501.983 122,-492.712 122,-484.112"/>
<polygon fill="black" stroke="black" points="125.5,-484.104 122,-474.104 118.5,-484.104 125.5,-484.104"/>
</g>
<!-- DataRecord&#45;&gt;EnvironmentTagger -->
<g id="edge3" class="edge"><title>DataRecord&#45;&gt;EnvironmentTagger</title>
<path fill="none" stroke="black" d="M122,-365.697C122,-357.983 122,-348.712 122,-340.112"/>
<polygon fill="black" stroke="black" points="125.5,-340.104 122,-330.104 118.5,-340.104 125.5,-340.104"/>
</g>
<!-- LogFile_outflow -->
<g id="node14" class="node"><title>LogFile_outflow</title>
<ellipse fill="none" stroke="black" cx="141" cy="-31" rx="7" ry="7"/>
</g>
<!-- LogFile&#45;&gt;LogFile_outflow -->
<g id="edge15" class="edge"><title>LogFile&#45;&gt;LogFile_outflow</title>
<path fill="none" stroke="black" d="M141,-77.785C141,-68.6656 141,-57.5197 141,-48.5085"/>
<polygon fill="black" stroke="black" points="144.5,-48.242 141,-38.242 137.5,-48.2421 144.5,-48.242"/>
</g>
<!-- TaggedDataRecord&#45;&gt;FilterExcludingMarine -->
<g id="edge1" class="edge"><title>TaggedDataRecord&#45;&gt;FilterExcludingMarine</title>
<path fill="none" stroke="black" d="M141,-221.697C141,-213.983 141,-204.712 141,-196.112"/>
<polygon fill="black" stroke="black" points="144.5,-196.104 141,-186.104 137.5,-196.104 144.5,-196.104"/>
</g>
<!-- TaggedDataRecord&#45;&gt;FilterToJustMarine -->
<g id="edge2" class="edge"><title>TaggedDataRecord&#45;&gt;FilterToJustMarine</title>
<path fill="none" stroke="black" d="M189.426,-221.966C217.231,-212.185 252.336,-199.836 281.654,-189.524"/>
<polygon fill="black" stroke="black" points="283.084,-192.731 291.356,-186.111 280.762,-186.127 283.084,-192.731"/>
</g>
<!-- DwCA_URI -->
<g id="node11" class="node"><title>DwCA_URI</title>
<path fill="#ffffff" stroke="black" d="M136,-690C136,-690 72,-690 72,-690 66,-690 60,-684 60,-678 60,-678 60,-666 60,-666 60,-660 66,-654 72,-654 72,-654 136,-654 136,-654 142,-654 148,-660 148,-666 148,-666 148,-678 148,-678 148,-684 142,-690 136,-690"/>
<text text-anchor="middle" x="104" y="-668.3" font-family="Helvetica,sans-Serif" font-size="14.00">DwCA_URI</text>
</g>
<!-- DwCA_URI&#45;&gt;Setup -->
<g id="edge6" class="edge"><title>DwCA_URI&#45;&gt;Setup</title>
<path fill="none" stroke="black" d="M108.449,-653.697C110.455,-645.898 112.869,-636.509 115.101,-627.829"/>
<polygon fill="black" stroke="black" points="118.501,-628.661 117.602,-618.104 111.722,-626.918 118.501,-628.661"/>
</g>
<!-- DarwinCoreArchive_inflow -->
<g id="node12" class="node"><title>DarwinCoreArchive_inflow</title>
<ellipse fill="none" stroke="black" cx="185" cy="-737" rx="7" ry="7"/>
</g>
<!-- DarwinCoreArchive_inflow&#45;&gt;DarwinCoreArchive -->
<g id="edge13" class="edge"><title>DarwinCoreArchive_inflow&#45;&gt;DarwinCoreArchive</title>
<path fill="none" stroke="black" d="M188.923,-731.056C194.535,-723.986 205.247,-710.489 214.93,-698.288"/>
<polygon fill="black" stroke="black" points="217.92,-700.151 221.395,-690.142 212.437,-695.799 217.92,-700.151"/>
</g>
<!-- DwCA_URI_inflow -->
<g id="node13" class="node"><title>DwCA_URI_inflow</title>
<ellipse fill="none" stroke="black" cx="153" cy="-737" rx="7" ry="7"/>
</g>
<!-- DwCA_URI_inflow&#45;&gt;DwCA_URI -->
<g id="edge14" class="edge"><title>DwCA_URI_inflow&#45;&gt;DwCA_URI</title>
<path fill="none" stroke="black" d="M149.155,-731.056C143.656,-723.986 133.158,-710.489 123.668,-698.288"/>
<polygon fill="black" stroke="black" points="126.235,-695.887 117.333,-690.142 120.71,-700.185 126.235,-695.887"/>
</g>
</g>
</svg>
